<svg xmlns="http://www.w3.org/2000/svg">
<defs>
<font id="DBOzoneX-Medium" horiz-adv-x="0" >
  <font-face 
    font-family="DB Ozone X Med"
    font-weight="500"
    font-stretch="normal"
    units-per-em="4096"
    panose-1="2 0 5 6 9 0 0 2 0 4"
    ascent="3276"
    descent="-820"
    x-height="1556"
    cap-height="2060"
    bbox="-2068 -1458 3535 3371"
    underline-thickness="82"
    underline-position="-463"
    unicode-range="U+0020-U+F882"
  />
<missing-glyph horiz-adv-x="1421" 
d="M1446 1372v-49h20c16.667 0 25 9.66699 25 29c0 2.66699 -1.33301 6.66699 -4 12s-9.66699 8 -21 8h-20zM1458 1319h-12v-45h-16v115h36c27.333 0 41 -12.333 41 -37c0 -14 -3.33301 -23 -10 -27s-14 -6 -22 -6l32 -45h-16zM1466 1253c30 0 49.833 8.33301 59.5 25
s14.5 31.667 14.5 45c0 24.667 -6.16699 44.5 -18.5 59.5s-30.833 22.5 -55.5 22.5c-24 0 -42.833 -7.5 -56.5 -22.5s-20.5 -34.833 -20.5 -59.5c0 -19.333 6.83301 -35.833 20.5 -49.5s32.5 -20.5 56.5 -20.5zM1466 1417c30 0 51.833 -9.5 65.5 -28.5
s20.5 -40.833 20.5 -65.5c0 -19.333 -6.83301 -37.166 -20.5 -53.499s-35.5 -24.5 -65.5 -24.5c-24 0 -44.333 8.16699 -61 24.5s-25 34.166 -25 53.499c0 24.667 8.33301 46.5 25 65.5s37 28.5 61 28.5zM688 1085c35.333 -2.66699 78.3301 -7.33105 128.997 -13.998
s100.5 -14.834 149.5 -24.501s93.333 -20.667 133 -33s71.834 -26.5 96.501 -42.5c-49.333 90 -121.666 159.5 -216.999 208.5s-193.666 73.5 -294.999 73.5c-76.667 0 -150.5 -15 -221.5 -45s-129.5 -75 -175.5 -135c43.333 5.33301 85.5 8.66602 126.5 9.99902
s82.167 2 123.5 2h75h76zM1286 1352l-0.00195312 -483.997c-109.333 33.333 -235 62.166 -377 86.499s-290.667 36.5 -446 36.5c-109.333 0 -217.333 -6.66699 -324 -20c16.667 52 39.334 101.167 68.001 147.5s66.167 87.166 112.5 122.499s99.5 62.666 159.5 81.999
s127 29 201 29c68 0 131.333 -7.5 190 -22.5s109.167 -33.5 151.5 -55.5s77.833 -47.333 106.5 -76s51.334 -54 68.001 -76l-2 24.5c-1.33301 16.333 -2 37.5 -2 63.5v80v62h94zM523.995 438.006c0 16.667 -6.16699 29.834 -18.5 39.501s-25.166 14.5 -38.499 14.5

<glyph glyph-name="plusminus" unicode="&#x2b;&#x2d;" horiz-adv-x="1692" 
d="M1044 918v-525h-294v525h-517v274h517v524h294v-524h517v-274h-517zM1561 279v-279h-1328v279h1328z" />
    <glyph glyph-name="ellipsis" unicode="&#x2e;&#x2e;&#x2e;" horiz-adv-x="2404" 
d="M1769 180c0 30 5.5 57.833 16.5 83.5s26.167 48.167 45.5 67.5s42 34.5 68 45.5s53.667 16.5 83 16.5c30 0 57.833 -5.5 83.5 -16.5s48.167 -26.167 67.5 -45.5s34.5 -41.833 45.5 -67.5s16.5 -53.5 16.5 -83.5s-5.5 -57.833 -16.5 -83.5s-26.167 -48.167 -45.5 -67.5
s-41.833 -34.5 -67.5 -45.5s-53.5 -16.5 -83.5 -16.5c-29.333 0 -57 5.5 -83 16.5s-48.667 26.167 -68 45.5s-34.5 41.833 -45.5 67.5s-16.5 53.5 -16.5 83.5zM991 180c0 30 5.33301 57.833 16 83.5s25.334 48.167 44.001 67.5s40.667 34.5 66 45.5s53 16.5 83 16.5
s57.833 -5.5 83.5 -16.5s48.167 -26.167 67.5 -45.5s34.5 -41.833 45.5 -67.5s16.5 -53.5 16.5 -83.5s-5.5 -57.833 -16.5 -83.5s-26.167 -48.167 -45.5 -67.5s-41.833 -34.5 -67.5 -45.5s-53.5 -16.5 -83.5 -16.5s-57.667 5.5 -83 16.5s-47.333 26.167 -66 45.5
s-33.334 41.833 -44.001 67.5s-16 53.5 -16 83.5zM209 180c0 30 5.33301 57.833 16 83.5s25.334 48.167 44.001 67.5s40.667 34.5 66 45.5s53 16.5 83 16.5c30.667 0 59 -5.5 85 -16.5s48.5 -26.167 67.5 -45.5s33.833 -41.833 44.5 -67.5s16 -53.5 16 -83.5
s-5.33301 -57.833 -16 -83.5s-25.5 -48.167 -44.5 -67.5s-41.5 -34.5 -67.5 -45.5s-54.333 -16.5 -85 -16.5c-30 0 -57.667 5.5 -83 16.5s-47.333 26.167 -66 45.5s-33.334 41.833 -44.001 67.5s-16 53.5 -16 83.5z" />
    <glyph glyph-name="lessequal" unicode="&#x3c;&#x3d;" horiz-adv-x="1769" 
d="M1618 451l-1462 565v241l1462 570v-320l-979 -368l979 -369v-319zM156 8v291h1462v-291h-1462z" />
    <glyph glyph-name="greaterequal" unicode="&#x3e;&#x3d;" horiz-adv-x="1769" 
d="M156 770l974 369l-974 368v320l1462 -570v-241l-1462 -565v319zM1618 8v291h-1462v-291h1462z" />
    <glyph glyph-name="fongmanfunnuthai" unicode="&#xe4f;&#x22;" horiz-adv-x="2093" 
d="M659 1868l-24 573h311l-24 -573h-263zM1155 1868l-25 573h312l-25 -573h-262zM406 819c0 -58 7.66699 -114 23 -168s36.666 -104.5 63.999 -151.5s60.5 -89.833 99.5 -128.5s81.833 -71.834 128.5 -99.501s97 -49.167 151 -64.5s110 -23 168 -23
c59.333 0 116.5 7.66699 171.5 23s106.333 36.833 154 64.5s91 60.834 130 99.501s72.333 81.5 100 128.5s49.167 97.5 64.5 151.5s23 110 23 168c0 89.333 -16.833 173 -50.5 251s-79.5 146 -137.5 204s-126 103.833 -204 137.5s-161.667 50.5 -251 50.5
c-58 0 -114 -7.66699 -168 -23s-104.333 -36.833 -151 -64.5s-89.5 -61 -128.5 -100s-72.167 -82.333 -99.5 -130s-48.666 -99 -63.999 -154s-23 -112.167 -23 -171.5zM569 819c0 65.333 12.5 126.833 37.5 184.5s58.833 108 101.5 151s92.5 77 149.5 102
s117.833 37.5 182.5 37.5c66 0 127.833 -12.5 185.5 -37.5s108 -59 151 -102s77 -93.333 102 -151s37.5 -119.167 37.5 -184.5c0 -64.667 -12.5 -125.5 -37.5 -182.5s-59 -106.833 -102 -149.5s-93.333 -76.5 -151 -101.5s-119.5 -37.5 -185.5 -37.5
c-64.667 0 -125.5 12.5 -182.5 37.5s-106.833 58.833 -149.5 101.5s-76.5 92.5 -101.5 149.5s-37.5 117.833 -37.5 182.5zM143 819c0 84 10.667 164.667 32 242s51.5 149.5 90.5 216.5s85.833 128 140.5 183s115.167 102 181.5 141s137.666 69.167 213.999 90.5
s155.833 32 238.5 32c84 0 164.667 -10.667 242 -32s149.666 -51.5 216.999 -90.5s128.333 -86 183 -141s101.667 -116 141 -183s69.666 -139.167 90.999 -216.5s32 -158 32 -242c0 -82.667 -10.667 -162.167 -32 -238.5s-51.666 -147.666 -90.999 -213.999
s-86.333 -126.833 -141 -181.5s-115.667 -101.5 -183 -140.5s-139.666 -69.167 -216.999 -90.5s-158 -32 -242 -32c-82.667 0 -162.167 10.667 -238.5 32s-147.666 51.5 -213.999 90.5s-126.833 85.833 -181.5 140.5s-101.5 115.167 -140.5 181.5
s-69.167 137.666 -90.5 213.999s-32 155.833 -32 238.5zM823 819c0 -30 5.83301 -58.167 17.5 -84.5s27.334 -49.333 47.001 -69s42.667 -35.167 69 -46.5s54.166 -17 83.499 -17c30.667 0 59.5 5.66699 86.5 17s50.5 26.833 70.5 46.5s35.833 42.667 47.5 69
s17.5 54.5 17.5 84.5c0 30.667 -5.83301 59.5 -17.5 86.5s-27.5 50.5 -47.5 70.5s-43.5 35.667 -70.5 47s-55.833 17 -86.5 17c-29.333 0 -57.166 -5.66699 -83.499 -17s-49.333 -27 -69 -47s-35.334 -43.5 -47.001 -70.5s-17.5 -55.833 -17.5 -86.5z" />
    <glyph glyph-name="dochadaphinthuthai" unicode="&#xe0e;&#xe3a;" horiz-adv-x="1896" 
d="M635 414c0 -62.667 -8.16309 -116.501 -24.4961 -161.501s-37.833 -83 -64.5 -114s-57.334 -55.833 -92.001 -74.5s-70 -33 -106 -43s-71.5 -16.667 -106.5 -20s-66.5 -5 -94.5 -5l-61 295c37.333 -1.33301 68.666 0 93.999 4s46 10 62 18s28.167 17.5 36.5 28.5
s14.333 22.667 18 35s5.66699 24.833 6 37.5s0.5 25 0.5 37v528l-156 221c94.667 158 208 276 340 354s285 117 459 117c124 0 232.167 -14.333 324.5 -43s169.166 -70.667 230.499 -126s107.5 -123.333 138.5 -204s47.167 -173.334 48.5 -278.001v-1282
c0 -49.333 -7.33301 -91.833 -22 -127.5s-32 -65.667 -52 -90s-40.5 -43.5 -61.5 -57.5s-37.5 -23.333 -49.5 -28c-16 -7.33301 -34.167 -13 -54.5 -17s-41.5 -6.16699 -63.5 -6.5s-44 1.5 -66 5.5s-42.667 10 -62 18l-356 155c-9.33301 4.66699 -19 4.66699 -29 0
l-421 -204l-185 221l520 250c18.667 9.33301 35.5 16.333 50.5 21s30.167 7 45.5 7s31.333 -2.33301 48 -7s35.667 -11.667 57 -21l336 -144c6 -2 13 -0.833008 21 3.5s12 12.833 12 25.5v1249c0 70.667 -9.16699 130.834 -27.5 180.501s-45 90.334 -80 122.001
s-78.167 54.667 -129.5 69s-110.333 21.5 -177 21.5c-36 0 -72 -3 -108 -9s-71.5 -15.667 -106.5 -29s-69.333 -30.5 -103 -51.5s-65.834 -46.833 -96.501 -77.5l107 -156v-647zM1315 -995.001c0 28.667 5.33301 55.334 16 80.001s25.167 46.167 43.5 64.5
s40 32.833 65 43.5s51.833 16 80.5 16s55.334 -5.33301 80.001 -16s46.167 -25.167 64.5 -43.5s32.833 -39.833 43.5 -64.5s16 -51.334 16 -80.001s-5.33301 -55.5 -16 -80.5s-25.167 -46.667 -43.5 -65s-39.833 -32.833 -64.5 -43.5s-51.334 -16 -80.001 -16
s-55.5 5.33301 -80.5 16s-46.667 25.167 -65 43.5s-32.833 40 -43.5 65s-16 51.833 -16 80.5z" />
    <glyph glyph-name="topatakphintuthai" unicode="&#xe0f;&#xe3a;" horiz-adv-x="1901" 
d="M1356 995c0 70.667 -9.16406 130.672 -27.4971 180.005s-45 89.5 -80 120.5s-78.167 53.5 -129.5 67.5s-110.333 21 -177 21c-34.667 0 -70 -3 -106 -9s-71.667 -15.667 -107 -29s-70 -30.5 -104 -51.5s-66.333 -46.833 -97 -77.5l107 -152v-651
c0 -62.667 -8.16699 -116.5 -24.5 -161.5s-37.833 -83 -64.5 -114s-57.334 -55.833 -92.001 -74.5s-70 -33 -106 -43s-71.5 -16.667 -106.5 -20s-66.5 -5 -94.5 -5l-61 299c56 -2 98.833 1.66699 128.5 11s51 21.833 64 37.5s20.333 33.167 22 52.5s2.5 37.666 2.5 54.999
v528l-156 221c94.667 158 208 276 340 354s285 117 459 117c124 0 232.167 -14.333 324.5 -43s169.166 -70.667 230.499 -126s107.5 -123.333 138.5 -204s47.167 -173.334 48.5 -278.001v-1299c0 -40 -7.83301 -79.667 -23.5 -119s-37 -74.666 -64 -105.999
s-59.167 -56.833 -96.5 -76.5s-77.333 -29.5 -120 -29.5c-45.333 0 -90.333 12.333 -135 37l-245 135c-10.667 6 -19.334 8.5 -26.001 7.5s-13.334 -3.5 -20.001 -7.5l-225 -135c-21.333 -12.667 -42.166 -21.334 -62.499 -26.001s-39.833 -6.33398 -58.5 -5.00098
s-36.5 5.16602 -53.5 11.499s-32.5 14.166 -46.5 23.499l-422 290l279 160l237 -164c10.667 -8 20.5 -12 29.5 -12s19.833 4 32.5 12l204 127c38.667 24.667 75.167 35.5 109.5 32.5s68.833 -13.833 103.5 -32.5l242 -135c8 -4 14.833 -3 20.5 3s8.5 13.333 8.5 22v1261z
M1315 -994.995c0 28.667 5.33301 55.334 16 80.001s25.167 46.167 43.5 64.5s40 32.833 65 43.5s51.833 16 80.5 16s55.334 -5.33301 80.001 -16s46.167 -25.167 64.5 -43.5s32.833 -39.833 43.5 -64.5s16 -51.334 16 -80.001s-5.33301 -55.5 -16 -80.5
s-25.167 -46.667 -43.5 -65s-39.833 -32.833 -64.5 -43.5s-51.334 -16 -80.001 -16s-55.5 5.33301 -80.5 16s-46.667 25.167 -65 43.5s-32.833 40 -43.5 65s-16 51.833 -16 80.5z" />
    <glyph glyph-name="dochadasarauthai" unicode="&#xe0e;&#xe38;" horiz-adv-x="1901" 
d="M635 414c0 -62.667 -8.16309 -116.501 -24.4961 -161.501s-37.833 -83 -64.5 -114s-57.334 -55.833 -92.001 -74.5s-70 -33 -106 -43s-71.5 -16.667 -106.5 -20s-66.5 -5 -94.5 -5l-61 295c37.333 -1.33301 68.666 0 93.999 4s46 10 62 18s28.167 17.5 36.5 28.5
s14.333 22.667 18 35s5.66699 24.833 6 37.5s0.5 25 0.5 37v528l-156 221c94.667 158 208 276 340 354s285 117 459 117c124 0 232.167 -14.333 324.5 -43s169.166 -70.667 230.499 -126s107.5 -123.333 138.5 -204s47.167 -173.334 48.5 -278.001v-1282
c0 -49.333 -7.33301 -91.833 -22 -127.5s-32 -65.667 -52 -90s-40.5 -43.5 -61.5 -57.5s-37.5 -23.333 -49.5 -28c-16 -7.33301 -34.167 -13 -54.5 -17s-41.5 -6.16699 -63.5 -6.5s-44 1.5 -66 5.5s-42.667 10 -62 18l-356 155c-9.33301 4.66699 -19 4.66699 -29 0
l-421 -204l-185 221l520 250c18.667 9.33301 35.5 16.333 50.5 21s30.167 7 45.5 7s31.333 -2.33301 48 -7s35.667 -11.667 57 -21l336 -144c6 -2 13 -0.833008 21 3.5s12 12.833 12 25.5v1249c0 70.667 -9.16699 130.834 -27.5 180.501s-45 90.334 -80 122.001
s-78.167 54.667 -129.5 69s-110.333 21.5 -177 21.5c-36 0 -72 -3 -108 -9s-71.5 -15.667 -106.5 -29s-69.333 -30.5 -103 -51.5s-65.834 -46.833 -96.501 -77.5l107 -156v-647zM1372 -1159c0 16 -0.833008 29 -2.5 39s-4.33398 17.5 -8.00098 22.5s-8.66699 8.33301 -15 10
s-14.166 2.5 -23.499 2.5h-123v286h143c63.333 0 117 -4.5 161 -13.5s79.667 -26.5 107 -52.5s47 -62.5 59 -109.5s18 -108.5 18 -184.5v-295h-316v295z" />
    <glyph glyph-name="topataksarauthai" unicode="&#xe0f;&#xe38;" horiz-adv-x="1901" 
d="M1356 995c0 70.667 -9.16406 130.672 -27.4971 180.005s-45 89.5 -80 120.5s-78.167 53.5 -129.5 67.5s-110.333 21 -177 21c-34.667 0 -70 -3 -106 -9s-71.667 -15.667 -107 -29s-70 -30.5 -104 -51.5s-66.333 -46.833 -97 -77.5l107 -152v-651
c0 -62.667 -8.16699 -116.5 -24.5 -161.5s-37.833 -83 -64.5 -114s-57.334 -55.833 -92.001 -74.5s-70 -33 -106 -43s-71.5 -16.667 -106.5 -20s-66.5 -5 -94.5 -5l-61 299c56 -2 98.833 1.66699 128.5 11s51 21.833 64 37.5s20.333 33.167 22 52.5s2.5 37.666 2.5 54.999
v528l-156 221c94.667 158 208 276 340 354s285 117 459 117c124 0 232.167 -14.333 324.5 -43s169.166 -70.667 230.499 -126s107.5 -123.333 138.5 -204s47.167 -173.334 48.5 -278.001v-1299c0 -40 -7.83301 -79.667 -23.5 -119s-37 -74.666 -64 -105.999
s-59.167 -56.833 -96.5 -76.5s-77.333 -29.5 -120 -29.5c-45.333 0 -90.333 12.333 -135 37l-245 135c-10.667 6 -19.334 8.5 -26.001 7.5s-13.334 -3.5 -20.001 -7.5l-225 -135c-21.333 -12.667 -42.166 -21.334 -62.499 -26.001s-39.833 -6.33398 -58.5 -5.00098
s-36.5 5.16602 -53.5 11.499s-32.5 14.166 -46.5 23.499l-422 290l279 160l237 -164c10.667 -8 20.5 -12 29.5 -12s19.833 4 32.5 12l204 127c38.667 24.667 75.167 35.5 109.5 32.5s68.833 -13.833 103.5 -32.5l242 -135c8 -4 14.833 -3 20.5 3s8.5 13.333 8.5 22v1261z
M1368 -1159c0 16 -0.833008 29 -2.5 39s-4.33398 17.5 -8.00098 22.5s-8.66699 8.33301 -15 10s-14.166 2.5 -23.499 2.5h-123v286h143c63.333 0 117 -4.5 161 -13.5s79.5 -26.5 106.5 -52.5s46.5 -62.5 58.5 -109.5s18 -108.5 18 -184.5v-295h-315v295z" />
    <glyph glyph-name="dochadasarauuthai" unicode="&#xe0e;&#xe39;" horiz-adv-x="1901" 
d="M635 414c0 -62.667 -8.16309 -116.501 -24.4961 -161.501s-37.833 -83 -64.5 -114s-57.334 -55.833 -92.001 -74.5s-70 -33 -106 -43s-71.5 -16.667 -106.5 -20s-66.5 -5 -94.5 -5l-61 295c37.333 -1.33301 68.666 0 93.999 4s46 10 62 18s28.167 17.5 36.5 28.5
s14.333 22.667 18 35s5.66699 24.833 6 37.5s0.5 25 0.5 37v528l-156 221c94.667 158 208 276 340 354s285 117 459 117c124 0 232.167 -14.333 324.5 -43s169.166 -70.667 230.499 -126s107.5 -123.333 138.5 -204s47.167 -173.334 48.5 -278.001v-1282
c0 -49.333 -7.33301 -91.833 -22 -127.5s-32 -65.667 -52 -90s-40.5 -43.5 -61.5 -57.5s-37.5 -23.333 -49.5 -28c-16 -7.33301 -34.167 -13 -54.5 -17s-41.5 -6.16699 -63.5 -6.5s-44 1.5 -66 5.5s-42.667 10 -62 18l-356 155c-9.33301 4.66699 -19 4.66699 -29 0
l-421 -204l-185 221l520 250c18.667 9.33301 35.5 16.333 50.5 21s30.167 7 45.5 7s31.333 -2.33301 48 -7s35.667 -11.667 57 -21l336 -144c6 -2 13 -0.833008 21 3.5s12 12.833 12 25.5v1249c0 70.667 -9.16699 130.834 -27.5 180.501s-45 90.334 -80 122.001
s-78.167 54.667 -129.5 69s-110.333 21.5 -177 21.5c-36 0 -72 -3 -108 -9s-71.5 -15.667 -106.5 -29s-69.333 -30.5 -103 -51.5s-65.834 -46.833 -96.501 -77.5l107 -156v-647zM922.004 -1102c0 4 -0.833984 9.16699 -2.50098 15.5s-7.83398 9.5 -18.501 9.5h-110v274h167
c52 0 95.5 -5.16699 130.5 -15.5s62.833 -26.5 83.5 -48.5s35.334 -50.667 44.001 -86s13 -78 13 -128v-21c0 -8 1.16699 -16.5 3.5 -25.5s6.33301 -17 12 -24s13.167 -12.833 22.5 -17.5s21.333 -7 36 -7c14 0 25.5 2.33301 34.5 7s16 10.5 21 17.5s8.5 15 10.5 24
s3 17.5 3 25.5v299h311v-299c0 -53.333 -9.5 -101.833 -28.5 -145.5s-45.333 -81.167 -79 -112.5s-73.667 -55.5 -120 -72.5s-97.166 -25.5 -152.499 -25.5c-58.667 0 -111.5 8.5 -158.5 25.5s-87 41.167 -120 72.5s-58.333 68.833 -76 112.5s-26.5 92.167 -26.5 145.5z" />
    <glyph glyph-name="topataksarauuthai" unicode="&#xe0f;&#xe39;" horiz-adv-x="1901" 
d="M1356 995c0 70.667 -9.16406 130.672 -27.4971 180.005s-45 89.5 -80 120.5s-78.167 53.5 -129.5 67.5s-110.333 21 -177 21c-34.667 0 -70 -3 -106 -9s-71.667 -15.667 -107 -29s-70 -30.5 -104 -51.5s-66.333 -46.833 -97 -77.5l107 -152v-651
c0 -62.667 -8.16699 -116.5 -24.5 -161.5s-37.833 -83 -64.5 -114s-57.334 -55.833 -92.001 -74.5s-70 -33 -106 -43s-71.5 -16.667 -106.5 -20s-66.5 -5 -94.5 -5l-61 299c56 -2 98.833 1.66699 128.5 11s51 21.833 64 37.5s20.333 33.167 22 52.5s2.5 37.666 2.5 54.999
v528l-156 221c94.667 158 208 276 340 354s285 117 459 117c124 0 232.167 -14.333 324.5 -43s169.166 -70.667 230.499 -126s107.5 -123.333 138.5 -204s47.167 -173.334 48.5 -278.001v-1299c0 -40 -7.83301 -79.667 -23.5 -119s-37 -74.666 -64 -105.999
s-59.167 -56.833 -96.5 -76.5s-77.333 -29.5 -120 -29.5c-45.333 0 -90.333 12.333 -135 37l-245 135c-10.667 6 -19.334 8.5 -26.001 7.5s-13.334 -3.5 -20.001 -7.5l-225 -135c-21.333 -12.667 -42.166 -21.334 -62.499 -26.001s-39.833 -6.33398 -58.5 -5.00098
s-36.5 5.16602 -53.5 11.499s-32.5 14.166 -46.5 23.499l-422 290l279 160l237 -164c10.667 -8 20.5 -12 29.5 -12s19.833 4 32.5 12l204 127c38.667 24.667 75.167 35.5 109.5 32.5s68.833 -13.833 103.5 -32.5l242 -135c8 -4 14.833 -3 20.5 3s8.5 13.333 8.5 22v1261z
M922.003 -1102c0 4 -0.833984 9.16699 -2.50098 15.5s-7.83398 9.5 -18.501 9.5h-110v274h167c52 0 95.5 -5.16699 130.5 -15.5s62.833 -26.5 83.5 -48.5s35.334 -50.667 44.001 -86s13 -78 13 -128v-21c0 -8 1.16699 -16.5 3.5 -25.5s6.33301 -17 12 -24
s13.167 -12.833 22.5 -17.5s21.333 -7 36 -7c14 0 25.5 2.33301 34.5 7s16 10.5 21 17.5s8.5 15 10.5 24s3 17.5 3 25.5v299h311v-299c0 -53.333 -9.5 -101.833 -28.5 -145.5s-45.333 -81.167 -79 -112.5s-73.667 -55.5 -120 -72.5s-97.166 -25.5 -152.499 -25.5
c-58.667 0 -111.5 8.5 -158.5 25.5s-87 41.167 -120 72.5s-58.333 68.833 -76 112.5s-26.5 92.167 -26.5 145.5z" />
    <glyph glyph-name=".notdef" horiz-adv-x="1421" 
d="M1446 1372v-49h20c16.667 0 25 9.66699 25 29c0 2.66699 -1.33301 6.66699 -4 12s-9.66699 8 -21 8h-20zM1458 1319h-12v-45h-16v115h36c27.333 0 41 -12.333 41 -37c0 -14 -3.33301 -23 -10 -27s-14 -6 -22 -6l32 -45h-16zM1466 1253c30 0 49.833 8.33301 59.5 25
s14.5 31.667 14.5 45c0 24.667 -6.16699 44.5 -18.5 59.5s-30.833 22.5 -55.5 22.5c-24 0 -42.833 -7.5 -56.5 -22.5s-20.5 -34.833 -20.5 -59.5c0 -19.333 6.83301 -35.833 20.5 -49.5s32.5 -20.5 56.5 -20.5zM1466 1417c30 0 51.833 -9.5 65.5 -28.5
s20.5 -40.833 20.5 -65.5c0 -19.333 -6.83301 -37.166 -20.5 -53.499s-35.5 -24.5 -65.5 -24.5c-24 0 -44.333 8.16699 -61 24.5s-25 34.166 -25 53.499c0 24.667 8.33301 46.5 25 65.5s37 28.5 61 28.5zM688 1085c35.333 -2.66699 78.3301 -7.33105 128.997 -13.998
s100.5 -14.834 149.5 -24.501s93.333 -20.667 133 -33s71.834 -26.5 96.501 -42.5c-49.333 90 -121.666 159.5 -216.999 208.5s-193.666 73.5 -294.999 73.5c-76.667 0 -150.5 -15 -221.5 -45s-129.5 -75 -175.5 -135c43.333 5.33301 85.5 8.66602 126.5 9.99902
s82.167 2 123.5 2h75h76zM1286 1352l-0.00195312 -483.997c-109.333 33.333 -235 62.166 -377 86.499s-290.667 36.5 -446 36.5c-109.333 0 -217.333 -6.66699 -324 -20c16.667 52 39.334 101.167 68.001 147.5s66.167 87.166 112.5 122.499s99.5 62.666 159.5 81.999
s127 29 201 29c68 0 131.333 -7.5 190 -22.5s109.167 -33.5 151.5 -55.5s77.833 -47.333 106.5 -76s51.334 -54 68.001 -76l-2 24.5c-1.33301 16.333 -2 37.5 -2 63.5v80v62h94zM523.995 438.006c0 16.667 -6.16699 29.834 -18.5 39.501s-25.166 14.5 -38.499 14.5
c-16.667 0 -31 -4.83301 -43 -14.5s-18 -22.834 -18 -39.501c0 -21.333 6 -35.5 18 -42.5s26.333 -10.5 43 -10.5c13.333 0 26.166 3.5 38.499 10.5s18.5 21.167 18.5 42.5zM110.995 475.006c0 52 9.50098 99.168 28.501 141.501s46.167 77.166 81.5 104.499
s74.166 47.833 116.499 61.5s88.166 20.5 137.499 20.5c44 0 87.167 -6.16699 129.5 -18.5s80.5 -31.5 114.5 -57.5s59.833 -58.167 77.5 -96.5s26.5 -84.5 26.5 -138.5v-398h369v688h94v-778h-651v90h102v406c0 68 -24.5 119.167 -73.5 153.5s-111.833 51.5 -188.5 51.5
c-68 0 -128.667 -19.167 -182 -57.5s-80 -90.166 -80 -155.499v-369l193 201c-8.66699 2.66699 -22.5 13.5 -41.5 32.5s-28.5 46.167 -28.5 81.5c0 38.667 12.333 70.167 37 94.5s58.667 36.5 102 36.5c38 0 68.667 -12.833 92 -38.5s35 -56.5 35 -92.5
c0 -32.667 -6.16699 -57.834 -18.5 -75.501s-22.5 -30.5 -30.5 -38.5c-5.33301 -6 -25.166 -26 -59.499 -60s-71.833 -68.667 -112.5 -104l-164 -156h-106v471z" />
    <glyph glyph-name="space" unicode=" " horiz-adv-x="856" 
 />
    <glyph glyph-name="exclam" unicode="!" horiz-adv-x="983" 
d="M672 655h-262l-54 1413h365zM348 168c0 28 4.83301 53.667 14.5 77s23.167 43.5 40.5 60.5s37.666 30.333 60.999 40s49 14.5 77 14.5c26.667 0 51.667 -4.83301 75 -14.5s43.666 -23 60.999 -40s31 -37.167 41 -60.5s15 -49 15 -77c0 -26.667 -5 -51.667 -15 -75
s-23.667 -43.833 -41 -61.5s-37.666 -31.5 -60.999 -41.5s-48.333 -15 -75 -15c-28 0 -53.667 5 -77 15s-43.666 23.833 -60.999 41.5s-30.833 38.167 -40.5 61.5s-14.5 48.333 -14.5 75z" />
    <glyph glyph-name="quotedbl" unicode="&#x22;" horiz-adv-x="1315" 
d="M782 1532v590h312v-590h-312zM221 1532v590h311v-590h-311z" />
    <glyph glyph-name="numbersign" unicode="#" horiz-adv-x="2011" 
d="M467 893l53 336h-233v291h278l86 540h336l-86 -540h365l86 540h331l-86 -540h222v-291h-267l-53 -336h221v-295h-274l-90 -598h-332l94 598h-368l-91 -598h-335l94 598h-225v295h274zM803 893h364l54 336h-365z" />
    <glyph glyph-name="dollar" unicode="$" horiz-adv-x="1696" 
d="M1585 586c0 -86 -14.8369 -164 -44.5039 -234s-71.5 -131 -125.5 -183s-119.333 -94 -196 -126s-162 -53 -256 -63v-324h-263v311c-67.333 4 -131 12.5 -191 25.5s-117.167 31 -171.5 54s-106.333 51.5 -156 85.5s-97.834 74.667 -144.501 122l225 225
c36.667 -36.667 73.334 -67.334 110.001 -92.001s74 -44.834 112 -60.501s77.5 -27.5 118.5 -35.5s84.5 -13.667 130.5 -17v619l-65 8c-77.333 9.33301 -149.666 28.833 -216.999 58.5s-126.333 68.5 -177 116.5s-90.5 105 -119.5 171s-43.5 140.333 -43.5 223
s13.5 159.334 40.5 230.001s65.667 132.834 116 186.501s112 97.667 185 132s155.5 56.5 247.5 66.5v258h263v-258c56 -4 109.333 -11.833 160 -23.5s98.834 -27.5 144.501 -47.5s89.334 -44.5 131.001 -73.5s82.167 -62.833 121.5 -101.5l-217 -209
c-54 47.333 -111 84.333 -171 111s-126 43 -198 49v-606l90 -8c82.667 -7.33301 158.334 -24.5 227.001 -51.5s127.667 -64.667 177 -113s87.833 -107.833 115.5 -178.5s41.5 -153 41.5 -247zM732.996 1786c-49.333 -6 -92.333 -18 -129 -36s-67.334 -40.333 -92.001 -67
s-43.167 -57 -55.5 -91s-18.5 -70.333 -18.5 -109c0 -42 8.16699 -78.667 24.5 -110s38 -58 65 -80s58.333 -39.833 94 -53.5s72.834 -24.167 111.501 -31.5v578zM1253 578c0 46.667 -7.66699 86.999 -23 120.999s-36.833 62.5 -64.5 85.5s-61.167 41.167 -100.5 54.5
s-83 23 -131 29v-585c51.333 4.66699 96.833 15 136.5 31s73 36.833 100 62.5s47.5 55.334 61.5 89.001s21 71.167 21 112.5z" />
    <glyph glyph-name="percent" unicode="%" horiz-adv-x="2417" 
d="M2269 389c0 -64.667 -10.833 -122.5 -32.5 -173.5s-51.334 -94.333 -89 -130c-37.667 -35.667 -81.834 -63 -132.5 -82c-50.667 -19 -105.334 -28.5 -164.001 -28.5c-58 0 -112.167 9.5 -162.5 28.5s-94 46.333 -131 82s-66.167 79 -87.5 130s-32 108.833 -32 173.5v283
c0 64.667 10.667 122 32 172s50.5 92.333 87.5 127s80.667 61 131 79s104.5 27 162.5 27c58.667 0 113.334 -9 164.001 -27s94.834 -44.333 132.5 -79c37.667 -34.667 67.334 -77 89 -127c21.667 -50 32.5 -107.333 32.5 -172v-283zM848 0h-266l987 2060h262zM983 1389
c0 -63.333 -10.833 -120 -32.5 -170s-51.5 -92.167 -89.5 -126.5s-82.667 -60.5 -134 -78.5s-106.666 -27 -165.999 -27c-58 0 -112.333 9 -163 27s-94.5 44.167 -131.5 78.5s-66.167 76.5 -87.5 126.5s-32 106.667 -32 170v286c0 64.667 10.667 122.334 32 173.001
s50.5 93.5 87.5 128.5s80.833 61.833 131.5 80.5s105 28 163 28c59.333 0 114.666 -9.33301 165.999 -28s96 -45.5 134 -80.5s67.833 -77.833 89.5 -128.5s32.5 -108.334 32.5 -173.001v-286zM2023 664c0 61.333 -14.167 109.333 -42.5 144s-71.5 52 -129.5 52
c-57.333 0 -99.666 -17.333 -126.999 -52s-41 -82.667 -41 -144v-267c0 -64 13.667 -112.667 41 -146s69.666 -50 126.999 -50c58 0 101.167 17.167 129.5 51.5s42.5 82.5 42.5 144.5v267zM737 1667c0 62 -14.333 109.667 -43 143s-73 50 -133 50
c-58 0 -100.5 -16.167 -127.5 -48.5s-40.5 -80.5 -40.5 -144.5v-270c0 -62 13.5 -109.667 40.5 -143s69.5 -50 127.5 -50c60 0 104.333 17.167 133 51.5s43 81.5 43 141.5v270z" />
    <glyph glyph-name="ampersand" unicode="&#x26;" horiz-adv-x="2191" 
d="M1614 0l-167.999 197.002l-88.5 -66.5c-34.333 -25 -74.666 -48.667 -120.999 -71s-99.166 -41.166 -158.499 -56.499s-126.333 -23 -201 -23c-108.667 0 -205 14.833 -289 44.5s-154.667 71.834 -212 126.501s-100.833 120.834 -130.5 198.501s-44.5 164.5 -44.5 260.5
c0 72 11.5 136.333 34.5 193s53.167 108.167 90.5 154.5s80.166 88.166 128.499 125.499s97.5 72.333 147.5 105c-23.333 27.333 -47.166 57 -71.499 89s-46.333 66.333 -66 103s-35.834 75.667 -48.501 117s-19 85.666 -19 132.999c0 66.667 11.833 128.5 35.5 185.5
s57.667 106.333 102 148s98.166 74.334 161.499 98.001s134.333 35.5 213 35.5c74.667 0 142.667 -11.833 204 -35.5s114 -56.5 158 -98.5s78 -91.833 102 -149.5s36 -120.167 36 -187.5c0 -58.667 -10.5 -110.834 -31.5 -156.501s-48.5 -87 -82.5 -124
s-72.833 -70.833 -116.5 -101.5s-88.5 -60.334 -134.5 -89.001l207.5 -248l206.5 -248c17.333 26 32.333 52.667 45 80s23 57.166 31 89.499s14.167 67.833 18.5 106.5s7.16602 82 8.49902 130h303c-2 -66.667 -7.16699 -129.834 -15.5 -189.501
s-20.5 -116.167 -36.5 -169.5s-36.167 -104 -60.5 -152s-53.833 -93.333 -88.5 -136l356 -418h-405zM1106 1626c0 26.667 -4.99805 52.001 -14.998 76.001s-23.833 45 -41.5 63s-38.5 32.167 -62.5 42.5s-50 15.5 -78 15.5c-29.333 0 -55.833 -5 -79.5 -15
s-43.834 -23.833 -60.501 -41.5s-29.5 -38.5 -38.5 -62.5s-13.5 -50 -13.5 -78c0 -20.667 3 -41 9 -61s15.167 -40.5 27.5 -61.5s27.666 -42.833 45.999 -65.5s39.833 -47.334 64.5 -74.001c25.333 12 51.833 26.333 79.5 43s53.167 35.667 76.5 57s43 45.333 59 72
s25 56.667 27 90zM778.003 991.003l-101.499 -78.5c-31.667 -25.667 -59.334 -53.167 -83.001 -82.5s-42.5 -61.833 -56.5 -97.5s-21 -76.5 -21 -122.5c0 -48 9.16699 -92.5 27.5 -133.5s43.666 -76.5 75.999 -106.5s70.5 -53.5 114.5 -70.5s91.667 -25.5 143 -25.5
c34.667 0 67.834 2.33301 99.501 7s62.667 12.5 93 23.5s60.5 25.667 90.5 44s61 41.5 93 69.5z" />
    <glyph glyph-name="quotesingle" unicode="'" horiz-adv-x="815" 
d="M250 1532v590h311v-590h-311z" />
    <glyph glyph-name="parenleft" unicode="(" horiz-adv-x="913" 
d="M557 -291c-47.333 47.333 -90.667 93.665 -130 138.998s-73.5 93.333 -102.5 144s-51.5 105.667 -67.5 165s-24 127 -24 203v1536c0 68 6.5 130.5 19.5 187.5s32.833 111.5 59.5 163.5s60.334 102.833 101.001 152.5s88.667 100.5 144 152.5l213 -209
c-32.667 -34.667 -62.5 -68.167 -89.5 -100.5s-50.333 -66.166 -70 -101.5c-19.667 -35.333 -34.834 -73.666 -45.501 -114.999s-16 -88.666 -16 -141.999v-1503c0 -50 4.33301 -95 13 -135s22.167 -77.667 40.5 -113s41.333 -69.833 69 -103.5s60.5 -69.5 98.5 -107.5z" />
    <glyph glyph-name="parenright" unicode=")" horiz-adv-x="913" 
d="M135 -78c38 38 70.668 73.834 98.001 107.501s49.833 68.167 67.5 103.5s30.667 73 39 113s12.5 85 12.5 135v1503c0 53.333 -5.16699 100.666 -15.5 141.999s-25 79.666 -44 115c-19 35.333 -41.833 69.166 -68.5 101.499s-56.334 65.833 -89.001 100.5l213 209
c55.333 -52 103.333 -102.833 144 -152.5s74.334 -100.5 101.001 -152.5s46.5 -106.5 59.5 -163.5s19.5 -119.5 19.5 -187.5v-1536c0 -76 -8 -143.667 -24 -203s-38.333 -114.333 -67 -165s-62.834 -98.667 -102.501 -144s-83.167 -91.666 -130.5 -138.999z" />
    <glyph glyph-name="asterisk" unicode="*" horiz-adv-x="1507" 
d="M1200 1143l-340 213l8 -406h-229l12 406l-344 -213l-110 200l352 189l-352 188l110 201l344 -213l-12 401h229l-8 -401l340 213l115 -201l-357 -188l357 -189z" />
    <glyph glyph-name="plus" unicode="+" horiz-adv-x="1794" 
d="M1044 700v-516h-294v516h-517v295h517v512h294v-512h517v-295h-517z" />
    <glyph glyph-name="comma" unicode="," horiz-adv-x="831" 
d="M238 -479v835h360v-540z" />
    <glyph glyph-name="hyphen" unicode="-" horiz-adv-x="1376" 
d="M238 700v295h897v-295h-897z" />
    <glyph glyph-name="period" unicode="." horiz-adv-x="852" 
d="M217 188c0 30 5.33301 57.833 16 83.5s25.334 48.167 44.001 67.5s40.667 34.5 66 45.5s53 16.5 83 16.5s57.833 -5.5 83.5 -16.5s48.167 -26.167 67.5 -45.5s34.5 -41.833 45.5 -67.5s16.5 -53.5 16.5 -83.5c0 -29.333 -5.5 -57 -16.5 -83s-26.167 -48.667 -45.5 -68
s-41.833 -34.5 -67.5 -45.5s-53.5 -16.5 -83.5 -16.5s-57.667 5.5 -83 16.5s-47.333 26.167 -66 45.5s-33.334 42 -44.001 68s-16 53.667 -16 83z" />
    <glyph glyph-name="slash" unicode="/" horiz-adv-x="1122" 
d="M262 -225h-299l897 2711h299z" />
    <glyph glyph-name="zero" unicode="0" horiz-adv-x="1536" 
d="M1380 578c0 -92 -16 -175 -48 -249s-75.833 -136.833 -131.5 -188.5s-120.834 -91.334 -195.501 -119.001s-154.334 -41.5 -239.001 -41.5c-84 0 -163 13.833 -237 41.5s-138.667 67.334 -194 119.001s-99 114.5 -131 188.5s-48 157 -48 249v909
c0 93.333 16 176.666 48 249.999s75.667 135.5 131 186.5s120 90 194 117s153 40.5 237 40.5c84.667 0 164.334 -13.5 239.001 -40.5s139.834 -66 195.501 -117s99.5 -113.167 131.5 -186.5s48 -156.666 48 -249.999v-909zM1057 1479c0 46 -6.5 88.5 -19.5 127.5
s-32 72.667 -57 101s-55.5 50.5 -91.5 66.5s-77 24 -123 24c-45.333 0 -85.833 -8 -121.5 -24s-66.167 -38.167 -91.5 -66.5s-44.666 -62 -57.999 -101s-20 -81.5 -20 -127.5v-885c0 -49.333 6.66699 -94.166 20 -134.499s32.666 -74.833 57.999 -103.5
s55.833 -50.834 91.5 -66.501s76.167 -23.5 121.5 -23.5c46 0 87 7.83301 123 23.5s66.5 37.834 91.5 66.501s44 63.167 57 103.5s19.5 85.166 19.5 134.499v885z" />
    <glyph glyph-name="one" unicode="1" horiz-adv-x="1536" 
d="M721 0v1704l-406 -344v348l414 352h311v-2060h-319z" />
    <glyph glyph-name="two" unicode="2" horiz-adv-x="1536" 
d="M164 0l0.000976562 274.001l799 963c38.667 41.333 66 83.166 82 125.499s24 89.166 24 140.499c0 42.667 -6.5 82.167 -19.5 118.5s-31.833 67.5 -56.5 93.5s-55.167 46.333 -91.5 61s-77.5 22 -123.5 22c-36.667 0 -72.834 -5.83301 -108.501 -17.5
s-67.667 -30 -96 -55s-51.166 -57.167 -68.499 -96.5s-26 -86.666 -26 -141.999h-315c0 90 15.167 171.5 45.5 244.5s72.5 135.5 126.5 187.5s118.667 92 194 120s158 42 248 42c91.333 0 175 -13.333 251 -40s141.167 -65.167 195.5 -115.5s96.666 -111.5 126.999 -183.5
s45.5 -153 45.5 -243c0 -42 -4.66699 -82 -14 -120s-22.833 -75 -40.5 -111s-39.167 -71.667 -64.5 -107s-54 -71.333 -86 -108l-317.5 -387l-317.5 -383h840v-283h-1233z" />
    <glyph glyph-name="three" unicode="3" horiz-adv-x="1536" 
d="M1389 582c0 -100.667 -17.167 -188.996 -51.5 -264.996s-81.166 -139.667 -140.499 -191s-128.5 -90 -207.5 -116s-163.167 -39 -252.5 -39c-85.333 0 -166.333 12 -243 36s-144.5 60.5 -203.5 109.5s-106.5 111.167 -142.5 186.5s-55.333 164 -58 266h320
c2.66699 -54 13.667 -100.5 33 -139.5s43.833 -70.833 73.5 -95.5s63.5 -42.834 101.5 -54.501s77.667 -17.5 119 -17.5c46 0 89 7.33301 129 22s74.833 36 104.5 64s52.834 62.333 69.501 103s25 87 25 139c0 100.667 -27.333 179 -82 235s-139.334 84 -254.001 84h-61v283
h61c51.333 0 96 7.16699 134 21.5s69.5 34.666 94.5 60.999s43.667 58.166 56 95.499s18.5 79 18.5 125c0 48 -7.83301 90.667 -23.5 128s-37 68.666 -64 93.999s-58.333 44.5 -94 57.5s-73.5 19.5 -113.5 19.5c-42 0 -80.667 -6.83301 -116 -20.5s-66 -33.167 -92 -58.5
s-46.833 -55.666 -62.5 -90.999s-25.167 -74.333 -28.5 -117h-323c4 89.333 22.5 169.5 55.5 240.5s77.167 131.167 132.5 180.5s120 87.166 194 113.499s154 39.5 240 39.5c90 0 172.667 -14 248 -42s140.166 -67.333 194.499 -118s96.666 -111.5 126.999 -182.5
s45.5 -149.5 45.5 -235.5c0 -52 -6.16699 -100.333 -18.5 -145s-29.166 -85.167 -50.499 -121.5s-46.833 -68.833 -76.5 -97.5s-61.834 -53.334 -96.501 -74.001c42.667 -19.333 81.334 -43.666 116.001 -72.999s64 -64 88 -104s42.5 -85.5 55.5 -136.5
s19.5 -107.5 19.5 -169.5z" />
    <glyph glyph-name="four" unicode="4" horiz-adv-x="1536" 
d="M1225 303v-303h-312v303h-843v295l741 1462h344l-729 -1454h487v475h312v-475h225v-303h-225z" />
    <glyph glyph-name="five" unicode="5" horiz-adv-x="1536" 
d="M1401 692c0 -65.333 -5.00195 -128.501 -15.002 -189.501s-25.5 -118 -46.5 -171s-48.167 -101.5 -81.5 -145.5s-73.5 -81.5 -120.5 -112.5s-100.833 -55.167 -161.5 -72.5s-129.334 -26 -206.001 -26c-94 0 -178 13.833 -252 41.5s-136.667 66.5 -188 116.5
s-91.166 110.333 -119.499 181s-43.833 149 -46.5 235h315c12.667 -90 42.334 -159.667 89.001 -209s114 -74 202 -74c41.333 0 80.5 6.33301 117.5 19s68.833 32.334 95.5 59.001c20.667 20.667 37.167 44 49.5 70s21.833 54 28.5 84s11 61.333 13 94s3 66 3 100
c0 59.333 -4.33301 114.666 -13 165.999s-24.167 96 -46.5 134s-52.5 67.833 -90.5 89.5s-86.333 32.5 -145 32.5c-40 0 -76 -5 -108 -15s-60 -23.5 -84 -40.5s-44 -37 -60 -60s-27.333 -47.167 -34 -72.5h-287v1134h1139v-278h-852v-504
c38.667 30.667 86 55.334 142 74.001s119 28 189 28c71.333 0 135.166 -8.83301 191.499 -26.5s105.833 -42.167 148.5 -73.5s78.834 -68.666 108.501 -111.999s53.834 -90.5 72.501 -141.5s32.167 -104.833 40.5 -161.5s12.5 -114.334 12.5 -173.001z" />
    <glyph glyph-name="six" unicode="6" horiz-adv-x="1536" 
d="M1430 651c0 -102 -16.499 -194.337 -49.499 -277.004s-79 -153.167 -138 -211.5s-129.167 -103.333 -210.5 -135s-170 -47.5 -266 -47.5s-184.5 15 -265.5 45s-150.667 73.333 -209 130s-103.833 125.5 -136.5 206.5s-49 172.167 -49 273.5c0 44 4 87.667 12 131
s19.333 86.833 34 130.5s32 87.834 52 132.501s42 90.667 66 138l451 893h364l-409 -803c24.667 8.66699 50.667 14.334 78 17.001s54.666 4 81.999 4c80.667 0 157 -14.667 229 -44s135 -71.166 189 -125.499s96.833 -120.166 128.5 -197.499s47.5 -164 47.5 -260z
M1102 642.996c0 49.333 -7.99902 95.332 -23.999 137.999s-38.833 79.834 -68.5 111.501s-65.167 56.667 -106.5 75s-87 27.5 -137 27.5c-48 0 -92.5 -8 -133.5 -24s-76.5 -39 -106.5 -69s-53.5 -66.833 -70.5 -110.5s-25.5 -93.167 -25.5 -148.5
c0 -56 8.5 -106.833 25.5 -152.5s40.5 -84.5 70.5 -116.5s65.5 -56.667 106.5 -74s85.5 -26 133.5 -26c46.667 0 90.5 8.66699 131.5 26s76.667 42 107 74s54.166 70.833 71.499 116.5s26 96.5 26 152.5z" />
    <glyph glyph-name="seven" unicode="7" horiz-adv-x="1536" 
d="M709 0h-344l700 1782h-610v-324h-308v602h1262v-270z" />
    <glyph glyph-name="eight" unicode="8" horiz-adv-x="1536" 
d="M1421 594c0 -95.333 -16.9951 -180.833 -50.9951 -256.5s-80.667 -140 -140 -193s-128.833 -93.667 -208.5 -122s-164.834 -42.5 -255.501 -42.5c-91.333 0 -176.666 14.167 -255.999 42.5s-148.166 69 -206.499 122s-104.333 117.333 -138 193
s-50.5 161.167 -50.5 256.5c0 57.333 7.66699 110.333 23 159s35.666 92.834 60.999 132.501s54.166 74.834 86.499 105.501s65.5 56.667 99.5 78c-32 19.333 -62.333 43.166 -91 71.499s-53.834 60.666 -75.501 96.999s-39 77 -52 122s-19.5 94.167 -19.5 147.5
c0 88 16.167 167.5 48.5 238.5s76.333 131.333 132 181s121.167 87.834 196.5 114.501s156 40 242 40c86.667 0 168 -13.333 244 -40s142 -64.834 198 -114.501s100.167 -110 132.5 -181s48.5 -150.5 48.5 -238.5c0 -53.333 -6.5 -102.5 -19.5 -147.5
s-30.333 -85.667 -52 -122s-46.834 -68.666 -75.501 -96.999s-59 -52.166 -91 -71.499c34 -21.333 67.167 -47.333 99.5 -78s61.166 -65.834 86.499 -105.501s45.666 -83.834 60.999 -132.501s23 -101.667 23 -159zM1065 1499c0 40.667 -7.16699 79.167 -21.5 115.5
s-34.5 68.166 -60.5 95.499s-57.5 48.833 -94.5 64.5s-77.833 23.5 -122.5 23.5c-43.333 0 -83.166 -7.83301 -119.499 -23.5s-67.833 -37.167 -94.5 -64.5s-47.5 -59.166 -62.5 -95.499s-22.5 -74.833 -22.5 -115.5c0 -45.333 7.5 -86.333 22.5 -123s35.833 -68 62.5 -94
s58.167 -46.167 94.5 -60.5s76.166 -21.5 119.499 -21.5c44.667 0 85.5 7.16699 122.5 21.5s68.5 34.5 94.5 60.5s46.167 57.333 60.5 94s21.5 77.667 21.5 123zM1098 594c0 44.667 -8.5 87 -25.5 127s-40.333 74.833 -70 104.5s-64.834 53.167 -105.501 70.5
s-84.334 26 -131.001 26c-46 0 -89 -8.66699 -129 -26s-74.667 -40.833 -104 -70.5s-52.5 -64.5 -69.5 -104.5s-25.5 -82.333 -25.5 -127c0 -45.333 8.5 -87.833 25.5 -127.5s40.167 -74.334 69.5 -104.001s64 -53.167 104 -70.5s83 -26 129 -26
c46.667 0 90.334 8.66699 131.001 26s75.834 40.833 105.501 70.5s53 64.334 70 104.001s25.5 82.167 25.5 127.5z" />
    <glyph glyph-name="nine" unicode="9" horiz-adv-x="1536" 
d="M106 1409c0 102.667 16.332 195.338 48.999 278.005s78.167 153.167 136.5 211.5s128 103.333 209 135s169.5 47.5 265.5 47.5s184.667 -15.333 266 -46s151.5 -74.5 210.5 -131.5s105 -125.833 138 -206.5s49.5 -171.334 49.5 -272.001c0 -44 -4 -87.667 -12 -131
s-19.333 -86.833 -34 -130.5s-32 -87.834 -52 -132.501s-42 -90.667 -66 -138l-451 -893h-369l414 803c-24.667 -8.66699 -50.667 -14.334 -78 -17.001s-54.666 -4 -81.999 -4c-80.667 0 -157 14.667 -229 44s-135 71.166 -189 125.499s-96.833 120.166 -128.5 197.499
s-47.5 164 -47.5 260zM433.999 1417c0 -49.333 7.99902 -95.499 23.999 -138.499s38.833 -80.667 68.5 -113s65.167 -57.833 106.5 -76.5s87 -28 137 -28c46.667 0 90.5 8 131.5 24s76.667 39.167 107 69.5s54.166 67.666 71.499 111.999s26 94.5 26 150.5
c0 55.333 -8.66699 105.666 -26 150.999s-41.166 84.166 -71.499 116.499s-66 57.333 -107 75s-84.833 26.5 -131.5 26.5c-47.333 0 -91.333 -8.83301 -132 -26.5s-76.167 -42.667 -106.5 -75s-54.166 -71.166 -71.499 -116.499s-26 -95.666 -26 -150.999z" />
    <glyph glyph-name="colon" unicode=":" horiz-adv-x="942" 
d="M303 188c0 30 5.5 57.833 16.5 83.5s26.167 48.167 45.5 67.5s41.833 34.5 67.5 45.5s53.5 16.5 83.5 16.5s57.833 -5.5 83.5 -16.5s48.167 -26.167 67.5 -45.5s34.5 -41.833 45.5 -67.5s16.5 -53.5 16.5 -83.5c0 -29.333 -5.5 -57 -16.5 -83s-26.167 -48.667 -45.5 -68
s-41.833 -34.5 -67.5 -45.5s-53.5 -16.5 -83.5 -16.5s-57.833 5.5 -83.5 16.5s-48.167 26.167 -67.5 45.5s-34.5 42 -45.5 68s-16.5 53.667 -16.5 83zM303 1143c0 30 5.5 57.833 16.5 83.5s26.167 48.167 45.5 67.5s41.833 34.5 67.5 45.5s53.5 16.5 83.5 16.5
s57.833 -5.5 83.5 -16.5s48.167 -26.167 67.5 -45.5s34.5 -41.833 45.5 -67.5s16.5 -53.5 16.5 -83.5s-5.5 -57.833 -16.5 -83.5s-26.167 -48.167 -45.5 -67.5s-41.833 -34.5 -67.5 -45.5s-53.5 -16.5 -83.5 -16.5s-57.833 5.5 -83.5 16.5s-48.167 26.167 -67.5 45.5
s-34.5 41.833 -45.5 67.5s-16.5 53.5 -16.5 83.5z" />
    <glyph glyph-name="semicolon" unicode=";" horiz-adv-x="942" 
d="M332 -479v835h356v-540zM299 1143c0 30 5.5 57.833 16.5 83.5s26.167 48.167 45.5 67.5s41.833 34.5 67.5 45.5s53.5 16.5 83.5 16.5s57.833 -5.5 83.5 -16.5s48.167 -26.167 67.5 -45.5s34.5 -41.833 45.5 -67.5s16.5 -53.5 16.5 -83.5s-5.5 -57.833 -16.5 -83.5
s-26.167 -48.167 -45.5 -67.5s-41.833 -34.5 -67.5 -45.5s-53.5 -16.5 -83.5 -16.5s-57.833 5.5 -83.5 16.5s-48.167 26.167 -67.5 45.5s-34.5 41.833 -45.5 67.5s-16.5 53.5 -16.5 83.5z" />
    <glyph glyph-name="less" unicode="&#x3c;" horiz-adv-x="1769" 
d="M1618 258l-1462 565v242l1462 569v-319l-979 -369l491.5 -186l487.5 -182v-320z" />
    <glyph glyph-name="equal" unicode="=" horiz-adv-x="1696" 
d="M184 999v295h1323v-295h-1323zM184 401v291h1323v-291h-1323z" />
    <glyph glyph-name="greater" unicode="&#x3e;" horiz-adv-x="1769" 
d="M156 578l485.5 182l488.5 186l-974 369v319l1462 -569v-242l-1462 -565v320z" />
    <glyph glyph-name="question" unicode="?" horiz-adv-x="1491" 
d="M1331 1528c0 -36 -3.83105 -69.834 -11.498 -101.501s-17.834 -62.167 -30.501 -91.5s-27.334 -57.666 -44.001 -84.999l-53 -83l-221 -311c-8 -10 -15 -21.5 -21 -34.5s-10.667 -26 -14 -39s-5.83301 -26 -7.5 -39s-2.5 -24.5 -2.5 -34.5v-99h-320v115
c0 30 1.83301 57.333 5.5 82s9.5 48.5 17.5 71.5s18.333 45.5 31 67.5s27.667 45.333 45 70l229 299c20.667 32.667 39.5 66.5 56.5 101.5s25.5 72.167 25.5 111.5c0 38 -6.66699 73.833 -20 107.5s-31.833 63.167 -55.5 88.5s-52.167 45.333 -85.5 60s-70 22 -110 22
c-43.333 0 -81.5 -8 -114.5 -24s-60.667 -37.667 -83 -65s-39.333 -58.833 -51 -94.5s-17.5 -72.834 -17.5 -111.501h-315c0 84.667 15 162.334 45 233.001s71 131.167 123 181.5s113.333 89.5 184 117.5s147 42 229 42c80 0 155.5 -12.667 226.5 -38
s133.167 -62 186.5 -110s95.5 -106.5 126.5 -175.5s46.5 -146.833 46.5 -233.5zM565.002 167.999c0 28 5 53.667 15 77s23.833 43.5 41.5 60.5s38.167 30.333 61.5 40s48.333 14.5 75 14.5c27.333 0 52.833 -4.83301 76.5 -14.5s44 -23 61 -40s30.333 -37.167 40 -60.5
s14.5 -49 14.5 -77c0 -26.667 -4.83301 -51.667 -14.5 -75s-23 -43.833 -40 -61.5s-37.333 -31.5 -61 -41.5s-49.167 -15 -76.5 -15c-26.667 0 -51.667 5 -75 15s-43.833 23.833 -61.5 41.5s-31.5 38.167 -41.5 61.5s-15 48.333 -15 75z" />
    <glyph glyph-name="at" unicode="@" horiz-adv-x="2564" 
d="M2023 152c-56 -44 -115.66 -81.0068 -178.993 -111.007s-128 -54.167 -194 -72.5s-131.833 -31.333 -197.5 -39s-129.167 -11.5 -190.5 -11.5c-105.333 0 -205.5 12.833 -300.5 38.5s-183 62.334 -264 110.001s-154 104.834 -219 171.501s-120 141.167 -165 223.5
s-79.167 171.166 -102.5 266.499s-33.666 195.333 -30.999 300c2.66699 105.333 18.167 206 46.5 302s67.333 185.5 117 268.5s108.667 158.167 177 225.5s144 124.833 227 172.5s172.333 84.5 268 110.5s195.5 39 299.5 39c106 0 206.333 -12.167 301 -36.5
s182 -59.166 262 -104.5c80 -45.333 151.833 -100.166 215.5 -164.499s117.5 -136.5 161.5 -216.5s77.167 -167 99.5 -261s32.166 -193.333 29.499 -298c-2 -54 -9.16699 -108.667 -21.5 -164s-30 -108.833 -53 -160.5s-51.333 -100 -85 -145s-72.667 -84.333 -117 -118
s-94.333 -60.167 -150 -79.5s-116.834 -29 -183.501 -29s-123.167 12.333 -169.5 37s-82.833 58.667 -109.5 102c-32.667 -28 -65.167 -50.833 -97.5 -68.5s-64.166 -31.834 -95.499 -42.501s-62.333 -18 -93 -22s-61 -6 -91 -6c-57.333 0 -109.166 9.33301 -155.499 28
s-87 44.167 -122 76.5s-64.333 70.333 -88 114s-41.834 90.167 -54.501 139.5s-19.834 100.333 -21.501 153s2.16602 104.667 11.499 156c15.333 89.333 39.5 174 72.5 254s75.5 150 127.5 210s113.833 107.667 185.5 143s153.5 53 245.5 53c56 0 106.667 -6.66699 152 -20
s87.333 -35.333 126 -66l13 53h270l-156 -864c-3.33301 -15.333 -6.5 -34 -9.5 -56s-3 -43.167 0 -63.5s10.333 -37.666 22 -51.999s30.834 -21.5 57.501 -21.5c34 0 65.5 6.5 94.5 19.5s55.167 30.667 78.5 53s44.166 48.5 62.499 78.5s33.666 62 45.999 96
s22.166 69.167 29.5 105.5c7.33301 36.333 11.666 71.833 12.999 106.5c2 77.333 -5.5 151.166 -22.5 221.499s-42 135.833 -75 196.5s-73.5 115.667 -121.5 165s-102 91.5 -162 126.5s-125.5 62 -196.5 81s-146.167 28.5 -225.5 28.5
c-75.333 0 -148.166 -10.333 -218.499 -31s-136.333 -49.667 -198 -87s-118.334 -82.166 -170.001 -134.499s-96.167 -110.333 -133.5 -174s-66.833 -131.667 -88.5 -204s-33.5 -147.5 -35.5 -225.5c-2 -83.333 6.5 -162.166 25.5 -236.499s46.333 -143.166 82 -206.499
s78.334 -120.166 128.001 -170.499s104.167 -93.166 163.5 -128.499s122.166 -62.5 188.499 -81.5s134.166 -28.5 203.499 -28.5c46 0 94.5 3.16699 145.5 9.5s102.167 16.5 153.5 30.5s101.666 31.833 150.999 53.5s95.666 47.834 138.999 78.501zM1499.01 1035.99
c4 24 7.83398 51.168 11.501 81.501s5.33398 61 5.00098 92s-3.5 61.5 -9.5 91.5s-16.333 56.5 -31 79.5s-34.667 41.667 -60 56s-57.333 21.5 -96 21.5c-36 0 -69 -6.33301 -99 -19s-57.167 -30 -81.5 -52s-45.833 -47.5 -64.5 -76.5s-34.834 -59.833 -48.501 -92.5
s-25 -66.334 -34 -101.001s-15.833 -68.334 -20.5 -101.001c-4 -23.333 -7.5 -49.666 -10.5 -78.999s-4 -59.166 -3 -89.499s4.66699 -60 11 -89s16.666 -54.833 30.999 -77.5s33.5 -40.834 57.5 -54.501s54 -20.5 90 -20.5c58 0 107.333 12.333 148 37
s74.5 57.334 101.5 98.001s48.5 86.667 64.5 138s28.667 103.666 38 156.999z" />
    <glyph glyph-name="A" unicode="A" horiz-adv-x="1790" 
d="M1434 0l-144 410h-794l-144 -410h-352l762 2060h266l762 -2060h-356zM901 1552l-307 -856h602z" />
    <glyph glyph-name="B" unicode="B" horiz-adv-x="1921" 
d="M1720 586c0 -96 -15.3311 -180.665 -45.998 -253.998s-73.834 -134.5 -129.501 -183.5s-122.167 -86 -199.5 -111s-162.333 -37.5 -255 -37.5h-803v2060h770c97.333 0 185.166 -13.167 263.499 -39.5s145 -63.833 200 -112.5s97.333 -108 127 -178
s44.5 -148.333 44.5 -235c0 -53.333 -7.33301 -102.833 -22 -148.5s-34 -87.167 -58 -124.5s-51.5 -69.833 -82.5 -97.5s-62.833 -50.167 -95.5 -67.5c36.667 -16.667 72.167 -38.834 106.5 -66.501s64.833 -61 91.5 -100s48 -83.833 64 -134.5s24 -107.334 24 -170.001z
M1360 1479c0 46 -8 86.5 -24 121.5s-38.5 64.5 -67.5 88.5s-63.667 42 -104 54s-84.5 18 -132.5 18h-414v-565h414c48 0 92.167 6.33301 132.5 19s75 31 104 55s51.5 53.5 67.5 88.5s24 75.167 24 120.5zM1384 602.002c0 42.667 -7 82.167 -21 118.5s-34.667 67.5 -62 93.5
s-61.166 46.333 -101.499 61s-86.5 22 -138.5 22h-443v-598h443c52 0 98.167 7.5 138.5 22.5s74.166 36 101.499 63s48 59 62 96s21 77.5 21 121.5z" />
    <glyph glyph-name="C" unicode="C" horiz-adv-x="1819" 
d="M1683 635c-17.333 -106.667 -47.9971 -200.666 -91.9971 -281.999s-98.333 -149.666 -163 -204.999s-138.334 -97.166 -221.001 -125.499s-171 -42.5 -265 -42.5c-107.333 0 -206.166 19.333 -296.499 58s-171.833 94.334 -244.5 167.001
c-50 51.333 -88.5 104.666 -115.5 159.999s-46.833 115.666 -59.5 180.999s-20 137.5 -22 216.5s-3 167.5 -3 265.5s1.33301 186.833 4 266.5s10.5 152.667 23.5 219s33 127.333 60 183s64.5 108.5 112.5 158.5c70.667 70.667 152.167 126 244.5 166s191.166 60 296.499 60
c94 0 182.167 -14.333 264.5 -43s155.833 -70.667 220.5 -126s119.5 -123.5 164.5 -204.5s77.167 -173.5 96.5 -277.5h-345c-12 50.667 -29.333 97.167 -52 139.5s-50.667 78.666 -84 108.999s-72 53.833 -116 70.5s-93.667 25 -149 25c-58 0 -112.5 -9.83301 -163.5 -29.5
s-92.167 -48.167 -123.5 -85.5c-25.333 -26 -46 -54.167 -62 -84.5s-28.5 -69 -37.5 -116s-15.167 -104.833 -18.5 -173.5s-5 -154.334 -5 -257.001c0 -66.667 0.666992 -126 2 -178s3.66602 -98.167 6.99902 -138.5s8 -75.833 14 -106.5s13.5 -57.834 22.5 -81.501
s19.833 -45 32.5 -64s27.667 -36.833 45 -53.5c31.333 -39.333 72.5 -69.666 123.5 -90.999s105.5 -32 163.5 -32c55.333 0 105.166 8.5 149.499 25.5s83.5 41 117.5 72s62.5 68.167 85.5 111.5s40.833 91 53.5 143h335v0z" />
    <glyph glyph-name="D" unicode="D" horiz-adv-x="1982" 
d="M1769 1044c0 -88 -2.67285 -174.835 -8.00586 -260.502s-16.666 -167.167 -33.999 -244.5s-42.666 -149 -75.999 -215s-77.666 -123 -132.999 -171s-123.666 -85.5 -204.999 -112.5s-179 -40.5 -293 -40.5h-733v2060h733c100.667 0 189.167 -11 265.5 -33
s142.333 -53.667 198 -95s101.834 -91.666 138.501 -150.999s65.834 -126.666 87.501 -201.999s37 -157.833 46 -247.5s13.5 -185.5 13.5 -287.5zM1437.99 1044c0 56 -0.833984 112.669 -2.50098 170.002s-7 112.5 -16 165.5s-22.667 102.667 -41 149
s-44.166 86.666 -77.499 120.999s-75.5 61.5 -126.5 81.5s-113.5 30 -187.5 30h-369v-1462h369c69.333 0 128.833 9.16699 178.5 27.5s91.167 44.166 124.5 77.499s59.833 73 79.5 119s34.5 96.5 44.5 151.5s16.5 113.833 19.5 176.5s4.5 127 4.5 193z" />
    <glyph glyph-name="E" unicode="E" horiz-adv-x="1733" 
d="M287 0v2060h1339v-299h-1008v-573h861v-299h-861v-590h1008v-299h-1339z" />
    <glyph glyph-name="F" unicode="F" horiz-adv-x="1618" 
d="M618 1761v-598h816v-299h-816v-864h-331v2060h1290v-299h-959z" />
    <glyph glyph-name="G" unicode="G" horiz-adv-x="1880" 
d="M1696 803c0 -68 -3.50195 -130.001 -10.502 -186.001s-18.167 -107.5 -33.5 -154.5s-34.833 -90.333 -58.5 -130s-52.5 -76.834 -86.5 -111.501c-79.333 -86 -167 -147.667 -263 -185s-199.333 -56 -310 -56c-107.333 0 -206.166 19.333 -296.499 58
s-171.833 94.334 -244.5 167.001c-50 51.333 -88.5 104.666 -115.5 159.999s-46.833 115.666 -59.5 180.999s-20 137.5 -22 216.5s-3 167.5 -3 265.5s1.33301 186.833 4 266.5s10.5 152.667 23.5 219s33 127.333 60 183s64.5 108.5 112.5 158.5
c70 70.667 150.833 126 242.5 166s191.167 60 298.5 60c109.333 0 207.666 -17.5 294.999 -52.5s162.833 -82.333 226.5 -142s115.334 -129.167 155.001 -208.5s66.834 -163.666 81.501 -252.999h-336c-26.667 110.667 -75.5 196.5 -146.5 257.5s-162.833 91.5 -275.5 91.5
c-58 0 -112.5 -10.5 -163.5 -31.5s-92.167 -50.167 -123.5 -87.5c-16.667 -17.333 -31.167 -35.166 -43.5 -53.499s-23 -39.333 -32 -63s-16.5 -50.5 -22.5 -80.5s-10.833 -65.333 -14.5 -106s-6.33398 -87.667 -8.00098 -141s-2.5 -114.333 -2.5 -183
c0 -67.333 0.833008 -127.166 2.5 -179.499s4.33398 -98.666 8.00098 -138.999s8.5 -75.666 14.5 -105.999s13.5 -57.333 22.5 -81s19.667 -44.834 32 -63.501s26.833 -36.334 43.5 -53.001c31.333 -39.333 72.5 -69.666 123.5 -90.999s105.5 -32 163.5 -32
c68 0 130.167 12.333 186.5 37s101.833 58.667 136.5 102c37.333 41.333 63.833 88.166 79.5 140.499s23.5 110.5 23.5 174.5v103h-434v282h770v-319v0z" />
    <glyph glyph-name="H" unicode="H" horiz-adv-x="2052" 
d="M1434 0v889h-816v-889h-331v2060h331v-868h816v868h331v-2060h-331z" />
    <glyph glyph-name="I" unicode="I" horiz-adv-x="942" 
d="M303 0v2060h336v-2060h-336z" />
    <glyph glyph-name="J" unicode="J" horiz-adv-x="1425" 
d="M1167 655c0 -107.333 -17.9961 -203.003 -53.9961 -287.003s-85.333 -154.667 -148 -212s-136.334 -101 -221.001 -131s-175.667 -45 -273 -45c-54 0 -104.5 4 -151.5 12s-91.333 20.5 -133 37.5s-81.5 39 -119.5 66s-75.333 59.5 -112 97.5l221 221
c19.333 -19.333 38.666 -37.166 57.999 -53.499s40.5 -30.166 63.5 -41.499s48.5 -20.166 76.5 -26.499s60.333 -9.5 97 -9.5c55.333 0 105.166 8.5 149.499 25.5s82.166 42.167 113.499 75.5s55.333 74.5 72 123.5s25 105.167 25 168.5v1384h336v-1405v0z" />
    <glyph glyph-name="K" unicode="K" horiz-adv-x="1884" 
d="M1524 0l-574 995l-332 -397v-598h-331v2060h331v-1003l828 1003h409l-675 -811l745 -1249h-401z" />
    <glyph glyph-name="L" unicode="L" horiz-adv-x="1606" 
d="M287 0v2060h331v-1761h947v-299h-1278z" />
    <glyph glyph-name="M" unicode="M" horiz-adv-x="2404" 
d="M1786 0v1319l-455 -950h-246l-467 950v-1319h-331v2060h299l622 -1290l611 1290h299v-2060h-332z" />
    <glyph glyph-name="N" unicode="N" horiz-adv-x="2167" 
d="M1606 0l-988 1442v-1442h-331v2060h270l991 -1446v1446h332v-2060h-274z" />
    <glyph glyph-name="O" unicode="O" horiz-adv-x="1888" 
d="M1688 1028c0 -98 -0.833008 -186.499 -2.5 -265.499s-8.66699 -151.167 -21 -216.5s-32.166 -125.666 -59.499 -180.999s-66.666 -108.666 -117.999 -159.999c-72.667 -72.667 -154 -128.334 -244 -167.001s-191.667 -58 -305 -58
c-109.333 0 -208.666 19.333 -297.999 58s-170.333 94.334 -243 167.001c-50 51.333 -88.5 104.666 -115.5 159.999s-46.833 115.666 -59.5 180.999s-20 137.5 -22 216.5s-3 167.5 -3 265.5s1.33301 186.833 4 266.5s10.5 152.667 23.5 219s33 127.333 60 183
s64.5 108.5 112.5 158.5c70.667 70.667 151.667 126 243 166s190.666 60 297.999 60c111.333 0 213.166 -20 305.499 -60s173.5 -95.333 243.5 -166c46.667 -50 83.5 -103.167 110.5 -159.5s47.167 -117.833 60.5 -184.5s21.666 -139.834 24.999 -219.501s5 -167.5 5 -263.5
zM1352 1028c0 68 -0.667969 128.5 -2.00098 181.5s-3.66602 99.833 -6.99902 140.5s-7.83301 76.167 -13.5 106.5s-12.667 57.333 -21 81s-18.5 44.834 -30.5 63.501s-25.667 36.667 -41 54c-33.333 37.333 -76 66.5 -128 87.5s-109 31.5 -171 31.5
c-58 0 -112.667 -10.5 -164 -31.5s-93.666 -50.167 -126.999 -87.5c-16.667 -17.333 -31 -35.333 -43 -54s-22.5 -39.834 -31.5 -63.501s-16.333 -50.667 -22 -81s-10.167 -65.833 -13.5 -106.5s-5.66602 -87.5 -6.99902 -140.5s-2 -113.5 -2 -181.5
c0 -100 1.66699 -183.833 5 -251.5s9.33301 -124.5 18 -170.5s20.667 -84.167 36 -114.5s35.333 -58.833 60 -85.5c33.333 -37.333 75.666 -67.166 126.999 -89.499s106 -33.5 164 -33.5c62 0 119 11.167 171 33.5s94.667 52.166 128 89.499c23.333 25.333 42.5 53 57.5 83
s26.667 68 35 114s14.166 103 17.499 171s5 152.667 5 254z" />
    <glyph glyph-name="P" unicode="P" horiz-adv-x="1794" 
d="M1708 1434c0 -92 -15.833 -176.667 -47.5 -254s-76.5 -144 -134.5 -200s-128.167 -99.5 -210.5 -130.5s-174.166 -46.5 -275.499 -46.5h-422v-803h-331v2060h753c101.333 0 193.166 -16 275.499 -48s152.5 -76 210.5 -132s102.833 -122.167 134.5 -198.5
s47.5 -158.833 47.5 -247.5zM1372 1434c0 50 -8.5 95.1689 -25.5 135.502s-41 74.666 -72 102.999s-68.167 50.166 -111.5 65.499s-91 23 -143 23h-402v-655h402c52 0 99.667 7.33301 143 22s80.5 36 111.5 64s55 62.333 72 103s25.5 87 25.5 139z" />
    <glyph glyph-name="Q" unicode="Q" horiz-adv-x="1888" 
d="M1573 -94l-204.998 200.003c-60 -38.667 -126.5 -69.334 -199.5 -92.001s-149.833 -34 -230.5 -34c-109.333 0 -208.666 19.333 -297.999 58s-170.333 94.334 -243 167.001c-50 51.333 -88.5 104.666 -115.5 159.999s-46.833 115.666 -59.5 180.999s-20 137.5 -22 216.5
s-3 167.5 -3 265.5s1.33301 186.833 4 266.5s10.5 152.667 23.5 219s33 127.333 60 183s64.5 108.5 112.5 158.5c70.667 70.667 151.667 126 243 166s190.666 60 297.999 60c111.333 0 213.166 -20 305.499 -60s173.5 -95.333 243.5 -166
c46.667 -50 83.5 -103.167 110.5 -159.5s47.167 -117.833 60.5 -184.5s21.666 -139.834 24.999 -219.501s5 -167.5 5 -263.5c0 -85.333 -0.5 -163 -1.5 -233s-5.5 -134.833 -13.5 -194.5s-21 -115.167 -39 -166.5s-44 -100.333 -78 -147l201 -193zM1352 1028
c0 68 -0.668945 128.498 -2.00195 181.498s-3.66602 99.833 -6.99902 140.5s-7.83301 76.167 -13.5 106.5s-12.667 57.333 -21 81s-18.5 44.834 -30.5 63.501s-25.667 36.667 -41 54c-33.333 37.333 -76 66.5 -128 87.5s-109 31.5 -171 31.5
c-58 0 -112.667 -10.5 -164 -31.5s-93.666 -50.167 -126.999 -87.5c-16.667 -17.333 -31 -35.333 -43 -54s-22.5 -39.834 -31.5 -63.501s-16.333 -50.667 -22 -81s-10.167 -65.833 -13.5 -106.5s-5.66602 -87.5 -6.99902 -140.5s-2 -113.5 -2 -181.5
c0 -100 1.66699 -183.833 5 -251.5s9.33301 -124.5 18 -170.5s20.667 -84.167 36 -114.5s35.333 -58.833 60 -85.5c33.333 -37.333 75.666 -67.166 126.999 -89.499s106 -33.5 164 -33.5c37.333 0 71.5 4.33301 102.5 13s60.833 23.334 89.5 44.001l-208 209l184 188
l192 -192c12.667 26.667 22.5 55 29.5 85s12.333 64.167 16 102.5s6 81.5 7 129.5s1.5 103.333 1.5 166z" />
    <glyph glyph-name="R" unicode="R" horiz-adv-x="1917" 
d="M1442 0l-450.997 859.999h-373v-860h-331v2060h807c99.333 0 189.166 -14.833 269.499 -44.5s148.666 -71.334 204.999 -125.001s99.833 -117.667 130.5 -192s46 -155.833 46 -244.5c0 -74 -10.167 -141 -30.5 -201s-48.5 -113.167 -84.5 -159.5
s-78.833 -85.666 -128.5 -117.999s-103.834 -57.166 -162.501 -74.499l492 -901h-389zM1409 1450c0 48 -8.33301 91.167 -25 129.5s-40 71 -70 98s-65.833 47.667 -107.5 62s-87.5 21.5 -137.5 21.5h-451v-618h451c50 0 95.833 7 137.5 21s77.5 34.167 107.5 60.5
s53.333 58.5 70 96.5s25 81 25 129z" />
    <glyph glyph-name="S" unicode="S" horiz-adv-x="1614" 
d="M1524 590c0 -95.333 -18.498 -180.663 -55.498 -255.996s-88.667 -139.333 -155 -192s-145.5 -92.834 -237.5 -120.501s-192.667 -41.5 -302 -41.5c-78 0 -151 5 -219 15s-132.5 26.333 -193.5 49s-119 51.834 -174 87.501s-107.833 79.167 -158.5 130.5l225 221
c38.667 -38.667 78.167 -70.834 118.5 -96.501s82 -46.167 125 -61.5s87.667 -26.166 134 -32.499s95.166 -9.5 146.499 -9.5c65.333 0 123.666 6.66699 174.999 20s94.666 33 129.999 59s62.333 57.833 81 95.5s28 80.5 28 128.5c0 46.667 -6.66699 86.834 -20 120.501
s-32.833 61.5 -58.5 83.5s-56.667 39.167 -93 51.5s-77.5 21.166 -123.5 26.499c-41.333 4.66699 -81.666 10.334 -120.999 17.001s-79.666 12 -120.999 16c-85.333 11.333 -162.166 31 -230.499 59s-126.833 65.167 -175.5 111.5s-86 102.166 -112 167.499s-39 141 -39 227
c0 91.333 16.167 174.5 48.5 249.5s78.833 139.333 139.5 193s134.667 95.167 222 124.5s185.666 44 294.999 44c68.667 0 132.5 -4.5 191.5 -13.5s114.833 -23.333 167.5 -43s103 -44.834 151 -75.501s95 -67.334 141 -110.001l-213 -213c-32 32 -65.333 58.5 -100 79.5
s-70.667 37.667 -108 50s-75.833 21.166 -115.5 26.499s-80.5 8 -122.5 8c-59.333 0 -111.833 -8 -157.5 -24s-83.834 -37.667 -114.501 -65s-53.834 -59.833 -69.501 -97.5s-23.5 -77.834 -23.5 -120.501c0 -41.333 7.83301 -77.166 23.5 -107.499s37.167 -56.5 64.5 -78.5
s59 -39.833 95 -53.5s74.667 -24.167 116 -31.5l234 -32c88.667 -13.333 167.834 -34.333 237.501 -63s128.5 -66.5 176.5 -113.5s84.5 -104.333 109.5 -172s37.5 -146.834 37.5 -237.501z" />
    <glyph glyph-name="T" unicode="T" horiz-adv-x="1536" 
d="M934 1761v-1761h-332v1761h-569v299h1474v-299h-573z" />
    <glyph glyph-name="U" unicode="U" horiz-adv-x="2015" 
d="M1757 696c0 -106.667 -18.999 -203.834 -56.999 -291.501s-90.667 -163 -158 -226s-147 -111.833 -239 -146.5s-191.667 -52 -299 -52c-106.667 0 -205.5 17.333 -296.5 52s-169.833 83.5 -236.5 146.5s-118.834 138.333 -156.501 226s-56.5 184.834 -56.5 291.501v1364
h336v-1347c0 -65.333 9.66699 -124.5 29 -177.5s46.833 -98.167 82.5 -135.5s78.667 -66.166 129 -86.499s106.833 -30.5 169.5 -30.5c62 0 118.667 10.167 170 30.5s95.333 49.166 132 86.499s65 82.5 85 135.5s30 112.167 30 177.5v1347h336v-1364v0z" />
    <glyph glyph-name="V" unicode="V" horiz-adv-x="1712" 
d="M983 0h-258l-684 2060h348l463 -1450l471 1450h348z" />
    <glyph glyph-name="W" unicode="W" horiz-adv-x="2544" 
d="M1974 0h-291l-409 1397l-410 -1397h-291l-540 2060h352l348 -1425l410 1425h262l410 -1429l348 1429h352z" />
    <glyph glyph-name="X" unicode="X" horiz-adv-x="1671" 
d="M1274 0l-443 770l-434 -770h-393l647 1057l-602 1003h389l393 -721l402 721h389l-606 -1003l651 -1057h-393z" />
    <glyph glyph-name="Y" unicode="Y" horiz-adv-x="1638" 
d="M987 852v-852h-336v852l-622 1208h368l426 -876l418 876h369z" />
    <glyph glyph-name="Z" unicode="Z" horiz-adv-x="1659" 
d="M160 0v287l934 1474h-897v299h1298v-270l-942 -1491h942v-299h-1335z" />
    <glyph glyph-name="bracketleft" unicode="[" horiz-adv-x="934" 
d="M233 -225v2711h676v-278h-360v-2155h360v-278h-676z" />
    <glyph glyph-name="backslash" unicode="\" horiz-adv-x="1122" 
d="M860 -225l-897 2703h303l897 -2703h-303z" />
    <glyph glyph-name="bracketright" unicode="]" horiz-adv-x="934" 
d="M29 -225v278h356v2155h-356v278h671v-2711h-671z" />
    <glyph glyph-name="asciicircum" unicode="^" horiz-adv-x="1663" 
d="M1180 1122l-349 635l-348 -635h-323l528 975h291l524 -975h-323z" />
    <glyph glyph-name="underscore" unicode="_" horiz-adv-x="1659" 
d="M0 -561v213h1659v-213h-1659z" />
    <glyph glyph-name="grave" unicode="`" horiz-adv-x="1614" 
d="M733 1614l-360 500h332l303 -500h-275z" />
    <glyph glyph-name="a" unicode="a" horiz-adv-x="1569" 
d="M1053 0l0.000976562 160.001c-30 -32 -59 -59.333 -87 -82s-58 -41.167 -90 -55.5s-67.333 -25 -106 -32s-83.667 -10.5 -135 -10.5c-72 0 -140.333 9.83301 -205 29.5s-121.667 49.167 -171 88.5s-88.5 89 -117.5 149s-43.5 130.667 -43.5 212
c0 64.667 11.333 124.167 34 178.5s56.334 101.333 101.001 141s100.5 70.667 167.5 93s145.167 33.5 234.5 33.5h409v107c0 48.667 -6.33301 91.5 -19 128.5s-32.667 67.833 -60 92.5s-62.5 43.167 -105.5 55.5s-94.5 18.5 -154.5 18.5c-43.333 0 -81.333 -2.66699 -114 -8
s-62.334 -14 -89.001 -26s-51.334 -27.667 -74.001 -47s-45.334 -43 -68.001 -71l-200 193c36 42.667 73.167 78.5 111.5 107.5s79.666 52.167 123.999 69.5s92.833 29.666 145.5 36.999s111.334 11 176.001 11c212.667 0 372.334 -45.167 479.001 -135.5
s160 -222.833 160 -397.5v-1040h-303zM1044 684.001l-367.998 0.000976562c-90.667 0 -159.167 -18.833 -205.5 -56.5s-69.5 -92.5 -69.5 -164.5c0 -69.333 22.5 -123.5 67.5 -162.5s116.833 -58.5 215.5 -58.5c53.333 0 101.666 6.66699 144.999 20
s80.666 33.833 111.999 61.5s55.833 62.667 73.5 105s27.5 92.166 29.5 149.499v106z" />
    <glyph glyph-name="b" unicode="b" horiz-adv-x="1659" 
d="M1532 778c0 -63.333 -3 -127.167 -9 -191.5s-17 -126 -33 -185s-38 -114.167 -66 -165.5s-63.5 -96 -106.5 -134s-94.667 -67.833 -155 -89.5s-131.166 -32.5 -212.499 -32.5c-47.333 0 -90.5 3.66699 -129.5 11s-75.333 19 -109 35s-65.5 36.667 -95.5 62
s-59.333 56 -88 92v-180h-311v2253h320v-856c27.333 34 56.666 62.167 87.999 84.5s64.333 40.333 99 54s71.167 23.334 109.5 29.001s78.5 8.5 120.5 8.5c76.667 0 144.167 -9.83301 202.5 -29.5s108.833 -47.334 151.5 -83.001s78.334 -78 107.001 -127
s51.667 -103 69 -162s29.666 -121.833 36.999 -188.5s11 -135 11 -205zM1212 777.999c0 70 -4.5 136.167 -13.5 198.5s-26 117 -51 164s-59.833 84.333 -104.5 112s-103 41.5 -175 41.5c-72.667 0 -130.667 -13.833 -174 -41.5s-76.666 -65 -99.999 -112
s-38.666 -101.667 -45.999 -164s-11 -128.5 -11 -198.5c0 -68.667 5.16699 -134.167 15.5 -196.5s28.166 -117.166 53.499 -164.499s59.166 -85 101.499 -113s95.833 -42 160.5 -42c72 0 130.333 14 175 42s79.5 65.667 104.5 113s42 102.166 51 164.499
s13.5 127.833 13.5 196.5z" />
    <glyph glyph-name="c" unicode="c" horiz-adv-x="1483" 
d="M1380 205c-38 -40 -76.165 -74.1719 -114.498 -102.505s-78.333 -51.666 -120 -69.999s-85.667 -31.666 -132 -39.999s-96.166 -12.5 -149.499 -12.5c-59.333 0 -117.666 6.33301 -174.999 19s-111.833 32.334 -163.5 59.001s-99.334 61 -143.001 103
s-81.334 92.667 -113.001 152s-56.5 127.5 -74.5 204.5s-27 163.833 -27 260.5c0 145.333 19.5 268.5 58.5 369.5s91 183 156 246s139.167 108.667 222.5 137s169.666 42.5 258.999 42.5c53.333 0 103.166 -4.16699 149.499 -12.5s90.333 -21.333 132 -39
s81.667 -40.167 120 -67.5s76.5 -60 114.5 -98l-217 -209c-24.667 26.667 -48.167 49.334 -70.5 68.001s-45.166 33.834 -68.499 45.501s-47.833 20.167 -73.5 25.5s-54.5 8 -86.5 8c-69.333 0 -128.5 -14.333 -177.5 -43s-88.833 -67 -119.5 -115s-53 -103 -67 -165
s-21 -126.333 -21 -193c0 -40 2.66699 -80.667 8 -122s13.833 -81 25.5 -119s27.334 -73.833 47.001 -107.5s43.667 -62.834 72 -87.501s61.666 -44.167 99.999 -58.5s82.5 -21.5 132.5 -21.5c32 0 60.833 2.5 86.5 7.5s50.167 13.333 73.5 25s46.166 26.834 68.499 45.501
s45.833 42 70.5 70l217 -205v0z" />
    <glyph glyph-name="d" unicode="d" horiz-adv-x="1659" 
d="M127 778c0 70 3.66699 138.334 11 205.001s19.666 129.5 36.999 188.5s40.333 113 69 162s64.334 91.333 107.001 127s93.167 63.334 151.5 83.001s125.833 29.5 202.5 29.5c42 0 82.167 -2.83301 120.5 -8.5s75 -15.334 110 -29.001s68.333 -31.667 100 -54
s61.834 -50.5 90.501 -84.5v856h320v-2253h-316v180c-28.667 -36 -57.834 -66.667 -87.501 -92s-61.334 -46 -95.001 -62s-70.167 -27.667 -109.5 -35s-82.333 -11 -129 -11c-80.667 0 -151 10.833 -211 32.5s-111.667 51.5 -155 89.5s-78.833 82.667 -106.5 134
s-49.667 106.5 -66 165.5s-27.666 120.667 -33.999 185s-9.5 128.166 -9.5 191.499zM446 778.001c0 -68.667 4.50293 -134.168 13.5029 -196.501s26.333 -117.166 52 -164.499s61.167 -85 106.5 -113s104.333 -42 177 -42c64.667 0 118.167 14 160.5 42
s76.166 65.667 101.499 113s43.166 102.166 53.499 164.499s15.5 127.833 15.5 196.5c0 46.667 -1.5 91.667 -4.5 135s-8.83301 84.166 -17.5 122.499s-20.667 73.333 -36 105s-35.333 58.834 -60 81.501s-54.334 40.334 -89.001 53.001s-76 19 -124 19
c-72.667 0 -131.667 -13.833 -177 -41.5s-80.833 -65 -106.5 -112s-43 -101.667 -52 -164s-13.5 -128.5 -13.5 -198.5z" />
    <glyph glyph-name="e" unicode="e" horiz-adv-x="1581" 
d="M434 684c0 -66.667 9.00195 -126.668 27.002 -180.001s44.167 -98.833 78.5 -136.5s76.5 -66.667 126.5 -87s106.667 -30.5 170 -30.5c44 0 83.333 3.16699 118 9.5s66.834 16.166 96.501 29.499s57.834 30.333 84.501 51s54 45.334 82 74.001l204 -189
c-41.333 -40 -82.333 -75.167 -123 -105.5s-84.334 -55.833 -131.001 -76.5s-97.5 -36.334 -152.5 -47.001s-117.5 -16 -187.5 -16c-98 0 -189.833 13.833 -275.5 41.5s-160.334 73 -224.001 136s-113.667 145.333 -150 247s-54.5 226.167 -54.5 373.5
c0 126 15.833 238.333 47.5 337s76.5 181.834 134.5 249.501s128.167 119.334 210.5 155.001s174.166 53.5 275.499 53.5c104 0 197.333 -18.333 280 -55s152.667 -88 210 -154s101.166 -145 131.499 -237s45.5 -193.333 45.5 -304v-139h-1024zM1147 904.999
c-2 50 -9 99.501 -21 148.501s-31.5 92.833 -58.5 131.5s-63 70 -108 94s-101.167 36 -168.5 36c-60.667 0 -113 -11.167 -157 -33.5s-80.5 -52.333 -109.5 -90s-50.833 -81.334 -65.5 -131.001s-23 -101.5 -25 -155.5h713z" />
    <glyph glyph-name="f" unicode="f" horiz-adv-x="860" 
d="M541 1315v-1315h-316v1315h-176v241h176v263c0 56 8.5 110.167 25.5 162.5s43.167 98.666 78.5 138.999s80 72.5 134 96.5s118 36 192 36h197v-271h-139c-58 0 -101.167 -15.333 -129.5 -46s-42.5 -74 -42.5 -130v-250h311v-241h-311z" />
    <glyph glyph-name="g" unicode="g" horiz-adv-x="1642" 
d="M1430 -86c0 -94 -15.3311 -180.837 -45.998 -260.504s-75.167 -148.5 -133.5 -206.5s-130 -103.167 -215 -135.5s-181.833 -48.5 -290.5 -48.5c-60 0 -115.667 3.5 -167 10.5s-99.666 18.5 -144.999 34.5s-89 36.667 -131 62s-84 56.333 -126 93l201 201
c26.667 -22.667 52.834 -42.667 78.501 -60s52.834 -31.833 81.501 -43.5s59.167 -20.5 91.5 -26.5s68.5 -9 108.5 -9c68 0 125.833 10.833 173.5 32.5s86.5 50.834 116.5 87.501s52 79 66 127s21 98 21 150v238c-30 -32.667 -60.833 -60.167 -92.5 -82.5
s-64.834 -40.5 -99.501 -54.5s-70.834 -24 -108.501 -30s-76.834 -9 -117.501 -9c-77.333 0 -145 11.167 -203 33.5s-108.167 52.833 -150.5 91.5s-77.333 84.334 -105 137.001s-49.667 109.334 -66 170.001s-27.833 124 -34.5 190s-10 131.667 -10 197
c0 62.667 3 125.334 9 188.001s17 122.5 33 179.5s37.667 110 65 159s62.166 91.5 104.499 127.5s93.166 64.333 152.499 85s129 31 209 31c42 0 82.167 -3.5 120.5 -10.5s75 -18.333 110 -34s68.667 -36 101 -61s63.833 -55.5 94.5 -91.5v180h304v-1642zM1114 802.996
c0 62.667 -4.83203 123.5 -14.499 182.5s-26.667 111.333 -51 157s-57.666 82.334 -99.999 110.001s-96.5 41.5 -162.5 41.5c-73.333 0 -132.5 -13.833 -177.5 -41.5s-79.833 -64.334 -104.5 -110.001s-41.167 -98 -49.5 -157s-12.5 -119.833 -12.5 -182.5
c0 -40 1.66699 -81.167 5 -123.5s9.66602 -83.333 18.999 -123s22 -77.167 38 -112.5s36.667 -66.166 62 -92.499s56 -47.166 92 -62.499s78.667 -23 128 -23c44.667 0 83.667 7.66699 117 23s62.166 36.166 86.499 62.499s44.5 57.166 60.5 92.499s28.667 72.833 38 112.5
s16 80.5 20 122.5s6 83.333 6 124z" />
    <glyph glyph-name="h" unicode="h" horiz-adv-x="1679" 
d="M1163 0l0.000976562 954.001c0 58.667 -8.16699 109.334 -24.5 152.001s-38.5 78 -66.5 106s-61 48.667 -99 62s-78.333 20 -121 20c-42 0 -82 -9.33301 -120 -28s-71.5 -44.834 -100.5 -78.501s-52 -73.5 -69 -119.5s-25.5 -96 -25.5 -150v-918h-316v2253h316v-856
c53.333 57.333 113.666 101 180.999 131s139.333 45 216 45c86.667 0 163.667 -14 231 -42s124 -67.167 170 -117.5s80.833 -110.833 104.5 -181.5s35.5 -148.334 35.5 -233.001v-999h-312z" />
    <glyph glyph-name="i" unicode="i" horiz-adv-x="770" 
d="M225 0v1556h320v-1556h-320zM193 2089c0 28 5 53.668 15 77.001s23.667 43.5 41 60.5s37.666 30.333 60.999 40s48.333 14.5 75 14.5s51.667 -4.83301 75 -14.5s43.833 -23 61.5 -40s31.5 -37.167 41.5 -60.5s15 -49 15 -77c0 -26.667 -5 -51.667 -15 -75
s-23.833 -43.833 -41.5 -61.5s-38.167 -31.5 -61.5 -41.5s-48.333 -15 -75 -15s-51.667 5 -75 15s-43.666 23.833 -60.999 41.5s-31 38.167 -41 61.5s-15 48.333 -15 74.999z" />
    <glyph glyph-name="j" unicode="j" horiz-adv-x="770" 
d="M545 -205c0 -57.333 -8.33301 -112.001 -25 -164.001s-42.5 -97.667 -77.5 -137s-79.667 -70.666 -134 -93.999s-118.833 -35 -193.5 -35h-193v266h139c61.333 0 104 15.333 128 46s36 75.667 36 135v1744h320v-1761zM193 2089c0 28 5 53.667 15 77s23.667 43.5 41 60.5
s37.666 30.333 60.999 40s48.333 14.5 75 14.5s51.667 -4.83301 75 -14.5s43.833 -23 61.5 -40s31.5 -37.167 41.5 -60.5s15 -49 15 -77c0 -26.667 -5 -51.667 -15 -75s-23.833 -43.833 -41.5 -61.5s-38.167 -31.5 -61.5 -41.5s-48.333 -15 -75 -15s-51.667 5 -75 15
s-43.666 23.833 -60.999 41.5s-31 38.167 -41 61.5s-15 48.333 -15 75z" />
    <glyph glyph-name="k" unicode="k" horiz-adv-x="1577" 
d="M1196 0l-434 717l-225 -258v-459h-316v2253h316v-1417l598 720h381l-537 -614l606 -942h-389z" />
    <glyph glyph-name="l" unicode="l" horiz-adv-x="840" 
d="M643 0c-74 0 -137.667 11.667 -191 35s-97.5 54.5 -132.5 93.5s-60.833 84.333 -77.5 136s-25 105.5 -25 161.5v1827h311v-1807c0 -29.333 2.83301 -55.333 8.5 -78s15 -41.5 28 -56.5s30.167 -26.333 51.5 -34s48 -11.5 80 -11.5h140v-266h-193z" />
    <glyph glyph-name="m" unicode="m" horiz-adv-x="2707" 
d="M2175 0l0.00292969 945.997c0 60.667 -9 112.834 -27 156.501s-42.5 79.667 -73.5 108s-66.833 49.333 -107.5 63s-83.334 20.5 -128.001 20.5c-42 0 -82.167 -6.66699 -120.5 -20s-72.333 -33.666 -102 -60.999s-53.167 -61.833 -70.5 -103.5s-26 -90.5 -26 -146.5v-963
h-316v946c0 60.667 -9 112.834 -27 156.501s-42.333 79.667 -73 108s-66.334 49.333 -107.001 63s-83.667 20.5 -129 20.5c-40.667 0 -80.834 -9.5 -120.501 -28.5s-75 -45.5 -106 -79.5s-56.167 -74.5 -75.5 -121.5s-29 -98.833 -29 -155.5v-909h-316v1556h307v-176
c26 30.667 55.667 58 89 82s68.833 44.167 106.5 60.5s76.5 28.833 116.5 37.5s79.333 13 118 13c48 0 94.667 -4.83301 140 -14.5s87.833 -24.167 127.5 -43.5s76 -43.333 109 -72s61.833 -62 86.5 -100c64 78.667 135.5 136.667 214.5 174s170.167 56 273.5 56
c82 0 158.333 -14.167 229 -42.5s132 -68 184 -119s93 -112 123 -183s45 -148.833 45 -233.5v-995h-315z" />
    <glyph glyph-name="n" unicode="n" horiz-adv-x="1679" 
d="M524 1556l0.000976562 -176.002c55.333 68 118.5 117.167 189.5 147.5s144.5 45.5 220.5 45.5c82.667 0 157.667 -14.333 225 -43s124.666 -68.667 171.999 -120s83.833 -112.333 109.5 -183s38.5 -148 38.5 -232v-995h-316v946c0 60.667 -8.16699 112.834 -24.5 156.501
s-38.5 79.667 -66.5 108s-61 49.333 -99 63s-78.333 20.5 -121 20.5c-40 0 -79.167 -9.66699 -117.5 -29s-72.5 -46.166 -102.5 -80.499s-54.167 -75 -72.5 -122s-27.5 -98.167 -27.5 -153.5v-909h-315v1556h307z" />
    <glyph glyph-name="o" unicode="o" horiz-adv-x="1634" 
d="M1491 778c0 -68 -4.99902 -134.998 -14.999 -200.998s-26.167 -128.5 -48.5 -187.5s-51 -113.5 -86 -163.5s-77.667 -93.333 -128 -130s-108.833 -65.167 -175.5 -85.5s-142.334 -30.5 -227.001 -30.5c-80.667 0 -153.167 9.66699 -217.5 29s-121.5 46.5 -171.5 81.5
s-92.833 77 -128.5 126s-65 103 -88 162s-39.833 122.167 -50.5 189.5s-16 137.333 -16 210c0 68 4.83301 135 14.5 201s25.334 128.5 47.001 187.5s49.667 113.333 84 163s76.5 92.5 126.5 128.5s108 64.167 174 84.5s141.333 30.5 226 30.5
c122.667 0 227.167 -20.667 313.5 -62s156.666 -97.833 210.999 -169.5s93.833 -155.834 118.5 -252.501s37 -200.334 37 -311.001zM1180 778.002c0 38 -2.00195 76.998 -6.00195 116.998s-11.167 79.167 -21.5 117.5s-24.333 74.5 -42 108.5s-40.167 63.833 -67.5 89.5
s-60 46 -98 61s-82.667 22.5 -134 22.5c-48 0 -90 -7 -126 -21s-67.167 -33.167 -93.5 -57.5s-48.333 -53 -66 -86s-31.667 -68.5 -42 -106.5s-17.666 -78 -21.999 -120s-6.5 -83.667 -6.5 -125c0 -37.333 1.83301 -76 5.5 -116s10.334 -79.167 20.001 -117.5
s23 -74.666 40 -108.999s38.667 -64.333 65 -90s58 -46 95 -61s80.5 -22.5 130.5 -22.5c48 0 90.333 6.83301 127 20.5s68.667 32.5 96 56.5s50.333 52.5 69 85.5s33.667 68.667 45 107s19.5 78.333 24.5 120s7.5 83.834 7.5 126.501z" />
    <glyph glyph-name="p" unicode="p" horiz-adv-x="1659" 
d="M1532 778c0 -71.333 -3.66699 -140.333 -11 -207s-19.666 -129.334 -36.999 -188.001s-40.333 -112.5 -69 -161.5s-64.334 -91.167 -107.001 -126.5s-93.167 -62.666 -151.5 -81.999s-125.833 -29 -202.5 -29c-42 0 -82.167 2.83301 -120.5 8.5
s-74.833 15.334 -109.5 29.001s-67.667 31.667 -99 54s-60.666 50.5 -87.999 84.5v-856h-320v2252h311v-180c28.667 34.667 58 64.5 88 89.5s61.833 45.5 95.5 61.5s70 27.667 109 35s82.167 11 129.5 11c81.333 0 152.166 -10.833 212.499 -32.5s112 -51.334 155 -89.001
s78.5 -82 106.5 -133s50 -106 66 -165s27 -120.5 33 -184.5s9 -127.667 9 -191zM1212 778c0 68.667 -4.5 134.167 -13.5 196.5s-26 117.166 -51 164.499s-59.833 85 -104.5 113s-103 42 -175 42c-64.667 0 -118.167 -14 -160.5 -42s-76.166 -65.667 -101.499 -113
s-43.166 -102.166 -53.499 -164.499s-15.5 -127.833 -15.5 -196.5c0 -69.333 3.66699 -135.333 11 -198s22.666 -117.5 45.999 -164.5s56.666 -84.333 99.999 -112s101.333 -41.5 174 -41.5c72 0 130.333 13.833 175 41.5s79.5 65 104.5 112s42 101.833 51 164.5
s13.5 128.667 13.5 198z" />
    <glyph glyph-name="q" unicode="q" horiz-adv-x="1659" 
d="M127 778c0 63.333 3.16699 127 9.5 191s17.666 125.5 33.999 184.5s38.333 114 66 165s63.167 95.333 106.5 133s95 67.334 155 89.001s130.333 32.5 211 32.5c46.667 0 89.667 -3.66699 129 -11s75.833 -19 109.5 -35s65.334 -36.5 95.001 -61.5
s58.834 -54.833 87.501 -89.5v180h316v-2252h-320v856c-28.667 -34 -58.834 -62.167 -90.501 -84.5s-65 -40.333 -100 -54s-71.667 -23.334 -110 -29.001s-78.5 -8.5 -120.5 -8.5c-76.667 0 -144.167 9.66699 -202.5 29s-108.833 46.666 -151.5 81.999
s-78.334 77.5 -107.001 126.5s-51.667 102.833 -69 161.5s-29.666 121.334 -36.999 188.001s-11 135.667 -11 207zM446 778c0 -69.333 4.49805 -135.333 13.498 -198s26.333 -117.5 52 -164.5s61.167 -84.333 106.5 -112s104.333 -41.5 177 -41.5
c71.333 0 128.666 13.833 171.999 41.5s76.833 65 100.5 112s39.334 101.833 47.001 164.5s11.5 128.667 11.5 198c0 68.667 -5.16699 134.167 -15.5 196.5s-28.166 117.166 -53.499 164.499s-59.166 85 -101.499 113s-95.833 42 -160.5 42c-72.667 0 -131.667 -14 -177 -42
s-80.833 -65.667 -106.5 -113s-43 -102.166 -52 -164.499s-13.5 -127.833 -13.5 -196.5z" />
    <glyph glyph-name="r" unicode="r" horiz-adv-x="1077" 
d="M987 1257c-22.667 12.667 -45.167 21.999 -67.5 27.999s-48.833 9 -79.5 9c-42 0 -81.667 -10.167 -119 -30.5s-70 -48 -98 -83s-50.167 -76.167 -66.5 -123.5s-24.5 -98 -24.5 -152v-905h-315v1556h307v-188c20.667 26.667 45.5 52.334 74.5 77.001s61.333 46.5 97 65.5
s74 34.167 115 45.5s83.5 17 127.5 17c90 0 169.333 -17.667 238 -53z" />
    <glyph glyph-name="s" unicode="s" horiz-adv-x="1479" 
d="M1343 475c0 -80.667 -15.835 -151.832 -47.502 -213.499s-75.5 -113.334 -131.5 -155.001s-121.833 -73.167 -197.5 -94.5s-157.5 -32 -245.5 -32c-60.667 0 -119.167 3.33301 -175.5 10s-110.666 18.334 -162.999 35.001s-102.5 39.5 -150.5 68.5s-94 66.167 -138 111.5
l197 209c30.667 -32.667 63.167 -59.834 97.5 -81.501s69.833 -38.834 106.5 -51.501s74 -21.667 112 -27s76 -8 114 -8c46 0 89 4.33301 129 13s74.667 22 104 40s52.5 40.5 69.5 67.5s25.5 59.167 25.5 96.5c0 51.333 -16 93.333 -48 126s-83 52 -153 58l-242 25
c-69.333 4.66699 -131.333 16.667 -186 36s-101 46.5 -139 81.5s-67 78 -87 129s-30 110.833 -30 179.5c0 76 14.833 143.333 44.5 202s70.167 108.334 121.5 149.001s111.166 71.5 179.499 92.5s141.5 31.5 219.5 31.5c55.333 0 109 -3.16699 161 -9.5
s101.5 -16.5 148.5 -30.5s91.333 -32.167 133 -54.5s79.834 -49.5 114.501 -81.5l-192 -201c-48 43.333 -103.333 74 -166 92s-129 27 -199 27c-46 0 -86.167 -5 -120.5 -15s-62.833 -24 -85.5 -42s-39.667 -39.333 -51 -64s-17 -51.334 -17 -80.001
c0 -23.333 3.33301 -45.166 10 -65.499s18.167 -38.333 34.5 -54s37.833 -28.667 64.5 -39s60 -17.5 100 -21.5l237 -21c68.667 -6 130.334 -19.333 185.001 -40s101 -49 139 -85s67.167 -80 87.5 -132s30.5 -112.333 30.5 -181z" />
    <glyph glyph-name="t" unicode="t" horiz-adv-x="926" 
d="M651 0c-74 0 -137.667 11.999 -191 35.999s-97.5 56 -132.5 96s-60.833 85.833 -77.5 137.5s-25 105.167 -25 160.5v885h-180v241h180v488h312v-488h299v-241h-299v-869c0 -55.333 14.167 -99.166 42.5 -131.499s71.5 -48.5 129.5 -48.5h127v-266h-185z" />
    <glyph glyph-name="u" unicode="u" horiz-adv-x="1683" 
d="M1159 0l-0.000976562 176c-55.333 -69.333 -118.666 -119.333 -189.999 -150s-146 -46 -224 -46c-82 0 -156.167 14.5 -222.5 43.5s-123 69.333 -170 121s-83.333 113 -109 184s-38.5 148.5 -38.5 232.5v995h315v-946c0 -61.333 8.16699 -114 24.5 -158
s38.5 -80 66.5 -108s60.833 -48.667 98.5 -62s78.167 -20 121.5 -20c40 0 79.167 9.5 117.5 28.5s72.5 45.5 102.5 79.5s54.167 74.667 72.5 122s27.5 99 27.5 155v909h315v-1556h-307z" />
    <glyph glyph-name="v" unicode="v" horiz-adv-x="1491" 
d="M872 0h-254l-581 1556h336l377 -1097l368 1097h336z" />
    <glyph glyph-name="w" unicode="w" horiz-adv-x="2331" 
d="M1798 0h-266l-369 1085l-364 -1085h-275l-487 1556h336l307 -1097l364 1097h242l365 -1097l303 1097h340z" />
    <glyph glyph-name="x" unicode="x" horiz-adv-x="1499" 
d="M1073 0l-323 532l-332 -532h-373l533 795l-512 761h376l308 -507l303 507h377l-508 -761l528 -795h-377z" />
    <glyph glyph-name="y" unicode="y" horiz-adv-x="1491" 
d="M729 -393c-35.333 -99.333 -89.168 -175.334 -161.501 -228.001s-163.166 -79 -272.499 -79h-139v274h90c32.667 0 60.5 3.16699 83.5 9.5s43 16.5 60 30.5s31.833 31.833 44.5 53.5s25 47.834 37 78.501l119 328l-553 1482h336l377 -1097l368 1097h336z" />
    <glyph glyph-name="z" unicode="z" horiz-adv-x="1405" 
d="M123 0v246l774 1028h-733v282h1118v-249l-778 -1028h778v-279h-1159z" />
    <glyph glyph-name="braceleft" unicode="{" horiz-adv-x="1020" 
d="M782 -225c-80 0 -146.505 7.66895 -199.505 23.002s-96.833 41.666 -131.5 78.999c-20.667 20.667 -38 42.167 -52 64.5s-25.333 46.5 -34 72.5s-15 54.333 -19 85s-6 64.667 -6 102v520c0 41.333 -4.83301 77.166 -14.5 107.499s-22.5 55.833 -38.5 76.5
c-18.667 16.667 -39.834 30.5 -63.501 41.5s-53.167 16.5 -88.5 16.5h-115v278h115c35.333 0 64.833 5.66699 88.5 17s44.834 26.333 63.501 45c16 16 28.833 39.333 38.5 70s14.5 68.667 14.5 114v573c0 68 9.83301 128.5 29.5 181.5s48.334 98 86.001 135
s83.834 65.167 138.501 84.5s117.334 29 188.001 29h217v-278h-118c-41.333 0 -76.333 -4.16699 -105 -12.5s-52 -22.166 -70 -41.5c-18 -19.333 -31 -44.666 -39 -75.999s-12 -70 -12 -116v-553c0 -51.333 -6 -94.5 -18 -129.5s-27.667 -64.167 -47 -87.5
s-41.166 -42.333 -65.499 -57s-48.833 -27 -73.5 -37c24.667 -11.333 49.167 -24.333 73.5 -39s46.166 -33.5 65.499 -56.5s35 -51.5 47 -85.5s18 -76 18 -126v-504c0 -26.667 0.833008 -50.167 2.5 -70.5s4.33398 -38.333 8.00098 -54s8.33398 -29.334 14.001 -41.001
s12.5 -22.167 20.5 -31.5c8 -8 17.333 -14.667 28 -20s23.167 -9.5 37.5 -12.5s31 -5.16699 50 -6.5s40.833 -2 65.5 -2h118v-278h-217z" />
    <glyph glyph-name="bar" unicode="|" horiz-adv-x="1020" 
d="M352 -225v2711h316v-2711h-316z" />
    <glyph glyph-name="braceright" unicode="}" horiz-adv-x="1020" 
d="M12 -225l0.00195312 277.999h119c49.333 0 88.166 2.66699 116.499 8s49.5 16.333 63.5 33c9.33301 9.33301 16.833 19.833 22.5 31.5s10.167 25.334 13.5 41.001s5.66602 33.667 6.99902 54s2 43.833 2 70.5v504c0 50 6 92 18 126s27.833 62.5 47.5 85.5
s41.667 41.833 66 56.5s48.833 27.667 73.5 39c-24.667 10 -49.167 22.333 -73.5 37s-46.333 33.667 -66 57s-35.5 52.5 -47.5 87.5s-18 78.167 -18 129.5v553c0 46 -4 84.667 -12 116s-21 56.666 -39 76c-18 19.333 -41.333 33.166 -70 41.499s-63.334 12.5 -104.001 12.5
h-119v278h217c70.667 0 133.5 -9.66699 188.5 -29s101.333 -47.5 139 -84.5s66.334 -82 86.001 -135s29.5 -113.5 29.5 -181.5v-573c0 -90 19 -151.333 57 -184c16.667 -18.667 36.667 -33.667 60 -45s52.666 -17 87.999 -17h118v-278h-118
c-35.333 0 -64.666 -5.5 -87.999 -16.5s-43.333 -24.833 -60 -41.5c-38 -42 -57 -103.333 -57 -184v-520c0 -37.333 -2 -71.333 -6 -102s-10.333 -59 -19 -85s-20 -50.167 -34 -72.5s-31.333 -43.833 -52 -64.5c-34.667 -37.333 -78.667 -63.666 -132 -78.999
s-120 -23 -200 -23h-217z" />
    <glyph glyph-name="asciitilde" unicode="~" horiz-adv-x="1737" 
d="M1622 860c-63.333 -63.333 -124.832 -114.165 -184.499 -152.498s-121.167 -63.5 -184.5 -75.5s-130.333 -10.667 -201 4s-148.334 43 -233.001 85c-51.333 23.333 -98.166 41.166 -140.499 53.499s-83 17 -122 14s-78 -14.833 -117 -35.5s-80.5 -52 -124.5 -94l-200 197
c43.333 42 84.666 78.333 123.999 109s78.666 55.834 117.999 75.501s79.333 33.667 120 42s83.334 10.666 128.001 6.99902s92.334 -13.334 143.001 -29.001s105.667 -37.5 165 -65.5c47.333 -23.333 92.5 -40.833 135.5 -52.5s85.167 -15.667 126.5 -12
s82.166 15.667 122.499 36s81.5 50.5 123.5 90.5l201 -197v0z" />
    <glyph glyph-name="uni00A0" unicode="&#xa0;" horiz-adv-x="856" 
 />
    <glyph glyph-name="cent" unicode="&#xa2;" horiz-adv-x="1606" 
d="M1384 594c-36.667 -49.333 -72.667 -91.001 -108 -125.001s-71.166 -61.833 -107.499 -83.5s-73.833 -38 -112.5 -49s-79.334 -18.167 -122.001 -21.5v-266h-238v279c-85.333 12 -160.333 37.833 -225 77.5s-118.834 90.834 -162.501 153.501s-76.667 136 -99 220
s-33.5 176.667 -33.5 278c0 102 11.167 195.333 33.5 280s55.333 158.5 99 221.5s97.834 114.333 162.501 154s139.667 65.5 225 77.5v221h238v-213c75.333 -8 150.333 -32.833 225 -74.5s149.667 -105.5 225 -191.5l-188 -160c-49.333 60 -95 104.833 -137 134.5
s-83.667 47.834 -125 54.501v-1012c47.333 8 92.833 28.667 136.5 62s88.167 76.666 133.5 129.999zM696 1540c-50 -16 -92 -40 -126 -72s-61.333 -69.5 -82 -112.5s-35.5 -90 -44.5 -141s-13.5 -103.5 -13.5 -157.5c0 -48 4.5 -96.5 13.5 -145.5s23.833 -95 44.5 -138
s48 -81.5 82 -115.5s76 -60.667 126 -80v962z" />
    <glyph glyph-name="sterling" unicode="&#xa3;" horiz-adv-x="1552" 
d="M221 0l-0.00390625 918h-196v253h196v254c0 100.667 16.667 191.834 50 273.501s80.833 151.5 142.5 209.5s136.5 102.667 224.5 134s186.667 47 296 47c110.667 0 213.834 -19.833 309.501 -59.5s187.834 -100.5 276.501 -182.5l-226 -205l-76 63
c-25.333 20 -52.166 37.833 -80.499 53.5s-59.166 28.167 -92.499 37.5s-70.333 14 -111 14c-63.333 0 -119.5 -9.33301 -168.5 -28s-90.167 -45.667 -123.5 -81s-58.5 -78.833 -75.5 -130.5s-25.5 -110.834 -25.5 -177.501v-222h475v-253h-475v-635h946v-283h-1266z" />
    <glyph glyph-name="yen" unicode="&#xa5;" horiz-adv-x="1581" 
d="M1143 1208h336v-254h-467l-54 -102v-135h521v-254h-521v-463h-335v463h-525v254h525v135l-54 102h-471v254h340l-438 852h369l426 -876l417 876h369z" />
    <glyph glyph-name="copyright" unicode="&#xa9;" horiz-adv-x="2626" 
d="M2413 1057c0 -102 -13.001 -200 -39.001 -294s-62.667 -181.833 -110 -263.5s-104.333 -156 -171 -223s-140.667 -124.333 -222 -172s-169 -84.5 -263 -110.5s-191.667 -39 -293 -39s-199 13 -293 39s-181.833 62.833 -263.5 110.5s-156 105 -223 172
s-124.333 141.333 -172 223s-84.667 169.5 -111 263.5s-39.5 192 -39.5 294c0 101.333 13.167 199 39.5 293s63.333 181.5 111 262.5s105 154.833 172 221.5s141.333 123.667 223 171s169.334 84 263.001 110s191.5 39 293.5 39c101.333 0 199 -13 293 -39
s181.667 -62.667 263 -110s155.333 -104.333 222 -171s123.667 -140.5 171 -221.5s84 -168.5 110 -262.5s39 -191.667 39 -293zM2154 1057c0 76.667 -10.166 150.834 -30.499 222.501s-48.666 138.834 -85 201.501c-36.333 62.667 -80.166 120 -131.499 172
s-108.166 96.667 -170.499 134s-129 66.333 -200 87s-144.833 31 -221.5 31s-150.5 -10.333 -221.5 -31s-137.667 -49.667 -200 -87s-119.166 -82 -170.499 -134s-95.333 -109.333 -132 -172s-65.167 -129.834 -85.5 -201.501s-30.5 -145.834 -30.5 -222.501
c0 -76 10.167 -149.667 30.5 -221s48.833 -138.666 85.5 -201.999s80.667 -121.166 132 -173.499s108.166 -97.5 170.499 -135.5s129 -67.5 200 -88.5s144.833 -31.5 221.5 -31.5s150.5 10.5 221.5 31.5s137.667 50.5 200 88.5s119.166 83.167 170.499 135.5
s95.166 110.166 131.499 173.499s64.666 130.666 84.999 201.999s30.5 145 30.5 221zM1782 623c-39.333 -35.333 -75.832 -65 -109.499 -89s-67.5 -43.333 -101.5 -58s-69 -25.334 -105 -32.001s-75.333 -10 -118 -10c-94 0 -175.333 16.667 -244 50
s-125.334 78.5 -170.001 135.5s-77.667 123.167 -99 198.5s-32 155 -32 239c0 86.667 10.667 168.667 32 246s54.333 144.666 99 201.999s101.334 102.833 170.001 136.5s150 50.5 244 50.5c42 0 81.667 -4.33301 119 -13s74 -21.5 110 -38.5s71.667 -38 107 -63
s72 -53.833 110 -86.5l-164 -180c-30 26.667 -57.333 48.834 -82 66.501s-48 31.834 -70 42.501s-43.5 18.334 -64.5 23.001s-42.833 7 -65.5 7c-55.333 0 -101.833 -10.667 -139.5 -32s-68 -50 -91 -86s-39.5 -77.833 -49.5 -125.5s-15 -97.5 -15 -149.5
c0 -50 5 -98 15 -144s26.5 -86.5 49.5 -121.5s53.333 -63 91 -84s84.167 -31.5 139.5 -31.5c23.333 0 45.666 2.16699 66.999 6.5s43 11.833 65 22.5s45 24.667 69 42s51 38.666 81 63.999l152 -172v-16z" />
    <glyph glyph-name="guillemotleft" unicode="&#xab;" horiz-adv-x="1782" 
d="M889 836l704 700v-377l-331 -323l331 -332v-377zM111 836l708 700v-377l-332 -323l332 -332v-377z" />
    <glyph glyph-name="registered" unicode="&#xae;" horiz-adv-x="2626" 
d="M2413 1057c0 -102 -13.001 -200 -39.001 -294s-62.667 -181.833 -110 -263.5s-104.333 -156 -171 -223s-140.667 -124.333 -222 -172s-169 -84.5 -263 -110.5s-191.667 -39 -293 -39s-199 13 -293 39s-181.833 62.833 -263.5 110.5s-156 105 -223 172
s-124.333 141.333 -172 223s-84.667 169.5 -111 263.5s-39.5 192 -39.5 294c0 101.333 13.167 199 39.5 293s63.333 181.5 111 262.5s105 154.833 172 221.5s141.333 123.667 223 171s169.334 84 263.001 110s191.5 39 293.5 39c101.333 0 199 -13 293 -39
s181.667 -62.667 263 -110s155.333 -104.333 222 -171s123.667 -140.5 171 -221.5s84 -168.5 110 -262.5s39 -191.667 39 -293zM2154 1057c0 76.667 -10.166 150.834 -30.499 222.501s-48.666 138.834 -85 201.501c-36.333 62.667 -80.166 120 -131.499 172
s-108.166 96.667 -170.499 134s-129 66.333 -200 87s-144.833 31 -221.5 31s-150.5 -10.333 -221.5 -31s-137.667 -49.667 -200 -87s-119.166 -82 -170.499 -134s-95.333 -109.333 -132 -172s-65.167 -129.834 -85.5 -201.501s-30.5 -145.834 -30.5 -222.501
c0 -76 10.167 -149.667 30.5 -221s48.833 -138.666 85.5 -201.999s80.667 -121.166 132 -173.499s108.166 -97.5 170.499 -135.5s129 -67.5 200 -88.5s144.833 -31.5 221.5 -31.5s150.5 10.5 221.5 31.5s137.667 50.5 200 88.5s119.166 83.167 170.499 135.5
s95.166 110.166 131.499 173.499s64.666 130.666 84.999 201.999s30.5 145 30.5 221zM1536 446l-266 451h-74v-451h-250v1213h414c53.333 0 103.833 -9.5 151.5 -28.5s89.334 -45.5 125.001 -79.5s64 -74.667 85 -122s31.5 -99 31.5 -155c0 -39.333 -5.33301 -76 -16 -110
s-25.334 -65.333 -44.001 -94s-40.667 -54.5 -66 -77.5s-53 -42.5 -83 -58.5l146.5 -242.5l140.5 -245.5h-295zM1511 1274c0 21.333 -4.16699 41 -12.5 59s-19.666 33.5 -33.999 46.5s-31.5 23.167 -51.5 30.5s-41.667 11 -65 11h-152v-291h152c23.333 0 45 3.66699 65 11
s37.167 17.5 51.5 30.5s25.666 28.167 33.999 45.5s12.5 36.333 12.5 57z" />
    <glyph glyph-name="guillemotright" unicode="&#xbb;" horiz-adv-x="1782" 
d="M188 127v377l332 332l-332 323v377l705 -700zM963 127v377l331 332l-331 323v377l708 -700z" />
    <glyph glyph-name="onequarter" unicode="&#xbc;" horiz-adv-x="2408" 
d="M2126 188v-188h-217v188h-516v152l483 917h233l-462 -884h262v332h217v-332h160v-185h-160zM762 0h-242l1057 2056h238zM418 799v995l-242 -188v225l270 225h189v-1257h-217z" />
    <glyph glyph-name="onehalf" unicode="&#xbd;" horiz-adv-x="2408" 
d="M1483 0l0.00292969 164.001l524 602c18.667 22.667 32.167 44.5 40.5 65.5s12.5 46.833 12.5 77.5c0 52 -15.333 93 -46 123s-74 45 -130 45c-23.333 0 -45.833 -3.83301 -67.5 -11.5s-40.834 -19.834 -57.501 -36.501s-30 -38.667 -40 -66s-15 -60.333 -15 -99h-221
c2 59.333 12.833 113.833 32.5 163.5s47 92.5 82 128.5s76.667 64 125 84s102.166 30 161.499 30s113.666 -8.83301 162.999 -26.5s91.666 -42.334 127 -74.001c35.333 -31.667 62.833 -69.667 82.5 -114s29.5 -93.166 29.5 -146.499c0 -25.333 -2.66699 -49.166 -8 -71.499
s-13.166 -44 -23.5 -65c-10.333 -21 -22.833 -42.333 -37.5 -64s-31.334 -44.834 -50 -69.501l-393 -446h512v-193h-803zM729.003 0.000976562h-242l1049 2056h246zM418.003 799.001v995l-242 -188v225l270 225h189v-1257h-217z" />
    <glyph glyph-name="threequarters" unicode="&#xbe;" horiz-adv-x="2408" 
d="M2167 188v-188h-221v188h-512v152l483 917h233l-462 -880h258v328h221v-328h151v-189h-151zM922 0h-246l1065 2056h241zM979 1167c0 -63.333 -10.8281 -118.662 -32.4951 -165.995s-51.334 -86.5 -89.001 -117.5s-81.834 -54.167 -132.501 -69.5
s-105.334 -23 -164.001 -23c-57.333 0 -111.333 7.33301 -162 22s-95.334 37.834 -134.001 69.501s-70 72.334 -94 122.001s-37.333 109.5 -40 179.5h217c4 -37.333 12.667 -68.833 26 -94.5s29.5 -46.834 48.5 -63.501s40.5 -28.667 64.5 -36s48.667 -11 74 -11
c28 0 54.167 4.33301 78.5 13s45.5 21 63.5 37s32.333 35.667 43 59s16 49.666 16 78.999c0 56 -17.5 100.167 -52.5 132.5s-88.5 48.5 -160.5 48.5h-66v192h66c64 0 110.667 13.667 140 41s44 67 44 119c0 30 -4.83301 56 -14.5 78s-22.5 40.167 -38.5 54.5
s-34.667 25.166 -56 32.499s-43.666 11 -66.999 11c-56 0 -100.5 -16.667 -133.5 -50s-52.5 -81 -58.5 -143h-222c7.33301 61.333 22.666 116.166 45.999 164.499s53 89.166 89 122.499s77.667 58.833 125 76.5s98.666 26.5 153.999 26.5c58.667 0 112.5 -8.66699 161.5 -26
s91.167 -42 126.5 -74s63 -70.833 83 -116.5s30 -96.5 30 -152.5c0 -54 -11.167 -102.333 -33.5 -145s-51.833 -80.334 -88.5 -113.001c45.333 -28.667 80.5 -66.834 105.5 -114.501s37.5 -102.5 37.5 -164.5z" />
    <glyph glyph-name="multiply" unicode="&#xd7;" horiz-adv-x="1737" 
d="M1368 143l-504 500l-495 -500l-209 209l504 500l-504 500l209 204l495 -499l504 499l205 -204l-500 -500l500 -500z" />
    <glyph glyph-name="divide" unicode="&#xf7;" horiz-adv-x="1659" 
d="M119 700v295h1417v-295h-1417zM639 1430c0 26.667 5 51.667 15 75s23.667 43.666 41 60.999s37.666 31 60.999 41s48.333 15 75 15s51.667 -5 75 -15s43.833 -23.667 61.5 -41s31.5 -37.666 41.5 -60.999s15 -48.333 15 -75c0 -28 -5 -53.667 -15 -77
s-23.833 -43.666 -41.5 -60.999s-38.167 -30.833 -61.5 -40.5s-48.333 -14.5 -75 -14.5s-51.667 4.83301 -75 14.5s-43.666 23.167 -60.999 40.5s-31 37.666 -41 60.999s-15 49 -15 77zM639 279c0 26.667 5 51.667 15 75s23.667 43.666 41 60.999s37.666 31 60.999 41
s48.333 15 75 15s51.667 -5 75 -15s43.833 -23.667 61.5 -41s31.5 -37.666 41.5 -60.999s15 -48.333 15 -75c0 -28 -5 -53.667 -15 -77s-23.833 -43.666 -41.5 -60.999s-38.167 -30.833 -61.5 -40.5s-48.333 -14.5 -75 -14.5s-51.667 4.83301 -75 14.5
s-43.666 23.167 -60.999 40.5s-31 37.666 -41 60.999s-15 49 -15 77z" />
    <glyph glyph-name="kokaithai" unicode="&#xe01;" horiz-adv-x="1831" 
d="M565 1049l-0.00195312 -1049h-327v975l-160 221c94 157.333 206.5 275.833 337.5 355.5s284.833 119.5 461.5 119.5c124 0 232.333 -14.5 325 -43.5s169.834 -71.333 231.501 -127s107.834 -124.167 138.501 -205.5s46 -174.333 46 -279v-1016h-328v991
c0 70.667 -9.33301 130.667 -28 180s-45.667 89.5 -81 120.5s-79 53.5 -131 67.5s-111.333 21 -178 21c-34 0 -68.833 -3.33301 -104.5 -10s-71 -17 -106 -31s-69.333 -31.833 -103 -53.5s-65.5 -47.5 -95.5 -77.5z" />
    <glyph glyph-name="khokhaithai" unicode="&#xe02;" horiz-adv-x="1577" 
d="M82 1438c26.667 34.667 56.001 66.165 88.001 94.498s65.167 52.5 99.5 72.5s69.333 35.333 105 46s70.5 16 104.5 16c61.333 0 116.666 -8.33301 165.999 -25s91.166 -40.667 125.499 -72s60.666 -69.166 78.999 -113.499s27.5 -94.166 27.5 -149.499
c0 -41.333 -6.33301 -79.333 -19 -114s-29.5 -67.334 -50.5 -98.001s-44.667 -59.5 -71 -86.5s-53.5 -53.167 -81.5 -78.5c-23.333 -21.333 -43.5 -40.666 -60.5 -57.999s-31 -34.833 -42 -52.5s-19.167 -36.834 -24.5 -57.501s-8 -45.334 -8 -74.001v-147
c0 -42 4.83301 -80 14.5 -114s25 -62.833 46 -86.5s48 -42 81 -55s73.167 -19.5 120.5 -19.5c44 0 81.833 6.5 113.5 19.5s57.5 31.333 77.5 55s34.833 52.5 44.5 86.5s14.5 72 14.5 114v1114h332v-1123c0 -82 -14.167 -156.833 -42.5 -224.5
s-68.166 -125.667 -119.499 -174s-112.666 -86 -183.999 -113s-150 -40.5 -236 -40.5c-89.333 0 -170 13.5 -242 40.5s-133.667 64.667 -185 113s-91.5 106.333 -120.5 174s-44.5 142.5 -46.5 224.5v185c0 44 4.33301 82.333 13 115s21 62.334 37 89.001
s35.167 51.667 57.5 75s46.833 47.666 73.5 72.999l70 65.5c22 21 41.5 41.333 58.5 61s30.5 38.834 40.5 57.501s15 36.667 15 54c0 22.667 -7.5 39.834 -22.5 51.501s-34.833 17.5 -59.5 17.5c-16.667 0 -35.667 -9.16699 -57 -27.5s-43.333 -41.833 -66 -70.5z" />
    <glyph glyph-name="khokhuatthai" unicode="&#xe03;" horiz-adv-x="1577" 
d="M516 541c0 -41.333 4.99609 -78.667 14.9961 -112s25.667 -61.666 47 -84.999s48.5 -41.5 81.5 -54.5s72.5 -19.5 118.5 -19.5c44.667 0 82.834 6.5 114.501 19.5s57.5 31.167 77.5 54.5s34.667 51.666 44 84.999s14 70.666 14 111.999v1114h336v-1123
c0 -82 -14.167 -156.833 -42.5 -224.5s-68.333 -125.667 -120 -174s-113.5 -86 -185.5 -113s-151.333 -40.5 -238 -40.5c-88 0 -167.833 13.5 -239.5 40.5s-133 64.667 -184 113s-91 106.333 -120 174s-44.5 142.5 -46.5 224.5v164c0 50 6.33301 96.667 19 140
s36.667 81.333 72 114l323 316c16.667 14 28.334 28 35.001 42s10 27.333 10 40c0 10 -3.66699 19.333 -11 28s-17.333 13 -30 13c-12 0 -25.333 -2.83301 -40 -8.5s-31.334 -16.5 -50.001 -32.5l-86 -70c-12 -9.33301 -25.5 -16.166 -40.5 -20.499s-30 -6.5 -45 -6.5
s-29.667 2 -44 6s-27.166 9.66699 -38.499 17l-291 209l197 213l180 -119c0.666992 0 2.33398 0.666992 5.00098 2c0.666992 0.666992 1.66699 1.33398 3 2.00098c41.333 30.667 83.333 52.667 126 66s86.667 20 132 20c49.333 0 94.833 -7.83301 136.5 -23.5
s77.5 -37.334 107.5 -65.001s53.5 -60.834 70.5 -99.501s25.5 -81 25.5 -127c0 -54 -12.667 -108.667 -38 -164s-65.666 -108.666 -120.999 -159.999l-250 -242c-7.33301 -7.33301 -13 -16.666 -17 -27.999s-6.83301 -23 -8.5 -35s-2.66699 -22.833 -3 -32.5
s-0.5 -15.834 -0.5 -18.501v-131z" />
    <glyph glyph-name="khokhwaithai" unicode="&#xe04;" horiz-adv-x="1864" 
d="M537 0l-328 -0.00292969v1036c0 99.333 17.167 188.833 51.5 268.5s81.166 147.167 140.499 202.5c34 32.667 72.5 59.667 115.5 81s87.667 38.166 134 50.499s93.5 20.833 141.5 25.5s94 7 138 7s90 -2.33301 138 -7s95.167 -13.167 141.5 -25.5
s90.833 -29.166 133.5 -50.499s81 -48.333 115 -81c60 -55.333 107.167 -122.833 141.5 -202.5s51.5 -169.167 51.5 -268.5v-1036h-328v1008c0 64.667 -9 120.334 -27 167.001s-43.833 85.167 -77.5 115.5s-74.834 52.833 -123.501 67.5s-103.667 22 -165 22
c-121.333 0 -216.166 -28.5 -284.499 -85.5s-104.5 -145.833 -108.5 -266.5v-61c36 8 81 12 135 12h274v-270h-241c-33.333 0 -60.666 -3.66699 -81.999 -11s-38.5 -18.166 -51.5 -32.499s-22 -32.166 -27 -53.499s-7.5 -46.333 -7.5 -75v-537z" />
    <glyph glyph-name="khokhonthai" unicode="&#xe05;" horiz-adv-x="1921" 
d="M213 1057c0 98.667 17.1699 187.833 51.5029 267.5s81.5 147.5 141.5 203.5c36.667 32.667 82.5 61.167 137.5 85.5s115.5 44.833 181.5 61.5l233 -237l230 237c66 -14 127.167 -33.833 183.5 -59.5s102.833 -54.834 139.5 -87.501c64 -58 112.833 -126.833 146.5 -206.5
s50.5 -167.834 50.5 -264.501v-1057h-328v1024c0 32.667 -2.66699 64.334 -8 95.001s-13.166 59.334 -23.499 86.001s-22.833 50.834 -37.5 72.501s-31 39.5 -49 53.5l-181 -180c-16 -16.667 -34.667 -28.667 -56 -36s-42.833 -10.833 -64.5 -10.5s-42.834 4.5 -63.501 12.5
s-38.334 19.333 -53.001 34l-185 180c-36.667 -28.667 -65.5 -70 -86.5 -124s-31.5 -115 -31.5 -183v-78c36.667 8 81.667 12 135 12h274v-270h-241c-32.667 0 -59.834 -3.5 -81.501 -10.5s-38.834 -17.667 -51.501 -32s-21.667 -32.333 -27 -54s-8 -46.834 -8 -75.501v-516
h-328v1057z" />
    <glyph glyph-name="khorakhangthai" unicode="&#xe06;" horiz-adv-x="1798" 
d="M532 651c0 -59.333 8.66895 -112.339 26.002 -159.006s41.666 -86.167 72.999 -118.5s69.333 -57 114 -74s94 -25.5 148 -25.5c119.333 0 209.166 32 269.499 96s90.5 157.667 90.5 281v1004h332v-1041c0 -98.667 -16.667 -187.834 -50 -267.501s-82 -147.5 -146 -203.5
c-56 -53.333 -123.333 -93.166 -202 -119.499s-168.334 -39.5 -269.001 -39.5c-40 0 -78 4.33301 -114 13s-69.833 20.334 -101.5 35.001s-61.334 31.834 -89.001 51.501s-53.167 40.834 -76.5 63.501v-147h-332v696c0 54 8.33301 103.833 25 149.5s41 83.167 73 112.5
l47 44l55 53l59 58l58.5 58.5l54 53.5l46.5 45c16 14 27.5 27.333 34.5 40s10.5 25.334 10.5 38.001c0 10 -3.83301 19.333 -11.5 28s-17.5 13 -29.5 13c-14.667 0 -28.834 -3.33301 -42.501 -10s-29.5 -17 -47.5 -31l-86 -70c-12.667 -9.33301 -26.5 -16.166 -41.5 -20.499
s-30.167 -6.5 -45.5 -6.5s-30.166 2 -44.499 6s-26.5 9.66699 -36.5 17l-291 209l196 213l181 -119c0.666992 0 2.33398 0.666992 5.00098 2c0.666992 0.666992 1.66699 1.33398 3 2.00098c41.333 30.667 83.333 52.667 126 66s86.667 20 132 20
c48.667 0 93.834 -7.83301 135.501 -23.5s77.667 -37.334 108 -65.001s54 -60.834 71 -99.501s25.5 -81 25.5 -127c0 -54 -13.167 -108.167 -39.5 -162.5s-66.5 -108.166 -120.5 -161.499l-250 -246c-8 -7.33301 -14.167 -16.666 -18.5 -27.999s-7.5 -23 -9.5 -35
s-3.33301 -24 -4 -36s-1 -22.667 -1 -32z" />
    <glyph glyph-name="ngonguthai" unicode="&#xe07;" horiz-adv-x="1307" 
d="M225 524c24.667 -82.667 61.499 -146.333 110.499 -191s106.5 -67 172.5 -67c44.667 0 83.167 6.5 115.5 19.5s58.666 31.333 78.999 55s35.333 52.5 45 86.5s14.5 72 14.5 114v835h-230v279h562v-1123c0 -88 -13 -166.333 -39 -235s-64 -126.5 -114 -173.5
s-111.333 -82.667 -184 -107s-155.667 -36.5 -249 -36.5c-74.667 0 -142.167 9.33301 -202.5 28s-114.166 45.5 -161.499 80.5s-88.666 77.5 -123.999 127.5s-65.333 106.333 -90 169z" />
    <glyph glyph-name="chochanthai" unicode="&#xe08;" horiz-adv-x="1544" 
d="M999 516c0 28.667 -2.33301 53.832 -7 75.499s-13 39.667 -25 54s-28.167 25 -48.5 32s-46.5 10.5 -78.5 10.5h-271v283h275c28.667 0 55.5 -3.16699 80.5 -9.5s49.833 -15.5 74.5 -27.5v94c-6 114.667 -39.167 202 -99.5 262s-149.833 90 -268.5 90
c-40 0 -79.333 -5.5 -118 -16.5s-74.667 -27.5 -108 -49.5s-63.5 -50 -90.5 -84s-48.5 -74 -64.5 -120l-291 156c30 66.667 67.167 125.167 111.5 175.5s95 92.5 152 126.5s119.833 59.667 188.5 77s142 26 220 26c102 0 195.833 -13.333 281.5 -40
s159.5 -66.5 221.5 -119.5s110.333 -119.167 145 -198.5s52 -171.666 52 -276.999v-1036h-332v516z" />
    <glyph glyph-name="chochingthai" unicode="&#xe09;" horiz-adv-x="1798" 
d="M184 1274c30 66.667 67.8311 124.83 113.498 174.497s97.834 91 156.501 124s122.834 57.667 192.501 74s143.5 24.5 221.5 24.5c102.667 0 197.667 -13.167 285 -39.5s163 -65.666 227 -117.999s114.167 -118 150.5 -197s54.5 -171.167 54.5 -276.5v-1040h-332v156
c-23.333 -24.667 -48.666 -47.5 -75.999 -68.5s-57 -39.167 -89 -54.5s-66.667 -27.333 -104 -36s-77.333 -13 -120 -13c-204.667 0 -364.334 53 -479.001 159c-62 56 -109.5 123.833 -142.5 203.5s-49.5 168.834 -49.5 267.501v353h331v-316
c0 -123.333 30.667 -217.666 92 -282.999s151 -98 269 -98c55.333 0 105.666 8.66699 150.999 26s84 42.5 116 75.5s56.833 73 74.5 120s26.5 100.167 26.5 159.5v357c0 126.667 -33 221 -99 283s-161.333 93 -286 93c-40 0 -79.167 -4.83301 -117.5 -14.5
s-74.666 -24.667 -108.999 -45s-65.833 -45.833 -94.5 -76.5s-52.667 -67 -72 -109z" />
    <glyph glyph-name="chochangthai" unicode="&#xe0a;" horiz-adv-x="1671" 
d="M532 1196c16.667 18.667 30.5029 36.334 41.5029 53.001s16.5 33 16.5 49c0 31.333 -9.66699 54.166 -29 68.499s-42.333 20.166 -69 17.499c-12.667 -1.33301 -26.167 -5 -40.5 -11s-29.333 -13.5 -45 -22.5s-31.167 -19.167 -46.5 -30.5l-45 -34l-245 168
c143.333 139.333 285.333 209 426 209c61.333 0 116.833 -8.66699 166.5 -26s92.167 -41.833 127.5 -73.5s62.666 -70 81.999 -115s29 -95.167 29 -150.5c0 -53.333 -12.333 -103.5 -37 -150.5s-58.667 -96.5 -102 -148.5l-176 -208c-12.667 -14.667 -20.667 -32 -24 -52
s-5 -42.333 -5 -67v-94c0 -42 6 -81.667 18 -119s30 -70 54 -98s53.667 -50.167 89 -66.5s76 -24.5 122 -24.5c90 0 158.167 24.167 204.5 72.5s69.5 114.5 69.5 198.5v565c0 14 -3.33301 27.833 -10 41.5s-15.334 26.5 -26.001 38.5s-22.167 22.667 -34.5 32
s-24.166 17 -35.499 23c-20.667 9.33301 -39.334 19.5 -56.001 30.5s-27.667 24.333 -33 40s-3.33301 34.334 6 56.001s30 47.834 62 78.501l488 467l229 -213l-369 -344c13.333 -12 26.666 -26.667 39.999 -44s25.166 -36.666 35.499 -57.999s18.833 -44.333 25.5 -69
s10 -51 10 -79v-574c0 -80.667 -15.333 -154.834 -46 -222.501s-73 -125.834 -127 -174.501s-118 -86.667 -192 -114s-154.333 -41 -241 -41c-89.333 0 -171 15.5 -245 46.5s-137.667 73.333 -191 127s-95.333 116.167 -126 187.5s-47 147.333 -49 228v148
c0 55.333 7.33301 101.833 22 139.5s37.334 73.167 68.001 106.5z" />
    <glyph glyph-name="sosothai" unicode="&#xe0b;" horiz-adv-x="1761" 
d="M1208 1106c0 15.333 -3.49414 29.665 -10.4941 42.998s-16 25.666 -27 36.999s-22.833 21.666 -35.5 30.999s-25 17.333 -37 24c-22 12.667 -41.5 24.834 -58.5 36.501s-28.333 25 -34 40s-3.83398 32.667 5.49902 53s30 45.5 62 75.5l479 463l226 -201l-353 -344
c13.333 -12 26.666 -26.667 39.999 -44s25.166 -36.833 35.499 -58.5s18.833 -45.5 25.5 -71.5s10 -54 10 -84v-574c0 -82 -16.167 -156.833 -48.5 -224.5s-76.5 -125.667 -132.5 -174s-121.833 -86 -197.5 -113s-157.167 -40.5 -244.5 -40.5c-59.333 0 -116 7 -170 21
s-104.167 33.833 -150.5 59.5s-88.5 56.5 -126.5 92.5s-70.333 75.833 -97 119.5s-47.5 90.5 -62.5 140.5s-22.833 102 -23.5 156v127c0 32.667 2.5 61.667 7.5 87s11.833 48.166 20.5 68.499s19 39.166 31 56.499s25 34 39 50l237 267c16.667 20.667 29.167 38 37.5 52
s12.5 29.333 12.5 46s-5.33301 31 -16 43s-23.334 18 -38.001 18c-12 0 -25.667 -3.66699 -41 -11s-30.333 -17.333 -45 -30l-82 -69c-11.333 -8 -24.5 -14.167 -39.5 -18.5s-30.333 -6.66602 -46 -6.99902s-30.667 1.33398 -45 5.00098s-26.5 9.16699 -36.5 16.5l-295 213
l196 209l180 -119c41.333 32.667 84.666 56.5 129.999 71.5s89.666 22.5 132.999 22.5c50 0 96.833 -9.16699 140.5 -27.5s81.834 -43 114.501 -74s58.334 -67.5 77.001 -109.5s28 -86.333 28 -133c0 -25.333 -5.16699 -51.666 -15.5 -78.999s-23.833 -55.166 -40.5 -83.499
s-35.5 -56.666 -56.5 -84.999l-63.5 -84.5l-164 -200c-10 -12.667 -18 -28 -24 -46s-9 -42.333 -9 -73v-94c0 -42 7.16699 -81.667 21.5 -119s34.666 -70 60.999 -98s58.166 -50.167 95.499 -66.5s79 -24.5 125 -24.5c45.333 0 86.166 6.16699 122.499 18.5
s67.333 30.333 93 54s45.334 52.167 59.001 85.5s20.5 71 20.5 113v565z" />
    <glyph glyph-name="chochoethai" unicode="&#xe0c;" horiz-adv-x="2806" 
d="M250 975l-159.997 221.001c96.667 157.333 210.5 275.833 341.5 355.5s283.5 119.5 457.5 119.5c124.667 0 233.5 -14.5 326.5 -43.5s170.167 -71.333 231.5 -127s107.166 -124.167 137.499 -205.5s45.5 -174.333 45.5 -279v-365c0 -58 8.5 -110.5 25.5 -157.5
s40 -87 69 -120s63.167 -58.5 102.5 -76.5s81.666 -27 126.999 -27c48.667 0 92.334 8.66699 131.001 26s71.334 42.5 98 75.5c26.667 33 47 73 61 120s21 100.167 21 159.5v1004h328v-1041c0 -104 -15.333 -195.333 -46 -274s-73.167 -144.334 -127.5 -197.001
s-119.166 -92.334 -194.5 -119.001c-75.333 -26.667 -157.666 -40 -246.999 -40c-66 0 -129.167 14.833 -189.5 44.5s-113.166 69.167 -158.499 118.5v-147h-327v991c0 70.667 -9.33301 130.667 -28 180s-45.834 89.5 -81.501 120.5s-79.334 53.5 -131.001 67.5
s-110.834 21 -177.501 21c-35.333 0 -70.833 -3 -106.5 -9s-71.167 -16 -106.5 -30s-70 -32.167 -104 -54.5s-66.333 -49.833 -97 -82.5c16.667 -28.667 34.5 -55.5 53.5 -80.5s36.833 -49.833 53.5 -74.5v-627c0 -19.333 1.33301 -36.833 4 -52.5s7.5 -29 14.5 -40
s16.833 -19.5 29.5 -25.5s29.334 -9 50.001 -9h164v-295h-197c-70.667 0 -130.834 9.66699 -180.501 29s-90.334 47 -122.001 83s-54.667 79.833 -69 131.5s-21.5 109.834 -21.5 174.501v557z" />
    <glyph glyph-name="yoyingthai" unicode="&#xe0d;" horiz-adv-x="2777" 
d="M1606 0c0 -39.333 5.00098 -68.334 15.001 -87.001s21.333 -28 34 -28h897v-278h-938c-25.333 0 -51 2 -77 6s-51 11.333 -75 22s-46.333 25.334 -67 44.001s-38.834 42.5 -54.501 71.5s-28 64 -37 105s-13.5 89.167 -13.5 144.5h316zM250.001 974.999l-159.994 220.999
c96.667 157.333 210.5 275.833 341.5 355.5s283.5 119.5 457.5 119.5c124.667 0 233.5 -14.667 326.5 -44s170.167 -72 231.5 -128s107.166 -124.667 137.499 -206s45.5 -173.666 45.5 -276.999v-266c0 -121.333 25.167 -215.166 75.5 -281.499s123.5 -99.5 219.5 -99.5
c49.333 0 93.333 8.5 132 25.5s71.167 41.667 97.5 74s46.5 72.166 60.5 119.499s21 101.333 21 162v905h328v-938c0 -86 -11.833 -167.5 -35.5 -244.5s-61 -144.333 -112 -202s-116.333 -103.5 -196 -137.5s-175.5 -51 -287.5 -51c-104 0 -195.333 14 -274 42
s-144.334 69 -197.001 123s-92.334 120.5 -119.001 199.5s-40 169.167 -40 270.5v274c0 70.667 -9.33301 130.5 -28 179.5s-45.834 88.667 -81.501 119s-79.334 52.333 -131.001 66s-110.834 20.5 -177.501 20.5c-35.333 0 -71.166 -3 -107.499 -9
s-72.333 -15.833 -108 -29.5s-70.667 -31.334 -105 -53.001s-66.833 -48.5 -97.5 -80.5l111 -160v-622c0 -19.333 1.33301 -36.833 4 -52.5s7.5 -29 14.5 -40s16.833 -19.5 29.5 -25.5s29.334 -9 50.001 -9h164v-295h-197c-70.667 0 -130.834 9.66699 -180.501 29
s-90.334 47 -122.001 83s-54.667 79.833 -69 131.5s-21.5 109.834 -21.5 174.501v557z" />
    <glyph glyph-name="dochadathai" unicode="&#xe0e;" horiz-adv-x="1901" 
d="M635 414c0 -62.667 -8.16309 -116.5 -24.4961 -161.5s-37.833 -83 -64.5 -114s-57.334 -55.833 -92.001 -74.5s-70 -33 -106 -43s-71.5 -16.667 -106.5 -20s-66.5 -5 -94.5 -5l-61 295c37.333 -1.33301 68.666 0 93.999 4s46 10 62 18s28.167 17.5 36.5 28.5
s14.333 22.667 18 35s5.66699 24.833 6 37.5s0.5 25 0.5 37v528l-156 221c94.667 158 208 276 340 354s285 117 459 117c124 0 232.167 -14.333 324.5 -43s169.166 -70.667 230.499 -126s107.5 -123.333 138.5 -204s47.167 -173.334 48.5 -278.001v-1339
c0 -49.333 -7.33301 -91.833 -22 -127.5s-32 -65.834 -52 -90.501s-40.5 -43.834 -61.5 -57.501s-37.5 -23.167 -49.5 -28.5c-16 -7.33301 -34.167 -12.833 -54.5 -16.5s-41.5 -5.66699 -63.5 -6s-44 1.33398 -66 5.00098s-42.667 9.5 -62 17.5l-356 156
c-9.33301 4.66699 -19 4.66699 -29 0l-421 -205l-185 221l520 250c18.667 9.33301 35.5 16.333 50.5 21s30.167 7 45.5 7s31.333 -2.33301 48 -7s35.667 -11.667 57 -21l336 -143c6 -2 13 -0.833008 21 3.5s12 12.833 12 25.5v1306c0 70.667 -9.16699 130.834 -27.5 180.501
s-45 90.334 -80 122.001s-78.167 54.667 -129.5 69s-110.333 21.5 -177 21.5c-36 0 -72 -3 -108 -9s-71.5 -15.667 -106.5 -29s-69.333 -30.5 -103 -51.5s-65.834 -46.833 -96.501 -77.5l107 -156v-647z" />
    <glyph glyph-name="topatakthai" unicode="&#xe0f;" horiz-adv-x="1901" 
d="M1356 995c0 70.667 -9.16406 130.673 -27.4971 180.006s-45 89.5 -80 120.5s-78.167 53.5 -129.5 67.5s-110.333 21 -177 21c-34.667 0 -70 -3 -106 -9s-71.667 -15.667 -107 -29s-70 -30.5 -104 -51.5s-66.333 -46.833 -97 -77.5l107 -152v-651
c0 -62.667 -8.16699 -116.5 -24.5 -161.5s-37.833 -83 -64.5 -114s-57.334 -55.833 -92.001 -74.5s-70 -33 -106 -43s-71.5 -16.667 -106.5 -20s-66.5 -5 -94.5 -5l-61 299c56 -2 98.833 1.66699 128.5 11s51 21.833 64 37.5s20.333 33.167 22 52.5s2.5 37.666 2.5 54.999
v528l-156 221c94.667 158 208 276 340 354s285 117 459 117c124 0 232.167 -14.333 324.5 -43s169.166 -70.667 230.499 -126s107.5 -123.333 138.5 -204s47.167 -173.334 48.5 -278.001v-1339c0 -40 -7.83301 -79.833 -23.5 -119.5s-37 -75.167 -64 -106.5
s-59.167 -56.833 -96.5 -76.5s-77.333 -29.5 -120 -29.5c-45.333 0 -90.333 12.333 -135 37l-245 135c-10.667 6 -19.334 8.5 -26.001 7.5s-13.334 -3.5 -20.001 -7.5l-225 -135c-21.333 -12.667 -42.166 -21.334 -62.499 -26.001s-39.833 -6.33398 -58.5 -5.00098
s-36.5 5.16602 -53.5 11.499s-32.5 14.166 -46.5 23.499l-422 291l279 159l237 -164c10.667 -8 20.5 -12 29.5 -12s19.833 4 32.5 12l204 127c38.667 24.667 75.167 35.5 109.5 32.5s68.833 -13.833 103.5 -32.5l242 -135c8 -4 14.833 -3 20.5 3s8.5 13.333 8.5 22v1302z
" />
    <glyph glyph-name="thothanthai" unicode="&#xe10;" horiz-adv-x="1556" 
d="M991 -131l331.999 -0.000976562v-160c0 -42 -5.16699 -79.167 -15.5 -111.5s-23.333 -60.5 -39 -84.5s-33 -44 -52 -60s-37.333 -29 -55 -39s-33.5 -17.5 -47.5 -22.5s-23.667 -8.16699 -29 -9.5c-17.333 -4 -35 -7 -53 -9s-36.167 -1.83301 -54.5 0.5s-36.333 7 -54 14
s-34.834 17.167 -51.501 30.5l-127 99c-4 4 -8.66699 6 -14 6s-10 -2 -14 -6l-103 -90c-16 -14.667 -35 -25.667 -57 -33s-44.833 -11.166 -68.5 -11.499s-47 2.83398 -70 9.50098s-43.833 16.667 -62.5 30l-344 254l238 168l221 -163c2 -2.66699 5.5 -4.5 10.5 -5.5
s9.83301 0.833008 14.5 5.5l94 90c20.667 16 42.334 28.833 65.001 38.5s47.334 14.5 74.001 14.5s52 -4.83301 76 -14.5s46.333 -22.5 67 -38.5l103 -90c4 -2.66699 7.66699 -2.83398 11 -0.500977s5 6.5 5 12.5v176zM998.999 515.999
c0 28.667 -2.33496 53.832 -7.00195 75.499s-13 39.667 -25 54s-28.167 25 -48.5 32s-46.5 10.5 -78.5 10.5h-271v283h275c28.667 0 55.5 -3.16699 80.5 -9.5s49.833 -15.5 74.5 -27.5v94c-6 118 -39 206.167 -99 264.5s-149.667 87.5 -269 87.5
c-39.333 0 -77.666 -5.66699 -114.999 -17s-72.333 -28.166 -105 -50.499s-62.167 -50.5 -88.5 -84.5s-47.833 -73.333 -64.5 -118l-307 139c30.667 68.667 68.667 129.334 114 182.001s97 96.667 155 132s121.5 62.166 190.5 80.499s142.5 27.5 220.5 27.5
c34.667 0 67.167 -1.33301 97.5 -4s59.333 -6.66699 87 -12s54.834 -12.5 81.501 -21.5s54 -19.5 82 -31.5l336 315l233 -213l-327 -299c36.667 -49.333 64.167 -104 82.5 -164s27.5 -128.333 27.5 -205v-1036h-332v516z" />
    <glyph glyph-name="thonangmonthothai" unicode="&#xe11;" horiz-adv-x="1847" 
d="M582 791c-7.33301 -6 -12.9951 -14.834 -16.9951 -26.501s-6.83301 -23.667 -8.5 -36s-2.66699 -23.833 -3 -34.5s-0.5 -18 -0.5 -22v-672h-332v700c0 54 7.5 101.5 22.5 142.5s38.833 76.833 71.5 107.5l324 316c10 10 20 22 30 36s15 29.333 15 46
c0 12 -3.66699 21.833 -11 29.5s-17.333 11.5 -30 11.5c-24 0 -54 -13.667 -90 -41l-90 -70c-24.667 -16.667 -52.5 -25.667 -83.5 -27s-57.833 6.33398 -80.5 23.001l-299 217l209 201l168 -115c51.333 35.333 99.666 60.5 144.999 75.5s89.666 22.5 132.999 22.5
c58 0 111 -11.667 159 -35s86.667 -56.666 116 -99.999l151 135c84 -1.33301 160 -13.333 228 -36s126.167 -55.834 174.5 -99.501s85.5 -97.667 111.5 -162s39 -138.5 39 -222.5v-1155h-327v1143c0 30 -1.83301 57.333 -5.5 82s-9.83398 46.667 -18.501 66
s-20.334 35.833 -35.001 49.5s-33.334 24.167 -56.001 31.5z" />
    <glyph glyph-name="thophuthaothai" unicode="&#xe12;" horiz-adv-x="2806" 
d="M1319 1024c0 66 -10.502 125.332 -31.502 177.999s-50.167 94.334 -87.5 125.001l-151 -147c-15.333 -14.667 -33.833 -25.667 -55.5 -33s-43.667 -11 -66 -11s-44.166 3.66699 -65.499 11s-39.666 18.333 -54.999 33l-148 147c-38.667 -28.667 -68 -69.334 -88 -122.001
s-30 -113 -30 -181v-553c0 -30 2.33301 -56 7 -78s13 -40.167 25 -54.5s28.167 -25.166 48.5 -32.499s46.5 -11 78.5 -11h152v-295h-180c-76.667 0 -144 11 -202 33s-106.333 53.333 -145 94s-67.667 89.834 -87 147.501s-29 121.834 -29 192.501v590
c0 98.667 17.333 187.834 52 267.501s83 147.5 145 203.5c38.667 34.667 84.834 63.5 138.501 86.5s112.5 41.833 176.5 56.5l205 -201l200 201c64 -12 123.667 -30.167 179 -54.5s103.666 -53.833 144.999 -88.5c64 -58 112 -126.833 144 -206.5s48 -167.834 48 -264.501
v-406c0 -56 8.5 -107.5 25.5 -154.5s40.167 -87.167 69.5 -120.5s64 -59.333 104 -78s83 -28 129 -28c48 0 90.5 8.66699 127.5 26s67.833 42.5 92.5 75.5s43.334 73 56 120c12.667 47 19 100.167 19 159.5v1004h328v-1041c0 -104 -14.5 -195.333 -43.5 -274
s-69.667 -144.334 -122 -197.001s-115.333 -92.334 -189 -119.001s-154.834 -40 -243.5 -40c-32.667 0 -65.667 4.5 -99 13.5s-65.333 21 -96 36s-59.5 32.333 -86.5 52s-50.833 40.167 -71.5 61.5v-147h-323v1024z" />
    <glyph glyph-name="nonenthai" unicode="&#xe13;" horiz-adv-x="2793" 
d="M250 979l-159.995 220.998c96.667 158 211 276 343 354s284 117 456 117c124.667 0 233.5 -14.333 326.5 -43s170.167 -70.667 231.5 -126s107.166 -123.333 137.499 -204s45.5 -173.334 45.5 -278.001v-369c0 -59.333 6.33301 -112.5 19 -159.5s31.667 -87 57 -120
s56.5 -58.167 93.5 -75.5s80.167 -26 129.5 -26c42.667 0 83.667 9 123 27s73.833 43.5 103.5 76.5s53.334 73 71 120c17.667 47 26.5 99.5 26.5 157.5v1004h327v-1655h-327v147c-52 -51.333 -106 -91.333 -162 -120s-118 -43 -186 -43c-90 0 -172 13.333 -246 40
s-137.333 66.334 -190 119.001s-93.5 118.334 -122.5 197.001s-43.5 170 -43.5 274v381c0 70.667 -9.33301 130.667 -28 180s-45.834 89.5 -81.501 120.5s-79.334 53.5 -131.001 67.5s-110.834 21 -177.501 21c-35.333 0 -70.833 -3 -106.5 -9s-71.167 -16 -106.5 -30
s-70 -32.167 -104 -54.5s-66.333 -49.833 -97 -82.5c16.667 -28.667 34.5 -55.5 53.5 -80.5s36.833 -49.833 53.5 -74.5v-631c0 -19.333 1.33301 -36.833 4 -52.5s7.5 -29 14.5 -40s16.833 -19.5 29.5 -25.5s29.334 -9 50.001 -9h164v-295h-197
c-70.667 0 -130.834 9.66699 -180.501 29s-90.334 47 -122.001 83s-54.667 79.833 -69 131.5s-21.5 109.834 -21.5 174.501v561z" />
    <glyph glyph-name="dodekthai" unicode="&#xe14;" horiz-adv-x="1864" 
d="M209 1036c0 99.333 17.1699 188.832 51.5029 268.499s81.166 147.167 140.499 202.5c34 32.667 72.5 59.667 115.5 81s87.667 38.166 134 50.499s93.5 20.833 141.5 25.5s94 7 138 7s90 -2.33301 138 -7s95.167 -13.167 141.5 -25.5s90.833 -29.166 133.5 -50.499
s81 -48.333 115 -81c60 -55.333 107.167 -122.833 141.5 -202.5s51.5 -169.167 51.5 -268.5v-1036h-328v1008c0 64.667 -9 120.334 -27 167.001s-43.833 85.167 -77.5 115.5s-74.834 52.833 -123.501 67.5s-103.667 22 -165 22s-116.333 -7.33301 -165 -22
s-89.834 -37.167 -123.501 -67.5s-59.5 -68.833 -77.5 -115.5s-27 -102.334 -27 -167.001v-537c0 -28.667 2.83301 -54 8.5 -76s15 -40.333 28 -55s30.167 -25.834 51.5 -33.501s48 -11.5 80 -11.5h147v-295h-176c-78 0 -146.167 11 -204.5 33s-107 53.333 -146 94
s-68.167 89.834 -87.5 147.501s-29 121.834 -29 192.501v569z" />
    <glyph glyph-name="totaothai" unicode="&#xe15;" horiz-adv-x="1921" 
d="M659 1331c-36.667 -28.667 -65.498 -70.0029 -86.498 -124.003s-31.5 -115 -31.5 -183v-553c0 -28.667 2.66699 -54 8 -76s14.166 -40.333 26.499 -55s29 -25.834 50 -33.501s47.5 -11.5 79.5 -11.5h147v-295h-176c-78 0 -146.167 11 -204.5 33s-107 53.333 -146 94
s-68.167 89.834 -87.5 147.501s-29 121.834 -29 192.501v590c0 98.667 17.833 187.834 53.5 267.501s83.5 147.5 143.5 203.5c36.667 32.667 82.5 61.167 137.5 85.5s115.5 44.833 181.5 61.5l233 -237l230 237c66 -14 127.167 -33.833 183.5 -59.5
s102.833 -54.834 139.5 -87.501c64 -58 112.833 -126.833 146.5 -206.5s50.5 -167.834 50.5 -264.501v-1057h-328v1024c0 32.667 -2.66699 64.334 -8 95.001s-13.166 59.334 -23.499 86.001s-22.833 50.834 -37.5 72.501s-31 39.5 -49 53.5l-181 -180
c-16 -16.667 -34.667 -28.667 -56 -36s-42.833 -10.833 -64.5 -10.5s-42.834 4.5 -63.501 12.5s-38.334 19.333 -53.001 34z" />
    <glyph glyph-name="thothungthai" unicode="&#xe16;" horiz-adv-x="1827" 
d="M561 422c0 -19.333 1.50293 -36.834 4.50293 -52.501s8.33301 -29 16 -40s18.167 -19.5 31.5 -25.5s30.333 -9 51 -9h163v-295h-196c-70.667 0 -130.834 9.66699 -180.501 29s-90.334 47 -122.001 83s-54.667 79.833 -69 131.5s-21.5 109.834 -21.5 174.501v557l-160 221
c94 157.333 206.5 275.833 337.5 355.5s284.833 119.5 461.5 119.5c124 0 232 -14.5 324 -43.5s168.667 -71.333 230 -127s107.166 -124.167 137.499 -205.5s45.5 -174.333 45.5 -279v-1016h-324v991c0 70.667 -9.33301 130.667 -28 180s-45.667 89.5 -81 120.5
s-79 53.5 -131 67.5s-111.333 21 -178 21c-34.667 0 -70.167 -3 -106.5 -9s-72.333 -16 -108 -30s-70.667 -32.167 -105 -54.5s-66.833 -49.833 -97.5 -82.5l54.5 -79l51.5 -76v-627z" />
    <glyph glyph-name="thothahanthai" unicode="&#xe17;" horiz-adv-x="1774" 
d="M541 1655v-189.001c29.333 36.667 61 68.334 95 95.001s69.5 48.334 106.5 65.001s75.333 29 115 37s80.167 12 121.5 12c88 0 167.833 -15.333 239.5 -46s132.834 -73.334 183.501 -128.001s89.834 -119.834 117.501 -195.501s41.5 -158.5 41.5 -248.5v-1057h-336v1008
c0 64.667 -8.83301 120.167 -26.5 166.5s-41.834 84.5 -72.501 114.5s-66.334 52 -107.001 66s-84 21 -130 21c-42 0 -83.333 -10.167 -124 -30.5s-77 -48.666 -109 -84.999s-57.833 -79.5 -77.5 -129.5s-29.5 -104.667 -29.5 -164v-967h-336v1655h328z" />
    <glyph glyph-name="thothongthai" unicode="&#xe18;" horiz-adv-x="1675" 
d="M201 741h323.001v-323c0 -21.333 8 -41.166 24 -59.499s37 -34 63 -47s55.333 -23.167 88 -30.5s66 -11 100 -11c65.333 0 123 6.66699 173 20s91.833 31.833 125.5 55.5s59.167 52.167 76.5 85.5s26 70 26 110c0 27.333 -4.5 53 -13.5 77s-22.833 45.333 -41.5 64
s-42.334 33.834 -71.001 45.501s-63 19.167 -103 22.5l-271 28c-87.333 8 -165.166 23.5 -233.499 46.5s-126.166 52.833 -173.499 89.5s-83.5 80 -108.5 130s-37.5 106 -37.5 168c0 70 16.333 133.167 49 189.5s78 104.5 136 144.5s126.833 70.833 206.5 92.5
s166.5 32.5 260.5 32.5c119.333 0 238 -19.667 356 -59s228.667 -96 332 -170l-225 -209c-76.667 49.333 -152.334 86.833 -227.001 112.5s-153.334 38.5 -236.001 38.5c-49.333 0 -94.166 -3.5 -134.499 -10.5s-74.833 -17.667 -103.5 -32s-50.834 -32.333 -66.501 -54
s-23.5 -46.834 -23.5 -75.501c0 -41.333 20.833 -74 62.5 -98s106.834 -39 195.501 -45l262 -25c72.667 -8 141.5 -23 206.5 -45s122 -52.833 171 -92.5s87.833 -89.5 116.5 -149.5s43 -132 43 -216c0 -79.333 -16.833 -153 -50.5 -221s-81.834 -127.333 -144.501 -178
s-138.834 -90.334 -228.501 -119.001s-190.167 -43 -301.5 -43c-46 0 -92.667 3.83301 -140 11.5s-93.333 19.167 -138 34.5s-86.667 34.833 -126 58.5s-73.666 51.667 -102.999 84s-52.5 68.833 -69.5 109.5s-25.5 86 -25.5 136v327z" />
    <glyph glyph-name="nonuthai" unicode="&#xe19;" horiz-adv-x="1769" 
d="M1229 0l-0.000976562 187.999c-59.333 -73.333 -126.833 -126.333 -202.5 -159s-154.167 -49 -235.5 -49c-88 0 -167.667 15.333 -239 46s-132.166 73.334 -182.499 128.001s-89 119.834 -116 195.501s-40.5 158.5 -40.5 248.5v1057h336v-1008
c0 -64.667 8.66699 -120.167 26 -166.5s41 -84.5 71 -114.5s65.167 -52 105.5 -66s83.5 -21 129.5 -21c42 0 83.333 10.167 124 30.5s77 48.666 109 84.999s57.833 79.5 77.5 129.5s29.5 104.667 29.5 164v967h335v-1655h-327z" />
    <glyph glyph-name="bobaimaithai" unicode="&#xe1a;" horiz-adv-x="1778" 
d="M889 -16c-100.667 0 -192.499 13.833 -275.499 41.5s-154.167 68.167 -213.5 121.5s-105.333 119.166 -138 197.499s-49 168.166 -49 269.499v1041h332v-1008c0 -120.667 28 -213.667 84 -279s142.667 -98 260 -98c116.667 0 203.167 32.667 259.5 98
s84.5 158.333 84.5 279v1008h332v-1041c0 -101.333 -16.667 -191.166 -50 -269.499s-79.833 -144.166 -139.5 -197.499s-130.834 -93.833 -213.501 -121.5s-173.667 -41.5 -273 -41.5z" />
    <glyph glyph-name="poplathai" unicode="&#xe1b;" horiz-adv-x="1778" 
d="M889 -16c-100.667 0 -192.499 13.833 -275.499 41.5s-154.167 68.167 -213.5 121.5s-105.333 119.166 -138 197.499s-49 168.166 -49 269.499v1041h332v-1008c0 -120.667 28 -213.667 84 -279s142.667 -98 260 -98c116.667 0 203.167 32.667 259.5 98
s84.5 158.333 84.5 279v1802h332v-1835c0 -101.333 -16.667 -191.166 -50 -269.499s-79.833 -144.166 -139.5 -197.499s-130.834 -93.833 -213.501 -121.5s-173.667 -41.5 -273 -41.5z" />
    <glyph glyph-name="phophungthai" unicode="&#xe1c;" horiz-adv-x="1925" 
d="M848 504c15.333 14 33.166 25 53.499 33s41.5 12.167 63.5 12.5s43.5 -3.16699 64.5 -10.5s39.5 -19 55.5 -35l181 -180c18 14 34.333 31.833 49 53.5s27.167 45.834 37.5 72.501s18.166 55.334 23.499 86.001s8 62.334 8 95.001v1024h328v-1057
c0 -96.667 -16.833 -184.834 -50.5 -264.501s-82.167 -148.5 -145.5 -206.5c-37.333 -33.333 -84.166 -62.666 -140.499 -87.999s-117.5 -45 -183.5 -59l-229 237l-234 -237c-66 16 -126.5 36.167 -181.5 60.5s-100.833 53.166 -137.5 86.499
c-60 56 -107.833 123.667 -143.5 203s-53.5 168.666 -53.5 267.999v590c0 70.667 9.66699 134.667 29 192s48.5 106.333 87.5 147s87.667 72.167 146 94.5s126.5 33.5 204.5 33.5h176v-295h-147c-32 0 -58.5 -3.83301 -79.5 -11.5s-37.667 -19 -50 -34
s-21.166 -33.333 -26.499 -55s-8 -46.834 -8 -75.501v-553c0 -68 10.5 -129 31.5 -183s50.167 -95.333 87.5 -124z" />
    <glyph glyph-name="fofathai" unicode="&#xe1d;" horiz-adv-x="1925" 
d="M848 504c15.333 14 33.165 25 53.498 33s41.5 12.167 63.5 12.5s43.5 -3.16699 64.5 -10.5s39.5 -19 55.5 -35l181 -180c18 14 34.167 31.833 48.5 53.5s26.333 45.834 36 72.501s17 55.334 22 86.001s7.5 62.334 7.5 95.001v1818h332v-1851
c0 -96.667 -16.833 -184.834 -50.5 -264.501s-82.167 -148.5 -145.5 -206.5c-37.333 -33.333 -84.166 -62.666 -140.499 -87.999s-117.5 -45 -183.5 -59l-229 233l-234 -233c-66 16 -126.5 36.167 -181.5 60.5s-100.833 53.166 -137.5 86.499
c-60 56 -107.833 123.667 -143.5 203s-53.5 168.666 -53.5 267.999v590c0 70.667 9.66699 134.667 29 192s48.5 106.333 87.5 147s87.667 72.167 146 94.5s126.5 33.5 204.5 33.5h176v-295h-147c-32 0 -58.5 -3.83301 -79.5 -11.5s-37.667 -19 -50 -34
s-21.166 -33.333 -26.499 -55s-8 -46.834 -8 -75.501v-553c0 -68 10.5 -129 31.5 -183s50.167 -95.333 87.5 -124z" />
    <glyph glyph-name="phophanthai" unicode="&#xe1e;" horiz-adv-x="2228" 
d="M1229 1655l393 -1114l164 1114h332l-283 -1655h-287l-434 1135l-434 -1135h-291l-278 1655h331l164 -1114l393 1114h230z" />
    <glyph glyph-name="fofanthai" unicode="&#xe1f;" horiz-adv-x="2228" 
d="M1229 1655l393 -1114l299 1908h332l-418 -2449h-287l-434 1135l-434 -1135h-291l-278 1655h331l164 -1114l393 1114h230z" />
    <glyph glyph-name="phosamphaothai" unicode="&#xe20;" horiz-adv-x="1901" 
d="M1688 0l-331.997 0.00292969v991c0 70.667 -9.16699 130.667 -27.5 180s-45 89.5 -80 120.5s-78.167 53.5 -129.5 67.5s-110.333 21 -177 21c-36 0 -72 -2.83301 -108 -8.5s-71.5 -14.834 -106.5 -27.501s-69.333 -29.334 -103 -50.001s-65.834 -46.334 -96.501 -77.001
l107 -156v-643c0 -62.667 -8.16699 -116.5 -24.5 -161.5s-37.833 -83 -64.5 -114s-57.334 -55.833 -92.001 -74.5s-70 -33 -106 -43s-71.5 -16.667 -106.5 -20s-66.5 -5 -94.5 -5l-57 291c56 -2 98.667 2.16699 128 12.5s50.333 23.833 63 40.5s19.5 35 20.5 55
s1.5 38.667 1.5 56v520l-156 221c94.667 157.333 207.5 275.833 338.5 355.5s284.5 119.5 460.5 119.5c124 0 232.167 -14.5 324.5 -43.5s169.166 -71.333 230.499 -127s107.5 -124.167 138.5 -205.5s47.167 -174.333 48.5 -279v-1016z" />
    <glyph glyph-name="momathai" unicode="&#xe21;" horiz-adv-x="1761" 
d="M209 0v1655h336v-967c0 -59.333 9.83301 -114 29.5 -164s45.5 -93.167 77.5 -129.5s68.333 -64.666 109 -84.999s82 -30.5 124 -30.5c46 0 89.167 7 129.5 21s75.5 36 105.5 66s53.667 68.167 71 114.5s26 101.833 26 166.5v1008h335v-1057
c0 -90 -13.5 -172.833 -40.5 -248.5s-65.667 -140.834 -116 -195.501s-111 -97.334 -182 -128.001s-150.5 -46 -238.5 -46c-41.333 0 -81.833 4 -121.5 12s-78 20.333 -115 37s-72.5 38.167 -106.5 64.5s-65.667 57.833 -95 94.5v-188h-328z" />
    <glyph glyph-name="yoyakthai" unicode="&#xe22;" horiz-adv-x="1802" 
d="M856 741c-68.667 -2 -127.669 -9.16211 -177.002 -21.4951s-90 -28.833 -122 -49.5s-55.667 -45 -71 -73s-23 -59 -23 -93c0 -32.667 9.5 -63.334 28.5 -92.001s46 -53.5 81 -74.5s76.833 -37.5 125.5 -49.5s102.667 -18 162 -18c78 0 142.333 10.167 193 30.5
s90.834 49 120.501 86s50.334 81.167 62.001 132.5s17.5 107.666 17.5 168.999v967h336v-967c0 -109.333 -12.833 -208 -38.5 -296s-67.167 -162.833 -124.5 -224.5s-132.5 -109.167 -225.5 -142.5s-206.5 -50 -340.5 -50c-104.667 0 -195.167 10 -271.5 30
s-141.333 46.167 -195 78.5s-97.334 68.666 -131.001 108.999s-60 80.666 -79 120.999s-31.833 78.666 -38.5 114.999s-10 66.833 -10 91.5c0 68 13.5 132.333 40.5 193s69.5 113.667 127.5 159c-55.333 39.333 -96.166 85.333 -122.499 138s-41.5 112 -45.5 178
c0 64.667 10 125.334 30 182.001s49.5 106.167 88.5 148.5s87.667 75.666 146 99.999s125.833 36.5 202.5 36.5h254v-295h-221c-32.667 0 -60 -3.66699 -82 -11s-39.667 -18.166 -53 -32.499s-22.833 -32.5 -28.5 -54.5s-8.5 -48 -8.5 -78c0 -28 7.66699 -52.5 23 -73.5
s39 -38.667 71 -53s72.667 -25.333 122 -33s108.333 -11.834 177 -12.501v-271z" />
    <glyph glyph-name="roruathai" unicode="&#xe23;" horiz-adv-x="1491" 
d="M1376 496c0 -68 -13.3311 -133.003 -39.998 -195.003s-67 -116.833 -121 -164.5s-121.833 -85.667 -203.5 -114s-177.167 -42.5 -286.5 -42.5c-76.667 0 -145.834 5.5 -207.501 16.5s-119 28 -172 51s-103.333 52.167 -151 87.5s-96.167 77.666 -145.5 126.999l205 221
c36 -36 70.667 -67.333 104 -94s68 -48.834 104 -66.501s74.667 -30.834 116 -39.501s87.666 -13 138.999 -13c61.333 0 112.833 6 154.5 18s75.334 28.333 101.001 49s44 44.667 55 72s16.5 56.333 16.5 87c0 32 -6.83301 59.5 -20.5 82.5s-31.667 42.667 -54 59
s-48 29.833 -77 40.5s-58.833 19.667 -89.5 27l-131 28c-83.333 18.667 -157.833 40.167 -223.5 64.5s-121.5 54.166 -167.5 89.499s-81.167 77.5 -105.5 126.5s-36.5 107.167 -36.5 174.5c0 66.667 12.333 129.334 37 188.001s61.334 109.834 110.001 153.501
s109.334 78.167 182.001 103.5s157 38 253 38c58 0 113.333 -4.83301 166 -14.5s103.5 -24.167 152.5 -43.5s97.167 -43.166 144.5 -71.499s95 -61.5 143 -99.5l-221 -209c-32 24.667 -63.167 46.334 -93.5 65.001s-61 34.334 -92 47.001s-62.833 22.334 -95.5 29.001
s-67.334 10 -104.001 10c-46 0 -85.333 -5 -118 -15s-59.334 -23.833 -80.001 -41.5s-35.834 -38.5 -45.501 -62.5s-14.5 -49.667 -14.5 -77c0 -21.333 6 -40.166 18 -56.499s29 -31 51 -44s49 -25 81 -36s68 -21.5 108 -31.5l151 -37c70 -16 135.5 -36 196.5 -60
s114.333 -54.833 160 -92.5s81.667 -83.667 108 -138s39.5 -119.833 39.5 -196.5z" />
    <glyph glyph-name="ruthai" unicode="&#xe24;" horiz-adv-x="1823" 
d="M233 975l-158.998 220.999c94 157.333 206.5 275.833 337.5 355.5s284.5 119.5 460.5 119.5c124 0 232.167 -14.5 324.5 -43.5s169.166 -71.333 230.499 -127s107.166 -124.167 137.499 -205.5s45.5 -174.333 45.5 -279v-1634h-324v1609
c0 70.667 -9.33301 130.667 -28 180s-45.667 89.5 -81 120.5s-79 53.5 -131 67.5s-111.333 21 -178 21c-34.667 0 -70.167 -3 -106.5 -9s-72.5 -16 -108.5 -30s-71 -32.167 -105 -54.5s-66.333 -49.833 -97 -82.5l54 -79l52 -76v-627c0 -19.333 1.5 -36.833 4.5 -52.5
s8.33301 -29 16 -40s18.167 -19.5 31.5 -25.5s30 -9 50 -9h164v-295h-196c-70.667 0 -131 9.66699 -181 29s-90.667 47 -122 83s-54.333 79.833 -69 131.5s-22 109.834 -22 174.501v557z" />
    <glyph glyph-name="lolingthai" unicode="&#xe25;" horiz-adv-x="1659" 
d="M668 -20c-79.333 0 -154.333 10.3301 -225 30.9971s-132.834 51.834 -186.501 93.501s-96.167 94.334 -127.5 158.001s-47 138.5 -47 224.5c0 68.667 12.333 132.5 37 191.5s61.5 110.167 110.5 153.5s110 77.333 183 102s158.167 37 255.5 37h442v106
c0 52 -6.83301 97.5 -20.5 136.5s-35.334 71.5 -65.001 97.5s-67.834 45.5 -114.501 58.5s-103 19.5 -169 19.5c-45.333 0 -86.166 -3.66699 -122.499 -11s-69.666 -17.666 -99.999 -30.999s-58.333 -29.333 -84 -48s-50.5 -39.334 -74.5 -62.001l-213 197
c42 42.667 85.5 79.167 130.5 109.5s92.333 54.833 142 73.5s102.167 32.334 157.5 41.001s114.333 13 177 13c231.333 0 404.5 -47.5 519.5 -142.5s172.5 -235.833 172.5 -422.5v-1106h-336v721h-397c-99.333 0 -174.666 -19.167 -225.999 -57.5s-77 -95.5 -77 -171.5
c0 -74 25.167 -131.5 75.5 -172.5s128.833 -61.5 235.5 -61.5v-278h-53z" />
    <glyph glyph-name="luthai" unicode="&#xe26;" horiz-adv-x="1896" 
d="M1683 -614l-330.997 0.00292969v1605c0 70.667 -9.16699 130.667 -27.5 180s-45 89.5 -80 120.5s-78.167 53.5 -129.5 67.5s-110.333 21 -177 21c-36 0 -72 -2.83301 -108 -8.5s-71.5 -14.834 -106.5 -27.501s-69.333 -29.334 -103 -50.001
s-65.834 -46.334 -96.501 -77.001l107 -156v-643c0 -62.667 -8.16699 -116.5 -24.5 -161.5s-37.833 -83 -64.5 -114s-57.334 -55.833 -92.001 -74.5s-70 -33 -106 -43s-71.5 -16.667 -106.5 -20s-66.5 -5 -94.5 -5l-57 291c56 -2 98.667 2.16699 128 12.5
s50.333 23.833 63 40.5s19.5 35 20.5 55s1.5 38.667 1.5 56v520l-156 221c94.667 157.333 207.5 275.833 338.5 355.5s284.5 119.5 460.5 119.5c124 0 232.167 -14.5 324.5 -43.5s169.166 -71.333 230.499 -127s107.333 -124.167 138 -205.5s46.667 -174.333 48 -279v-1630z
" />
    <glyph glyph-name="wowaenthai" unicode="&#xe27;" horiz-adv-x="1442" 
d="M311 451c21.333 -26.667 45.498 -50.6631 72.498 -71.9961s55 -39.333 84 -54s58.5 -26 88.5 -34s59 -12 87 -12c57.333 0 107 9.83301 149 29.5s76.833 46.667 104.5 81s48.334 75 62.001 122s20.5 97.833 20.5 152.5v335c0 51.333 -6.33301 99.833 -19 145.5
s-32.5 85.667 -59.5 120s-61.833 61.5 -104.5 81.5s-93.667 30 -153 30c-34 0 -67.667 -5.5 -101 -16.5s-65.333 -27 -96 -48s-58.834 -46.833 -84.501 -77.5s-47.834 -65.334 -66.501 -104.001l-287 144c32.667 62.667 71.834 118.5 117.501 167.5s96 90.5 151 124.5
s113.5 60 175.5 78s125.667 27 191 27c104.667 0 197.834 -16.167 279.501 -48.5s150.667 -78 207 -137s99.333 -129.667 129 -212s44.5 -173.833 44.5 -274.5v-340c0 -90 -12.667 -175.833 -38 -257.5s-64.833 -153.334 -118.5 -215.001s-122 -110.834 -205 -147.501
s-182.5 -55 -298.5 -55c-49.333 0 -99.666 6 -150.999 18s-101.5 29.833 -150.5 53.5s-96 52.667 -141 87s-85.833 74.166 -122.5 119.499z" />
    <glyph glyph-name="sosalathai" unicode="&#xe28;" horiz-adv-x="1872" 
d="M537 967c36 8 81 11.998 135 11.998h274v-270h-241c-33.333 0 -60.666 -3.66699 -81.999 -11s-38.5 -18.166 -51.5 -32.499s-22 -32.166 -27 -53.499s-7.5 -46.333 -7.5 -75v-537h-328v1036c0 99.333 17.167 188.833 51.5 268.5s81.166 147.167 140.499 202.5
c34 32.667 72.5 59.667 115.5 81s87.667 38.166 134 50.499s93.5 20.833 141.5 25.5s94 7 138 7c60 0 122.167 -4.66699 186.5 -14s126.5 -26.333 186.5 -51l319 295l221 -222l-299 -274c33.333 -49.333 59.5 -105 78.5 -167s28.5 -129.333 28.5 -202v-1036h-328v1008
c0 64.667 -9 120.334 -27 167.001s-43.833 85.167 -77.5 115.5s-74.834 52.833 -123.501 67.5s-103.667 22 -165 22c-123.333 0 -219.166 -29.5 -287.499 -88.5s-103.5 -150.833 -105.5 -275.5v-49z" />
    <glyph glyph-name="sorusithai" unicode="&#xe29;" horiz-adv-x="1860" 
d="M1602 750l-0.000976562 -136c0 -96 -17.667 -183.167 -53 -261.5s-84.166 -145 -146.499 -200s-136 -97.5 -221 -127.5s-177.167 -45 -276.5 -45c-97.333 0 -187.666 14 -270.999 42s-156 69 -218 123s-111.333 120.333 -148 199s-56.334 168.667 -59.001 270v1041h332
v-1008c0 -121.333 31.333 -214.5 94 -279.5s152.667 -97.5 270 -97.5c118 0 208.333 32.5 271 97.5s94 158.167 94 279.5v103h-201c-38 0 -76.167 6 -114.5 18s-73 33.167 -104 63.5s-56.333 72 -76 125s-29.5 120.5 -29.5 202.5h304c0 -45.333 5 -78.5 15 -99.5
s21.333 -31.5 34 -31.5h172v627h332v-627h204v-278h-204z" />
    <glyph glyph-name="sosuathai" unicode="&#xe2a;" horiz-adv-x="1659" 
d="M668 -20c-79.333 0 -154.334 10.3301 -225.001 30.9971s-132.834 51.834 -186.501 93.501s-96.167 94.334 -127.5 158.001s-47 138.5 -47 224.5c0 68.667 12.333 132.5 37 191.5s61.5 110.167 110.5 153.5s110 77.333 183 102s158.167 37 255.5 37h442v106
c0 52 -6.83301 97.5 -20.5 136.5s-35.334 71.5 -65.001 97.5s-67.834 45.5 -114.501 58.5s-103 19.5 -169 19.5c-45.333 0 -86.166 -3.66699 -122.499 -11s-69.666 -17.666 -99.999 -30.999s-58.333 -29.333 -84 -48s-50.5 -39.334 -74.5 -62.001l-213 197
c42 42.667 85.5 79.167 130.5 109.5s92.333 54.833 142 73.5s102.167 32.334 157.5 41.001s114.333 13 177 13c134.667 0 250.667 -16.333 348 -49l287 279l229 -218l-262 -249c30.667 -43.333 53.334 -92.333 68.001 -147s22 -115 22 -181v-1106h-336v721h-397
c-99.333 0 -174.666 -19.167 -225.999 -57.5s-77 -95.5 -77 -171.5c0 -74 25.167 -131.5 75.5 -172.5s128.833 -61.5 235.5 -61.5v-278h-53z" />
    <glyph glyph-name="hohipthai" unicode="&#xe2b;" horiz-adv-x="1810" 
d="M1348 1241c42.667 -25.333 80 -56.667 112 -94s58.5 -78.5 79.5 -123.5s36.667 -93 47 -144s15.5 -102.5 15.5 -154.5v-725h-328v696c0 88.667 -15.333 162 -46 220s-76.667 99.333 -138 124l-549 -434v-606h-332v1655h332v-668l917 717l189 -225z" />
    <glyph glyph-name="lochulathai" unicode="&#xe2c;" horiz-adv-x="2249" 
d="M1724 1266c-2 34.667 -20.334 61.167 -55.001 79.5s-90 28.5 -166 30.5v279h213c46.667 0 83.167 11.5 109.5 34.5s44.5 51.167 54.5 84.5l57 176h336l-82 -262c-18.667 -58 -44.167 -107.5 -76.5 -148.5s-68.166 -74.833 -107.499 -101.5c20.667 -33.333 34 -68 40 -104
s5 -72.333 -3 -109l-209 -1225h-287l-434 1135l-434 -1135h-291l-278 1655h331l164 -1114l393 1114h230l393 -1114z" />
    <glyph glyph-name="oangthai" unicode="&#xe2d;" horiz-adv-x="1712" 
d="M799 721h-327.999c0 -37.333 1.5 -71.833 4.5 -103.5s9.83301 -60.167 20.5 -85.5c10 -32.667 25.167 -64.5 45.5 -95.5s45.833 -58.5 76.5 -82.5s66.167 -43.333 106.5 -58s85.5 -22 135.5 -22c80 0 145.5 15 196.5 45s91 70.333 120 121s49 109.334 60 176.001
s16.5 137 16.5 211c0 42.667 -2.5 86.167 -7.5 130.5s-13.667 86.833 -26 127.5s-29.166 79 -50.499 115s-48.333 67.333 -81 94s-71.834 47.667 -117.501 63s-98.834 23 -159.501 23c-39.333 0 -77.166 -3.5 -113.499 -10.5s-72.166 -18.5 -107.499 -34.5
s-70.833 -36.667 -106.5 -62s-72.5 -56.333 -110.5 -93l-242 180c52 52 103.167 97.667 153.5 137s102.666 72.166 156.999 98.499s112.166 46.166 173.499 59.499s129.333 20 204 20c248 0 437 -71.667 567 -215s195 -354.333 195 -633c0 -132 -16.333 -250.333 -49 -355
s-80 -193.5 -142 -266.5s-137.667 -128.833 -227 -167.5s-190.333 -58 -303 -58c-83.333 0 -160.333 11.333 -231 34s-134.334 54.834 -191.001 96.501s-106 92 -148 151s-76 124.833 -102 197.5c-9.33301 26.667 -16.666 61 -21.999 103s-9.33301 87.5 -12 136.5
s-4.5 99 -5.5 150s-1.5 98.5 -1.5 142.5h652v-270z" />
    <glyph glyph-name="honokhukthai" unicode="&#xe2e;" horiz-adv-x="1712" 
d="M799 721h-327.998c0 -37.333 1.5 -71.833 4.5 -103.5s9.83301 -60.167 20.5 -85.5c10 -32.667 25.167 -64.5 45.5 -95.5s45.833 -58.5 76.5 -82.5s66.167 -43.333 106.5 -58s85.5 -22 135.5 -22c80 0 145.5 15 196.5 45s91 70.333 120 121s49 109.334 60 176.001
s16.5 137 16.5 211c0 42.667 -2.5 86.167 -7.5 130.5s-13.667 86.833 -26 127.5s-29.166 79 -50.499 115s-48.333 67.333 -81 94s-71.834 47.667 -117.501 63s-98.834 23 -159.501 23c-39.333 0 -77.166 -3.5 -113.499 -10.5s-72.166 -18.5 -107.499 -34.5
s-70.833 -36.667 -106.5 -62s-72.5 -56.333 -110.5 -93l-242 180c52 52 103.167 97.667 153.5 137s102.666 72.166 156.999 98.499s112.166 46.166 173.499 59.499s129.333 20 204 20c66 0 128.167 -5.66699 186.5 -17s112.166 -27.333 161.499 -48l328 315l229 -217
l-307 -287c54 -72 94.833 -157 122.5 -255s41.5 -211 41.5 -339c0 -132 -16.333 -250.333 -49 -355s-80 -193.5 -142 -266.5s-137.667 -128.833 -227 -167.5s-190.333 -58 -303 -58c-83.333 0 -160.333 11.333 -231 34s-134.334 54.834 -191.001 96.501s-106 92 -148 151
s-76 124.833 -102 197.5c-9.33301 26.667 -16.666 61 -21.999 103s-9.33301 87.5 -12 136.5s-4.5 99 -5.5 150s-1.5 98.5 -1.5 142.5h652v-270z" />
    <glyph glyph-name="paiyannoithai" unicode="&#xe2f;" horiz-adv-x="1745" 
d="M1196 725c-24.667 -19.333 -51.999 -36 -81.999 -50s-61 -25.5 -93 -34.5s-64.167 -15.667 -96.5 -20s-63.5 -6.5 -93.5 -6.5c-104 0 -198.667 11.167 -284 33.5s-158.166 56.333 -218.499 102s-107 103.167 -140 172.5s-49.5 151 -49.5 245c0 70 9.66699 134.667 29 194
s48.5 110.833 87.5 154.5s87.667 77.834 146 102.501s126.5 37 204.5 37h176v-295h-147c-32.667 0 -59.834 -4.5 -81.501 -13.5s-38.834 -21.833 -51.501 -38.5s-21.667 -36.834 -27 -60.501s-8 -50.5 -8 -80.5c0 -48 8 -88.667 24 -122s39.5 -60.333 70.5 -81
s69.167 -35.667 114.5 -45s97 -14 155 -14c120 0 210.833 30 272.5 90s92.5 149 92.5 267v393h336v-1655h-336v725z" />
    <glyph glyph-name="saraathai" unicode="&#xe30;" horiz-adv-x="1102" 
d="M442 651c2 -43.333 7.16699 -78 15.5 -104s19.833 -39 34.5 -39h430v-287h-463c-36 0 -72.833 7 -110.5 21s-72 37.667 -103 71s-56.667 77.5 -77 132.5s-31.5 123.5 -33.5 205.5h307zM442 1450c2 -43.333 7.16699 -78 15.5 -104s19.833 -39 34.5 -39h430v-287h-463
c-36 0 -72.833 7 -110.5 21s-72 37.667 -103 71s-56.667 77.5 -77 132.5s-31.5 123.5 -33.5 205.5h307z" />
    <glyph glyph-name="maihanakatthai" unicode="&#xe31;" 
d="M-725 2372c0 -48 5.33301 -85.333 16 -112s23 -40 37 -40h787v-258h-824c-36.667 0 -74.167 5 -112.5 15s-73 29.667 -104 59s-56.5 70.833 -76.5 124.5s-30 124.167 -30 211.5h307z" />
    <glyph glyph-name="saraaathai" unicode="&#xe32;" horiz-adv-x="1352" 
d="M16 1364c62 99.333 140.5 175.332 235.5 227.999s202.167 79 321.5 79c93.333 0 175.333 -12.333 246 -37s129.667 -60.667 177 -108s83 -105.666 107 -174.999s36 -148.333 36 -237v-1114h-328v1106c0 42 -4.16699 79.833 -12.5 113.5s-21.833 62.5 -40.5 86.5
s-43.167 42.333 -73.5 55s-67.5 19 -111.5 19c-59.333 0 -113.5 -13.333 -162.5 -40s-92.833 -67.667 -131.5 -123z" />
    <glyph glyph-name="saraamthai" unicode="&#xe33;" horiz-adv-x="1352" 
d="M-754 2245c0 46.667 9.16699 91 27.5 133s43 78.5 74 109.5s67.333 55.667 109 74s86.167 27.5 133.5 27.5c46 0 89.667 -9.16699 131 -27.5s77.5 -43 108.5 -74s55.5 -67.5 73.5 -109.5s27 -86.333 27 -133c0 -46 -9 -89.667 -27 -131s-42.5 -77.5 -73.5 -108.5
s-67.167 -55.5 -108.5 -73.5s-85 -27 -131 -27c-47.333 0 -91.833 9 -133.5 27s-78 42.5 -109 73.5s-55.667 67.167 -74 108.5s-27.5 85 -27.5 131zM16 1364c62 99.333 140.5 175.332 235.5 227.999s202.167 79 321.5 79c93.333 0 175.333 -12.333 246 -37
s129.667 -60.667 177 -108s83 -105.666 107 -174.999s36 -148.333 36 -237v-1114h-328v1106c0 42 -4.16699 79.833 -12.5 113.5s-21.833 62.5 -40.5 86.5s-43.167 42.333 -73.5 55s-67.5 19 -111.5 19c-59.333 0 -113.5 -13.333 -162.5 -40s-92.833 -67.667 -131.5 -123z
M-520 2245c0 -31.333 10.167 -57 30.5 -77s46.833 -30 79.5 -30c33.333 0 60.166 10 80.499 30s30.5 45.667 30.5 77c0 32.667 -10.167 59.167 -30.5 79.5s-47.166 30.5 -80.499 30.5c-32.667 0 -59.167 -10.167 -79.5 -30.5s-30.5 -46.833 -30.5 -79.5z" />
    <glyph glyph-name="saraithai" unicode="&#xe34;" 
d="M-1565 2220h1352v-258h-1352v258z" />
    <glyph glyph-name="saraiithai" unicode="&#xe35;" 
d="M-1565 2220h1033v250h319v-508h-1352v258z" />
    <glyph glyph-name="sarauethai" unicode="&#xe36;" 
d="M-1565 1962v258h742v37c0 44.667 8.33301 86.667 25 126s39.5 73.666 68.5 103c29 29.333 62.833 52.333 101.5 69s80 25 124 25c44.667 0 86.834 -7.83301 126.501 -23.5s74 -37.167 103 -64.5s52 -60.166 69 -98.5c17 -38.333 25.5 -79.833 25.5 -124.5
c0 -44 -8.5 -84.667 -25.5 -122s-40 -69.833 -69 -97.5s-63.333 -49.167 -103 -64.5s-81.834 -23 -126.501 -23h-1061zM-598 2261c0 -13.333 2.66699 -25.666 8 -37c5.33301 -11.333 12.333 -21.333 21 -30s18.667 -15.334 30 -20c11.333 -4.66699 23 -7 35 -7
c29.333 0 53.833 9 73.5 27s29.5 40.333 29.5 67c0 28.667 -9.83301 52.167 -29.5 70.5s-44.167 27.5 -73.5 27.5c-12 0 -23.667 -2.5 -35 -7.5s-21.333 -11.833 -30 -20.5s-15.667 -19 -21 -31s-8 -25 -8 -39z" />
    <glyph glyph-name="saraueethai" unicode="&#xe37;" 
d="M-1565 2220h635v250h283v-250h151v250h283v-508h-1352v258z" />
    <glyph glyph-name="sarauthai" unicode="&#xe38;" 
d="M-528 -602c0 16 -0.833984 29 -2.50098 39s-4.5 17.5 -8.5 22.5s-9.16699 8.33301 -15.5 10s-14.166 2.5 -23.499 2.5h-122v290h143c63.333 0 117 -4.5 161 -13.5s79.5 -26.5 106.5 -52.5s46.5 -62.5 58.5 -109.5s18 -108.5 18 -184.5v-295h-315v291z" />
    <glyph glyph-name="sarauuthai" unicode="&#xe39;" 
d="M-950 -524c0 8 -2.50098 14 -7.50098 18s-9.5 6 -13.5 6h-110v262h155c50 0 91.667 -4.83301 125 -14.5s59.833 -25 79.5 -46s33.5 -48.5 41.5 -82.5s12 -75 12 -123v-20c0 -9.33301 1.5 -19 4.5 -29s7.83301 -19.333 14.5 -28s15.5 -15.667 26.5 -21s24.5 -8 40.5 -8
c16.667 0 30.334 2.66699 41.001 8s19 12.333 25 21s10.167 18 12.5 28s3.5 19.667 3.5 29v286h287v-286c0 -51.333 -9.16699 -98.166 -27.5 -140.499s-44 -78.5 -77 -108.5s-72 -53.333 -117 -70s-94.167 -25 -147.5 -25c-56 0 -106.667 8.33301 -152 25s-84 40 -116 70
s-56.667 66.167 -74 108.5s-26 89.166 -26 140.499z" />
    <glyph glyph-name="phinthuthai" unicode="&#xe3a;" 
d="M-590 -455c0 28.667 5.33301 55.5 16 80.5s25.167 46.667 43.5 65s40 32.833 65 43.5s51.833 16 80.5 16s55.5 -5.33301 80.5 -16s46.667 -25.167 65 -43.5s32.833 -40 43.5 -65s16 -51.833 16 -80.5s-5.33301 -55.334 -16 -80.001s-25.167 -46.167 -43.5 -64.5
s-40 -32.833 -65 -43.5s-51.833 -16 -80.5 -16s-55.5 5.33301 -80.5 16s-46.667 25.167 -65 43.5s-32.833 39.833 -43.5 64.5s-16 51.334 -16 80.001z" />
    <glyph glyph-name="PUCR2005" unicode="&#xe3e;" 
 />
    <glyph glyph-name="bahtthai" unicode="&#xe3f;" horiz-adv-x="1962" 
d="M1761 586c0 -96 -15.332 -180.664 -45.999 -253.997s-74 -134.5 -130 -183.5s-123 -86 -201 -111s-164 -37.5 -258 -37.5v-238h-258v238h-581v2060h581v230h258v-230c93.333 -3.33301 177.166 -18.833 251.499 -46.5s137.5 -65.834 189.5 -114.501
s92 -107.167 120 -175.5s42 -144.5 42 -228.5c0 -53.333 -7.33301 -102.833 -22 -148.5s-34 -87.167 -58 -124.5s-51.667 -69.833 -83 -97.5s-63.333 -50.167 -96 -67.5c38 -16.667 74.5 -38.834 109.5 -66.501s66 -61 93 -100s48.5 -83.833 64.5 -134.5
s24 -107.334 24 -170.001zM618.001 299.003h250v598h-250v-598zM618.001 1196h250v565h-250v-565zM1425 602.003c0 40 -6.5 77.332 -19.5 111.999s-32.167 65 -57.5 91s-56.666 47 -93.999 63s-80 25.667 -128 29v-598c48 2.66699 90.667 12.167 128 28.5
s68.666 37.833 93.999 64.5s44.5 57.834 57.5 93.501s19.5 74.5 19.5 116.5zM1397 1479c0 40.667 -6.5 77.335 -19.5 110.002s-31.167 60.667 -54.5 84s-51.833 42.166 -85.5 56.499s-70.834 23.5 -111.501 27.5v-561c40.667 5.33301 77.834 15.333 111.501 30
s62.167 34 85.5 58s41.5 52.167 54.5 84.5s19.5 69.166 19.5 110.499z" />
    <glyph glyph-name="saraethai" unicode="&#xe40;" horiz-adv-x="811" 
d="M213 1655l332.002 -0.000976562v-1233c0 -19.333 1 -36.833 3 -52.5s6.33301 -29 13 -40s16.167 -19.5 28.5 -25.5s28.833 -9 49.5 -9h164v-295h-197c-70.667 0 -130.834 9.66699 -180.501 29s-90.334 47 -122.001 83s-54.667 79.833 -69 131.5
s-21.5 109.834 -21.5 174.501v1237z" />
    <glyph glyph-name="saraaethai" unicode="&#xe41;" horiz-adv-x="1581" 
d="M213 1655l332.002 -0.000976562v-1233c0 -19.333 1 -36.833 3 -52.5s6.33301 -29 13 -40s16.167 -19.5 28.5 -25.5s28.833 -9 49.5 -9h164v-295h-197c-70.667 0 -130.834 9.66699 -180.501 29s-90.334 47 -122.001 83s-54.667 79.833 -69 131.5
s-21.5 109.834 -21.5 174.501v1237zM983.002 1655l332.002 -0.000976562v-1233c0 -19.333 1 -36.833 3 -52.5s6.33301 -29 13 -40s16.167 -19.5 28.5 -25.5s28.833 -9 49.5 -9h164v-295h-197c-70.667 0 -130.834 9.66699 -180.501 29s-90.334 47 -122.001 83
s-54.667 79.833 -69 131.5s-21.5 109.834 -21.5 174.501v1237z" />
    <glyph glyph-name="saraothai" unicode="&#xe42;" horiz-adv-x="909" 
d="M250 1921c0 38 -6.16406 73.666 -18.4971 106.999s-31.333 62.333 -57 87s-58 44.167 -97 58.5s-85.167 21.5 -138.5 21.5l57 254h971v-274h-463c15.333 -19.333 27.833 -40.5 37.5 -63.5s17.167 -46 22.5 -69s9 -45.333 11 -67s3 -41.167 3 -58.5v-1483
c0 -19.333 0.666992 -37.5 2 -54.5s5.16602 -31.833 11.499 -44.5s16.166 -22.5 29.499 -29.5s31.666 -10.5 54.999 -10.5h160v-295h-193c-74 0 -136 10.667 -186 32s-90.333 51 -121 89s-52.667 83.333 -66 136s-20 110.334 -20 173.001v1491z" />
    <glyph glyph-name="saraaimaimuanthai" unicode="&#xe43;" horiz-adv-x="913" 
d="M250 1475c0 22.667 1.00195 45.1689 3.00195 67.502s7 45.333 15 69s19.833 48.5 35.5 74.5s37.5 53.667 65.5 83l168 181c17.333 19.333 30.666 36 39.999 50s16.166 26 20.499 36s6.83301 18.333 7.5 25s1 12 1 16c0 21.333 -4.66699 39.166 -14 53.5
c-9.33301 14.333 -21.666 25.666 -36.999 34c-15.333 8.33301 -32.833 14.166 -52.5 17.499s-39.834 5 -60.501 5c-16 0 -34 -3 -54 -9s-39.833 -17 -59.5 -33s-38 -37.833 -55 -65.5s-30.5 -62.834 -40.5 -105.501l-294 54c10 73.333 31.833 138 65.5 194s74 103 121 141
s98.167 66.667 153.5 86s109.666 29 162.999 29c80 0 150 -9.33301 210 -28s110 -45.5 150 -80.5s70 -77.167 90 -126.5s30 -104.666 30 -165.999c0 -40 -7.33301 -77.833 -22 -113.5s-33.667 -70 -57 -103s-49.333 -64.667 -78 -95l-85 -90.5
c-12 -12 -23.667 -24.5 -35 -37.5s-21.5 -27.167 -30.5 -42.5s-16.5 -32.333 -22.5 -51s-9.33301 -40.334 -10 -65.001v-1045c0 -19.333 0.666992 -37.5 2 -54.5s5 -31.833 11 -44.5s15.333 -22.5 28 -29.5s30.334 -10.5 53.001 -10.5h164v-295h-197
c-72.667 0 -134 10.5 -184 31.5s-90.5 50.5 -121.5 88.5s-53.333 83.333 -67 136s-20.5 110.667 -20.5 174v1045z" />
    <glyph glyph-name="saraaimaimalaithai" unicode="&#xe44;" horiz-adv-x="963" 
d="M631 430c0 -19.333 0.669922 -37.334 2.00293 -54.001s5.16602 -31 11.499 -43s16.166 -21.333 29.499 -28s31.666 -10 54.999 -10h160v-295h-193c-74 0 -136 10.833 -186 32.5s-90.333 51.834 -121 90.501s-52.667 84.5 -66 137.5s-20 110.833 -20 173.5v1483
c0 17.333 1 36.833 3 58.5s5.66699 44 11 67s12.833 46 22.5 69s22.167 44.167 37.5 63.5h-463v274h971l57 -254c-53.333 0 -99.5 -7.16699 -138.5 -21.5s-71.333 -33.833 -97 -58.5s-44.667 -53.667 -57 -87s-18.5 -69 -18.5 -107v-1491z" />
    <glyph glyph-name="lakkhangyaothai" unicode="&#xe45;" horiz-adv-x="1352" 
d="M16 1364c62 99.333 140.5 175.332 235.5 227.999s202.167 79 321.5 79c93.333 0 175.333 -12.333 246 -37s129.667 -60.667 177 -108s83 -105.666 107 -174.999s36 -148.333 36 -237v-1732h-328v1724c0 42 -4.16699 79.833 -12.5 113.5s-21.833 62.5 -40.5 86.5
s-43.167 42.333 -73.5 55s-67.5 19 -111.5 19c-59.333 0 -113.5 -13.333 -162.5 -40s-92.833 -67.667 -131.5 -123z" />
    <glyph glyph-name="maiyamokthai" unicode="&#xe46;" horiz-adv-x="1790" 
d="M557 1352c-5.33301 -4 -10.335 -9.50195 -15.002 -16.502s-9 -16.333 -13 -28s-7.16699 -26.5 -9.5 -44.5s-3.5 -40.333 -3.5 -67c0 -19.333 0.5 -39 1.5 -59s4.33301 -38 10 -54s14.5 -29.167 26.5 -39.5s29.333 -15.5 52 -15.5h53v-270h-81
c-56.667 0 -108.5 7 -155.5 21s-87.5 38 -121.5 72s-60.5 79 -79.5 135s-28.5 126 -28.5 210c0 66.667 6.83301 125.667 20.5 177s36.334 96.333 68.001 135s73.334 71.667 125.001 99s115.5 50 191.5 68l299 -237l145.5 118.5l145.5 118.5
c53.333 -14 103.5 -32.5 150.5 -55.5s88.167 -51.167 123.5 -84.5s63.333 -72.166 84 -116.499s31 -95.166 31 -152.499v-1884h-332v1880c0 12 -2.5 25.333 -7.5 40s-10.5 27 -16.5 37l-230 -180c-13.333 -10 -28.333 -17.5 -45 -22.5s-33.5 -7.33301 -50.5 -7
s-33.667 3 -50 8s-30.5 12.167 -42.5 21.5z" />
    <glyph glyph-name="maitaikhuthai" unicode="&#xe47;" 
d="M-1147 2540c-21.333 0 -40.1631 -4 -56.4961 -12s-30.166 -18.667 -41.499 -32s-20.166 -28.666 -26.499 -46c-6.33301 -17.333 -9.83301 -35.333 -10.5 -54c0 -24.667 4.66699 -50 14 -76s22.333 -48.333 39 -67l225 131c25.333 14.667 51.666 22 78.999 22
s54.333 -7.33301 81 -22l234 -131c6 6.66699 11.333 15.834 16 27.501s8.16699 24.5 10.5 38.5s3.16602 29 2.49902 45s-3.66699 32.333 -9 49h271c13.333 -59.333 13.666 -114 0.999023 -164s-34.167 -94.333 -64.5 -133s-67.833 -71.334 -112.5 -98.001
s-92.667 -46.667 -144 -60l-238 147c-31.333 20.667 -61.333 20.667 -90 0l-233 -151c-50 16 -97.167 37 -141.5 63s-83 57 -116 93s-59.167 77.5 -78.5 124.5s-29 99.5 -29 157.5c0 46 9.16699 92.667 27.5 140s44.666 90.333 78.999 129s76.166 70.667 125.499 96
s104.666 39 165.999 41h950v-258h-930z" />
    <glyph glyph-name="maiekthai" unicode="&#xe48;" 
d="M-528 3075h315v-396h-315v396z" />
    <glyph glyph-name="maithothai" unicode="&#xe49;" 
d="M139 2941v-262h-942v217l127 33c38.667 8.66699 58 33 58 73c0 42.667 -49.333 62 -148 58v258c65.333 0 124.333 -5.33301 177 -16s97.5 -27.5 134.5 -50.5s65.333 -52.667 85 -89s29.5 -80.166 29.5 -131.5c0 -16.667 -0.5 -31.667 -1.5 -45s-4.5 -28.333 -10.5 -45
h491z" />
    <glyph glyph-name="maitrithai" unicode="&#xe4a;" 
d="M111 2920l-0.000976562 -241h-590v303c0 22.667 -2 43.334 -6 62c-4 18.667 -10.333 32 -19 40l-90 -110c-10 -12 -23 -21.5 -39 -28.5s-33.167 -10.667 -51.5 -11s-36.833 3 -55.5 10s-35.667 18.167 -51 33.5l-106 102c-16.667 -12 -26.334 -25.5 -29.001 -40.5
s-4 -32.833 -4 -53.5c0 -13.333 4 -25.666 12 -37c8 -11.333 19 -21.333 33 -30s30.833 -15.334 50.5 -20c19.667 -4.66699 41.167 -7 64.5 -7v-226h-82c-47.333 0 -91.166 8.33301 -131.499 25s-75.333 39.5 -105 68.5s-53 62.5 -70 100.5s-25.5 78.667 -25.5 122
c0 46 6 86.333 18 121s27.167 64.834 45.5 90.5c18.333 25.667 38.666 47.167 60.999 64.5s43.833 31.666 64.5 43c15.333 9.33301 32 16.5 50 21.5s36.5 7 55.5 6s38.333 -5.5 58 -13.5s38.834 -20.667 57.501 -38l78 -74l73 74c19.333 19.333 38.833 32.833 58.5 40.5
s38.334 11.667 56.001 12s34 -2.16699 49 -7.5s27.5 -11 37.5 -17c23.333 -11.333 47 -26.666 71 -46c24 -19.333 45.667 -42.5 65 -69.5s35 -57.833 47 -92.5s18 -73 18 -115v-62h332z" />
    <glyph glyph-name="maichattawathai" unicode="&#xe4b;" 
d="M-733 2884v274h233v213h287v-213h233v-274h-233v-205h-287v205h-233z" />
    <glyph glyph-name="thanthakhatthai" unicode="&#xe4c;" 
d="M-516 2458c0 60 4.50098 112 13.501 156s21.167 81.667 36.5 113s33.5 56.833 54.5 76.5s43.167 35.167 66.5 46.5s47.666 19 72.999 23s50.333 6 75 6h349v-278h-328c-20.667 0 -34 -12 -40 -36s-9 -59.667 -9 -107h-291z" />
    <glyph glyph-name="nikhahitthai" unicode="&#xe4d;" 
d="M-676 2245c0 46.667 9.16699 91 27.5 133s43 78.5 74 109.5s67.333 55.667 109 74s86.167 27.5 133.5 27.5c46 0 89.667 -9.16699 131 -27.5s77.5 -43 108.5 -74s55.5 -67.5 73.5 -109.5s27 -86.333 27 -133c0 -46 -9 -89.667 -27 -131s-42.5 -77.5 -73.5 -108.5
s-67.167 -55.5 -108.5 -73.5s-85 -27 -131 -27c-47.333 0 -91.833 9 -133.5 27s-78 42.5 -109 73.5s-55.667 67.167 -74 108.5s-27.5 85 -27.5 131zM-442 2245c0 -31.333 10.167 -57 30.5 -77s46.833 -30 79.5 -30c33.333 0 60.166 10 80.499 30s30.5 45.667 30.5 77
c0 32.667 -10.167 59.167 -30.5 79.5s-47.166 30.5 -80.499 30.5c-32.667 0 -59.167 -10.167 -79.5 -30.5s-30.5 -46.833 -30.5 -79.5z" />
    <glyph glyph-name="yamakkanthai" unicode="&#xe4e;" 
d="M-193 2126c-16 0 -25.334 -12.167 -28.001 -36.5s-4 -61.5 -4 -111.5h-287c0 70 4.33301 128.667 13 176s21 86 37 116s35 52.333 57 67s46.333 24.667 73 30c10 38 26.333 67.5 49 88.5s47.834 36.5 75.501 46.5s56.167 16 85.5 18s56.333 3 81 3h172v-250h-164
c-8 0 -14.333 -2.33301 -19 -7s-8 -12.5 -10 -23.5s-3.16699 -26 -3.5 -45s-0.5 -42.833 -0.5 -71.5h-127z" />
    <glyph glyph-name="fongmanthai" unicode="&#xe4f;" horiz-adv-x="2109" 
d="M406 819c0 -58 7.66699 -114 23 -168s36.666 -104.5 63.999 -151.5s60.5 -89.833 99.5 -128.5s81.833 -71.834 128.5 -99.501s97 -49.167 151 -64.5s110 -23 168 -23c59.333 0 116.5 7.66699 171.5 23s106.333 36.833 154 64.5s91 60.834 130 99.501
s72.333 81.5 100 128.5s49.167 97.5 64.5 151.5s23 110 23 168c0 89.333 -16.833 173 -50.5 251s-79.5 146 -137.5 204s-126 103.833 -204 137.5s-161.667 50.5 -251 50.5c-58 0 -114 -7.66699 -168 -23s-104.333 -36.833 -151 -64.5s-89.5 -61 -128.5 -100
s-72.167 -82.333 -99.5 -130s-48.666 -99 -63.999 -154s-23 -112.167 -23 -171.5zM569 819c0 65.333 12.5 126.833 37.5 184.5s58.833 108 101.5 151s92.5 77 149.5 102s117.833 37.5 182.5 37.5c66 0 127.833 -12.5 185.5 -37.5s108 -59 151 -102s77 -93.333 102 -151
s37.5 -119.167 37.5 -184.5c0 -64.667 -12.5 -125.5 -37.5 -182.5s-59 -106.833 -102 -149.5s-93.333 -76.5 -151 -101.5s-119.5 -37.5 -185.5 -37.5c-64.667 0 -125.5 12.5 -182.5 37.5s-106.833 58.833 -149.5 101.5s-76.5 92.5 -101.5 149.5s-37.5 117.833 -37.5 182.5z
M143 819c0 84 10.667 164.667 32 242s51.5 149.5 90.5 216.5s85.833 128 140.5 183s115.167 102 181.5 141s137.666 69.167 213.999 90.5s155.833 32 238.5 32c84 0 164.667 -10.667 242 -32s149.666 -51.5 216.999 -90.5s128.333 -86 183 -141s101.667 -116 141 -183
s69.666 -139.167 90.999 -216.5s32 -158 32 -242c0 -82.667 -10.667 -162.167 -32 -238.5s-51.666 -147.666 -90.999 -213.999s-86.333 -126.833 -141 -181.5s-115.667 -101.5 -183 -140.5s-139.666 -69.167 -216.999 -90.5s-158 -32 -242 -32
c-82.667 0 -162.167 10.667 -238.5 32s-147.666 51.5 -213.999 90.5s-126.833 85.833 -181.5 140.5s-101.5 115.167 -140.5 181.5s-69.167 137.666 -90.5 213.999s-32 155.833 -32 238.5zM823 819c0 -30 5.83301 -58.167 17.5 -84.5s27.334 -49.333 47.001 -69
s42.667 -35.167 69 -46.5s54.166 -17 83.499 -17c30.667 0 59.5 5.66699 86.5 17s50.5 26.833 70.5 46.5s35.833 42.667 47.5 69s17.5 54.5 17.5 84.5c0 30.667 -5.83301 59.5 -17.5 86.5s-27.5 50.5 -47.5 70.5s-43.5 35.667 -70.5 47s-55.833 17 -86.5 17
c-29.333 0 -57.166 -5.66699 -83.499 -17s-49.333 -27 -69 -47s-35.334 -43.5 -47.001 -70.5s-17.5 -55.833 -17.5 -86.5z" />
    <glyph glyph-name="zerothai" unicode="&#xe50;" horiz-adv-x="1950" 
d="M975 254c74.667 0.666992 142.5 13.667 203.5 39s113 59.333 156 102s76.333 92.667 100 150s35.5 118.666 35.5 183.999c0 63.333 -11.833 123 -35.5 179s-57 104.833 -100 146.5s-95 74.667 -156 99s-128.833 37.166 -203.5 38.499
c-74.667 -1.33301 -142.5 -14.166 -203.5 -38.499s-113.167 -57.333 -156.5 -99s-76.833 -90.5 -100.5 -146.5s-35.5 -115.667 -35.5 -179c0 -65.333 11.833 -126.666 35.5 -183.999s57.167 -107.333 100.5 -150s95.5 -76.667 156.5 -102s128.833 -38.333 203.5 -39z
M975 1483c88 0 169.5 -9.00098 244.5 -27.001s143.167 -43.333 204.5 -76s115.5 -71.834 162.5 -117.501s86.5 -96.5 118.5 -152.5s56.167 -116.167 72.5 -180.5s24.5 -131.166 24.5 -200.499c0 -105.333 -18.333 -204.166 -55 -296.499s-90.167 -172.666 -160.5 -240.999
s-156.833 -122.166 -259.5 -161.499s-220 -59 -352 -59s-249.5 19.667 -352.5 59s-189.667 93.166 -260 161.499s-123.833 148.666 -160.5 240.999s-55 191.166 -55 296.499c0 104.667 18.333 202.834 55 294.501s90.167 171.5 160.5 239.5s157 121.667 260 161
s220.5 59 352.5 59z" />
    <glyph glyph-name="onethai" unicode="&#xe51;" horiz-adv-x="1950" 
d="M131 709c0 113.333 21.335 216.828 64.002 310.495s101.667 173.834 177 240.501s164.5 118.334 267.5 155.001s214.833 55 335.5 55c126.667 0 241.5 -19.833 344.5 -59.5s190.833 -95.667 263.5 -168s128.667 -159.333 168 -261s59 -214.5 59 -338.5
c0 -109.333 -14 -209 -42 -299s-69.333 -172.667 -124 -248s-122.5 -144.666 -203.5 -207.999s-174.833 -123 -281.5 -179l-172 238c80.667 42 152 87 214 135s113.833 100.333 155.5 157s73.167 118.667 94.5 186s32 141.333 32 222c0 82 -13.167 156.167 -39.5 222.5
s-62.5 122.833 -108.5 169.5s-99.833 82.834 -161.5 108.501s-127.834 39.167 -198.501 40.5c-66.667 -1.33301 -130.5 -13.666 -191.5 -36.999s-115 -56 -162 -98s-84.5 -92.167 -112.5 -150.5s-42 -122.833 -42 -193.5c0 -133.333 37.167 -232.5 111.5 -297.5
s183.166 -98.5 326.499 -100.5l8 -291c-141.333 0 -261.5 17.667 -360.5 53s-179.833 83.833 -242.5 145.5s-108.167 134.5 -136.5 218.5s-42.5 174.667 -42.5 272z" />
    <glyph glyph-name="twothai" unicode="&#xe52;" horiz-adv-x="2109" 
d="M487 1892l0.000976562 -1241c0 -45.333 8.5 -86.333 25.5 -123s40.333 -69.167 70 -97.5s64.5 -52.666 104.5 -72.999s82.667 -37.166 128 -50.499s92.5 -23.333 141.5 -30s97.5 -10.334 145.5 -11.001c72 0.666992 141 8.33398 207 23.001s124.333 37.334 175 68.001
s91.167 70.167 121.5 118.5s45.5 106.833 45.5 175.5v201c0 36 -2.16699 69.833 -6.5 101.5s-11.5 60.5 -21.5 86.5s-23.167 48.5 -39.5 67.5s-36.166 33.5 -59.499 43.5l-181 -152c-16 -14 -34.333 -24.333 -55 -31s-41.667 -9.66699 -63 -9s-42 5.16699 -62 13.5
s-37.667 20.166 -53 35.499l-131 139c-24.667 -18.667 -46.834 -46 -66.501 -82s-35.834 -79.667 -48.501 -131l-291 94c15.333 67.333 38 127.166 68 179.499s66 98 108 137s89 71.833 141 98.5s107.667 48 167 64l180 -200l213 200
c90 -23.333 167.833 -55.666 233.5 -96.999s120 -89.333 163 -144s75 -114.667 96 -180s31.5 -133.666 31.5 -204.999v-230c0 -116 -21.667 -215.833 -65 -299.5s-103.5 -152.834 -180.5 -207.501s-169 -95 -276 -121s-223.833 -39 -350.5 -39
c-83.333 0 -164.5 5.5 -243.5 16.5s-153.333 28 -223 51s-133.667 52.167 -192 87.5s-108.5 77.5 -150.5 126.5s-74.667 105.167 -98 168.5s-35 134.333 -35 213v1245h327z" />
    <glyph glyph-name="threethai" unicode="&#xe53;" horiz-adv-x="2077" 
d="M1143 922c-37.333 -29.333 -73.999 -43.6699 -109.999 -43.0029s-70.333 13.667 -103 39l-275 212c-25.333 -20 -49.666 -44.167 -72.999 -72.5s-43.833 -59.666 -61.5 -93.999s-31.667 -71.333 -42 -111s-15.5 -80.834 -15.5 -123.501
c0 -63.333 8.5 -123.166 25.5 -179.499s42.833 -105.666 77.5 -147.999s78.167 -76 130.5 -101s113.833 -37.833 184.5 -38.5v-282c-92 2 -174.333 13.833 -247 35.5s-136.667 50.5 -192 86.5s-102.5 78.167 -141.5 126.5s-70.667 99.833 -95 154.5
s-42.166 111.5 -53.499 170.5s-17 117.5 -17 175.5c0 88 13.667 171.333 41 250s65 150.834 113 216.501s104.5 124.167 169.5 175.5s134.833 94 209.5 128l364 -278l373 278c74.667 -34 144.667 -76.5 210 -127.5s122.166 -109.167 170.499 -174.5s86.5 -137 114.5 -215
s42 -161 42 -249c0 -80.667 -9 -157.834 -27 -231.501s-41.833 -143 -71.5 -208s-63.834 -125.5 -102.501 -181.5s-78.334 -107 -119.001 -153l-283 143c30 38 61.167 80 93.5 126s62 95.333 89 148s49.167 108.5 66.5 167.5s26 120.833 26 185.5
c0 42.667 -4.66699 84 -14 124s-22.333 77.5 -39 112.5s-36.5 66.833 -59.5 95.5s-48.5 53.334 -76.5 74.001z" />
    <glyph glyph-name="fourthai" unicode="&#xe54;" horiz-adv-x="2171" 
d="M1073 283c-22.667 36.667 -40.6689 76.166 -54.002 118.499s-20 87.5 -20 135.5c0 82 12.333 152.5 37 211.5s60.834 107.833 108.501 146.5s106.5 67.167 176.5 85.5s150 27.5 240 27.5h90v-283h-74c-38 0 -72.667 -2.66699 -104 -8s-58 -15 -80 -29
s-39.167 -32.833 -51.5 -56.5s-18.5 -53.834 -18.5 -90.501c0 -88 28.333 -152.5 85 -193.5s136.334 -62.5 239.001 -64.5h237v-283h-975c-128 0 -240.167 18.333 -336.5 55s-176.5 87.667 -240.5 153s-112.167 142.833 -144.5 232.5s-48.5 187.167 -48.5 292.5
s16.167 203 48.5 293s80.5 167.833 144.5 233.5s144.167 117.167 240.5 154.5s208.5 56 336.5 56h705l323 312l217 -213l-393 -381h-852c-68.667 -1.33301 -130.334 -13.333 -185.001 -36s-101 -54.167 -139 -94.5s-67.167 -88.166 -87.5 -143.499
s-30.5 -115.666 -30.5 -180.999c0 -64.667 10.167 -124.5 30.5 -179.5s49.5 -102.5 87.5 -142.5s84.333 -71.333 139 -94s116.334 -34 185.001 -34h164z" />
    <glyph glyph-name="fivethai" unicode="&#xe55;" horiz-adv-x="2171" 
d="M1155 1520c0 -31.333 10.167 -57 30.5 -77s47.166 -30 80.499 -30c32.667 0 59.167 10 79.5 30s30.5 45.667 30.5 77c0 32.667 -10.167 59.167 -30.5 79.5s-46.833 30.5 -79.5 30.5c-33.333 0 -60.166 -10.167 -80.499 -30.5s-30.5 -46.833 -30.5 -79.5zM922 1520
c0 46.667 8.99805 90.999 26.998 132.999s42.667 78.5 74 109.5s67.833 55.667 109.5 74s86.167 27.5 133.5 27.5c46 0 89.5 -9.16699 130.5 -27.5s77 -43 108 -74s55.667 -67.5 74 -109.5s27.5 -86.333 27.5 -133c0 -8.66699 -0.666992 -17 -2 -25s-2 -16.333 -2 -25h12
l323 312l217 -213l-393 -381h-852c-68.667 -1.33301 -130.334 -13.333 -185.001 -36s-101 -54.167 -139 -94.5s-67.167 -88.166 -87.5 -143.499s-30.5 -115.666 -30.5 -180.999c0 -64.667 10.167 -124.5 30.5 -179.5s49.5 -102.5 87.5 -142.5s84.333 -71.333 139 -94
s116.334 -34 185.001 -34h164c-22.667 36.667 -40.667 76.167 -54 118.5s-20 87.5 -20 135.5c0 82 12.333 152.5 37 211.5s60.834 107.833 108.501 146.5s106.5 67.167 176.5 85.5s150 27.5 240 27.5h90v-283h-74c-38 0 -72.667 -2.66699 -104 -8s-58 -15 -80 -29
s-39.167 -32.833 -51.5 -56.5s-18.5 -53.834 -18.5 -90.501c0 -88 28.333 -152.5 85 -193.5s136.334 -62.5 239.001 -64.5h237v-283h-975c-128 -0 -240.167 18.333 -336.5 55s-176.5 87.667 -240.5 153s-112.167 142.833 -144.5 232.5s-48.5 187.167 -48.5 292.5
s16.167 203 48.5 293s80.5 167.833 144.5 233.5s144.167 117.167 240.5 154.5s208.5 56 336.5 56h17c-2 8.66699 -3.16699 17 -3.5 25s-0.5 16.333 -0.5 25z" />
    <glyph glyph-name="sixthai" unicode="&#xe56;" horiz-adv-x="2109" 
d="M344 512c-5.33301 48 -4 91.3408 4 130.008s20.5 73.667 37.5 105s37.167 59 60.5 83s47.333 45.167 72 63.5s49 34.166 73 47.499s45.333 24.666 64 33.999l160 -254l-48.5 -30c-17 -10.667 -32.5 -23.334 -46.5 -38.001s-25.333 -31.834 -34 -51.501
s-12 -42.834 -10 -69.501c2 -28 10 -53.667 24 -77s32.167 -44.333 54.5 -63s48 -35 77 -49s59.667 -25.833 92 -35.5s65.5 -16.834 99.5 -21.501s67 -7 99 -7c84 0 158.167 11.333 222.5 34s118.166 54 161.499 94s76.166 87.5 98.499 142.5s33.5 114.833 33.5 179.5
c0 65.333 -11.333 126.5 -34 183.5s-55.834 106.5 -99.501 148.5s-97.667 75 -162 99s-137.833 36 -220.5 36c-55.333 0 -107.166 -2.33301 -155.499 -7s-94.333 -13 -138 -25s-85.667 -28 -126 -48s-80.5 -45.333 -120.5 -76l-553 529l221 205l397 -381
c28.667 13.333 61 25.666 97 36.999s74.333 21.333 115 30s83.167 15.334 127.5 20.001s89.5 7 135.5 7c142.667 0 267 -19.833 373 -59.5s194.167 -93.834 264.5 -162.501s123 -149 158 -241s52.5 -190.333 52.5 -295c0 -106.667 -17.667 -205.5 -53 -296.5
s-88.333 -169.667 -159 -236s-159 -118.333 -265 -156s-229.667 -56.5 -371 -56.5c-114.667 0 -218.167 13.5 -310.5 40.5s-171.666 64.167 -237.999 111.5s-119.166 103.166 -158.499 167.499s-63 133.833 -71 208.5z" />
    <glyph glyph-name="seventhai" unicode="&#xe57;" horiz-adv-x="2154" 
d="M1995 700c0 -58.667 -5.83203 -114.835 -17.499 -168.502s-27.334 -104.5 -47.001 -152.5s-42.334 -92.667 -68.001 -134s-52.167 -79.333 -79.5 -114s-54.5 -65.334 -81.5 -92.001s-52.167 -49.334 -75.5 -68.001l-262 148c30 30.667 62.333 65.834 97 105.501
s67 83.667 97 132s55 100.833 75 157.5s30 117.334 30 182.001c0 46 -7.16699 90.333 -21.5 133s-33.166 82.5 -56.499 119.5s-49.666 70.833 -78.999 101.5s-59 57.334 -89 80.001l-254 -208c-39.333 -31.333 -77.166 -46.5 -113.499 -45.5s-72.166 16.167 -107.499 45.5
l-254 208c-27.333 -23.333 -54.333 -49.166 -81 -77.499s-50.334 -60 -71.001 -95s-37.334 -74 -50.001 -117s-19 -91.167 -19 -144.5c0 -68.667 10.833 -129.667 32.5 -183s51.5 -98.333 89.5 -135s82.667 -64.5 134 -83.5s106.666 -28.5 165.999 -28.5v-286
c-89.333 2.66699 -170 14.167 -242 34.5s-136 47.5 -192 81.5s-104.167 73.667 -144.5 119s-73.5 94 -99.5 146s-45.167 106.5 -57.5 163.5s-18.5 114.167 -18.5 171.5c0 67.333 7.5 130.833 22.5 190.5s35.667 115.334 62 167.001s57.5 99.667 93.5 144
s75.333 85.5 118 123.5s87.5 72.667 134.5 104s94.833 60 143.5 86l344 -286l336 278c20 -8 41.833 -18 65.5 -30s47.667 -25.333 72 -40s48.5 -30.334 72.5 -47.001s46.667 -33.667 68 -51v557h328v-1192z" />
    <glyph glyph-name="eightthai" unicode="&#xe58;" horiz-adv-x="2101" 
d="M1872 537c0 -60.667 -9.32617 -117.332 -27.9932 -169.999s-47.167 -102 -85.5 -148s-86.5 -89.167 -144.5 -129.5s-126.333 -78.5 -205 -114.5l-356 283l-361 -283c-74.667 32 -145.667 73.5 -213 124.5s-126.5 109.5 -177.5 175.5s-91.5 138.333 -121.5 217
s-45 161.667 -45 249c0 60 6.16699 119.667 18.5 179s31.5 116 57.5 170s58.833 104.167 98.5 150.5s86.667 86.5 141 120.5s116.166 60.667 185.499 80s146.666 29 231.999 29h697l307 320l233 -209l-389 -393h-848c-62.667 -1.33301 -118.834 -13.166 -168.501 -35.499
s-91.667 -53.333 -126 -93s-60.666 -86.5 -78.999 -140.5s-27.5 -113.333 -27.5 -178c0 -38.667 5.83301 -76.834 17.5 -114.501s27.167 -73.667 46.5 -108s41.166 -66.333 65.499 -96s49.5 -55.834 75.5 -78.501l270 213c33.333 26.667 69.333 41 108 43
s76.334 -12.333 113.001 -43l279 -225c39.333 20.667 68.166 48.167 86.499 82.5s27.5 76.5 27.5 126.5c0 18 -3.83301 35 -11.5 51s-17.834 31 -30.501 45s-27.334 27 -44.001 39s-34.334 23 -53.001 33l82 278c57.333 -19.333 109 -43.333 155 -72
s85.167 -61.834 117.5 -99.501s57.166 -79.667 74.499 -126s26 -97.166 26 -152.499z" />
    <glyph glyph-name="ninethai" unicode="&#xe59;" horiz-adv-x="2331" 
d="M1016 -29c-139.333 0 -263.334 19.6719 -372.001 59.0049s-200.5 93.166 -275.5 161.499s-132 148.666 -171 240.999s-58.5 191.166 -58.5 296.499c0 70 8 137 24 201s39.5 124 70.5 180s69.167 106.833 114.5 152.5s97.666 84.834 156.999 117.501
s125.166 58 197.499 76s150.833 27 235.5 27c107.333 0 203.666 -18.667 288.999 -56s161 -91 227 -161c32.667 63.333 81.834 112.5 147.501 147.5s151.834 52.5 258.501 52.5h381v-274h-353c-47.333 0 -83.833 -7.5 -109.5 -22.5s-44.667 -35 -57 -60
s-19.666 -53.333 -21.999 -85s-3.5 -64.5 -3.5 -98.5l463 -832l-291 -123l-512 897c-62 107.333 -127.5 188.166 -196.5 242.499s-142.833 81.5 -221.5 81.5c-70 0 -133.833 -12 -191.5 -36s-107.167 -56.833 -148.5 -98.5s-73.5 -90.667 -96.5 -147
s-34.5 -116.833 -34.5 -181.5s13.333 -125.334 40 -182.001s64.334 -106.334 113.001 -149.001s106.5 -76.5 173.5 -101.5s141.167 -37.833 222.5 -38.5v-287z" />
    <glyph glyph-name="angkhankhuthai" unicode="&#xe5a;" horiz-adv-x="2372" 
d="M1237 725c-24.667 -19.333 -51.999 -36 -81.999 -50s-61 -25.5 -93 -34.5s-64.167 -15.667 -96.5 -20s-63.5 -6.5 -93.5 -6.5c-104 0 -198.667 11.167 -284 33.5s-158.166 56.333 -218.499 102s-107 103.167 -140 172.5s-49.5 151 -49.5 245c0 70 9.66699 134.667 29 194
s48.5 110.833 87.5 154.5s87.667 77.834 146 102.501s126.5 37 204.5 37h176v-295h-147c-32.667 0 -59.834 -4.5 -81.501 -13.5s-38.834 -21.833 -51.501 -38.5s-21.667 -36.834 -27 -60.501s-8 -50.5 -8 -80.5c0 -48 8 -88.667 24 -122s39.5 -60.333 70.5 -81
s69.167 -35.667 114.5 -45s97 -14 155 -14c120 0 210.833 30 272.5 90s92.5 149 92.5 267v393h336v-1655h-336v725zM1823 1655h336v-1655h-336v1655z" />
    <glyph glyph-name="khomutthai" unicode="&#xe5b;" horiz-adv-x="3719" 
d="M3535 967l0.00195312 -279.002h-774l-78 103l-84 -154l-96 -169.5l-96.5 -161c-31.667 -51 -59.834 -94.5 -84.501 -130.5l-47.5 89.5l-55 101l-59.5 106l-61.5 105.5l-60 100l-56.5 88c-29.333 -112.667 -71.333 -214 -126 -304s-120 -166.5 -196 -229.5
s-161.333 -111.333 -256 -145s-196.667 -50.5 -306 -50.5c-149.333 0 -280.166 20.5 -392.499 61.5s-205.833 97.667 -280.5 170s-130.667 157.666 -168 255.999s-56 204.833 -56 319.5c0 84 9.33301 160.833 28 230.5s44.167 132.167 76.5 187.5
s70.166 103.833 113.499 145.5s90.166 76.167 140.499 103.5s102.5 47.833 156.5 61.5s107.667 20.5 161 20.5c55.333 0 105.333 -6.5 150 -19.5s85 -29.5 121 -49.5s68.333 -41.667 97 -65l78 -66l-209 -238c-51.333 45.333 -96.833 78.5 -136.5 99.5
s-76.167 31.5 -109.5 31.5c-44 0 -87.167 -9.33301 -129.5 -28s-80 -46.5 -113 -83.5s-59.5 -83.167 -79.5 -138.5s-30 -119.333 -30 -192c0 -90 16.167 -167.167 48.5 -231.5s75.166 -117 128.499 -158s114.833 -71 184.5 -90s141.834 -28.5 216.501 -28.5
c54.667 0 107.5 8.83301 158.5 26.5s99 42 144 73s86 67.833 123 110.5s69 88.834 96 138.501s47.833 102 62.5 157s22 110.5 22 166.5c0 30.667 -2.66699 64.834 -8 102.501s-16.333 81.167 -33 130.5l213 156c36.667 -38 76 -82.5 118 -133.5l126 -160l122 -167
l105 -154.5l59 113l56.5 114l48 101c14.333 30.667 25.5 55.334 33.5 74.001l159 53l201 -270h635z" />
    <glyph glyph-name="ZWSP" unicode="&#x200b;" 
 />
    <glyph glyph-name="endash" unicode="&#x2013;" horiz-adv-x="1659" 
d="M143 709v290h1373v-290h-1373z" />
    <glyph glyph-name="emdash" unicode="&#x2014;" horiz-adv-x="2810" 
d="M238 709v290h2334v-290h-2334z" />
    <glyph glyph-name="quoteleft" unicode="&#x2018;" horiz-adv-x="840" 
d="M242 1810v340l348 267v-607h-348z" />
    <glyph glyph-name="quoteright" unicode="&#x2019;" horiz-adv-x="840" 
d="M590 2245v-344l-348 -267v611h348z" />
    <glyph glyph-name="quotedblleft" unicode="&#x201c;" horiz-adv-x="1421" 
d="M831 1810v340l349 267v-607h-349zM242 1810v340l348 267v-607h-348z" />
    <glyph glyph-name="quotedblright" unicode="&#x201d;" horiz-adv-x="1421" 
d="M590 2245v-344l-348 -267v611h348zM1180 2245v-344l-349 -267v611h349z" />
    <glyph glyph-name="bullet" unicode="&#x2022;" horiz-adv-x="1839" 
d="M471 836c0 61.333 12 119.166 36 173.499s56.5 102 97.5 143s88.833 73.5 143.5 97.5s112.667 36 174 36s119.166 -12 173.499 -36s102 -56.5 143 -97.5s73.5 -88.667 97.5 -143s36 -112.166 36 -173.499s-12 -119.333 -36 -174s-56.5 -102.5 -97.5 -143.5
s-88.667 -73.5 -143 -97.5s-112.166 -36 -173.499 -36s-119.333 12 -174 36s-102.5 56.5 -143.5 97.5s-73.5 88.833 -97.5 143.5s-36 112.667 -36 174z" />
    <glyph glyph-name="Euro" unicode="&#x20ac;" horiz-adv-x="1929" 
d="M1757 635c-18.667 -106.667 -50.168 -200.669 -94.501 -282.002s-99 -149.666 -164 -204.999s-138.833 -97.166 -221.5 -125.499s-171 -42.5 -265 -42.5c-107.333 0 -206.833 19.333 -298.5 58s-172.5 94.334 -242.5 167.001c-32.667 32.667 -60.5 66.167 -83.5 100.5
s-42 70.166 -57 107.499s-26.667 76.666 -35 117.999s-13.833 85.666 -16.5 132.999h-201v254h192v110v127h-192v254h205c4 44.667 10.333 87.167 19 127.5s20.334 78.833 35.001 115.5s33 71.834 55 105.501s48.333 66.167 79 97.5c70 70.667 151.333 126 244 166
s191.667 60 297 60c94 0 182.167 -14.333 264.5 -43s155.833 -70.667 220.5 -126s119.334 -123.5 164.001 -204.5s76.667 -173.5 96 -277.5h-344c-12 50.667 -29.333 97.167 -52 139.5s-50.667 78.666 -84 108.999s-72 53.833 -116 70.5s-93.667 25 -149 25
c-28.667 0 -56.834 -2.5 -84.501 -7.5s-54 -12.333 -79 -22s-48 -21.667 -69 -36s-39.167 -30.833 -54.5 -49.5c-14 -15.333 -26.833 -31.333 -38.5 -48s-22 -34.834 -31 -54.501s-16.833 -41.5 -23.5 -65.5s-12.667 -51.333 -18 -82h418v-254h-430v-127v-110h430v-254h-418
c4 -33.333 9.16699 -62.5 15.5 -87.5s14 -47.667 23 -68s19.5 -38.666 31.5 -54.999s25.667 -32.166 41 -47.499c15.333 -19.333 33.5 -36.666 54.5 -51.999s44 -28.333 69 -39s51.333 -18.667 79 -24s55.834 -8 84.501 -8c55.333 0 105.166 8.5 149.499 25.5
s83.5 41 117.5 72s62.5 68.167 85.5 111.5s40.5 91 52.5 143h340v0z" />
    <glyph glyph-name="trademark" unicode="&#x2122;" horiz-adv-x="2552" 
d="M2146 786v709l-237 -410h-209l-234 418v-717h-254v1274h230l364 -659l361 659h233v-1274h-254zM733 1835v-1049h-258v1049h-369v225h992v-225h-365z" />
    <glyph glyph-name="uni25CC" unicode="&#x25cc;" horiz-adv-x="2298" 
d="M889 614l-164 -53l53 164c30 -44 67 -81 111 -111zM1069 1417l82 156l74 -152c-24.667 2.66699 -48 4 -70 4c-30 0 -58.667 -2.66699 -86 -8zM1217 537l-66 -144l-74 144c24.667 -6 50.667 -9 78 -9c22 0 42.667 3 62 9zM1593 1053l144 -78l-144 -62c6 19.333 9 40 9 62
c0 24.667 -3 50.667 -9 78zM713 905l-156 78l156 78c-5.33301 -30 -8 -58.667 -8 -86c0 -24.667 2.66699 -48 8 -70zM791 1245l-46 155.999l156 -53c-43.333 -27.333 -80 -61.666 -110 -102.999zM1507 704.999l41 -144l-139 45c38 27.333 70.667 60.333 98 99zM1405 1348
l172 53l-61 -160c-30.667 41.333 -67.667 77 -111 107z" />
    <glyph glyph-name="thothannobasethai" unicode="&#xf700;" horiz-adv-x="1556" 
d="M999 516c0 28.667 -2.33496 53.832 -7.00195 75.499s-13 39.667 -25 54s-28.167 25 -48.5 32s-46.5 10.5 -78.5 10.5h-271v283h275c28.667 0 55.5 -3.16699 80.5 -9.5s49.833 -15.5 74.5 -27.5v94c-6 118 -39 206.167 -99 264.5s-149.667 87.5 -269 87.5
c-39.333 0 -77.666 -5.66699 -114.999 -17s-72.333 -28.166 -105 -50.499s-62.167 -50.5 -88.5 -84.5s-47.833 -73.333 -64.5 -118l-307 139c30.667 68.667 68.667 129.334 114 182.001s97 96.667 155 132s121.5 62.166 190.5 80.499s142.5 27.5 220.5 27.5
c34.667 0 67.167 -1.33301 97.5 -4s59.333 -6.66699 87 -12s54.834 -12.5 81.501 -21.5s54 -19.5 82 -31.5l336 315l233 -213l-327 -299c36.667 -49.333 64.167 -104 82.5 -164s27.5 -128.333 27.5 -205v-1036h-332v516z" />
    <glyph glyph-name="saraileftthai" unicode="&#xf701;" 
d="M-1815 2220h1131v-258h-1131v258z" />
    <glyph glyph-name="saraiileftthai" unicode="&#xf702;" 
d="M-1815 2220h811v229h320v-487h-1131v258z" />
    <glyph glyph-name="saraueleftthai" unicode="&#xf703;" 
d="M-1815 1962v258h521v37c0 44.667 8.33301 86.667 25 126s39.5 73.666 68.5 103c29 29.333 62.833 52.333 101.5 69s80 25 124 25c44.667 0 86.834 -7.83301 126.501 -23.5s74 -37.167 103 -64.5s52 -60.166 69 -98.5c17 -38.333 25.5 -79.833 25.5 -124.5
c0 -44 -8.5 -84.667 -25.5 -122s-40 -69.833 -69 -97.5s-63.333 -49.167 -103 -64.5s-81.834 -23 -126.501 -23h-840zM-1069 2261c0 -13.333 2.66699 -25.666 8 -37c5.33301 -11.333 12.333 -21.333 21 -30s18.667 -15.334 30 -20c11.333 -4.66699 23 -7 35 -7
c28.667 0 53 9 73 27s30 40.333 30 67c0 28.667 -10 52.167 -30 70.5s-44.333 27.5 -73 27.5c-12 0 -23.667 -2.5 -35 -7.5s-21.333 -11.833 -30 -20.5s-15.667 -19 -21 -31s-8 -25 -8 -39z" />
    <glyph glyph-name="saraueeleftthai" unicode="&#xf704;" 
d="M-1815 2220h414v229h283v-229h151v229h283v-487h-1131v258z" />
    <glyph glyph-name="maieklowleftthai" unicode="&#xf705;" 
d="M-1135 2560h316v-606h-316v606z" />
    <glyph glyph-name="maitholowleftthai" unicode="&#xf706;" 
d="M-688 2241v-283h-885v233l135 29c20.667 4 36.167 13.667 46.5 29s15.5 34.333 15.5 57c0 20.667 -13.167 36.5 -39.5 47.5s-65.166 14.167 -116.499 9.5v279c70 0 133 -5.83301 189 -17.5s103.667 -29.834 143 -54.5c39.333 -24.667 69.666 -56.5 90.999 -95.5
s32 -85.5 32 -139.5c0 -16.667 -0.5 -32.5 -1.5 -47.5s-4.83301 -30.5 -11.5 -46.5h402z" />
    <glyph glyph-name="maitrilowleftthai" unicode="&#xf707;" 
d="M-541 2208l0.000976562 -250h-413v311c0 22.667 -2.16699 43.334 -6.5 62c-4.33301 18.667 -10.5 32.334 -18.5 41l-98 -111c-9.33301 -12 -21.833 -21.5 -37.5 -28.5s-32.834 -10.667 -51.501 -11s-37.5 3 -56.5 10s-36.167 18.167 -51.5 33.5l-106 102
c-16.667 -14 -26.334 -27.833 -29.001 -41.5s-4 -29.834 -4 -48.5c0 -14 3.83301 -27.333 11.5 -40s18.5 -23.5 32.5 -32.5s30.833 -16.167 50.5 -21.5s41.5 -8 65.5 -8v-229h-78c-50 0 -96.167 8.33301 -138.5 25s-78.666 39.667 -108.999 69s-54 63.5 -71 102.5
s-25.5 81.167 -25.5 126.5c0 44.667 6.16699 84.667 18.5 120s28 66.333 47 93s39.667 49.5 62 68.5s43.833 34.5 64.5 46.5c16.667 8 34.5 14.5 53.5 19.5s38.333 7.16699 58 6.5s39.334 -5 59.001 -13s38.167 -20.667 55.5 -38l81 -73l78 73
c18.667 19.333 37.667 32.666 57 40c19.333 7.33301 38.166 10.833 56.499 10.5s35.333 -3.16602 51 -8.5c15.667 -5.33301 29.167 -11 40.5 -17c23.333 -11.333 47.166 -26.666 71.499 -46c24.333 -19.333 46.333 -42.833 66 -70.5s35.834 -59.167 48.501 -94.5
s19 -74.333 19 -117v-61h147z" />
    <glyph glyph-name="maichattawalowleftthai" unicode="&#xf708;" 
d="M-1470 2167v282h241v222h299v-222h242v-282h-242v-213h-299v213h-241z" />
    <glyph glyph-name="thanthakhatlowleftthai" unicode="&#xf709;" 
d="M-1356 1995c0 90 9.66699 162.666 29 217.999s44.5 98 75.5 128s65.333 50.167 103 60.5s75.167 15.5 112.5 15.5h348v-275h-328c-20.667 0 -34.667 -12.667 -42 -38s-11 -61.666 -11 -108.999h-287z" />
    <glyph glyph-name="maieklowrightthai" unicode="&#xf70a;" 
d="M-541 2580h328v-606h-328v606z" />
    <glyph glyph-name="maitholowrightthai" unicode="&#xf70b;" 
d="M-57 2257l-0.000976562 -283h-1012v234l135 33c41.333 8 62 35 62 81c0 20.667 -13.167 36.5 -39.5 47.5s-65.166 14.5 -116.499 10.5v278c69.333 0 132 -5.83301 188 -17.5s103.833 -29.834 143.5 -54.5c39.667 -24.667 70.167 -56.5 91.5 -95.5s32 -85.5 32 -139.5
c0 -16.667 -0.5 -32.334 -1.5 -47c-1 -14.667 -4.83301 -30.334 -11.5 -47h529z" />
    <glyph glyph-name="maitrilowrightthai" unicode="&#xf70c;" 
d="M-82 2232l-0.00195312 -258h-602v320c0 24.667 -2 47.167 -6 67.5s-10.333 34.5 -19 42.5l-106 -118c-10 -12.667 -23 -22.5 -39 -29.5s-33.167 -10.5 -51.5 -10.5s-36.833 3.5 -55.5 10.5s-35.667 18.167 -51 33.5l-114 110c-16.667 -14 -27 -28.667 -31 -44
s-6 -33.333 -6 -54c0 -14 4.16699 -27.333 12.5 -40s20 -23.5 35 -32.5s33 -16.167 54 -21.5s44.5 -8 70.5 -8v-238h-86c-50 0 -96.667 8.83301 -140 26.5s-80.666 41.667 -111.999 72s-56 65.5 -74 105.5s-27 82.667 -27 128c0 46.667 6.16699 88.5 18.5 125.5
s28.333 69.333 48 97s41.334 51.167 65.001 70.5s46.834 35 69.501 47c16.667 9.33301 34.5 16.666 53.5 22c19 5.33301 38.667 7.66602 59 7c20.333 -0.666992 40.833 -5.16699 61.5 -13.5s40.667 -21.833 60 -40.5l82 -78l77 78c20.667 20.667 41.167 34.834 61.5 42.5
c20.333 7.66699 39.833 11.5 58.5 11.5s36 -2.66699 52 -8s29.667 -11 41 -17c24.667 -12 49.667 -28.333 75 -49s48.166 -45.334 68.499 -74c20.333 -28.667 37 -61.5 50 -98.5s19.5 -77.833 19.5 -122.5v-62h328z" />
    <glyph glyph-name="maichattawalowrightthai" unicode="&#xf70d;" 
d="M-770 2187v283h242v221h299v-221h241v-283h-241v-213h-299v213h-242z" />
    <glyph glyph-name="thanthakhatlowrightthai" unicode="&#xf70e;" 
d="M-827 1987c0 60 4.50098 111.999 13.501 155.999s21.167 81.667 36.5 113s33.5 56.833 54.5 76.5s43.167 35.167 66.5 46.5s47.666 19 72.999 23s50.333 6 75 6h479v-274h-458c-20.667 0 -35.5 -12.667 -44.5 -38s-13.5 -61.666 -13.5 -108.999h-282z" />
    <glyph glyph-name="yoyingnobasethai" unicode="&#xf70f;" horiz-adv-x="2777" 
d="M250 975l-159.994 221c96.667 157.333 210.5 275.833 341.5 355.5s283.5 119.5 457.5 119.5c124.667 0 233.5 -14.667 326.5 -44s170.167 -72 231.5 -128s107.166 -124.667 137.499 -206s45.5 -173.666 45.5 -276.999v-365c0 -120.667 25.167 -214.334 75.5 -281.001
s123.5 -100 219.5 -100c49.333 0 93.333 8.5 132 25.5s71.167 41.833 97.5 74.5s46.5 72.667 60.5 120s21 101 21 161v1004h328v-1037c0 -86 -11.833 -167.333 -35.5 -244s-61 -144 -112 -202s-116.333 -103.833 -196 -137.5s-175.5 -50.5 -287.5 -50.5
c-104 0 -195.333 14 -274 42s-144.334 69 -197.001 123s-92.334 120.333 -119.001 199s-40 168.667 -40 270v373c0 70.667 -9.33301 130.5 -28 179.5s-45.834 88.667 -81.501 119s-79.334 52.333 -131.001 66s-110.834 20.5 -177.501 20.5c-35.333 0 -71.166 -3 -107.499 -9
s-72.333 -15.833 -108 -29.5s-70.667 -31.334 -105 -53.001s-66.833 -48.5 -97.5 -80.5l111 -160v-622c0 -19.333 1.33301 -36.833 4 -52.5s7.5 -29 14.5 -40s16.833 -19.5 29.5 -25.5s29.334 -9 50.001 -9h164v-295h-197c-70.667 0 -130.834 9.66699 -180.501 29
s-90.334 47 -122.001 83s-54.667 79.833 -69 131.5s-21.5 109.834 -21.5 174.501v557z" />
    <glyph glyph-name="maihanakatleftthai" unicode="&#xf710;" 
d="M-954 2372c0 -48 5.16699 -84 15.5 -108s22.833 -36 37.5 -36h1016v-278h-1053c-24.667 0 -49.667 2.33301 -75 7s-50 13 -74 25s-46.667 28.167 -68 48.5s-39.833 46 -55.5 77s-28.167 68.333 -37.5 112s-14 94.5 -14 152.5h308z" />
    <glyph glyph-name="nikhahitleftthai" unicode="&#xf711;" 
d="M-1376 2204c0 46.667 9 91 27 133s42.667 78.5 74 109.5s67.833 55.667 109.5 74s86.167 27.5 133.5 27.5c46 0 89.5 -9.16699 130.5 -27.5s77 -43 108 -74s55.667 -67.5 74 -109.5s27.5 -86.333 27.5 -133c0 -46 -9.16699 -89.667 -27.5 -131s-43 -77.5 -74 -108.5
s-67 -55.5 -108 -73.5s-84.5 -27 -130.5 -27c-47.333 0 -91.833 9 -133.5 27s-78.167 42.5 -109.5 73.5s-56 67.167 -74 108.5s-27 85 -27 131zM-1143 2204c0 -31.333 10.167 -57 30.5 -77s47.166 -30 80.499 -30c32.667 0 59.167 10 79.5 30s30.5 45.667 30.5 77
c0 32.667 -10.167 59.167 -30.5 79.5s-46.833 30.5 -79.5 30.5c-33.333 0 -60.166 -10.167 -80.499 -30.5s-30.5 -46.833 -30.5 -79.5z" />
    <glyph glyph-name="maitaikhuleftthai" unicode="&#xf712;" 
d="M-1430 2449c-20 0 -37.6631 -3.83301 -52.9961 -11.5s-28.333 -17.667 -39 -30s-18.834 -26.666 -24.501 -43c-5.66699 -16.333 -8.83398 -33.166 -9.50098 -50.5c0 -22.667 4 -46 12 -70s20.333 -44.333 37 -61l188 119c24.667 14.667 48.667 22 72 22
s48.666 -7.33301 75.999 -22l196 -119c12.667 12.667 21.834 32.667 27.501 60s3.5 56.666 -6.5 88h254c12 -56.667 12.333 -108.167 1 -154.5s-31.333 -87.5 -60 -123.5s-63.834 -66.333 -105.501 -91s-86.5 -43.667 -134.5 -57l-205 139c-14.667 10 -27.667 15 -39 15
s-24.333 -5 -39 -15l-201 -143c-46 15.333 -89.667 35 -131 59s-77.5 53 -108.5 87s-55.5 72.833 -73.5 116.5s-27 92.5 -27 146.5c0 44 8.66699 88 26 132s42.166 83.833 74.499 119.5s71.5 65 117.5 88s97.667 35.5 155 37.5h823v-238h-803z" />
    <glyph glyph-name="maiekupperleftthai" unicode="&#xf713;" 
d="M-999 3075h315v-396h-315v396z" />
    <glyph glyph-name="maithoupperleftthai" unicode="&#xf714;" 
d="M-250 2941v-262h-942v217l127 33c38 8 57 32.333 57 73c0 42.667 -49 62 -147 58v258c65.333 0 124.333 -5.33301 177 -16s97.5 -27.5 134.5 -50.5s65.333 -52.667 85 -89s29.5 -80.166 29.5 -131.5c0 -16.667 -0.5 -31.667 -1.5 -45s-4.5 -28.333 -10.5 -45h491z" />
    <glyph glyph-name="maitriupperleftthai" unicode="&#xf715;" 
d="M-250 2920v-241h-590v303c0 22.667 -2 43.334 -6 62c-4 18.667 -10 32 -18 40l-90 -110c-10 -12 -23.167 -21.5 -39.5 -28.5s-33.5 -10.667 -51.5 -11s-36.333 3 -55 10s-35.667 18.167 -51 33.5l-106 102c-16.667 -12 -26.334 -25.5 -29.001 -40.5s-4 -32.833 -4 -53.5
c0 -13.333 3.83301 -25.666 11.5 -37c7.66699 -11.333 18.5 -21.333 32.5 -30s30.833 -15.334 50.5 -20c19.667 -4.66699 41.5 -7 65.5 -7v-226h-82c-47.333 0 -91.166 8.33301 -131.499 25s-75.333 39.5 -105 68.5s-53 62.5 -70 100.5s-25.5 78.667 -25.5 122
c0 46 6 86.333 18 121s27.167 64.834 45.5 90.5c18.333 25.667 38.5 47.167 60.5 64.5s43.333 31.666 64 43c15.333 9.33301 32.166 16.5 50.499 21.5s37 7 56 6s38.333 -5.5 58 -13.5s38.5 -20.667 56.5 -38l78 -74l74 74c19.333 19.333 38.833 32.833 58.5 40.5
s38.334 11.667 56.001 12s34 -2.16699 49 -7.5s27.5 -11 37.5 -17c23.333 -11.333 47 -26.666 71 -46c24 -19.333 45.5 -42.5 64.5 -69.5s34.5 -57.833 46.5 -92.5s18 -73 18 -115v-62h332z" />
    <glyph glyph-name="maichattawaupperleftthai" unicode="&#xf716;" 
d="M-1204 2884v274h233v213h287v-213h233v-274h-233v-205h-287v205h-233z" />
    <glyph glyph-name="thanthakhatupperleftthai" unicode="&#xf717;" 
d="M-954 2458c0 60 4.50098 112 13.501 156s21.167 81.667 36.5 113s33.5 56.833 54.5 76.5s43.167 35.167 66.5 46.5s47.666 19 72.999 23s50.333 6 75 6h389v-278h-368c-20.667 0 -34.167 -12 -40.5 -36s-9.5 -59.667 -9.5 -107h-290z" />
    <glyph glyph-name="saraulowthai" unicode="&#xf718;" 
d="M-528 -1081c0 16 -0.833984 28.833 -2.50098 38.5s-4.5 17 -8.5 22s-9.16699 8.33301 -15.5 10s-14.166 2.5 -23.499 2.5h-122v291h143c63.333 0 117 -4.5 161 -13.5s79.5 -26.5 106.5 -52.5s46.5 -62.5 58.5 -109.5s18 -108.5 18 -184.5v-295h-315v291z" />
    <glyph glyph-name="sarauulowthai" unicode="&#xf719;" 
d="M-950 -1008c0 8.66699 -2.50098 15 -7.50098 19s-9.5 6 -13.5 6h-110v262h155c50 0 91.667 -4.83301 125 -14.5s59.833 -25.167 79.5 -46.5s33.5 -48.833 41.5 -82.5s12 -74.5 12 -122.5v-21c0 -9.33301 1.5 -19 4.5 -29s7.83301 -19.167 14.5 -27.5
s15.5 -15.333 26.5 -21s24.5 -8.5 40.5 -8.5c16.667 0 30.334 2.83301 41.001 8.5s19 12.667 25 21s10.167 17.5 12.5 27.5s3.5 19.667 3.5 29v287h287v-287c0 -51.333 -9.16699 -98 -27.5 -140s-44 -78.167 -77 -108.5s-72 -53.833 -117 -70.5s-94.167 -25 -147.5 -25
c-56 0 -106.667 8.33301 -152 25s-84 40.167 -116 70.5s-56.667 66.5 -74 108.5s-26 88.667 -26 140z" />
    <glyph glyph-name="phinthulowthai" unicode="&#xf71a;" 
d="M-590 -913c0 28.667 5.33301 55.334 16 80.001s25.167 46.167 43.5 64.5s40 32.833 65 43.5s51.833 16 80.5 16s55.5 -5.33301 80.5 -16s46.667 -25.167 65 -43.5s32.833 -39.833 43.5 -64.5s16 -51.334 16 -80.001s-5.33301 -55.5 -16 -80.5s-25.167 -46.667 -43.5 -65
s-40 -32.833 -65 -43.5s-51.833 -16 -80.5 -16s-55.5 5.33301 -80.5 16s-46.667 25.167 -65 43.5s-32.833 40 -43.5 65s-16 51.833 -16 80.5z" />
    <glyph glyph-name="lochula.short" unicode="&#xf71d;" horiz-adv-x="2249" 
d="M1724 1266c-2 34.667 -20.334 61.167 -55.001 79.5s-90 28.5 -166 30.5v279h213c46.667 0 83.167 11.5 109.5 34.5s44.5 51.167 54.5 84.5l57 176h336l-82 -262c-18.667 -58 -44.167 -107.5 -76.5 -148.5s-68.166 -74.833 -107.499 -101.5c20.667 -33.333 34 -68 40 -104
s5 -72.333 -3 -109l-209 -1225h-287l-434 1135l-434 -1135h-291l-278 1655h331l164 -1114l393 1114h230l393 -1114z" />
    <glyph glyph-name="rulakkhangyao" unicode="&#xf881;" horiz-adv-x="3150" 
d="M1815 1364c61.333 99.333 139.5 175.332 234.5 227.999s202.5 79 322.5 79c92.667 0 174.334 -12.333 245 -37c70.667 -24.667 129.667 -60.667 177 -108s83 -105.666 107 -174.999s36 -148.333 36 -237v-1732h-328v1724c0 42 -4.16699 79.833 -12.5 113.5
s-21.666 62.5 -40 86.5c-18.333 24 -42.666 42.333 -73 55c-30.333 12.667 -67.5 19 -111.5 19c-120.667 0 -219 -54.333 -295 -163zM238 974.999l-159.997 220.999c94 157.333 206.5 275.833 337.5 355.5s284.833 119.5 461.5 119.5c124 0 232 -14.5 324 -43.5
s168.667 -71.333 230 -127s107.166 -124.167 137.499 -205.5s45.5 -174.333 45.5 -279v-1634h-324v1609c0 70.667 -9.33301 130.667 -28 180s-45.667 89.5 -81 120.5s-79 53.5 -131 67.5s-111.333 21 -178 21c-34.667 0 -70.167 -3 -106.5 -9s-72.333 -16 -108 -30
s-70.667 -32.167 -105 -54.5s-66.833 -49.833 -97.5 -82.5l54.5 -79l51.5 -76v-627c0 -19.333 1.5 -36.833 4.5 -52.5s8.33301 -29 16 -40s18.167 -19.5 31.5 -25.5s30.333 -9 51 -9h163v-295h-196c-70.667 0 -130.834 9.66699 -180.501 29s-90.334 47 -122.001 83
s-54.667 79.833 -69 131.5s-21.5 109.834 -21.5 174.501v557z" />
    <glyph glyph-name="lulakkhangyao" unicode="&#xf882;" horiz-adv-x="3224" 
d="M1688 -614l-331.997 0.00292969v1605c0 70.667 -9.16699 130.667 -27.5 180s-45 89.5 -80 120.5s-78.167 53.5 -129.5 67.5s-110.333 21 -177 21c-36 0 -72 -2.83301 -108 -8.5s-71.5 -14.834 -106.5 -27.501s-69.333 -29.334 -103 -50.001
s-65.834 -46.334 -96.501 -77.001l107 -156v-643c0 -62.667 -8.16699 -116.5 -24.5 -161.5s-37.833 -83 -64.5 -114s-57.334 -55.833 -92.001 -74.5s-70 -33 -106 -43s-71.5 -16.667 -106.5 -20s-66.5 -5 -94.5 -5l-57 291c56 -2 98.667 2.16699 128 12.5
s50.333 23.833 63 40.5s19.5 35 20.5 55s1.5 38.667 1.5 56v520l-156 221c94.667 157.333 207.5 275.833 338.5 355.5s284.5 119.5 460.5 119.5c124 0 232.167 -14.5 324.5 -43.5s169.166 -71.333 230.499 -127s107.5 -124.167 138.5 -205.5s47.167 -174.333 48.5 -279
v-1630zM1888 1364c62 99.333 140.499 175.332 235.499 227.999s202.167 79 321.5 79c93.333 0 175.333 -12.333 246 -37s129.667 -60.667 177 -108s83 -105.666 107 -174.999s36 -148.333 36 -237v-1732h-328v1724c0 42 -4.16699 79.833 -12.5 113.5
s-21.833 62.5 -40.5 86.5s-43.167 42.333 -73.5 55s-67.5 19 -111.5 19c-119.333 0 -217.666 -54.333 -294.999 -163z" />
    <glyph glyph-name=".null" 
 />
    <glyph glyph-name="nonmarkingreturn" horiz-adv-x="971" 
 />
    <glyph glyph-name="yamakkanleftthai" 
d="M-1028 2126c-16.667 0 -26.333 -12.167 -29 -36.5s-4 -61.5 -4 -111.5h-287c0 70 4.33301 128.667 13 176s21 86 37 116s35.167 52.333 57.5 67s46.833 24.667 73.5 30c10 38 26.167 67.5 48.5 88.5s47.333 36.5 75 46.5s56.167 16 85.5 18s56.333 3 81 3h172v-250h-163
c-8 0 -14.333 -2.33301 -19 -7s-8 -12.5 -10 -23.5s-3.16699 -26 -3.5 -45s-0.5 -42.833 -0.5 -71.5h-127z" />
    <glyph glyph-name="saraamleft" horiz-adv-x="1352" 
d="M-1417 2204c0 46.667 9 91 27 133s42.667 78.5 74 109.5s67.833 55.667 109.5 74s86.167 27.5 133.5 27.5c46 0 89.5 -9.16699 130.5 -27.5s77 -43 108 -74s55.667 -67.5 74 -109.5s27.5 -86.333 27.5 -133c0 -46 -9.16699 -89.667 -27.5 -131s-43 -77.5 -74 -108.5
s-67 -55.5 -108 -73.5s-84.5 -27 -130.5 -27c-47.333 0 -91.833 9 -133.5 27s-78.167 42.5 -109.5 73.5s-56 67.167 -74 108.5s-27 85 -27 131zM16 1364c62 99.333 140.5 175.332 235.5 227.999s202.167 79 321.5 79c93.333 0 175.333 -12.333 246 -37
s129.667 -60.667 177 -108s83 -105.666 107 -174.999s36 -148.333 36 -237v-1114h-328v1106c0 42 -4.16699 79.833 -12.5 113.5s-21.833 62.5 -40.5 86.5s-43.167 42.333 -73.5 55s-67.5 19 -111.5 19c-59.333 0 -113.5 -13.333 -162.5 -40s-92.833 -67.667 -131.5 -123z
M-1184 2204c0 -31.333 10.167 -57 30.5 -77s47.166 -30 80.499 -30c32.667 0 59.167 10 79.5 30s30.5 45.667 30.5 77c0 32.667 -10.167 59.167 -30.5 79.5s-46.833 30.5 -79.5 30.5c-33.333 0 -60.166 -10.167 -80.499 -30.5s-30.5 -46.833 -30.5 -79.5z" />
    <glyph glyph-name="uni0E33.alt1" horiz-adv-x="1352" 
d="M-1417 2204c0 46.667 9 91 27 133s42.667 78.5 74 109.5s67.833 55.667 109.5 74s86.167 27.5 133.5 27.5c46 0 89.5 -9.16699 130.5 -27.5s77 -43 108 -74s55.667 -67.5 74 -109.5s27.5 -86.333 27.5 -133c0 -46 -9.16699 -89.667 -27.5 -131s-43 -77.5 -74 -108.5
s-67 -55.5 -108 -73.5s-84.5 -27 -130.5 -27c-47.333 0 -91.833 9 -133.5 27s-78.167 42.5 -109.5 73.5s-56 67.167 -74 108.5s-27 85 -27 131zM16 1364c62 99.333 140.5 175.332 235.5 227.999s202.167 79 321.5 79c93.333 0 175.333 -12.333 246 -37
s129.667 -60.667 177 -108s83 -105.666 107 -174.999s36 -148.333 36 -237v-1114h-328v1106c0 42 -4.16699 79.833 -12.5 113.5s-21.833 62.5 -40.5 86.5s-43.167 42.333 -73.5 55s-67.5 19 -111.5 19c-59.333 0 -113.5 -13.333 -162.5 -40s-92.833 -67.667 -131.5 -123z
M-1184 2204c0 -31.333 10.167 -57 30.5 -77s47.166 -30 80.499 -30c32.667 0 59.167 10 79.5 30s30.5 45.667 30.5 77c0 32.667 -10.167 59.167 -30.5 79.5s-46.833 30.5 -79.5 30.5c-33.333 0 -60.166 -10.167 -80.499 -30.5s-30.5 -46.833 -30.5 -79.5z" />
    <glyph glyph-name="saraithai.alt1" 
d="M-1438 2220h1225v-258h-1225v258z" />
    <glyph glyph-name="saraiithai.alt1" 
d="M-1434 2220h902v250h319v-508h-1221v258z" />
    <glyph glyph-name="sarauethai.alt1" 
d="M-1438 1962v258h615v37c0 44.667 8.33301 86.667 25 126s39.5 73.666 68.5 103c29 29.333 62.833 52.333 101.5 69s80 25 124 25c44.667 0 86.834 -7.83301 126.501 -23.5s74 -37.167 103 -64.5s52 -60.166 69 -98.5c17 -38.333 25.5 -79.833 25.5 -124.5
c0 -44 -8.5 -84.667 -25.5 -122s-40 -69.833 -69 -97.5s-63.333 -49.167 -103 -64.5s-81.834 -23 -126.501 -23h-934zM-598 2265c0 -13.333 2.66699 -25.666 8 -37c5.33301 -11.333 12.333 -21.333 21 -30s18.667 -15.334 30 -20c11.333 -4.66699 23 -7 35 -7
c29.333 0 53.833 9 73.5 27s29.5 40.333 29.5 67c0 28.667 -9.83301 52.167 -29.5 70.5s-44.167 27.5 -73.5 27.5c-12 0 -23.667 -2.5 -35 -7.5s-21.333 -11.833 -30 -20.5s-15.667 -19 -21 -31s-8 -25 -8 -39z" />
    <glyph glyph-name="saraueethai.alt1" 
d="M-1438 2220h508v250h283v-250h151v250h283v-508h-1225v258z" />
    <glyph glyph-name="saraithai.alt2" 
d="M-2068 2220h1474v-258h-1474v258z" />
    <glyph glyph-name="saraiithai.alt2" 
d="M-2068 2220h1155v229h319v-487h-1474v258z" />
    <glyph glyph-name="sarauethai.alt2" 
d="M-2068 1962v258h876v37c0 44.667 8.33301 86.667 25 126s39.5 73.666 68.5 103c29 29.333 63 52.333 102 69s80.5 25 124.5 25c44.667 0 86.667 -7.83301 126 -23.5s73.666 -37.167 102.999 -64.5s52.333 -60.166 69 -98.5c16.667 -38.333 25 -79.833 25 -124.5
c0 -44 -8.33301 -84.667 -25 -122s-39.667 -69.833 -69 -97.5s-63.666 -49.167 -102.999 -64.5s-81.333 -23 -126 -23h-1196zM-967 2261c0 -13.333 2.66699 -25.666 8 -37c5.33301 -11.333 12.333 -21.333 21 -30s18.667 -15.334 30 -20c11.333 -4.66699 23.333 -7 36 -7
c28.667 0 52.834 9 72.501 27s29.5 40.333 29.5 67c0 28.667 -9.83301 52.167 -29.5 70.5s-43.834 27.5 -72.501 27.5c-12.667 0 -24.667 -2.5 -36 -7.5s-21.333 -11.833 -30 -20.5s-15.667 -19 -21 -31s-8 -25 -8 -39z" />
    <glyph glyph-name="saraueethai.alt2" 
d="M-2068 2220h757v229h283v-229h151v229h283v-487h-1474v258z" />
    <glyph glyph-name="maiekthai.alt2" 
d="M-909 3075h315v-396h-315v396z" />
    <glyph glyph-name="maithothai.alt2" 
d="M-365 2941v-262h-942v217l127 33c38.667 8.66699 58 33 58 73c0 42.667 -49.333 62 -148 58v258c65.333 0 124.333 -5.33301 177 -16s97.5 -27.5 134.5 -50.5s65.333 -52.667 85 -89s29.5 -80.166 29.5 -131.5c0 -16.667 -0.5 -31.667 -1.5 -45s-4.5 -28.333 -10.5 -45
h491z" />
    <glyph glyph-name="maitrithai.alt2" 
d="M-270 2920l-0.00292969 -241h-590v303c0 22.667 -2 43.334 -6 62c-4 18.667 -10.333 32 -19 40l-90 -110c-10 -12 -23 -21.5 -39 -28.5s-33.167 -10.667 -51.5 -11s-36.666 3 -54.999 10s-35.166 18.167 -50.499 33.5l-107 102c-16.667 -12 -26.334 -25.5 -29.001 -40.5
s-4 -32.833 -4 -53.5c0 -13.333 4 -25.666 12 -37c8 -11.333 19 -21.333 33 -30s30.833 -15.334 50.5 -20c19.667 -4.66699 41.167 -7 64.5 -7v-226h-82c-47.333 0 -91.166 8.33301 -131.499 25s-75.333 39.5 -105 68.5s-53 62.5 -70 100.5s-25.5 78.667 -25.5 122
c0 46 6 86.333 18 121s27.167 64.834 45.5 90.5c18.333 25.667 38.666 47.167 60.999 64.5s43.833 31.666 64.5 43c15.333 9.33301 32 16.5 50 21.5s36.5 7 55.5 6s38.333 -5.5 58 -13.5s38.834 -20.667 57.501 -38l78 -74l73 74c19.333 19.333 38.833 32.833 58.5 40.5
s38.334 11.667 56.001 12s34 -2.16699 49 -7.5s27.5 -11 37.5 -17c23.333 -11.333 47 -26.666 71 -46c24 -19.333 45.667 -42.5 65 -69.5s35 -57.833 47 -92.5s18 -73 18 -115v-62h332z" />
    <glyph glyph-name="maichattawathai.alt2" 
d="M-1126 2884v274h233v213h287v-213h233v-274h-233v-205h-287v205h-233z" />
    <glyph glyph-name="saraithai.alt3" 
d="M-2060 2220h1847v-258h-1847v258z" />
    <glyph glyph-name="saraiithai.alt3" 
d="M-2060 2220h1528v250h319v-508h-1847v258z" />
    <glyph glyph-name="sarauethai.alt3" 
d="M-2060 1962v273.998h1237v37c0 45.333 8.33301 87.666 25 127c16.667 39.333 39.5 73.666 68.5 103c29 29.333 62.833 52.333 101.5 69s80 25 124 25c44.667 0 86.834 -8.16699 126.501 -24.5s74 -38.833 103 -67.5s52 -62.5 69 -101.5s25.5 -81.167 25.5 -126.5
c0 -44 -8.5 -85.167 -25.5 -123.5s-40 -71.666 -69 -99.999s-63.333 -50.666 -103 -66.999s-81.834 -24.5 -126.501 -24.5h-1556zM-598 2273c0 -13.333 2.66699 -25.666 8 -37c5.33301 -11.333 12.333 -21.333 21 -30s18.667 -15.334 30 -20c11.333 -4.66699 23 -7 35 -7
c29.333 0 53.833 9 73.5 27s29.5 40.333 29.5 67c0 29.333 -9.83301 53.166 -29.5 71.5c-19.667 18.333 -44.167 27.5 -73.5 27.5c-24.667 0 -46.5 -9.16699 -65.5 -27.5s-28.5 -42.166 -28.5 -71.5z" />
    <glyph glyph-name="saraueethai.alt3" 
d="M-2060 2236h1130v250h283v-250h151v250h283v-524h-1847v274z" />
    <glyph glyph-name="maiekthai.alt3" 
d="M-528 3075h315v-396h-315v396z" />
    <glyph glyph-name="maithothai.alt3" 
d="M139 2945v-262h-942v217l127 33c38.667 8.66699 58 33 58 73c0 42.667 -49.333 62 -148 58v258c65.333 0 124.333 -5.33301 177 -16s97.5 -27.5 134.5 -50.5s65.333 -52.667 85 -89s29.5 -80.166 29.5 -131.5c0 -16.667 -0.5 -31.667 -1.5 -45s-4.5 -28.333 -10.5 -45
h491z" />
    <glyph glyph-name="maitrithai.alt3" 
d="M111 2920l-0.000976562 -241h-590v303c0 22.667 -2 43.334 -6 62c-4 18.667 -10.333 32 -19 40l-90 -110c-10 -12 -23 -21.5 -39 -28.5s-33.167 -10.667 -51.5 -11s-36.833 3 -55.5 10s-35.667 18.167 -51 33.5l-106 102c-16.667 -12 -26.334 -25.5 -29.001 -40.5
s-4 -32.833 -4 -53.5c0 -13.333 4 -25.666 12 -37c8 -11.333 19 -21.333 33 -30s30.833 -15.334 50.5 -20c19.667 -4.66699 41.167 -7 64.5 -7v-226h-82c-47.333 0 -91.166 8.33301 -131.499 25s-75.333 39.5 -105 68.5s-53 62.5 -70 100.5s-25.5 78.667 -25.5 122
c0 46 6 86.333 18 121s27.167 64.834 45.5 90.5c18.333 25.667 38.666 47.167 60.999 64.5s43.833 31.666 64.5 43c15.333 9.33301 32 16.5 50 21.5s36.5 7 55.5 6s38.333 -5.5 58 -13.5s38.834 -20.667 57.501 -38l78 -74l73 74c19.333 19.333 38.833 32.833 58.5 40.5
s38.334 11.667 56.001 12s34 -2.16699 49 -7.5s27.5 -11 37.5 -17c23.333 -11.333 47 -26.666 71 -46c24 -19.333 45.667 -42.5 65 -69.5s35 -57.833 47 -92.5s18 -73 18 -115v-62h332z" />
    <glyph glyph-name="maichattawathai.alt3" 
d="M-745 2884v274h233v213h287v-213h233v-274h-233v-205h-287v205h-233z" />
    <glyph glyph-name="saraithai.alt4" 
d="M-1655 2220h1393v-258h-1393v258z" />
    <glyph glyph-name="saraiithai.alt4" 
d="M-1655 2220h1073v250h320v-508h-1393v258z" />
    <glyph glyph-name="thanthakhatthai.alt4" 
d="M-934 1876c0 90 9.66699 162.667 29 218s44.5 98 75.5 128s65.333 50.167 103 60.5s75.167 15.5 112.5 15.5h479v-279h-459c-20.667 0 -34 -12 -40 -36s-9 -59.667 -9 -107h-291z" />
    <glyph glyph-name="zero.alt1" horiz-adv-x="1536" 
d="M1335 545c0 -88 -14.833 -167 -44.5 -237s-70.167 -129.167 -121.5 -177.5s-111.166 -85.5 -179.499 -111.5s-141.5 -39 -219.5 -39c-78.667 0 -152.5 13 -221.5 39s-129.333 63.167 -181 111.5s-92.334 107.5 -122.001 177.5s-44.5 149 -44.5 237v565
c0 88 14.833 167 44.5 237s70.334 129.167 122.001 177.5s112 85.5 181 111.5s142.833 39 221.5 39c78 0 151.167 -13 219.5 -39s128.166 -63.167 179.499 -111.5s91.833 -107.5 121.5 -177.5s44.5 -149 44.5 -237v-565zM1024 1102c0 42.667 -5.66699 82 -17 118
s-28 66.667 -50 92s-48.667 45.166 -80 59.499s-67 21.5 -107 21.5c-41.333 0 -78 -7.16699 -110 -21.5s-59 -34.166 -81 -59.499s-38.667 -56 -50 -92s-17 -75.333 -17 -118v-549c0 -43.333 5.66699 -82.833 17 -118.5s28 -66.167 50 -91.5s49 -45.166 81 -59.499
s68.667 -21.5 110 -21.5c40 0 75.667 7.16699 107 21.5s58 34.166 80 59.499s38.667 55.833 50 91.5s17 75.167 17 118.5v549z" />
    <glyph glyph-name="one.alt1" horiz-adv-x="1405" 
d="M659 0v1298l-405 -344v349l414 352h311v-1655h-320z" />
    <glyph glyph-name="two.alt1" horiz-adv-x="1536" 
d="M180 0l0.000976562 274.002l660 590c57.333 52 101.666 103 132.999 153s47 103 47 159c0 36 -6.33301 68.667 -19 98s-30.5 54.666 -53.5 75.999s-50.167 37.833 -81.5 49.5s-66 17.5 -104 17.5c-34 0 -66.667 -6 -98 -18s-59.166 -30 -83.499 -54
s-43.833 -53.5 -58.5 -88.5s-22 -75.5 -22 -121.5h-320c0 84.667 15 162 45 232s71 130 123 180s113.5 88.667 184.5 116s147.5 41 229.5 41c84 0 161.167 -12.667 231.5 -38s130.666 -61 180.999 -107s89.666 -101.167 117.999 -165.5s42.5 -135.5 42.5 -213.5
c0 -52 -7.66699 -100.833 -23 -146.5s-36.666 -89.334 -63.999 -131.001s-59.5 -82.5 -96.5 -122.5s-76.833 -80.333 -119.5 -121l-405 -372h753v-287h-1200z" />
    <glyph glyph-name="three.alt1" horiz-adv-x="1536" 
d="M1389 180c0 -100 -17.167 -188.163 -51.5 -264.496s-81.166 -140 -140.499 -191s-128.5 -89.5 -207.5 -115.5s-163.167 -39 -252.5 -39c-85.333 0 -166.333 12 -243 36s-144.5 60.5 -203.5 109.5s-106.5 111 -142.5 186s-55.333 163.833 -58 266.5h320
c2.66699 -54 13.667 -100.5 33 -139.5s43.833 -70.833 73.5 -95.5s63.5 -42.834 101.5 -54.501s77.667 -17.5 119 -17.5c46 0 89 7.33301 129 22s74.833 35.834 104.5 63.501s52.834 61.834 69.501 102.501s25 87 25 139c0 100.667 -27.333 179.167 -82 235.5
s-139.334 84.5 -254.001 84.5h-61v283h61c51.333 0 96 7.16699 134 21.5s69.5 34.666 94.5 60.999s43.667 58.166 56 95.499s18.5 79 18.5 125c0 48 -7.83301 90.5 -23.5 127.5s-37 68.333 -64 94s-58.333 45 -94 58s-73.5 19.5 -113.5 19.5
c-42 0 -80.667 -6.83301 -116 -20.5s-66 -33.167 -92 -58.5s-46.833 -55.666 -62.5 -90.999s-25.167 -74.333 -28.5 -117h-323c4 88.667 22.5 168.5 55.5 239.5s77.167 131.167 132.5 180.5s120 87.166 194 113.499s154 39.5 240 39.5c90 0 172.667 -14 248 -42
s140.166 -67.167 194.499 -117.5s96.666 -111 126.999 -182s45.5 -149.5 45.5 -235.5c0 -52 -6.16699 -100.333 -18.5 -145s-29.166 -85.334 -50.499 -122.001s-46.833 -69.334 -76.5 -98.001s-61.834 -53 -96.501 -73c42.667 -19.333 81.334 -43.833 116.001 -73.5
s64 -64.5 88 -104.5s42.5 -85.333 55.5 -136s19.5 -107.334 19.5 -170.001z" />
    <glyph glyph-name="four.alt1" horiz-adv-x="1536" 
d="M1225 0v-303h-312v303h-843v295l741 1462h344l-729 -1454h487v475h312v-475h225v-303h-225z" />
    <glyph glyph-name="five.alt1" horiz-adv-x="1536" 
d="M1401 287c0 -65.333 -5.00195 -128.496 -15.002 -189.496s-25.5 -118 -46.5 -171s-48.167 -101.5 -81.5 -145.5s-73.5 -81.5 -120.5 -112.5s-100.833 -55.167 -161.5 -72.5s-129.334 -26 -206.001 -26c-94 0 -178 13.667 -252 41s-136.667 66.166 -188 116.499
s-91.166 110.666 -119.499 180.999s-43.833 148.5 -46.5 234.5h315c12.667 -90 42.334 -159.5 89.001 -208.5s114 -73.5 202 -73.5c41.333 0 80.5 6.16699 117.5 18.5s68.833 32.166 95.5 59.499c20.667 20 37.167 43.167 49.5 69.5s21.833 54.5 28.5 84.5s11 61.333 13 94
s3 66 3 100c0 59.333 -4.33301 114.666 -13 165.999s-24.167 96 -46.5 134s-52.5 67.833 -90.5 89.5s-86.333 32.5 -145 32.5c-40 0 -76 -5 -108 -15s-60 -23.667 -84 -41s-44 -37.333 -60 -60s-27.333 -47 -34 -73h-287v1135h1139v-279h-852v-504
c38.667 31.333 86 56.333 142 75s119 28 189 28c71.333 0 135.166 -8.83301 191.499 -26.5s105.833 -42.167 148.5 -73.5s78.834 -68.666 108.501 -111.999s53.834 -90.5 72.501 -141.5s32.167 -104.833 40.5 -161.5s12.5 -114.334 12.5 -173.001z" />
    <glyph glyph-name="six.alt1" horiz-adv-x="1536" 
d="M1430 651c0 -102 -16.499 -194.337 -49.499 -277.004s-79 -153.167 -138 -211.5s-129.167 -103.333 -210.5 -135s-170 -47.5 -266 -47.5s-184.5 15 -265.5 45s-150.667 73.333 -209 130s-103.833 125.5 -136.5 206.5s-49 172.167 -49 273.5c0 44 4 87.667 12 131
s19.333 86.833 34 130.5s32 87.834 52 132.501s42 90.667 66 138l451 893h364l-409 -803c24.667 8.66699 50.667 14.334 78 17.001s54.666 4 81.999 4c80.667 0 157 -14.667 229 -44s135 -71.166 189 -125.499s96.833 -120.166 128.5 -197.499s47.5 -164 47.5 -260z
M1102 642.996c0 49.333 -7.99902 95.332 -23.999 137.999s-38.833 79.834 -68.5 111.501s-65.167 56.667 -106.5 75s-87 27.5 -137 27.5c-48 0 -92.5 -8 -133.5 -24s-76.5 -39 -106.5 -69s-53.5 -66.833 -70.5 -110.5s-25.5 -93.167 -25.5 -148.5
c0 -56 8.5 -106.833 25.5 -152.5s40.5 -84.5 70.5 -116.5s65.5 -56.667 106.5 -74s85.5 -26 133.5 -26c46.667 0 90.5 8.66699 131.5 26s76.667 42 107 74s54.166 70.833 71.499 116.5s26 96.5 26 152.5z" />
    <glyph glyph-name="seven.alt1" horiz-adv-x="1536" 
d="M709 -406h-344l700 1782h-610v-323h-308v602h1262v-271z" />
    <glyph glyph-name="eight.alt1" horiz-adv-x="1536" 
d="M1421 594c0 -95.333 -16.9951 -180.833 -50.9951 -256.5s-80.667 -140 -140 -193s-128.833 -93.667 -208.5 -122s-164.834 -42.5 -255.501 -42.5c-91.333 0 -176.666 14.167 -255.999 42.5s-148.166 69 -206.499 122s-104.333 117.333 -138 193
s-50.5 161.167 -50.5 256.5c0 57.333 7.66699 110.333 23 159s35.666 92.834 60.999 132.501s54.166 74.834 86.499 105.501s65.5 56.667 99.5 78c-32 19.333 -62.333 43.166 -91 71.499s-53.834 60.666 -75.501 96.999s-39 77 -52 122s-19.5 94.167 -19.5 147.5
c0 88 16.167 167.5 48.5 238.5s76.333 131.333 132 181s121.167 87.834 196.5 114.501s156 40 242 40c86.667 0 168 -13.333 244 -40s142 -64.834 198 -114.501s100.167 -110 132.5 -181s48.5 -150.5 48.5 -238.5c0 -53.333 -6.5 -102.5 -19.5 -147.5
s-30.333 -85.667 -52 -122s-46.834 -68.666 -75.501 -96.999s-59 -52.166 -91 -71.499c34 -21.333 67.167 -47.333 99.5 -78s61.166 -65.834 86.499 -105.501s45.666 -83.834 60.999 -132.501s23 -101.667 23 -159zM1065 1499c0 40.667 -7.16699 79.167 -21.5 115.5
s-34.5 68.166 -60.5 95.499s-57.5 48.833 -94.5 64.5s-77.833 23.5 -122.5 23.5c-43.333 0 -83.166 -7.83301 -119.499 -23.5s-67.833 -37.167 -94.5 -64.5s-47.5 -59.166 -62.5 -95.499s-22.5 -74.833 -22.5 -115.5c0 -45.333 7.5 -86.333 22.5 -123s35.833 -68 62.5 -94
s58.167 -46.167 94.5 -60.5s76.166 -21.5 119.499 -21.5c44.667 0 85.5 7.16699 122.5 21.5s68.5 34.5 94.5 60.5s46.167 57.333 60.5 94s21.5 77.667 21.5 123zM1098 594c0 44.667 -8.5 87 -25.5 127s-40.333 74.833 -70 104.5s-64.834 53.167 -105.501 70.5
s-84.334 26 -131.001 26c-46 0 -89 -8.66699 -129 -26s-74.667 -40.833 -104 -70.5s-52.5 -64.5 -69.5 -104.5s-25.5 -82.333 -25.5 -127c0 -45.333 8.5 -87.833 25.5 -127.5s40.167 -74.334 69.5 -104.001s64 -53.167 104 -70.5s83 -26 129 -26
c46.667 0 90.334 8.66699 131.001 26s75.834 40.833 105.501 70.5s53 64.334 70 104.001s25.5 82.167 25.5 127.5z" />
    <glyph glyph-name="nine.alt1" horiz-adv-x="1536" 
d="M106 1004c0 102 16.332 194.334 48.999 277.001s78.167 153.167 136.5 211.5s128 103.333 209 135s169.5 47.5 265.5 47.5s184.667 -15.333 266 -46s151.5 -74.334 210.5 -131.001s105 -125.5 138 -206.5s49.5 -171.5 49.5 -271.5c0 -44 -4.33301 -87.5 -13 -130.5
s-20.5 -86.167 -35.5 -129.5s-32.333 -87.666 -52 -132.999l-63.5 -140l-451 -893h-369l414 803c-24.667 -8 -50.667 -13.333 -78 -16s-54.666 -4 -81.999 -4c-80.667 0 -157 14.5 -229 43.5s-135 70.667 -189 125s-96.833 120.166 -128.5 197.499s-47.5 164.333 -47.5 261z
M433.999 1012c0 -49.333 7.99902 -95.667 23.999 -139s38.833 -81.166 68.5 -113.499s65.167 -57.833 106.5 -76.5s87 -28 137 -28c46.667 0 90.5 8 131.5 24s76.667 39.167 107 69.5s54.166 67.666 71.499 111.999s26 94.833 26 151.5
c0 55.333 -8.66699 105.666 -26 150.999s-41.166 84 -71.499 116s-66 56.833 -107 74.5s-84.833 26.5 -131.5 26.5c-47.333 0 -91.333 -8.83301 -132 -26.5s-76.167 -42.5 -106.5 -74.5s-54.166 -70.667 -71.499 -116s-26 -95.666 -26 -150.999z" />
    <glyph glyph-name="maitaikhuthai.alt1" 
d="M-987 2499c-20.667 0 -38.6631 -3.83301 -53.9961 -11.5s-28.333 -17.834 -39 -30.5c-10.667 -12.667 -18.834 -27.167 -24.501 -43.5s-8.83398 -33.166 -9.50098 -50.5c0 -22.667 4 -46 12 -70s20.333 -44.333 37 -61l188 119c25.333 14.667 49.666 22 72.999 22
s48.333 -7.33301 75 -22l197 -119c12 12.667 20.833 32.667 26.5 60s3.5 56.666 -6.5 88h254c12 -56.667 12.333 -108.167 1 -154.5s-31.333 -87.5 -60 -123.5s-63.834 -66.333 -105.501 -91s-86.5 -43.667 -134.5 -57l-205 139c-14.667 10.667 -27.667 16 -39 16
s-24.333 -5.33301 -39 -16l-200 -143c-46 15.333 -89.667 35 -131 59s-77.5 53 -108.5 87s-55.5 72.833 -73.5 116.5s-27 92.5 -27 146.5c0 44 8.66699 88 26 132s42 83.833 74 119.5s71 65 117 88s97.667 35.5 155 37.5h824v-237h-803z" />
    <glyph glyph-name="maihanakatthai.alt2" 
d="M-954 2372c0 -48 5.16602 -85.333 15.499 -112s22.833 -40 37.5 -40h1102v-258h-1139c-36.667 0 -74.167 5 -112.5 15s-73.166 29.667 -104.499 59s-57 70.833 -77 124.5s-30 124.167 -30 211.5h308z" />
    <glyph glyph-name="maiekthai.alt7" 
d="M-999 3121h315v-606h-315v606z" />
    <glyph glyph-name="maithothai.alt7" 
d="M-680 2777l-0.000976562 -262h-901v217l127 33c38 8 57 32.667 57 74c0 20 -12.167 35 -36.5 45s-61.166 14 -110.499 12v258c65.333 0 124.333 -5.33301 177 -16s97.5 -27.5 134.5 -50.5s65.333 -52.667 85 -89s29.5 -80.166 29.5 -131.5
c0 -16.667 -0.5 -31.667 -1.5 -45s-4.5 -28.333 -10.5 -45h450z" />
    <glyph glyph-name="maitrithai.alt7" 
d="M-668 2757l-0.000976562 -242h-430v303c0 22.667 -2 43.334 -6 62c-4 18.667 -10 32 -18 40l-90 -110c-10 -12 -23.167 -21.5 -39.5 -28.5s-33.5 -10.667 -51.5 -11s-36.333 3 -55 10s-35.667 18.167 -51 33.5l-107 102c-16 -12 -25.333 -25.5 -28 -40.5
s-4 -32.833 -4 -53.5c0 -13.333 3.83301 -25.666 11.5 -37c7.66699 -11.333 18.5 -21.333 32.5 -30s30.833 -15.334 50.5 -20c19.667 -4.66699 41.167 -7 64.5 -7v-225h-81c-47.333 0 -91.166 8.33301 -131.499 25s-75.333 39.334 -105 68c-29.667 28.667 -53 62 -70 100
s-25.5 78.667 -25.5 122c0 46 6 86.333 18 121s27.167 64.834 45.5 90.5c18.333 25.667 38.5 47.334 60.5 65c22 17.667 43.333 32.167 64 43.5c15.333 8.66699 32.166 15.667 50.499 21s37 7.5 56 6.5s38.333 -5.66699 58 -14s38.5 -21.166 56.5 -38.5l78 -74l74 74
c19.333 19.333 38.833 32.833 58.5 40.5s38.334 11.667 56.001 12s34 -2 49 -7s27.5 -10.5 37.5 -16.5c23.333 -11.333 47 -26.666 71 -46c24 -19.333 45.5 -42.666 64.5 -70c19 -27.333 34.5 -58.333 46.5 -93s18 -73 18 -115v-61h172z" />
    <glyph glyph-name="maichattawathai.alt7" 
d="M-1204 2720v274h233v213h287v-213h233v-274h-233v-205h-287v205h-233z" />
    <glyph glyph-name="maiekthai.alt5" 
d="M-528 3121h315v-606h-315v606z" />
    <glyph glyph-name="maithothai.alt5" 
d="M139 2777v-262h-942v217l127 33c38.667 8.66699 58 33.334 58 74c0 20 -12.333 35 -37 45s-61.667 14 -111 12v258c65.333 0 124.333 -5.33301 177 -16s97.5 -27.5 134.5 -50.5s65.333 -52.667 85 -89s29.5 -80.166 29.5 -131.5c0 -16.667 -0.5 -31.667 -1.5 -45
s-4.5 -28.333 -10.5 -45h491z" />
    <glyph glyph-name="maitrithai.alt5" 
d="M111 2757l-0.000976562 -242h-590v303c0 22.667 -2 43.334 -6 62c-4 18.667 -10.333 32 -19 40l-90 -110c-10 -12 -23 -21.5 -39 -28.5s-33.167 -10.667 -51.5 -11s-36.833 3 -55.5 10s-35.667 18.167 -51 33.5l-106 102c-16.667 -12 -26.334 -25.5 -29.001 -40.5
s-4 -32.833 -4 -53.5c0 -13.333 4 -25.666 12 -37c8 -11.333 19 -21.333 33 -30s30.833 -15.334 50.5 -20c19.667 -4.66699 41.167 -7 64.5 -7v-225h-82c-47.333 0 -91.166 8.33301 -131.499 25s-75.333 39.334 -105 68c-29.667 28.667 -53 62 -70 100
s-25.5 78.667 -25.5 122c0 46 6 86.333 18 121s27.167 64.834 45.5 90.5c18.333 25.667 38.666 47.334 60.999 65c22.333 17.667 43.833 32.167 64.5 43.5c15.333 8.66699 32 15.667 50 21s36.5 7.5 55.5 6.5s38.333 -5.66699 58 -14s38.834 -21.166 57.501 -38.5l78 -74
l73 74c19.333 19.333 38.833 32.833 58.5 40.5s38.334 11.667 56.001 12s34 -2 49 -7s27.5 -10.5 37.5 -16.5c23.333 -11.333 47 -26.666 71 -46c24 -19.333 45.667 -42.666 65 -70c19.333 -27.333 35 -58.333 47 -93s18 -73 18 -115v-61h332z" />
    <glyph glyph-name="maichattawathai.alt5" 
d="M-733 2720v274h233v213h287v-213h233v-274h-233v-205h-287v205h-233z" />
    </font>
</defs>
</svg>
