<svg xmlns="http://www.w3.org/2000/svg" xmlns:xlink="http://www.w3.org/1999/xlink" width="360" height="640" viewBox="0 0 360 640">
    <defs>
        <path id="a" d="M.84.826h75.426v141.172H.841z"/>
        <path id="c" d="M.488.826h126.645v194.838H.488z"/>
        <path id="e" d="M.484.826h175.648v141.172H.484z"/>
        <path id="g" d="M.502.826h126.645v194.826H.502z"/>
        <path id="i" d="M.066.826h114.637v41.316H.066z"/>
        <path id="k" d="M.84.452h47.194v72.146H.84z"/>
        <path id="m" d="M.955.837H115.6v11.798H.955z"/>
        <path id="o" d="M.963.837H115.61v11.798H.963z"/>
        <path id="q" d="M.059.826h114.633v41.316H.059z"/>
        <path id="s" d="M.313.734H175.97v73.103H.313z"/>
        <path id="u" d="M.304.728H175.96v73.109H.304z"/>
        <path id="w" d="M.968.458h278.36v177.528H.968z"/>
        <path id="y" d="M1.059.452h59.905V72.6H1.06z"/>
        <path id="A" d="M.016.407h137.176v102.317H.016z"/>
        <path id="C" d="M.974.458h278.34v177.528H.974z"/>
        <path id="E" d="M.261.289H171.55v180.73H.26z"/>
        <path id="G" d="M.493.826h92.68v141.192H.493z"/>
        <path id="I" d="M.84.407h5.98v102.317H.84z"/>
        <path id="K" d="M.84.07h276.404v192.418H.841z"/>
        <path id="M" d="M.183.677h65.076v168.72H.183z"/>
        <path id="O" d="M.17.677h176.863v168.72H.17z"/>
        <path id="Q" d="M.84.681H105.1v168.716H.84z"/>
    </defs>
    <g fill="none" fill-rule="evenodd">
        <path fill="#D31820" d="M0 0h360v640H0z"/>
        <g opacity=".7">
            <g transform="translate(-273.001 .066)">
                <mask id="b" fill="#fff">
                    <use xlink:href="#a"/>
                </mask>
                <path fill="#EC1D24" d="M75.935 25.113c.673-10.262.28-20.002-.811-29.289C14.616-9.323-41.17-40.456-75.563-91.333c-12.68 9.733-20.88 23.264-23.09 38.324-5.734 39.098 24.199 51.676 36.67 55.888 8.69 2.93 21.047 10.487 4.078 28.064-.075.083-.176.159-.26.24 30.803 34.325 49.102 76.721 54.698 110.815 45.824-23.959 76.191-67.87 79.402-116.885" mask="url(#b)"/>
            </g>
            <g transform="translate(-168.858 .066)">
                <mask id="d" fill="#fff">
                    <use xlink:href="#c"/>
                </mask>
                <path fill="#EC1D24" d="M3.767 134.47c48.45 5.61 86.713 30.063 114.645 61.194.086-.086.194-.163.27-.246 16.95-17.57 4.593-25.124-4.088-28.075-12.479-4.209-42.412-16.78-36.677-55.892 2.218-15.057 10.41-28.59 23.094-38.305C85.645 50.433 74.55 23.836 69.268-6.193 18.211 25.917-9.439 83.51 3.767 134.47" mask="url(#d)"/>
            </g>
            <g transform="translate(82.372 .066)">
                <mask id="f" fill="#fff">
                    <use xlink:href="#e"/>
                </mask>
                <path fill="#EC1D24" d="M175.798 25.113c.676-10.262.285-20.002-.808-29.289-60.524-5.147-116.297-36.28-150.698-87.157C11.618-81.6 3.415-68.069 1.205-53.009-4.524-13.911 25.395-1.333 37.867 2.879c8.704 2.93 21.061 10.487 4.083 28.064-.076.083-.18.159-.266.24 30.81 34.325 49.101 76.721 54.708 110.815 45.824-23.959 76.188-67.87 79.406-116.885" mask="url(#f)"/>
            </g>
            <path fill="#EC1D24" d="M15.134 63.764c-34.861-11.017-63.986-5.113-82.98 9.448 34.386 50.87 90.183 82.014 150.69 87.162-6.08-51.315-36.919-86.864-67.71-96.61"/>
            <g transform="translate(286.363 .066)">
                <mask id="h" fill="#fff">
                    <use xlink:href="#g"/>
                </mask>
                <path fill="#EC1D24" d="M3.779 134.473c48.441 5.628 86.702 30.06 114.636 61.179.085-.074.191-.152.267-.234 16.972-17.57 4.608-25.124-4.076-28.074-12.478-4.21-42.409-16.78-36.679-55.892 2.216-15.059 10.413-28.592 23.095-38.31-15.365-22.717-26.46-49.306-31.74-79.335C18.232 25.918-9.425 83.51 3.778 134.473" mask="url(#h)"/>
            </g>
            <g transform="translate(464.586 .066)">
                <mask id="j" fill="#fff">
                    <use xlink:href="#i"/>
                </mask>
                <path fill="#EC1D24" d="M.066-30.01c.468 1.834.95 3.678 1.534 5.486 25.415 79.285 95.726 73.088 113.103 55.708C86.773.055 48.516-24.38.066-30.01" mask="url(#j)"/>
            </g>
            <path fill="#EC1D24" d="M115.63 299.009c.474 1.839.95 3.683 1.531 5.498 25.418 79.269 95.722 73.072 113.102 55.687-27.93-31.125-66.174-55.56-114.633-61.185"/>
            <g transform="translate(-273.001 298.557)">
                <mask id="l" fill="#fff">
                    <use xlink:href="#k"/>
                </mask>
                <path fill="#EC1D24" d="M-66.592.452c.475 1.84.95 3.683 1.524 5.499C-39.646 85.219 30.657 79.023 48.034 61.63 20.097 30.513-18.152 6.077-66.592.452" mask="url(#l)"/>
            </g>
            <path fill="#EC1D24" d="M538.074 160.374c-6.085-51.315-36.926-86.863-67.703-96.61-34.861-11.017-63.986-5.112-82.985 9.444 34.391 50.868 90.181 82.018 150.688 87.166"/>
            <g transform="translate(-234.35 627.111)">
                <mask id="n" fill="#fff">
                    <use xlink:href="#m"/>
                </mask>
                <path fill="#EC1D24" d="M.955.837c.473 1.843.952 3.679 1.534 5.496C27.91 85.615 98.207 79.424 115.6 62.036 87.662 30.906 49.41 6.466.956.837" mask="url(#n)"/>
            </g>
            <g transform="translate(220.871 627.111)">
                <mask id="p" fill="#fff">
                    <use xlink:href="#o"/>
                </mask>
                <path fill="#EC1D24" d="M.963.837c.477 1.843.945 3.679 1.532 5.496 25.42 79.282 95.724 73.091 113.116 55.703C87.671 30.916 49.41 6.466.963.837" mask="url(#p)"/>
            </g>
            <g transform="translate(9.365 .066)">
                <mask id="r" fill="#fff">
                    <use xlink:href="#q"/>
                </mask>
                <path fill="#EC1D24" d="M.059-30.01c.48 1.834.955 3.678 1.533 5.486 25.42 79.285 95.726 73.088 113.1 55.708C86.76.06 48.508-24.38.059-30.01" mask="url(#r)"/>
            </g>
            <g transform="translate(294.952 565.91)">
                <mask id="t" fill="#fff">
                    <use xlink:href="#s"/>
                </mask>
                <path fill="#EC1D24" d="M175.635 117.16c.675-10.258.291-19.993-.825-29.284C114.31 82.736 58.522 51.598 24.128.734 11.446 10.448 3.25 23.977 1.034 39.036-4.696 78.142 25.23 90.72 37.701 94.933c8.697 2.934 21.047 10.489 4.09 28.059-.076.094-.177.169-.26.245 30.804 34.32 49.085 76.714 54.685 110.831 45.83-23.97 76.2-67.89 79.42-116.908" mask="url(#t)"/>
            </g>
            <g transform="translate(-160.27 565.91)">
                <mask id="v" fill="#fff">
                    <use xlink:href="#u"/>
                </mask>
                <path fill="#EC1D24" d="M175.626 117.16c.676-10.258.284-19.993-.817-29.284C114.302 82.736 58.513 51.598 24.112.728 11.438 10.448 3.235 23.977 1.025 39.036-4.704 78.142 25.217 90.72 37.687 94.933c8.704 2.934 21.06 10.489 4.09 28.059-.074.094-.176.169-.257.245 30.801 34.32 49.085 76.722 54.68 110.831 45.833-23.97 76.201-67.88 79.426-116.908" mask="url(#v)"/>
            </g>
            <g transform="translate(286.363 461.76)">
                <mask id="x" fill="#fff">
                    <use xlink:href="#w"/>
                </mask>
                <path fill="#EC1D24" d="M111.527 7.21c-.587-1.809-1.06-3.65-1.536-5.494-4.195-.471-8.455-.882-12.81-1.077C60.415-1.02 27.544 8.825.967 25.537c5.278 30.035 16.379 56.627 31.75 79.348 18.993-14.569 48.126-20.477 82.98-9.463 30.79 9.74 61.624 45.286 67.7 96.602 1.404.131 2.77.367 4.16.448 34.254 2.236 65.52-5.01 91.77-18.737-5.607-34.106-23.89-76.5-54.704-110.823-17.386 17.369-87.683 23.586-113.097-55.703" mask="url(#x)"/>
            </g>
            <g transform="translate(569.803 298.557)">
                <mask id="z" fill="#fff">
                    <use xlink:href="#y"/>
                </mask>
                <path fill="#EC1D24" d="M115.702 61.638C87.77 30.512 49.51 6.077 1.06.452c.48 1.84.948 3.683 1.53 5.499 25.422 79.268 95.72 73.071 113.113 55.687" mask="url(#z)"/>
            </g>
            <path fill="#EC1D24" d="M510.987 524.672c.082-.078.184-.17.258-.246 16.981-17.565 4.62-25.132-4.078-28.065-12.466-4.204-42.393-16.777-36.663-55.88 2.215-15.072 10.413-28.605 23.087-38.32-15.357-22.72-26.458-49.315-31.734-79.346-51.054 32.107-78.701 89.698-65.503 140.661 48.445 5.633 86.696 30.076 114.633 61.196"/>
            <g transform="translate(493.575 386.6)">
                <mask id="B" fill="#fff">
                    <use xlink:href="#A"/>
                </mask>
                <path fill="#EC1D24" d="M82.996 6.12C48.142-4.91 19.002 1.002.016 15.56c34.402 50.88 90.175 82.006 150.69 87.164-6.078-51.326-36.924-86.87-67.71-96.604" mask="url(#B)"/>
            </g>
            <g transform="translate(-168.858 461.76)">
                <mask id="D" fill="#fff">
                    <use xlink:href="#C"/>
                </mask>
                <path fill="#EC1D24" d="M111.511 7.21c-.585-1.809-1.052-3.65-1.53-5.494-4.206-.471-8.46-.882-12.813-1.077C60.4-1.02 27.538 8.825.974 25.537 6.245 55.564 17.34 82.155 32.7 104.877c18.991-14.56 48.134-20.47 82.984-9.455 30.791 9.74 61.632 45.286 67.714 96.602 1.385.131 2.766.367 4.16.448 34.237 2.236 65.51-5.01 91.755-18.737-5.597-34.106-23.885-76.5-54.694-110.823C207.229 80.281 136.933 86.498 111.51 7.21" mask="url(#D)"/>
            </g>
            <path fill="#EC1D24" d="M121.349 392.72c-34.862-11.03-63.994-5.118-82.988 9.44 34.4 50.88 90.182 82.006 150.686 87.164-6.083-51.325-36.913-86.87-67.698-96.603M291.669 140.026c-.574-1.826-1.047-3.653-1.528-5.487-4.203-.492-8.448-.894-12.81-1.083-36.761-1.653-69.623 8.18-96.184 24.883 5.268 30.039 16.36 56.627 31.718 79.348 18.996-14.567 48.14-20.478 82.985-9.447 30.786 9.745 61.637 45.291 67.722 96.608 1.38.118 2.761.361 4.16.451 34.233 2.218 65.503-5.028 91.748-18.76-5.595-34.108-23.895-76.493-54.7-110.821-17.387 17.387-87.677 23.58-113.111-55.692M212.864 237.687C200.198 247.4 191.99 260.933 189.786 276c-5.738 39.109 24.18 51.673 36.659 55.877 8.705 2.95 21.063 10.515 4.09 28.069-.076.09-.185.163-.27.249 30.815 34.32 49.1 76.731 54.69 110.831 45.839-23.978 76.205-67.887 79.432-116.913.668-10.247.277-19.993-.816-29.265-60.508-5.144-116.298-36.297-150.707-87.161"/>
            <g transform="translate(459.218 141.795)">
                <mask id="F" fill="#fff">
                    <use xlink:href="#E"/>
                </mask>
                <path fill="#EC1D24" d="M83.024 19.02c-1.398-.094-2.774-.329-4.168-.442 1.093 9.286 1.485 19.01.81 29.266C76.456 96.866 46.082 140.774.26 164.742l.005.033c.562 5.546 1.44 10.914 2.374 16.245 26.567-16.71 59.434-26.545 96.201-24.884 4.35.194 8.597.592 12.8 1.077-13.202-50.957 14.447-108.55 65.503-140.67-.934-5.324-1.81-10.689-2.376-16.237l-.003-.017C148.529 14 117.267 21.242 83.024 19.019" mask="url(#F)"/>
            </g>
            <g transform="translate(537.594 .066)">
                <mask id="H" fill="#fff">
                    <use xlink:href="#G"/>
                </mask>
                <path fill="#EC1D24" d="M24.293-91.333C11.628-81.6 3.424-68.07 1.215-53.01-4.515-13.911 25.403-1.333 37.874 2.878c8.702 2.933 21.055 10.488 4.088 28.065-.066.083-.175.159-.265.24C72.51 65.508 90.791 107.905 96.39 142.018c45.826-23.97 76.193-67.878 79.422-116.905.677-10.262.285-20.002-.811-29.289-60.508-5.14-116.302-36.275-150.707-87.157" mask="url(#H)"/>
            </g>
            <path fill="#EC1D24" d="M55.76 524.672c.083-.078.183-.158.263-.246 16.965-17.565 4.616-25.132-4.081-28.065-12.48-4.204-42.397-16.777-36.668-55.88 2.21-15.072 10.413-28.596 23.086-38.32C23 379.44 11.898 352.851 6.62 322.814c-51.053 32.12-78.702 89.698-65.497 140.661 48.443 5.633 86.704 30.076 114.638 61.196"/>
            <g transform="translate(-273.001 386.6)">
                <mask id="J" fill="#fff">
                    <use xlink:href="#I"/>
                </mask>
                <path fill="#EC1D24" d="M-60.89 6.12c-34.853-11.03-63.987-5.118-82.977 9.44 34.393 50.88 90.182 82.017 150.687 87.164C.734 51.398-30.092 15.854-60.89 6.12" mask="url(#J)"/>
            </g>
            <path fill="#EC1D24" d="M-242.359 237.68c-12.68 9.72-20.875 23.253-23.09 38.32-5.732 39.109 24.19 51.673 36.667 55.877 8.694 2.95 21.059 10.515 4.081 28.069-.074.09-.182.163-.266.24 30.818 34.328 49.11 76.72 54.705 110.84 45.825-23.978 76.192-67.887 79.404-116.913.674-10.247.284-19.994-.808-29.265-60.517-5.144-116.305-36.297-150.693-87.167M102.831 297.931c4.358.194 8.597.592 12.8 1.077-13.21-50.957 14.455-108.561 65.515-140.67-.942-5.323-1.817-10.69-2.382-16.236v-.038c-26.244 13.733-57.516 20.984-91.759 18.75-1.401-.093-2.764-.328-4.16-.44 1.108 9.285 1.49 19.01.81 29.265-3.22 49.023-33.588 92.93-79.411 116.906l.007.025c.56 5.546 1.435 10.914 2.37 16.245 26.577-16.706 59.446-26.544 96.21-24.884"/>
            <g transform="translate(-273.001 133.206)">
                <mask id="L" fill="#fff">
                    <use xlink:href="#K"/>
                </mask>
                <path fill="#EC1D24" d="M109.444 6.82c-.59-1.825-1.057-3.653-1.535-5.49C103.71.841 99.464.439 95.11.25 58.35-1.403 25.48 8.43-1.093 25.133c5.28 30.04 16.377 56.623 31.736 79.342 18.991-14.56 48.12-20.472 82.978-9.44 30.783 9.745 61.633 45.29 67.714 96.607 1.395.119 2.773.361 4.167.451 34.243 2.219 65.508-5.028 91.742-18.754-5.597-34.105-23.88-76.498-54.689-110.815C205.165 79.9 134.866 86.092 109.444 6.82" mask="url(#L)"/>
            </g>
            <g transform="translate(565.508 470.35)">
                <mask id="N" fill="#fff">
                    <use xlink:href="#M"/>
                </mask>
                <path fill="#EC1D24" d="M82.94 19.423c-1.4-.099-2.771-.335-4.167-.448 1.094 9.27 1.492 19.008.817 29.265C76.371 97.263 46.008 141.18.183 165.145v.017-.017l1.187 8.149c-.406-2.693-.907-5.338-1.187-8.112.28 2.774.781 5.419 1.187 8.112l1.188 8.113c26.567-16.71 59.429-26.537 96.192-24.89 4.361.2 8.614.6 12.807 1.08-13.2-50.94 14.442-108.532 65.488-140.644-.926-5.351-1.776-10.737-2.37-16.276-26.235 13.719-57.497 20.96-91.734 18.746" mask="url(#N)"/>
            </g>
            <g transform="translate(110.287 470.35)">
                <mask id="P" fill="#fff">
                    <use xlink:href="#O"/>
                </mask>
                <path fill="#EC1D24" d="M82.925 19.423c-1.394-.099-2.77-.335-4.167-.448 1.093 9.27 1.492 19.008.815 29.265C76.364 97.26 45.99 141.18.17 165.145v.017l.01.015-.01-.015 1.194 8.132C.956 170.6.456 167.956.18 165.182c.277 2.774.777 5.419 1.184 8.112l1.177 8.113c26.584-16.71 59.447-26.537 96.207-24.89 4.355.2 8.602.6 12.799 1.08-13.204-50.94 14.437-108.532 65.487-140.644-.925-5.351-1.776-10.737-2.373-16.276-26.232 13.719-57.485 20.96-91.735 18.746" mask="url(#P)"/>
            </g>
            <g transform="translate(-273.001 470.35)">
                <mask id="R" fill="#fff">
                    <use xlink:href="#Q"/>
                </mask>
                <path fill="#EC1D24" d="M10.98 19.423c-1.397-.099-2.766-.335-4.16-.448 1.103 9.27 1.487 19.008.82 29.265-3.22 49.023-33.601 92.94-79.426 116.905v.017l.016.015-.016-.015.742 5.005c-.221-1.663-.557-3.28-.726-4.985.169 1.706.505 3.322.726 4.985l1.64 11.256c26.58-16.727 59.45-26.553 96.211-24.906 4.36.2 8.603.6 12.799 1.08C26.409 106.657 54.049 49.072 105.1 16.953c-.926-5.351-1.775-10.737-2.377-16.272-26.248 13.715-57.505 20.957-91.744 18.742" mask="url(#R)"/>
            </g>
        </g>
    </g>
</svg>
