<svg xmlns="http://www.w3.org/2000/svg" xmlns:xlink="http://www.w3.org/1999/xlink" width="32" height="32" viewBox="0 0 32 32">
    <defs>
        <path id="a" d="M16 0C7.164 0 0 7.164 0 16s7.164 16 16 16 16-7.164 16-16S24.836 0 16 0zm1.885 16l4.391 4.39a1.332 1.332 0 0 1 0 1.886 1.332 1.332 0 0 1-1.885 0c-.206-.204-4.391-4.39-4.391-4.39l-4.39 4.39a1.332 1.332 0 0 1-1.886 0 1.332 1.332 0 0 1 0-1.885c.204-.206 4.39-4.391 4.39-4.391l-4.39-4.39a1.332 1.332 0 0 1 0-1.886 1.332 1.332 0 0 1 1.885 0c.206.204 4.391 4.39 4.391 4.39l4.39-4.39a1.332 1.332 0 0 1 1.886 0 1.332 1.332 0 0 1 0 1.885c-.204.206-4.39 4.391-4.39 4.391z"/>
    </defs>
    <use fill="#C3C3C3" fill-rule="nonzero" xlink:href="#a"/>
</svg>
