<svg xmlns="http://www.w3.org/2000/svg" width="64" height="64" viewBox="0 0 64 64">
    <g fill="none" fill-rule="nonzero">
        <path fill="#4BBB8B" d="M32 64C14.327 64 0 49.673 0 32 0 14.327 14.327 0 32 0c17.673 0 32 14.327 32 32 0 17.673-14.327 32-32 32z"/>
        <path fill="#FFF" d="M46.784 21.077c-1.558-1.562-4.281-1.364-5.841.2L27.925 34.329l-5.103-5.114c-1.556-1.562-4.233-1.712-5.79-.15-1.559 1.562-1.263 4.392.295 5.954l7.775 7.796a3.981 3.981 0 0 0 5.642 0l16.114-16.158c1.558-1.562 1.484-4.02-.074-5.58z"/>
    </g>
</svg>
