<svg xmlns="http://www.w3.org/2000/svg" xmlns:xlink="http://www.w3.org/1999/xlink" width="40" height="40" viewBox="0 0 40 40">
    <defs>
        <path id="a" d="M33.889 8.333H13.194c-.972 0-1.805.417-2.36 1.25l-7.5 11.25 7.5 11.25c.555.695 1.388 1.25 2.36 1.25H33.89a2.786 2.786 0 0 0 2.778-2.777V11.11a2.786 2.786 0 0 0-2.778-2.778zm-4.167 17.5l-1.944 1.945-5-5-5 5-1.945-1.945 5-5-5-5 1.945-1.944 5 5 5-5 1.944 1.944-5 5 5 5z"/>
    </defs>
    <g fill="none" fill-rule="evenodd">
        <mask id="b" fill="#fff">
            <use xlink:href="#a"/>
        </mask>
        <g fill="#FFF" mask="url(#b)">
            <path d="M0 0h40v40H0z"/>
        </g>
    </g>
</svg>
