<svg xmlns="http://www.w3.org/2000/svg" xmlns:xlink="http://www.w3.org/1999/xlink" width="24" height="24" viewBox="0 0 24 24">
    <defs>
        <path id="a" d="M16.583 10.167a6.424 6.424 0 0 0-6.416 6.416A6.424 6.424 0 0 0 16.583 23 6.424 6.424 0 0 0 23 16.583a6.424 6.424 0 0 0-6.417-6.416zM12 16.583A4.589 4.589 0 0 1 16.583 12a4.589 4.589 0 0 1 4.584 4.583 4.589 4.589 0 0 1-4.584 4.584A4.589 4.589 0 0 1 12 16.583zm7.333-.916H17.5v-2.75h-1.833V17.5h3.666v-1.833zM4.667 9.25h5.5v1.833h-5.5V9.25zm0 3.667h3.666v1.833H4.667v-1.833zM2.833 2.833v16.5h5.5v1.834h-5.5A1.835 1.835 0 0 1 1 19.333v-16.5C1 1.823 1.822 1 2.833 1h10.463L17.5 5.204v3.13h-1.833V6.5H12V2.833H2.833z"/>
    </defs>
    <use fill="#9B9B9B" fill-rule="nonzero" xlink:href="#a"/>
</svg>
