<svg xmlns="http://www.w3.org/2000/svg" width="64" height="64" viewBox="0 0 64 64">
    <g fill="none" fill-rule="nonzero">
        <path fill="#EF4D4D" d="M32 64C14.327 64 0 49.673 0 32 0 14.327 14.327 0 32 0c17.673 0 32 14.327 32 32 0 17.673-14.327 32-32 32z"/>
        <path fill="#FFF" d="M37.961 32.464l6.858-6.85a3.877 3.877 0 0 0 0-5.48 3.887 3.887 0 0 0-5.486 0l-6.856 6.85-6.856-6.85a3.887 3.887 0 0 0-5.486 0 3.877 3.877 0 0 0 0 5.48l6.857 6.85-6.857 6.849a3.877 3.877 0 0 0 0 5.48 3.887 3.887 0 0 0 5.486 0l6.856-6.85 6.856 6.85a3.887 3.887 0 0 0 5.486 0 3.877 3.877 0 0 0 0-5.48l-6.858-6.85z"/>
    </g>
</svg>
