<svg xmlns="http://www.w3.org/2000/svg" width="135" height="43" viewBox="0 0 135 43">
    <g fill="none" fill-rule="evenodd">
        <path fill="#231F20" d="M61.672 20c-4.25 0-7.097-3-7.097-7.292 0-4.416 2.6-7.666 7.18-7.666 3.343 0 6.395 1.75 6.643 5.375h-3.795c-.249-1.584-1.238-2.46-2.848-2.46-2.476 0-3.302 2.544-3.302 4.626 0 2.042.785 4.5 3.22 4.5 1.774 0 2.805-1.167 3.053-2.916h3.755C67.985 17.959 65.387 20 61.672 20zm15.805 0c-4.416 0-7.263-2.958-7.263-7.458 0-4.542 2.847-7.5 7.263-7.5 4.457 0 7.304 2.958 7.304 7.5 0 4.5-2.847 7.458-7.304 7.458zm0-12.042c-2.6 0-3.383 2.293-3.383 4.584 0 2.25.783 4.541 3.383 4.541 2.641 0 3.426-2.291 3.426-4.541 0-2.29-.785-4.584-3.426-4.584zm15.969-5.041c-1.03 0-1.444.457-1.444 1.624v.875h2.641V8h-2.641v11.625h-3.879V8h-2.31V5.416h2.31V4.291c0-2.5 1.568-4.291 4.704-4.291.702 0 1.404.083 2.064.083V3a15.758 15.758 0 0 0-1.445-.083zm9.904 0c-1.032 0-1.445.457-1.445 1.624v.875h2.642V8h-2.642v11.625h-3.879V8h-2.31V5.416h2.31V4.291c0-2.5 1.567-4.291 4.704-4.291.702 0 1.404.083 2.064.083V3c-.454-.042-.95-.083-1.444-.083zm6.106 10.75c.165 1.75 1.032 3.416 3.302 3.416 1.65 0 2.764-.959 3.177-2.458l3.384.834c-1.073 3.04-3.26 4.541-6.56 4.541-4.54 0-7.141-3.042-7.141-7.417 0-4.166 2.724-7.541 7.056-7.541 4.663 0 7.511 4 6.893 8.625h-10.111zm3.218-5.71c-1.858 0-3.053 1.376-3.218 2.96h6.272c-.164-1.584-1.28-2.96-3.054-2.96zm12.133 5.71c.164 1.75 1.031 3.416 3.301 3.416 1.651 0 2.764-.959 3.177-2.458l3.383.834c-1.073 3.04-3.26 4.541-6.56 4.541-4.54 0-7.139-3.042-7.139-7.417 0-4.166 2.723-7.541 7.055-7.541 4.665 0 7.51 4 6.892 8.625h-10.109zm3.217-5.71c-1.855 0-3.053 1.376-3.217 2.96h6.27c-.163-1.584-1.277-2.96-3.053-2.96z"/>
        <path fill="#ED3124" d="M6.251 1.823V5.38h4.737v1.854c0 1.113-.87 2.021-1.958 2.064l-2.779.006v4.52c0 1.239.99 2.241 2.22 2.241h2.517v3.757H8.475C4.898 19.822 2 17.522 2 13.91V9.304H0V5.38h2V1.823H6.25zm24.37 12.17c.002 0 0-7.956 0-8.613h4.263v8.065c0 3.613-1.942 6.54-6.476 6.54-4.538 0-6.474-2.927-6.474-6.54V5.38h2.21c1.133 0 2.047.924 2.047 2.068v6.545c0 1.232.988 2.244 2.217 2.244 1.23 0 2.214-1.012 2.214-2.244zm18.913-.951c0 .207.006.721 0 .928h-9.692c.027 1.333 1.264 2.427 2.784 2.427 1.027 0 1.924-.484 2.406-1.21l3.885 1.035c-1.21 2.24-3.564 3.762-6.27 3.762-4.155-.072-6.971-2.829-6.971-7.489 0-4.313 3.102-7.46 6.946-7.46 4.469 0 6.888 3.523 6.912 8.007zm-9.692-2.013h5.572c-.015-1.342-1.257-2.423-2.788-2.423-1.52 0-2.757 1.091-2.784 2.423zm-27.862.304c0-3.288 2.64-5.953 5.899-5.953h3.06v3.924h-2.492c-1.224 0-2.22 1.004-2.22 2.242v8.276H11.98v-8.49z"/>
        <path fill="#9B9B9B" d="M27.669 27.03a.75.75 0 0 1-.231.559.777.777 0 0 1-.564.225c-.029 0-.05-.007-.064-.021-.15.007-.359.054-.623.14-.265.086-.54.186-.822.3-.283.115-.552.23-.806.344-.254.115-.45.208-.585.28.394.136.768.277 1.122.424.355.147.664.33.93.548.264.218.476.487.633.805.158.319.237.722.237 1.209 0 .644-.117 1.203-.35 1.676a3.353 3.353 0 0 1-.945 1.176c-.397.311-.86.544-1.386.698a5.921 5.921 0 0 1-1.67.231 7.071 7.071 0 0 1-1.3-.145 8.097 8.097 0 0 1-.795-.204 3.88 3.88 0 0 1-.72-.3 1.887 1.887 0 0 1-.526-.414.8.8 0 0 1-.204-.538c0-.107.021-.207.064-.3a.927.927 0 0 1 .172-.253.785.785 0 0 1 .559-.241.64.64 0 0 1 .29.064c.086.043.172.104.258.183.129.107.286.198.472.274.187.075.382.136.586.182.204.047.41.08.618.102a4.743 4.743 0 0 0 1.595-.08c.333-.076.626-.2.88-.376.255-.176.459-.403.613-.682.154-.28.23-.624.23-1.032v-.193a.75.75 0 0 0-.02-.183.658.658 0 0 0-.301-.478 3.104 3.104 0 0 0-.656-.338c-.257-.1-.533-.197-.827-.29a6.275 6.275 0 0 1-.81-.317 2.214 2.214 0 0 1-.619-.424.832.832 0 0 1-.247-.613c0-.236.097-.469.29-.698.194-.23.444-.448.752-.655.308-.208.652-.4 1.032-.575.38-.175.753-.328 1.122-.456.369-.13.713-.23 1.031-.301.32-.072.568-.108.747-.108.23 0 .426.076.59.226.166.15.248.34.248.57zM36.437 35a.743.743 0 0 1-.231.542.767.767 0 0 1-.564.231.644.644 0 0 1-.467-.182 1.367 1.367 0 0 1-.307-.473 3.479 3.479 0 0 1-.187-.65c-.047-.24-.085-.48-.113-.72-.029-.24-.05-.465-.065-.676a5.498 5.498 0 0 0-.053-.51c-.373.329-.724.68-1.053 1.052-.33.373-.659.741-.988 1.107a.795.795 0 0 1-.602.279.75.75 0 0 1-.559-.231.777.777 0 0 1-.225-.564c0-.093.016-.206.048-.338.032-.133.072-.27.118-.414a28.7 28.7 0 0 1 .14-.419c.046-.136.084-.25.113-.344-.079.094-.172.21-.28.35-.107.14-.223.286-.349.44-.125.154-.256.308-.392.462a5.097 5.097 0 0 1-.413.419 2.79 2.79 0 0 1-.403.306.706.706 0 0 1-.365.118.81.81 0 0 1-.64-.274.95.95 0 0 1-.241-.65c0-.2.037-.408.113-.623a4.05 4.05 0 0 1 .29-.639 7.9 7.9 0 0 1 .392-.628c.143-.208.279-.408.408-.602.129-.193.242-.376.338-.548.097-.172.163-.326.199-.462a.977.977 0 0 1 .247-.488c.122-.126.294-.188.516-.188a.77.77 0 0 1 .542.214.691.691 0 0 1 .231.527c.122-.065.244-.117.365-.156.122-.04.251-.059.387-.059.358 0 .612.106.763.317.15.211.225.47.225.779v.129c.093-.08.197-.165.312-.258.114-.093.234-.18.36-.258.125-.079.254-.143.386-.193.133-.05.264-.076.393-.076.243 0 .442.077.596.231.154.154.279.353.376.597.096.243.17.515.22.816.05.3.09.6.118.897.029.297.057.575.086.832.029.258.068.466.118.624l.065.171a.516.516 0 0 1 .032.183zm4.39-3.169v-.28a.705.705 0 0 0-.043-.23.767.767 0 0 0-.108-.21c-.1.05-.209.136-.327.258a4.21 4.21 0 0 0-.36.43 9.772 9.772 0 0 0-.365.532c-.122.19-.231.377-.328.564-.097.186-.18.361-.252.526a2.784 2.784 0 0 0-.15.419.978.978 0 0 0 .413-.215c.125-.107.242-.233.349-.376a6.53 6.53 0 0 0 .306-.446c.097-.154.192-.299.285-.435.093-.136.186-.254.279-.354a.564.564 0 0 1 .3-.183zm1.46-.236c0 .207-.044.399-.134.574-.089.176-.245.285-.467.328v.172c0 .136-.014.272-.043.408a1.977 1.977 0 0 0-.043.408c0 .28.032.49.097.629.064.14.134.256.21.349l.209.263c.064.082.097.21.097.381 0 .1-.02.197-.06.29a.96.96 0 0 1-.155.253.767.767 0 0 1-.231.183.63.63 0 0 1-.296.07.663.663 0 0 1-.376-.124 1.53 1.53 0 0 1-.327-.301 3.166 3.166 0 0 1-.446-.757c-.208.193-.44.358-.698.494-.258.136-.53.204-.817.204-.422 0-.762-.122-1.02-.365-.258-.244-.387-.577-.387-1 0-.207.047-.465.14-.773.093-.308.22-.628.381-.961.161-.333.35-.666.564-1 .215-.332.444-.633.688-.902a3.68 3.68 0 0 1 .757-.65c.261-.164.517-.247.768-.247.265 0 .496.067.693.2.197.132.361.298.494.499.132.2.233.422.3.666.069.243.103.48.103.709zm7.71.376a.874.874 0 0 1-.21.569.773.773 0 0 1-.241.188.663.663 0 0 1-.3.07c-.259 0-.441-.056-.549-.167a.873.873 0 0 1-.22-.413 3.372 3.372 0 0 1-.08-.521 1.572 1.572 0 0 0-.119-.5 1.954 1.954 0 0 0-.639.376 5.05 5.05 0 0 0-.623.64 9.794 9.794 0 0 0-.596.805c-.193.29-.374.575-.543.854-.168.28-.324.544-.467.795-.143.25-.272.465-.387.645a.725.725 0 0 1-.279.29.732.732 0 0 1-.682.043.785.785 0 0 1-.252-.178.927.927 0 0 1-.172-.252.709.709 0 0 1-.065-.3c0-.044.03-.148.092-.312.06-.165.137-.36.23-.586a108.888 108.888 0 0 1 .902-2.09c.08-.178.133-.304.162-.375a.754.754 0 0 1 .295-.339.808.808 0 0 1 .435-.123h.097c.029 0 .061.007.097.021l.526-.5c.186-.175.383-.338.591-.488a3.37 3.37 0 0 1 .65-.37c.225-.097.456-.146.693-.146.308 0 .567.076.779.226.21.15.38.342.51.575.129.232.222.487.28.762.056.276.085.543.085.8zm10.277-1.526a.77.77 0 0 1-.274.591 2.348 2.348 0 0 1-.698.42c-.283.114-.598.209-.946.284a12.35 12.35 0 0 1-1.015.177c-.33.043-.63.073-.902.091a17.13 17.13 0 0 0-.613.049l-.145.381c-.06.161-.13.34-.209.537a27.836 27.836 0 0 0-.457 1.22 7.734 7.734 0 0 0-.166.526c-.043.157-.068.279-.075.365v.118c0 .2-.079.37-.237.51a.787.787 0 0 1-.537.21.73.73 0 0 1-.58-.247.87.87 0 0 1-.215-.591c0-.172.034-.389.102-.65.068-.261.15-.528.242-.8.093-.272.19-.537.29-.795l.247-.634c-.343.022-.69.045-1.042.07-.35.025-.698.037-1.042.037a.92.92 0 0 1-.58-.204.714.714 0 0 1-.188-.236.663.663 0 0 1-.07-.3c0-.23.07-.418.21-.565a.843.843 0 0 1 .553-.252c.473-.043.944-.074 1.413-.091.469-.018.94-.045 1.412-.081.058-.15.15-.38.28-.688l.435-1.042c.16-.386.33-.794.505-1.224.175-.43.334-.834.478-1.214.143-.38.263-.718.36-1.015.096-.297.148-.507.155-.629a.827.827 0 0 1 .253-.542.743.743 0 0 1 1.085.01.778.778 0 0 1 .23.554c0 .157-.04.383-.123.677a15.13 15.13 0 0 1-.317.983 38.36 38.36 0 0 1-.43 1.144c-.157.4-.311.782-.462 1.144-.15.361-.288.689-.413.983-.125.293-.22.519-.285.676a31.514 31.514 0 0 0 1.225-.161c.236-.036.46-.079.671-.129.212-.05.374-.107.489-.172a.668.668 0 0 1 .258-.204.78.78 0 0 1 .333-.075c.222 0 .41.075.564.226a.75.75 0 0 1 .23.558zm10.316-.415c0-.286-.023-.553-.07-.8a1.723 1.723 0 0 0-.252-.645 1.265 1.265 0 0 0-.49-.43C69.576 28.053 69.316 28 69 28h-.086a3.32 3.32 0 0 0-.397.43 8.838 8.838 0 0 0-.371.51 10.41 10.41 0 0 0-.338.537c-.108.183-.208.35-.301.5-.15.25-.38.376-.688.376a.77.77 0 0 1-.676-.398c-.086.222-.17.457-.253.704-.082.247-.156.497-.22.752a8.23 8.23 0 0 0-.156.762c-.04.255-.059.5-.059.736 0 .215.02.394.06.537.039.144.105.258.198.344a.798.798 0 0 0 .36.183c.147.035.331.053.553.053.508 0 1-.112 1.477-.338a4.401 4.401 0 0 0 1.268-.902c.368-.376.664-.804.886-1.284.222-.48.333-.97.333-1.472zm1.557.396c0 .73-.15 1.432-.45 2.105a6.007 6.007 0 0 1-2.976 3.019 4.934 4.934 0 0 1-2.095.462c-.874 0-1.547-.23-2.02-.688-.472-.458-.709-1.124-.709-1.998 0-.293.049-.68.145-1.16.097-.48.231-.99.403-1.53.172-.541.376-1.087.613-1.639.236-.551.494-1.05.773-1.493a4.98 4.98 0 0 1 .892-1.085c.315-.28.633-.419.956-.419.229 0 .419.08.569.242.15.16.226.345.226.553a.12.12 0 0 1-.011.054.12.12 0 0 0-.01.053 1.33 1.33 0 0 1 .273-.037 7.42 7.42 0 0 1 .274-.006c.544 0 1.015.092 1.413.274.397.183.725.435.983.758.257.322.447.7.569 1.133.122.433.182.9.182 1.402zm6.356 1.545a.874.874 0 0 1-.21.569.773.773 0 0 1-.24.188.663.663 0 0 1-.302.07c-.258 0-.44-.056-.548-.167a.873.873 0 0 1-.22-.413 3.372 3.372 0 0 1-.08-.521 1.572 1.572 0 0 0-.118-.5 1.954 1.954 0 0 0-.64.376 5.05 5.05 0 0 0-.623.64 9.794 9.794 0 0 0-.596.805c-.193.29-.374.575-.542.854-.169.28-.324.544-.468.795-.143.25-.272.465-.386.645a.725.725 0 0 1-.28.29.732.732 0 0 1-.682.043.785.785 0 0 1-.252-.178.927.927 0 0 1-.172-.252.709.709 0 0 1-.065-.3c0-.044.03-.148.092-.312.06-.165.138-.36.23-.586a108.898 108.898 0 0 1 .902-2.09c.08-.178.134-.304.162-.375a.754.754 0 0 1 .296-.339.808.808 0 0 1 .435-.123h.096c.029 0 .061.007.097.021l.526-.5c.187-.175.384-.338.591-.488a3.37 3.37 0 0 1 .65-.37c.226-.097.457-.146.693-.146.308 0 .568.076.779.226.211.15.381.342.51.575.129.232.222.487.28.762.057.276.085.543.085.8zm4.004.483h-.119c-.25.072-.474.176-.671.312a2.675 2.675 0 0 0-.505.445 2.52 2.52 0 0 0-.344.505c-.09.176-.152.339-.188.49h.065c.15 0 .302-.064.456-.189.154-.125.306-.277.457-.456.15-.18.297-.371.44-.575.144-.204.28-.382.409-.532zm3.738-4.071c0 .322-.052.655-.156.999a6.928 6.928 0 0 1-.397 1.015c-.162.333-.339.655-.532.967-.194.311-.383.592-.57.843a7.825 7.825 0 0 0-.107 1.278c0 .23.023.43.07.602.046.172.097.324.15.456.054.133.104.251.15.355.047.104.07.206.07.306 0 .2-.07.381-.209.543a.662.662 0 0 1-.521.241.674.674 0 0 1-.5-.215 1.674 1.674 0 0 1-.338-.515c-.086-.2-.15-.41-.193-.629a5.798 5.798 0 0 1-.086-.553c-.165.172-.364.373-.596.602-.233.229-.484.446-.752.65a5.53 5.53 0 0 1-.822.52c-.28.144-.548.215-.806.215-.172 0-.33-.035-.472-.107a1.085 1.085 0 0 1-.36-.285 1.33 1.33 0 0 1-.226-.408 1.441 1.441 0 0 1-.08-.478c0-.2.055-.437.166-.709.111-.272.26-.553.446-.843a9.01 9.01 0 0 1 .634-.865c.236-.286.481-.542.736-.768.254-.225.506-.408.757-.548.25-.14.48-.21.687-.21.2 0 .38.065.537.194a.85.85 0 0 1 .301.494l.13-.628c.056-.276.132-.578.225-.908.093-.33.2-.664.322-1.004.122-.34.256-.65.403-.93.147-.279.31-.508.489-.687.179-.179.368-.269.569-.269.172 0 .313.04.424.119.111.078.2.18.269.306.068.125.116.263.145.413.028.15.043.298.043.44zm4.057 1.117h-.022c-.172 0-.35.025-.537.075-.186.05-.365.117-.537.199a2.786 2.786 0 0 0-.478.29 2.294 2.294 0 0 0-.381.36c.15-.029.318-.068.505-.118a4.3 4.3 0 0 0 .547-.188c.18-.076.348-.165.505-.269.158-.104.29-.22.398-.349zm1.547.3c0 .458-.126.857-.376 1.198-.251.34-.568.623-.951.848a5.238 5.238 0 0 1-1.24.527c-.445.125-.86.205-1.247.241.057.2.13.4.22.596.09.197.2.375.328.532.129.158.281.285.457.382a1.237 1.237 0 0 0 .746.134.798.798 0 0 0 .14-.032.353.353 0 0 0 .086-.011.316.316 0 0 1 .075-.01c.222 0 .401.081.537.246a.84.84 0 0 1 .204.548.772.772 0 0 1-.102.419.716.716 0 0 1-.274.252c-.114.061-.242.102-.381.124-.14.021-.281.032-.425.032-.486 0-.925-.113-1.315-.338a3.266 3.266 0 0 1-.994-.886 4.118 4.118 0 0 1-.623-1.225 4.452 4.452 0 0 1-.215-1.354c0-.487.106-.945.317-1.375.211-.43.492-.803.843-1.122.351-.319.752-.57 1.203-.752a3.69 3.69 0 0 1 1.397-.274c.207 0 .406.025.596.075.19.05.358.13.505.237.147.107.265.241.354.402.09.161.135.357.135.586zm7.14 2.17a.874.874 0 0 1-.21.57.773.773 0 0 1-.242.188.663.663 0 0 1-.3.07c-.258 0-.44-.056-.548-.167a.873.873 0 0 1-.22-.413 3.372 3.372 0 0 1-.081-.521 1.572 1.572 0 0 0-.118-.5 1.954 1.954 0 0 0-.64.376 5.05 5.05 0 0 0-.622.64 9.794 9.794 0 0 0-.597.805c-.193.29-.374.575-.542.854-.168.28-.324.544-.467.795-.144.25-.272.465-.387.645a.725.725 0 0 1-.28.29.732.732 0 0 1-.681.043.785.785 0 0 1-.253-.178.927.927 0 0 1-.172-.252.709.709 0 0 1-.064-.3c0-.044.03-.148.091-.312.061-.165.138-.36.231-.586.093-.225.195-.467.306-.725a108.888 108.888 0 0 1 .596-1.364c.08-.18.133-.305.162-.376a.754.754 0 0 1 .295-.339.808.808 0 0 1 .435-.123h.097c.028 0 .06.007.096.021.165-.157.34-.324.527-.5.186-.175.383-.338.59-.488a3.37 3.37 0 0 1 .65-.37c.226-.097.457-.146.693-.146.308 0 .568.076.78.226.21.15.38.342.51.575.128.232.221.487.279.762.057.276.086.543.086.8zm3.466-1.041c0 .293-.045.582-.135.864-.089.283-.186.566-.29.85-.103.282-.2.565-.29.848-.09.283-.134.574-.134.875a.785.785 0 0 1-.242.559.927.927 0 0 1-.252.172.709.709 0 0 1-.3.064c-.266 0-.468-.097-.608-.29a1.108 1.108 0 0 1-.21-.666c0-.286.042-.567.124-.843.083-.276.178-.55.285-.822.107-.272.21-.542.306-.811a3.46 3.46 0 0 0 .188-.822.828.828 0 0 1 .242-.537.716.716 0 0 1 .532-.225c.222 0 .408.075.558.225.15.15.226.337.226.559zm1.869-2.041a.815.815 0 0 1-.097.386 1.085 1.085 0 0 1-.252.317c-.104.09-.219.16-.344.21a1.019 1.019 0 0 1-.843-.032 1.705 1.705 0 0 1-.43-.28 1.61 1.61 0 0 1-.322-.392.892.892 0 0 1-.13-.456c0-.208.078-.387.232-.537a.751.751 0 0 1 .542-.226c.244 0 .448.093.613.28a.36.36 0 0 1 .134-.038c.046-.004.091-.006.134-.006.208 0 .387.077.537.231.15.154.226.335.226.543zm5.367 3.04c0 .293-.04.6-.123.918a8.256 8.256 0 0 1-.312.956c-.125.319-.26.63-.402.935-.144.304-.276.592-.398.865a.699.699 0 0 1-.268.397.776.776 0 0 1-.473.15.743.743 0 0 1-.543-.23.743.743 0 0 1-.23-.543c0-.107.051-.29.155-.548.104-.258.224-.542.36-.854.136-.311.265-.623.387-.934.121-.312.204-.575.247-.79-.652.337-1.277.741-1.875 1.214-.598.473-1.183.942-1.756 1.407a.813.813 0 0 1-.505.172.751.751 0 0 1-.542-.226.725.725 0 0 1-.231-.537c0-.043.043-.16.129-.349.085-.19.195-.417.327-.682a73.913 73.913 0 0 1 .886-1.697c.144-.265.273-.496.387-.693.115-.197.19-.32.226-.37a.785.785 0 0 1 .612-.28c.222 0 .41.075.564.226.154.15.23.329.23.537a.704.704 0 0 1-.042.252 1.05 1.05 0 0 1-.107.21c.136-.086.291-.183.467-.29.175-.108.356-.208.542-.301.187-.093.376-.172.57-.237.193-.064.38-.096.558-.096.2 0 .374.04.521.118.147.079.267.183.36.311.093.13.163.28.21.452.046.172.07.35.07.537zm5.98-2.537c0 .2-.07.38-.21.537a.668.668 0 0 1-.52.236.75.75 0 0 1-.387-.107h-.075c0-.015-.004-.022-.01-.022h-.012c-.172 0-.377.061-.617.183s-.478.272-.715.45c-.236.18-.45.37-.639.57-.19.2-.317.38-.381.537a.219.219 0 0 0 .161.065c.122 0 .252-.056.392-.167.14-.11.285-.232.435-.365.15-.132.304-.254.462-.365a.83.83 0 0 1 .483-.167c.15 0 .278.036.382.108a.86.86 0 0 1 .252.268c.065.108.111.228.14.36.028.133.043.263.043.392 0 .337-.049.745-.145 1.225-.097.48-.233.977-.408 1.493a13.991 13.991 0 0 1-.629 1.536 8.32 8.32 0 0 1-.81 1.364 4.538 4.538 0 0 1-.962.978c-.344.25-.702.376-1.074.376-.237 0-.473-.022-.71-.064a1.884 1.884 0 0 1-.633-.231 1.358 1.358 0 0 1-.457-.446c-.118-.186-.177-.423-.177-.71 0-.142.029-.327.086-.552.057-.226.138-.446.242-.661.103-.215.227-.4.37-.553.143-.154.301-.231.473-.231.222 0 .4.08.537.241a.82.82 0 0 1 .204.543c0 .179-.052.36-.156.542a5.484 5.484 0 0 0-.263.521c.079.022.16.034.242.038.082.004.163.005.242.005.171 0 .345-.084.52-.252.176-.168.344-.385.505-.65a8.15 8.15 0 0 0 .462-.886 18.126 18.126 0 0 0 .699-1.8c.082-.257.141-.454.177-.59a2.754 2.754 0 0 1-.484.188 1.81 1.81 0 0 1-.494.07 1.43 1.43 0 0 1-.596-.13 1.7 1.7 0 0 1-.854-.853 1.43 1.43 0 0 1-.129-.597c0-.25.063-.508.188-.773s.294-.523.505-.774c.211-.25.451-.485.72-.703.268-.219.546-.41.832-.575.287-.165.571-.293.854-.387.283-.093.54-.14.768-.14.144 0 .283.019.42.055.135.035.26.09.375.166a.814.814 0 0 1 .376.704z"/>
    </g>
</svg>
