<svg xmlns="http://www.w3.org/2000/svg" width="100" height="100" viewBox="0 0 100 100">
    <g fill="none" fill-rule="evenodd">
        <path fill="#DEDEDE" fill-rule="nonzero" d="M18 6.71v87.274l5.417-5.455 5.416 5.455 5.417-5.455 5.417 5.455 5.416-5.455 5.417 5.455 5.417-5.455 5.416 5.455 5.417-5.455 5.417 5.455 5.416-5.455L83 93.984V6.71z"/>
        <g fill="#231F20" fill-opacity=".75" fill-rule="nonzero" opacity=".3">
            <path d="M28.833 53.256h27.083v5.455H28.833zM28.833 64.165h27.083v5.455H28.833zM28.833 75.074h27.083v5.455H28.833zM61.333 53.256h10.833v5.455H61.333zM61.333 64.165h10.833v5.455H61.333zM61.333 75.074h10.833v5.455H61.333z"/>
        </g>
        <path fill="#ED3124" d="M38.592 34.905c0 6.514 5.238 11.816 11.678 11.816 6.435 0 11.676-5.302 11.676-11.816 0-6.52-5.241-11.821-11.676-11.821-6.44 0-11.678 5.302-11.678 11.82"/>
        <path fill="#231F20" d="M43.134 34.905c0-3.98 3.2-7.222 7.136-7.222 3.931 0 7.129 3.242 7.129 7.222 0 3.978-3.198 7.215-7.129 7.215-3.936 0-7.136-3.237-7.136-7.215"/>
        <path fill="#FEFEFE" d="M46.739 31.228h-.004c-.024.008-.05.013-.074.019a.504.504 0 0 0-.108.047c-.02.013-.041.027-.06.043a.605.605 0 0 0-.072.076l-.019.03c-.01.023-.02.041-.026.065a.425.425 0 0 0-.012.034l-.015.062a.371.371 0 0 0 .027.182l.024.055c.04.054.083.095.14.117l.046.014a.22.22 0 0 0 .093.004.209.209 0 0 0 .149-.093c.01-.02.022-.037.027-.063.002-.014.004-.024.004-.034a.142.142 0 0 0-.039-.1c-.01-.012-.025-.02-.036-.028-.017-.006-.022-.012-.038-.015-.012-.001-.02-.005-.024-.009v-.003c0-.011.018-.022.021-.027.01-.005.019-.011.028-.014l.024-.001h.029a.137.137 0 0 1 .103.052.246.246 0 0 1 .072.18c0 .011 0 .027-.002.041a.33.33 0 0 1-.113.201c-.025.02-.06.046-.097.063-.069.027-.145.038-.224.027a.454.454 0 0 1-.33-.23c-.013-.015-.02-.034-.03-.055a.442.442 0 0 1-.018-.036l.004.003-.017-.053-.006-.022-.013-.051-.033.019c-.008.004-.018.004-.016.024.024.135.085.26.19.354a.503.503 0 0 0 .317.126h.043a.347.347 0 0 0 .079-.011.326.326 0 0 0 .11-.036c.022-.01.039-.021.059-.035l.004-.005a.42.42 0 0 0 .153-.193l.01-.035c.004-.02.006-.042.013-.063 0-.019.004-.04 0-.062a.39.39 0 0 0-.05-.172.324.324 0 0 0-.209-.138h-.045a.15.15 0 0 0-.048.007l-.012.004-.028.008a.16.16 0 0 0-.063.048c-.011.007-.017.02-.024.034l-.007.007-.01.022a.183.183 0 0 0 0 .126c.013.025.03.046.053.058.02.013.04.023.054.024l.017.007.001.001c-.002.013-.011.022-.032.033-.046.028-.099.007-.126-.001-.018-.01-.03-.023-.049-.04a.239.239 0 0 1-.05-.075.236.236 0 0 1-.02-.125v-.02a.321.321 0 0 1 .111-.2l.047-.037a.435.435 0 0 1 .545.095l.02.017a.595.595 0 0 1 .07.115l.018.035-.001-.003.015.058.025.104.04-.046c.005-.006.01-.006.005-.024 0-.015-.01-.051-.011-.057l-.004-.014-.012-.048-.005-.006-.015-.044h-.001l-.024-.04a.508.508 0 0 0-.028-.047l-.032-.041a.512.512 0 0 0-.06-.065.55.55 0 0 0-.398-.124"/>
        <path fill="#FEFEFE" d="M47.913 31.228a.526.526 0 0 0-.242.109.572.572 0 0 0-.073.076l-.019.03a.37.37 0 0 0-.027.065.24.24 0 0 0-.023.096c-.01.063 0 .125.023.182.004.015.015.034.025.055a.311.311 0 0 0 .14.117l.044.014c.035.007.062.01.093.004a.204.204 0 0 0 .15-.093.138.138 0 0 0 .025-.063.143.143 0 0 0-.032-.133c-.013-.013-.025-.02-.037-.029-.014-.006-.024-.012-.037-.015-.012-.001-.018-.005-.024-.009v-.003c0-.011.017-.022.02-.027.01-.005.02-.011.032-.014l.02-.001H48c.022 0 .04.006.056.014.015.009.03.018.047.038.025.025.04.046.05.07.013.038.02.073.02.11 0 .011 0 .027-.002.041a.336.336 0 0 1-.108.201c-.029.02-.063.046-.1.063-.07.027-.143.038-.221.027a.451.451 0 0 1-.256-.13.547.547 0 0 1-.08-.1c-.009-.015-.016-.034-.03-.055l-.011-.036v.003l-.02-.053-.005-.022-.01-.051-.033.019c-.01.004-.018.004-.015.024.02.135.083.26.19.354a.494.494 0 0 0 .316.126h.04c.031 0 .056-.005.083-.011a.349.349 0 0 0 .108-.036.22.22 0 0 0 .057-.035l.005-.005a.381.381 0 0 0 .152-.193l.012-.035c.005-.02.01-.042.012-.063.002-.019.004-.04.002-.062a.304.304 0 0 0-.029-.12c-.004-.019-.013-.034-.022-.052a.311.311 0 0 0-.21-.138h-.044a.163.163 0 0 0-.049.007l-.013.004-.026.008a.162.162 0 0 0-.061.048.105.105 0 0 0-.026.034l-.005.007-.013.022a.18.18 0 0 0 0 .126.14.14 0 0 0 .056.058.128.128 0 0 0 .053.024l.014.007.002.001c-.002.013-.01.022-.027.033-.045.028-.103.007-.13-.001a.398.398 0 0 1-.05-.04.283.283 0 0 1-.05-.075.325.325 0 0 1-.021-.125l.001-.02a.337.337 0 0 1 .113-.2l.046-.037a.42.42 0 0 1 .408-.012.45.45 0 0 1 .137.107l.02.017a.708.708 0 0 1 .072.115l.013.035v-.003l.022.058.02.104.042-.046c.004-.006.007-.006.004-.024 0-.015-.012-.051-.012-.057l-.004-.014-.015-.048-.002-.006-.017-.044-.018-.04a1.617 1.617 0 0 0-.029-.047l-.034-.041a.541.541 0 0 0-.462-.189"/>
        <path fill="#FEFEFE" d="M49.09 31.228a.706.706 0 0 1-.08.019.563.563 0 0 0-.162.09.651.651 0 0 0-.077.076l-.017.03c-.009.023-.02.041-.025.065 0-.003-.013.034-.013.034a.202.202 0 0 0-.012.062.341.341 0 0 0 .025.182c.005.015.015.034.021.055.041.054.088.095.144.117l.045.014c.032.007.063.01.093.004a.2.2 0 0 0 .147-.093.219.219 0 0 0 .03-.063l.002-.034a.163.163 0 0 0-.035-.1l-.04-.028a.152.152 0 0 0-.038-.015c-.009-.001-.02-.005-.023-.009v-.003c0-.011.016-.022.02-.027.01-.005.018-.011.03-.014l.022-.001h.031c.02 0 .038.006.053.014.016.009.031.018.05.038.022.025.039.046.05.07a.302.302 0 0 1 .017.151.315.315 0 0 1-.11.201c-.027.02-.06.046-.1.063-.065.027-.143.038-.221.027a.453.453 0 0 1-.331-.23.173.173 0 0 1-.03-.055.252.252 0 0 1-.018-.036l.004.003-.02-.053-.004-.022a.315.315 0 0 1-.012-.051l-.031.019c-.011.004-.021.004-.019.024.025.135.086.26.19.354a.502.502 0 0 0 .32.126h.04a.355.355 0 0 0 .08-.011.339.339 0 0 0 .11-.036c.02-.01.04-.021.056-.035l.007-.005a.395.395 0 0 0 .151-.193l.011-.035c.005-.02.012-.042.012-.063.003-.019.003-.04.003-.062a.334.334 0 0 0-.027-.12c-.008-.019-.016-.034-.025-.052a.318.318 0 0 0-.208-.138h-.044a.151.151 0 0 0-.05.007l-.009.004-.03.008a.197.197 0 0 0-.064.048c-.01.007-.017.02-.025.034l-.005.007-.01.022a.176.176 0 0 0 .001.126c.012.025.03.046.052.058a.12.12 0 0 0 .056.024l.012.007v.001c-.001.013-.009.022-.027.033-.047.028-.098.007-.126-.001a.226.226 0 0 1-.102-.115.255.255 0 0 1-.02-.125l.002-.02a.333.333 0 0 1 .11-.2l.05-.037a.416.416 0 0 1 .406-.012c.055.03.1.061.14.107l.015.017a.76.76 0 0 1 .074.115l.015.035-.002-.003.02.058.022.104.04-.046c.006-.006.007-.006.007-.024-.001-.015-.013-.051-.014-.057l-.003-.014-.015-.048-.003-.006-.018-.044-.02-.04a.516.516 0 0 0-.026-.047l-.032-.041c-.02-.025-.043-.044-.063-.065a.556.556 0 0 0-.4-.124"/>
        <path fill="#FEFEFE" d="M50.268 31.228h-.002a.474.474 0 0 0-.239.109.445.445 0 0 0-.077.076l-.02.03c-.009.023-.019.041-.027.065 0-.003-.013.034-.013.034l-.01.062a.357.357 0 0 0 .025.182c.006.015.013.034.025.055.039.054.083.095.139.117l.044.014c.037.007.063.01.096.004.062-.01.117-.04.145-.093.014-.02.027-.037.028-.063.006-.014.006-.024.006-.034a.136.136 0 0 0-.04-.1.105.105 0 0 0-.04-.028c-.011-.006-.02-.012-.033-.015a.032.032 0 0 1-.02-.009v-.003c0-.011.015-.022.016-.027l.026-.014.029-.001H50.352c.023 0 .04.006.052.014.018.009.037.018.056.038.018.025.038.046.05.07.01.038.017.073.017.11a.19.19 0 0 1-.005.041.315.315 0 0 1-.111.201.553.553 0 0 1-.092.063.438.438 0 0 1-.479-.103.422.422 0 0 1-.08-.1.296.296 0 0 1-.029-.055c0 .005-.012-.036-.012-.036v.003l-.02-.053-.004-.022c-.002 0-.013-.051-.013-.051l-.03.019c-.01.004-.023.004-.02.024a.6.6 0 0 0 .193.354.496.496 0 0 0 .318.126h.034a.425.425 0 0 0 .089-.011.334.334 0 0 0 .104-.036c.024-.01.04-.021.058-.035l.01-.005a.387.387 0 0 0 .148-.193l.01-.035a.42.42 0 0 0 .014-.063c.001-.019.004-.04.001-.062a.471.471 0 0 0-.027-.12c-.01-.019-.013-.034-.025-.052a.305.305 0 0 0-.211-.138h-.046a.1.1 0 0 0-.04.007l-.019.004-.024.008c-.018.011-.045.026-.062.048l-.028.034-.007.007-.009.022a.215.215 0 0 0 .002.126.147.147 0 0 0 .053.058.13.13 0 0 0 .056.024l.01.007s.002 0 0 .001c0 .013-.007.022-.022.033-.048.028-.104.007-.13-.001a.303.303 0 0 1-.05-.04c-.023-.024-.038-.051-.052-.075a.273.273 0 0 1-.017-.125l.001-.02a.302.302 0 0 1 .113-.2l.043-.037a.417.417 0 0 1 .407-.012.41.41 0 0 1 .14.107l.018.017c.03.043.05.077.072.115l.015.035v-.003l.02.058.023.104.037-.046c.004-.006.01-.006.008-.024-.004-.015-.012-.051-.015-.057l-.005-.014-.01-.048-.003-.006-.018-.044-.023-.04c0-.004-.024-.047-.024-.047l-.036-.041a.518.518 0 0 0-.06-.065.55.55 0 0 0-.398-.124"/>
        <path fill="#FEFEFE" d="M51.442 31.228h-.002c-.025.008-.049.013-.075.019a.456.456 0 0 0-.103.047.457.457 0 0 0-.133.12l-.022.03c-.012.022-.019.04-.029.064l-.009.034a.311.311 0 0 0-.016.062.425.425 0 0 0 .026.182c.01.015.015.034.028.055.037.054.08.095.138.117l.045.014c.036.007.065.01.093.004a.212.212 0 0 0 .15-.093.182.182 0 0 0 .025-.063c.002-.014.005-.024.005-.034a.142.142 0 0 0-.037-.1c-.01-.012-.028-.02-.038-.028a.134.134 0 0 0-.036-.015c-.014-.001-.018-.005-.025-.009v-.003c0-.011.015-.022.022-.027a.117.117 0 0 1 .028-.014l.022-.001h.032c.02 0 .037.006.054.014.014.009.03.018.047.038a.263.263 0 0 1 .052.07.346.346 0 0 1 .021.11c0 .011 0 .027-.004.041a.328.328 0 0 1-.11.201c-.028.02-.06.046-.101.063-.066.027-.14.038-.222.027a.456.456 0 0 1-.252-.13.508.508 0 0 1-.078-.1.208.208 0 0 1-.03-.055.266.266 0 0 1-.016-.036l.001.003-.017-.053-.007-.022a.261.261 0 0 1-.011-.051l-.031.019c-.008.004-.021.004-.018.024.023.135.084.26.193.354a.493.493 0 0 0 .317.126h.038c.03 0 .054-.005.08-.011a.324.324 0 0 0 .11-.036c.024-.01.04-.021.058-.035l.005-.005a.38.38 0 0 0 .153-.193l.011-.035c.007-.02.008-.042.012-.063 0-.019.003-.04 0-.062a.343.343 0 0 0-.025-.12.19.19 0 0 0-.026-.052.31.31 0 0 0-.209-.138h-.042a.153.153 0 0 0-.05.007l-.01.004-.03.008a.288.288 0 0 0-.064.048c-.01.007-.016.02-.022.034l-.007.007-.01.022a.168.168 0 0 0 0 .126.127.127 0 0 0 .052.058c.02.013.04.023.054.024l.015.007.003.001c-.004.013-.01.022-.029.033-.046.028-.1.007-.125-.001a.232.232 0 0 1-.102-.115.238.238 0 0 1-.017-.145.295.295 0 0 1 .109-.2l.049-.037a.416.416 0 0 1 .406-.012c.055.03.099.061.139.107l.014.017c.033.043.06.077.075.115l.015.035-.002-.003.019.058.023.104.04-.046c.002-.006.007-.006.007-.024a.41.41 0 0 1-.013-.057l-.005-.014-.013-.048v-.006l-.019-.044h-.002l-.02-.04a.512.512 0 0 0-.027-.047l-.034-.041c-.022-.025-.039-.044-.06-.065a.555.555 0 0 0-.4-.124"/>
        <path fill="#FEFEFE" d="M52.617 31.228c-.024.008-.049.013-.075.019a.412.412 0 0 0-.166.09.802.802 0 0 0-.074.076l-.017.03c-.012.023-.022.041-.03.065a.465.465 0 0 0-.021.096c-.011.063 0 .125.021.182l.026.055c.04.054.084.095.141.117l.046.014c.031.007.062.01.089.004a.21.21 0 0 0 .152-.093.157.157 0 0 0 .026-.063v-.034a.148.148 0 0 0-.032-.1c-.015-.012-.029-.02-.04-.028-.012-.006-.022-.012-.038-.015-.01-.001-.015-.005-.023-.009v-.003c0-.011.017-.022.022-.027.009-.005.017-.011.028-.014l.022-.001h.035c.017 0 .035.006.05.014a.272.272 0 0 1 .101.109c.012.037.02.072.02.108l-.003.042a.33.33 0 0 1-.11.201c-.031.02-.058.046-.098.063-.068.027-.147.038-.224.027a.445.445 0 0 1-.252-.13.444.444 0 0 1-.078-.1.245.245 0 0 1-.03-.055c0 .005-.017-.036-.017-.036v.003l-.016-.053-.006-.022-.013-.051-.028.019c-.011.004-.022.004-.019.024.022.135.082.26.19.354.087.079.2.121.319.126h.04c.03 0 .054-.005.08-.011a.333.333 0 0 0 .107-.036.217.217 0 0 0 .059-.035l.006-.005a.382.382 0 0 0 .151-.193l.01-.035c.006-.02.012-.042.013-.063a.216.216 0 0 0 .004-.062.541.541 0 0 0-.027-.12c-.007-.019-.017-.034-.026-.052a.315.315 0 0 0-.209-.138h-.044a.143.143 0 0 0-.048.007l-.01.004-.03.008a.162.162 0 0 0-.062.048.07.07 0 0 0-.025.034l-.006.007-.01.022a.176.176 0 0 0 0 .126c.011.025.03.046.051.058a.14.14 0 0 0 .055.024l.015.007.002.001c-.002.013-.011.022-.032.033-.045.028-.095.007-.125-.001-.018-.01-.03-.023-.051-.04a.294.294 0 0 1-.07-.201l.004-.02a.297.297 0 0 1 .11-.199l.048-.037a.418.418 0 0 1 .407-.012c.054.03.097.061.138.107l.016.017a.67.67 0 0 1 .073.115l.018.035v-.003l.015.058.023.104.04-.046c.008-.006.01-.006.008-.024 0-.015-.015-.051-.016-.057v-.014c-.003-.002-.015-.048-.015-.048l-.003-.006-.017-.044-.023-.04c0-.004-.026-.047-.026-.047l-.032-.041a.74.74 0 0 0-.063-.065.552.552 0 0 0-.4-.124M46.739 32.277h-.004a.487.487 0 0 0-.24.103.537.537 0 0 0-.074.082l-.019.029c-.01.019-.02.036-.026.058l-.012.035-.015.063a.363.363 0 0 0 .027.182.398.398 0 0 0 .024.054c.04.056.083.096.14.118l.046.017c.03.005.066.005.093.003a.222.222 0 0 0 .149-.093.237.237 0 0 0 .027-.067c.002-.015.004-.02.004-.032a.138.138 0 0 0-.039-.097.093.093 0 0 0-.036-.03c-.017-.01-.022-.017-.038-.017-.012 0-.02-.003-.024-.007 0-.017.018-.026.021-.03a.075.075 0 0 1 .028-.014l.024-.004h.029a.18.18 0 0 1 .103.052c.023.025.042.05.05.073.017.036.022.071.022.11 0 .015 0 .026-.002.043a.322.322 0 0 1-.113.196.41.41 0 0 1-.097.065.4.4 0 0 1-.224.025.424.424 0 0 1-.253-.129.478.478 0 0 1-.078-.099c-.012-.017-.019-.035-.03-.052l-.017-.034.004.002-.017-.057-.006-.024-.013-.047-.033.017c-.008.002-.018.003-.016.028.024.13.085.259.19.349.088.079.198.123.317.128h.043a.506.506 0 0 0 .188-.046l.06-.036.004-.004a.434.434 0 0 0 .153-.193l.01-.033c.004-.022.006-.045.013-.065 0-.02.004-.043 0-.067a.369.369 0 0 0-.026-.115c-.01-.017-.016-.035-.024-.05a.298.298 0 0 0-.209-.14l-.045-.004a.149.149 0 0 0-.048.009l-.012.005-.028.008a.245.245 0 0 0-.063.044c-.011.013-.017.023-.024.036l-.007.01-.01.019a.182.182 0 0 0 0 .125c.013.025.03.047.053.064.02.012.04.016.054.021l.017.003.001.003c-.002.013-.011.023-.032.038-.046.023-.099.006-.126-.006a.222.222 0 0 1-.049-.038.202.202 0 0 1-.05-.075.238.238 0 0 1-.02-.123v-.025a.319.319 0 0 1 .111-.197l.047-.04a.408.408 0 0 1 .408-.007c.054.025.1.06.137.105l.02.02a.417.417 0 0 1 .07.114l.018.034-.001-.002.015.056.025.101.04-.045c.005-.007.01-.006.005-.022 0-.016-.01-.053-.011-.058l-.004-.015-.012-.046-.005-.01-.015-.04-.001-.002-.024-.04-.028-.042a.485.485 0 0 0-.032-.043c-.018-.027-.038-.044-.06-.064a.5.5 0 0 0-.398-.12"/>
        <path fill="#FEFEFE" d="M47.913 32.277a.213.213 0 0 0-.076.015.507.507 0 0 0-.166.088.512.512 0 0 0-.073.082l-.019.029a.263.263 0 0 0-.027.058l-.013.035a.279.279 0 0 0-.01.063c-.01.065 0 .126.023.182.004.017.015.035.025.054a.3.3 0 0 0 .14.118l.044.017a.339.339 0 0 0 .093.003.217.217 0 0 0 .15-.093.154.154 0 0 0 .025-.067c.005-.015.005-.02.005-.032a.139.139 0 0 0-.037-.097.112.112 0 0 0-.037-.03c-.014-.01-.024-.017-.037-.017-.012 0-.018-.003-.024-.007 0-.017.017-.026.02-.03a.078.078 0 0 1 .032-.014l.02-.004H48a.178.178 0 0 1 .056.017.236.236 0 0 1 .098.108.33.33 0 0 1 .02.11c0 .015 0 .026-.003.043a.327.327 0 0 1-.108.196.497.497 0 0 1-.1.065.39.39 0 0 1-.221.025.422.422 0 0 1-.256-.129.535.535 0 0 1-.08-.099c-.009-.017-.016-.035-.03-.052a.231.231 0 0 0-.011-.034v.002l-.02-.057-.005-.024-.01-.047-.033.017c-.01.002-.018.003-.015.028a.57.57 0 0 0 .19.349c.087.079.198.123.316.128h.04c.031 0 .056-.005.083-.01.033-.006.065-.02.108-.036.023-.013.04-.023.057-.036l.005-.004a.393.393 0 0 0 .152-.193l.012-.033c.005-.022.01-.045.012-.065.002-.02.004-.043.002-.067a.287.287 0 0 0-.029-.115.288.288 0 0 0-.233-.19l-.043-.004a.163.163 0 0 0-.049.009l-.013.005-.026.008a.254.254 0 0 0-.061.044c-.01.013-.018.023-.026.036l-.005.01-.013.019a.178.178 0 0 0 0 .125.183.183 0 0 0 .056.064c.019.012.036.016.053.021l.014.003s.002 0 .002.003c-.002.013-.01.023-.027.038-.045.023-.103.006-.13-.006-.015-.01-.033-.02-.05-.038a.232.232 0 0 1-.05-.075.336.336 0 0 1-.021-.123l.001-.025a.334.334 0 0 1 .113-.197l.046-.04a.41.41 0 0 1 .408-.007c.054.025.098.06.137.105l.02.02a.468.468 0 0 1 .072.114l.013.034v-.002l.022.056.02.101.042-.045c.004-.007.007-.006.004-.022 0-.016-.012-.053-.012-.058l-.004-.015-.015-.046-.002-.01-.017-.04v-.002l-.018-.04-.029-.042c0-.003-.034-.043-.034-.043-.02-.027-.04-.044-.064-.064a.493.493 0 0 0-.398-.12"/>
        <path fill="#FEFEFE" d="M49.09 32.277a.239.239 0 0 0-.08.015c-.035.013-.07.026-.103.047-.024.011-.04.027-.06.041a.571.571 0 0 0-.076.082l-.017.029c-.009.019-.02.036-.025.058l-.013.035a.234.234 0 0 0-.012.063.335.335 0 0 0 .025.182c.005.017.015.035.021.054.041.056.088.096.144.118l.045.017a.34.34 0 0 0 .093.003.213.213 0 0 0 .147-.093.252.252 0 0 0 .03-.067l.002-.032a.158.158 0 0 0-.035-.097.185.185 0 0 0-.04-.03.066.066 0 0 0-.038-.017c-.009 0-.02-.003-.023-.007 0-.017.016-.026.02-.03.01-.007.018-.012.03-.014l.022-.004h.031c.02.003.038.009.053.017a.22.22 0 0 1 .05.035c.022.025.039.05.05.073a.29.29 0 0 1 .017.153.306.306 0 0 1-.11.196.403.403 0 0 1-.1.065.388.388 0 0 1-.221.025.423.423 0 0 1-.254-.129.434.434 0 0 1-.077-.099c-.011-.017-.024-.035-.03-.052a.791.791 0 0 1-.018-.034l.004.002-.02-.057-.004-.024-.012-.047-.031.017c-.011.002-.021.003-.019.028a.61.61 0 0 0 .19.349c.088.079.198.123.32.128h.04c.028 0 .053-.005.08-.01a.53.53 0 0 0 .11-.036c.02-.013.04-.023.056-.036l.007-.004a.408.408 0 0 0 .151-.193l.011-.033c.005-.022.012-.045.012-.065.003-.02.003-.043.003-.067a.315.315 0 0 0-.027-.115c-.008-.017-.016-.035-.025-.05a.293.293 0 0 0-.208-.14l-.044-.004a.145.145 0 0 0-.05.009l-.009.005-.03.008a.348.348 0 0 0-.064.044.322.322 0 0 0-.025.036l-.005.01-.01.019a.175.175 0 0 0 .001.125c.012.025.03.047.052.064.017.012.037.016.056.021l.012.003v.003c-.001.013-.009.023-.027.038-.047.023-.098.006-.126-.006a.222.222 0 0 1-.102-.113.258.258 0 0 1-.02-.123l.002-.025a.33.33 0 0 1 .11-.197l.05-.04a.406.406 0 0 1 .406-.007c.055.025.1.06.14.105l.015.02a.49.49 0 0 1 .074.114l.015.034-.002-.002.02.056.022.101.04-.045c.006-.007.007-.006.007-.022-.001-.016-.013-.053-.014-.058l-.003-.015-.015-.046-.003-.01-.018-.04v-.002l-.02-.04-.026-.042-.032-.043c-.02-.027-.043-.044-.063-.064a.505.505 0 0 0-.4-.12"/>
        <path fill="#FEFEFE" d="M50.268 32.277h-.002a.202.202 0 0 0-.077.015c-.036.013-.072.026-.103.047a.171.171 0 0 0-.058.041.41.41 0 0 0-.078.082l-.02.029c-.009.019-.019.036-.027.058l-.013.035-.01.063a.35.35 0 0 0 .025.182c.006.017.013.035.025.054.039.056.083.096.139.118l.044.017a.358.358 0 0 0 .096.003c.062-.012.117-.042.145-.093a.127.127 0 0 0 .028-.067c.006-.015.006-.02.006-.032a.132.132 0 0 0-.04-.097.07.07 0 0 0-.04-.03c-.011-.01-.02-.017-.033-.017a.028.028 0 0 1-.02-.007c0-.017.015-.026.016-.03a.135.135 0 0 1 .026-.014l.029-.004H50.352c.023.003.04.009.052.017a.196.196 0 0 1 .056.035c.018.025.038.05.05.073.01.036.017.071.017.11a.192.192 0 0 1-.005.043.307.307 0 0 1-.111.196.399.399 0 0 1-.092.065.4.4 0 0 1-.221.025.411.411 0 0 1-.258-.129.413.413 0 0 1-.08-.099l-.029-.052-.012-.034v.002l-.02-.057-.004-.024-.013-.047-.03.017c-.01.002-.023.003-.02.028.022.13.087.259.193.349.086.079.198.123.318.128h.034c.035 0 .057-.005.089-.01a.554.554 0 0 0 .104-.036.374.374 0 0 0 .058-.036l.01-.004a.4.4 0 0 0 .148-.193l.01-.033a.477.477 0 0 0 .014-.065c.001-.02.004-.043.001-.067a.446.446 0 0 0-.027-.115c-.01-.017-.013-.035-.025-.05a.283.283 0 0 0-.211-.14l-.046-.004a.1.1 0 0 0-.04.009l-.019.005-.024.008c-.018.012-.045.027-.062.044-.007.013-.017.023-.028.036l-.007.01-.009.019a.213.213 0 0 0 .002.125.197.197 0 0 0 .053.064c.016.012.04.016.056.021l.01.003s.002 0 0 .003c0 .013-.007.023-.022.038-.048.023-.104.006-.13-.006a.23.23 0 0 1-.102-.113.276.276 0 0 1-.017-.123l.001-.025a.3.3 0 0 1 .113-.197l.043-.04a.408.408 0 0 1 .407-.007c.057.025.103.06.14.105l.018.02c.03.038.05.072.072.114l.015.034v-.002l.02.056.023.101.037-.045c.004-.007.01-.006.008-.022-.004-.016-.012-.053-.015-.058l-.005-.015-.01-.046-.003-.01-.018-.04v-.002l-.023-.04-.024-.042c0-.003-.036-.043-.036-.043a.5.5 0 0 0-.458-.185"/>
        <path fill="#FEFEFE" d="M51.442 32.277h-.002a.204.204 0 0 0-.075.015c-.038.013-.072.026-.103.047a.27.27 0 0 0-.06.041.42.42 0 0 0-.074.082l-.02.029c-.013.019-.02.036-.03.058l-.009.035a.396.396 0 0 0-.016.063.415.415 0 0 0 .026.182c.01.017.015.035.028.054.037.056.08.096.138.118l.045.017a.343.343 0 0 0 .093.003.226.226 0 0 0 .15-.093.207.207 0 0 0 .025-.067c.002-.015.005-.02.005-.032a.138.138 0 0 0-.037-.097.105.105 0 0 0-.038-.03c-.011-.01-.024-.017-.036-.017-.014 0-.018-.003-.025-.007 0-.017.015-.026.022-.03a.07.07 0 0 1 .028-.014.445.445 0 0 1 .022-.004h.032a.176.176 0 0 1 .101.052c.023.025.041.05.052.073a.33.33 0 0 1 .021.11c0 .015 0 .026-.004.043a.319.319 0 0 1-.11.196.378.378 0 0 1-.101.065.384.384 0 0 1-.222.025.426.426 0 0 1-.252-.129.497.497 0 0 1-.108-.151l-.016-.034.001.002-.017-.057-.007-.024-.011-.047-.031.017c-.008.002-.021.003-.018.028a.58.58 0 0 0 .193.349c.086.079.196.123.317.128h.038c.03 0 .054-.005.08-.01.037-.006.068-.02.11-.036a.423.423 0 0 0 .058-.036l.005-.004a.393.393 0 0 0 .153-.193l.011-.033c.007-.022.008-.045.012-.065 0-.02.003-.043 0-.067a.323.323 0 0 0-.025-.115.17.17 0 0 0-.026-.05.287.287 0 0 0-.209-.14l-.042-.004a.15.15 0 0 0-.05.009l-.01.005-.03.008a.792.792 0 0 0-.064.044.142.142 0 0 0-.022.036l-.007.01-.01.019c-.017.049-.017.09 0 .125a.163.163 0 0 0 .052.064c.02.012.04.016.054.021l.015.003s.003 0 .003.003c-.004.013-.01.023-.029.038-.046.023-.1.006-.125-.006a.16.16 0 0 1-.052-.038.197.197 0 0 1-.05-.075.24.24 0 0 1-.02-.123l.003-.025c.01-.08.048-.15.109-.197l.049-.04a.406.406 0 0 1 .406-.007c.055.025.099.06.139.105l.014.02c.033.038.06.072.075.114l.015.034-.002-.002.019.056.023.101.04-.045c.002-.007.007-.006.007-.022a.46.46 0 0 1-.013-.058l-.005-.015a.845.845 0 0 0-.013-.046v-.01l-.019-.04-.002-.002-.02-.04-.027-.042a.658.658 0 0 0-.094-.107.505.505 0 0 0-.4-.12"/>
        <path fill="#FEFEFE" d="M52.617 32.277a.201.201 0 0 0-.075.015.528.528 0 0 0-.108.047c-.022.011-.04.027-.058.041a.679.679 0 0 0-.074.082l-.017.029c-.012.019-.022.036-.03.058l-.01.035a.453.453 0 0 0-.011.063.34.34 0 0 0 .021.182c.008.017.015.035.026.054a.31.31 0 0 0 .141.118l.046.017a.314.314 0 0 0 .089.003.224.224 0 0 0 .152-.093.177.177 0 0 0 .026-.067v-.032c0-.038-.01-.071-.032-.097a.142.142 0 0 0-.04-.03c-.012-.01-.022-.017-.038-.017-.01 0-.015-.003-.023-.007 0-.017.017-.026.022-.03a.067.067 0 0 1 .028-.014l.022-.004h.035a.174.174 0 0 1 .05.017.172.172 0 0 1 .05.035c.025.025.04.05.052.073a.35.35 0 0 1 .019.11c0 .015-.003.026-.003.043a.321.321 0 0 1-.11.196c-.031.024-.058.047-.098.065a.399.399 0 0 1-.224.025.416.416 0 0 1-.252-.129.434.434 0 0 1-.078-.099.543.543 0 0 1-.03-.052l-.017-.034v.002l-.016-.057-.006-.024-.013-.047-.028.017c-.011.002-.022.003-.019.028.022.13.082.259.19.349.087.079.2.123.319.128h.04c.03 0 .054-.005.08-.01.034-.006.066-.02.107-.036.024-.013.044-.023.059-.036l.006-.004a.394.394 0 0 0 .151-.193l.01-.033c.006-.022.012-.045.013-.065a.24.24 0 0 0 .004-.067.512.512 0 0 0-.027-.115.53.53 0 0 0-.026-.05.29.29 0 0 0-.209-.14l-.044-.004a.14.14 0 0 0-.048.009l-.01.005-.03.008a.252.252 0 0 0-.062.044.132.132 0 0 0-.025.036l-.006.01-.01.019a.174.174 0 0 0 0 .125c.011.025.03.047.051.064.02.012.037.016.055.021l.015.003s.002 0 .002.003c-.002.013-.011.023-.032.038-.045.023-.095.006-.125-.006a.304.304 0 0 1-.051-.038.188.188 0 0 1-.048-.075.303.303 0 0 1-.023-.123l.005-.025a.294.294 0 0 1 .11-.197l.048-.04a.408.408 0 0 1 .407-.007c.054.025.097.06.138.105l.016.02a.451.451 0 0 1 .073.114l.018.034v-.002l.015.056.023.101.04-.045c.008-.007.01-.006.008-.022 0-.016-.015-.053-.016-.058v-.015a.42.42 0 0 1-.015-.046l-.003-.01-.017-.04v-.002l-.023-.04-.026-.042a.438.438 0 0 0-.095-.107.502.502 0 0 0-.4-.12M46.739 33.319h-.004c-.024.006-.05.007-.074.014a.606.606 0 0 0-.108.048c-.02.015-.041.025-.06.042-.023.025-.048.046-.072.081l-.019.03c-.01.021-.02.038-.026.066 0-.004-.012.029-.012.029l-.015.063a.369.369 0 0 0 .027.184c.006.014.014.033.024.048.04.06.083.097.14.121l.046.017c.03.005.066.005.093.002a.229.229 0 0 0 .149-.094.213.213 0 0 0 .03-.096.158.158 0 0 0-.038-.101.145.145 0 0 0-.036-.029c-.017-.004-.022-.009-.038-.014l-.024-.006v-.004c0-.015.018-.025.021-.028.01-.01.019-.011.028-.013l.024-.006s.005 0 .008-.002l.021.002c.021.006.037.01.055.018a.255.255 0 0 1 .048.036.172.172 0 0 1 .05.076.208.208 0 0 1 .022.105c0 .016 0 .027-.002.042a.318.318 0 0 1-.113.197.386.386 0 0 1-.322.09.447.447 0 0 1-.252-.128.442.442 0 0 1-.078-.098c-.012-.017-.019-.032-.03-.054l-.017-.033h.004l-.017-.057-.006-.02-.013-.051-.033.017c-.008.006-.018.009-.016.025.024.134.085.26.19.355.088.08.198.124.317.127h.043a.296.296 0 0 0 .079-.01.371.371 0 0 0 .11-.038c.022-.012.039-.021.059-.035l.004-.005a.414.414 0 0 0 .153-.195c-.003.005.01-.032.01-.032.004-.022.006-.043.013-.06 0-.02.004-.046 0-.069a.4.4 0 0 0-.026-.115l-.024-.051a.31.31 0 0 0-.209-.14l-.045-.002a.148.148 0 0 0-.048.01l-.012.002-.028.012a.146.146 0 0 0-.063.042c-.011.012-.017.023-.024.033l-.007.012-.01.02a.174.174 0 0 0 0 .123.16.16 0 0 0 .053.064c.02.01.04.016.054.022l.017.003.001.003c-.002.01-.011.02-.032.036-.046.026-.099.007-.126-.004-.018-.011-.03-.022-.049-.037a.253.253 0 0 1-.05-.073.264.264 0 0 1-.02-.13v-.023a.323.323 0 0 1 .111-.196l.047-.038a.413.413 0 0 1 .408-.01c.054.029.1.062.137.106l.02.019a.474.474 0 0 1 .07.117l.018.033-.001-.001.015.054.025.1.04-.043c.005-.005.01-.005.005-.02 0-.02-.01-.054-.011-.061l-.004-.015-.012-.045-.005-.01-.015-.039-.001-.002-.024-.04-.028-.047-.032-.038c-.018-.027-.038-.045-.06-.067a.515.515 0 0 0-.398-.121"/>
        <path fill="#FEFEFE" d="M47.913 33.319c-.025.006-.048.007-.076.014a.641.641 0 0 0-.106.048c-.022.015-.043.025-.06.042-.025.025-.048.046-.073.081l-.019.03c-.011.021-.02.038-.027.066 0-.004-.013.029-.013.029a.227.227 0 0 0-.01.063.343.343 0 0 0 .048.232c.037.06.084.097.14.121l.044.017a.41.41 0 0 0 .093.002.224.224 0 0 0 .15-.094.145.145 0 0 0 .025-.068c.005-.01.005-.019.005-.028a.16.16 0 0 0-.037-.101c-.013-.012-.025-.023-.037-.029-.014-.004-.024-.009-.037-.014a.537.537 0 0 0-.024-.006v-.004c0-.015.017-.025.02-.028.01-.01.02-.011.032-.013l.02-.006s.005 0 .007-.002l.022.002c.022.006.04.01.056.018.015.008.03.022.047.036.025.023.04.047.05.076.013.034.02.064.02.105 0 .016 0 .027-.002.042a.348.348 0 0 1-.209.26.445.445 0 0 1-.476-.101.49.49 0 0 1-.08-.098c-.009-.017-.016-.032-.03-.054l-.011-.033-.02-.057-.005-.02-.01-.051-.033.017c-.01.006-.018.009-.015.025.02.134.083.26.19.355.087.08.198.124.316.127h.04c.031 0 .056-.003.083-.01a.403.403 0 0 0 .108-.038c.023-.012.04-.021.057-.035l.005-.005a.377.377 0 0 0 .152-.195c0 .005.012-.032.012-.032.005-.022.01-.043.012-.06.002-.02.004-.046.002-.069a.306.306 0 0 0-.029-.115c-.004-.02-.013-.035-.022-.051a.298.298 0 0 0-.21-.14l-.044-.002a.162.162 0 0 0-.049.01l-.013.002-.026.012a.147.147 0 0 0-.061.042l-.026.033-.005.012c0 .002-.013.02-.013.02a.17.17 0 0 0 0 .123c.013.03.033.045.056.064a.228.228 0 0 0 .053.022l.014.003.002.003c-.002.01-.01.02-.027.036-.045.026-.103.007-.13-.004-.015-.011-.033-.022-.05-.037a.306.306 0 0 1-.05-.073.37.37 0 0 1-.021-.13l.001-.023a.339.339 0 0 1 .113-.196l.046-.038a.415.415 0 0 1 .408-.01.447.447 0 0 1 .137.106l.02.019a.54.54 0 0 1 .072.117l.013.033v-.001l.022.054.02.1.042-.043c.004-.005.007-.005.004-.02 0-.02-.012-.054-.012-.061l-.004-.015-.015-.045-.002-.01-.017-.039v-.002l-.018-.04-.029-.047-.034-.038c-.02-.027-.04-.045-.064-.067a.508.508 0 0 0-.398-.121"/>
        <path fill="#FEFEFE" d="M49.09 33.319c-.024.006-.049.007-.08.014a.702.702 0 0 0-.103.048c-.024.015-.04.025-.06.042-.024.025-.05.046-.076.081l-.017.03c-.009.021-.02.038-.025.066a.192.192 0 0 0-.025.093.34.34 0 0 0 .025.183c.005.014.015.033.021.048.041.06.088.097.144.121l.045.017a.412.412 0 0 0 .093.002.22.22 0 0 0 .178-.162v-.028a.184.184 0 0 0-.034-.101c-.017-.012-.029-.023-.04-.029l-.038-.014c-.009-.003-.02-.004-.023-.006v-.004c0-.015.016-.025.02-.028a.053.053 0 0 1 .03-.013l.022-.006s.008 0 .01-.002l.021.002c.02.006.038.01.053.018.016.008.031.022.05.036a.217.217 0 0 1 .05.076.252.252 0 0 1 .017.147.304.304 0 0 1-.11.197.375.375 0 0 1-.321.09.446.446 0 0 1-.254-.128.404.404 0 0 1-.077-.098c-.011-.017-.024-.032-.03-.054l-.018-.033h.004l-.02-.057-.004-.02c-.003-.002-.012-.051-.012-.051l-.031.017c-.011.006-.021.009-.019.025.025.134.086.26.19.355.088.08.198.124.32.127h.04a.302.302 0 0 0 .08-.01.386.386 0 0 0 .11-.038c.02-.012.04-.021.056-.035l.007-.005a.39.39 0 0 0 .151-.195c0 .005.011-.032.011-.032.005-.022.012-.043.012-.06.003-.02.003-.046.003-.069a.338.338 0 0 0-.027-.115.304.304 0 0 0-.233-.192h-.044a.146.146 0 0 0-.05.008l-.009.003-.03.012a.176.176 0 0 0-.064.042l-.025.033-.005.012-.01.02a.167.167 0 0 0 .001.123c.012.03.03.045.052.064.017.01.037.016.056.022l.012.003v.003c-.001.01-.009.02-.027.036-.047.026-.098.007-.126-.004-.018-.011-.036-.022-.052-.037a.288.288 0 0 1-.05-.073.286.286 0 0 1-.02-.13l.002-.023a.335.335 0 0 1 .11-.196l.05-.038c.119-.073.269-.079.406-.01.055.029.1.062.14.106l.015.019a.567.567 0 0 1 .074.117l.015.033-.002-.001.02.054.022.1.04-.043c.006-.005.007-.005.007-.02-.001-.02-.013-.054-.014-.061l-.003-.015-.015-.045-.003-.01-.018-.039v-.002l-.02-.04-.026-.047-.032-.038c-.02-.027-.043-.045-.063-.067a.52.52 0 0 0-.4-.121"/>
        <path fill="#FEFEFE" d="M50.268 33.319h-.002c-.028.006-.05.007-.077.014a.57.57 0 0 0-.161.09c-.029.025-.053.046-.078.081l-.02.03c-.009.021-.019.038-.027.066 0-.004-.013.029-.013.029a.577.577 0 0 0-.01.063.356.356 0 0 0 .025.184c.006.014.013.033.025.048.039.06.083.097.139.121l.044.017a.433.433 0 0 0 .096.002c.062-.013.117-.043.145-.094a.12.12 0 0 0 .028-.068c.006-.01.006-.019.006-.028a.152.152 0 0 0-.04-.101.091.091 0 0 0-.04-.029l-.033-.014-.02-.006v-.004c0-.015.015-.025.016-.028.01-.01.02-.011.026-.013l.029-.006s.006 0 .006-.002l.02.002c.023.006.04.01.052.018a.363.363 0 0 1 .056.036.282.282 0 0 1 .05.076c.01.034.017.064.017.105a.18.18 0 0 1-.005.042.304.304 0 0 1-.111.197.289.289 0 0 1-.092.064.387.387 0 0 1-.221.026.432.432 0 0 1-.258-.128.386.386 0 0 1-.08-.098.37.37 0 0 1-.029-.054l-.012-.033-.02-.057-.004-.02c-.002-.002-.013-.051-.013-.051l-.03.017c-.01.006-.023.009-.02.025a.61.61 0 0 0 .193.355c.086.08.198.124.318.127h.034a.364.364 0 0 0 .089-.01.388.388 0 0 0 .162-.073l.01-.005a.383.383 0 0 0 .158-.227c.007-.022.01-.043.014-.06.001-.02.004-.046.001-.069a.493.493 0 0 0-.027-.115c-.01-.02-.013-.035-.025-.051a.292.292 0 0 0-.211-.14l-.046-.002a.099.099 0 0 0-.04.01l-.019.002-.024.012c-.018.009-.045.022-.062.042a.15.15 0 0 1-.028.033l-.007.012-.009.02a.204.204 0 0 0 .002.123c.012.03.033.045.053.064.016.01.04.016.056.022l.01.003v.003c0 .01-.007.02-.022.036-.048.026-.104.007-.13-.004-.016-.011-.033-.022-.05-.037a.434.434 0 0 1-.052-.073.306.306 0 0 1-.017-.13l.001-.023a.303.303 0 0 1 .113-.196l.043-.038a.413.413 0 0 1 .407-.01.407.407 0 0 1 .14.106l.018.019c.03.039.05.078.072.117l.015.033v-.001l.02.054.023.1.037-.043c.004-.005.01-.005.008-.02a.456.456 0 0 0-.015-.061l-.005-.015-.01-.045-.003-.01-.018-.039v-.002l-.023-.04-.024-.047-.036-.038c-.019-.027-.038-.045-.06-.067a.515.515 0 0 0-.398-.121"/>
        <path fill="#FEFEFE" d="M51.442 33.319h-.002c-.025.006-.049.007-.075.014a.544.544 0 0 0-.103.048c-.024.015-.044.025-.06.042-.026.025-.05.046-.074.081l-.02.03a.383.383 0 0 0-.03.066c0-.004-.009.029-.009.029a.269.269 0 0 0-.016.063.421.421 0 0 0 .026.184c.01.014.015.033.028.048a.29.29 0 0 0 .138.121l.045.017a.412.412 0 0 0 .093.002.233.233 0 0 0 .15-.094.19.19 0 0 0 .025-.068c.002-.01.005-.019.005-.028a.158.158 0 0 0-.037-.101.175.175 0 0 0-.038-.029l-.036-.014-.025-.006v-.004c0-.015.015-.025.022-.028.008-.01.019-.011.028-.013l.022-.006s.004 0 .007-.002l.025.002c.02.006.037.01.054.018.014.008.03.022.047.036a.199.199 0 0 1 .052.076.284.284 0 0 1 .021.105c0 .016 0 .027-.004.042a.316.316 0 0 1-.11.197.285.285 0 0 1-.101.064.37.37 0 0 1-.222.026.45.45 0 0 1-.252-.128.458.458 0 0 1-.078-.098c-.012-.017-.022-.032-.03-.054l-.016-.033h.001l-.017-.057-.007-.02c-.003-.002-.011-.051-.011-.051l-.031.017c-.008.006-.021.009-.018.025.023.134.084.26.193.355.086.08.196.124.317.127h.038c.03 0 .054-.003.08-.01a.367.367 0 0 0 .11-.038c.024-.012.04-.021.058-.035l.005-.005a.377.377 0 0 0 .153-.195c0 .005.011-.032.011-.032.007-.022.008-.043.012-.06 0-.02.003-.046 0-.069a.346.346 0 0 0-.025-.115.157.157 0 0 0-.026-.051.297.297 0 0 0-.209-.14l-.042-.002a.15.15 0 0 0-.05.01l-.01.002-.03.012a.245.245 0 0 0-.064.042c-.01.012-.016.023-.022.033l-.007.012-.01.02a.159.159 0 0 0 0 .123c.012.03.028.045.052.064.02.01.04.016.054.022l.015.003.003.003a.101.101 0 0 1-.029.036c-.046.026-.1.007-.125-.004a.254.254 0 0 1-.052-.037.246.246 0 0 1-.07-.204l.003-.022a.296.296 0 0 1 .109-.196l.049-.038a.411.411 0 0 1 .406-.01.47.47 0 0 1 .139.106l.014.019c.033.039.06.078.075.117l.015.033-.002-.001.019.054.023.1.04-.043c.002-.005.007-.005.007-.02a.64.64 0 0 1-.013-.061l-.005-.015-.013-.045v-.01l-.019-.039-.002-.002-.02-.04-.027-.047-.034-.038a.964.964 0 0 0-.06-.067.52.52 0 0 0-.4-.121"/>
        <path fill="#FEFEFE" d="M52.617 33.319c-.024.006-.049.007-.075.014a.669.669 0 0 0-.108.048c-.022.015-.04.025-.058.042-.024.025-.048.046-.074.081l-.017.03c-.012.021-.022.038-.03.066 0-.004-.01.029-.01.029a.324.324 0 0 0-.011.063c-.011.067 0 .127.021.184.008.014.015.033.026.048.04.06.084.097.141.121l.046.017a.378.378 0 0 0 .089.002.23.23 0 0 0 .152-.094.164.164 0 0 0 .026-.068v-.028c0-.037-.01-.07-.032-.101-.015-.012-.029-.023-.04-.029l-.038-.014a.125.125 0 0 0-.023-.006v-.004c0-.015.017-.025.022-.028.009-.01.017-.011.028-.013l.022-.006s.007 0 .01-.002l.025.002c.017.006.035.01.05.018.018.008.033.022.05.036.025.023.04.047.052.076.011.034.019.064.019.105 0 .016-.003.027-.003.042a.318.318 0 0 1-.11.197c-.031.024-.058.05-.098.064a.439.439 0 0 1-.475-.101.404.404 0 0 1-.079-.099.294.294 0 0 1-.03-.054l-.017-.033-.016-.057-.006-.02-.013-.051-.028.017c-.011.006-.022.009-.019.025a.59.59 0 0 0 .19.355c.087.08.2.124.319.127h.04c.03 0 .054-.003.08-.01a.383.383 0 0 0 .107-.038c.024-.012.044-.021.059-.035l.006-.005a.378.378 0 0 0 .161-.227c.006-.022.012-.043.013-.06.004-.02.006-.046.004-.069a.576.576 0 0 0-.027-.115c-.007-.02-.017-.035-.026-.051a.301.301 0 0 0-.209-.14l-.044-.002a.14.14 0 0 0-.048.01l-.01.002-.03.012a.147.147 0 0 0-.062.042.151.151 0 0 0-.025.033l-.006.012-.01.02a.167.167 0 0 0 0 .123c.011.03.03.045.051.064.02.01.037.016.055.022l.015.003.002.003c-.002.01-.011.02-.032.036-.045.026-.095.007-.125-.004-.018-.011-.03-.022-.051-.037a.23.23 0 0 1-.048-.073.333.333 0 0 1-.023-.13l.005-.023a.297.297 0 0 1 .11-.196l.048-.038a.413.413 0 0 1 .407-.01.468.468 0 0 1 .138.106l.016.019a.517.517 0 0 1 .073.117l.018.033v-.001l.015.054.023.1.04-.043c.008-.005.01-.005.008-.02 0-.02-.015-.054-.016-.061v-.015c-.003 0-.015-.045-.015-.045l-.003-.01-.017-.039v-.002l-.023-.04-.026-.047-.032-.038a.517.517 0 0 0-.463-.188M46.739 34.364h-.004c-.024.004-.05.006-.074.013a.466.466 0 0 0-.108.048c-.02.016-.041.028-.06.042a.448.448 0 0 0-.072.084l-.019.029a.315.315 0 0 0-.026.06l-.012.031-.015.067a.372.372 0 0 0 .027.18c.006.017.014.031.024.05a.31.31 0 0 0 .14.122l.046.011c.03.01.066.011.093.005a.203.203 0 0 0 .18-.19.14.14 0 0 0-.039-.096.091.091 0 0 0-.036-.03c-.017-.006-.022-.01-.038-.017-.012-.004-.02-.004-.024-.01 0-.01.018-.025.021-.025a.065.065 0 0 1 .028-.017h.024l.008-.005.021.004c.021.001.037.006.055.015a.211.211 0 0 1 .098.111.215.215 0 0 1 .022.103c0 .016 0 .028-.002.044a.319.319 0 0 1-.113.199.268.268 0 0 1-.097.063.435.435 0 0 1-.224.029.45.45 0 0 1-.253-.131.48.48 0 0 1-.078-.098c-.012-.016-.019-.034-.03-.056l-.017-.034.004.003-.017-.055-.006-.023-.013-.048-.033.015c-.008.002-.018.002-.016.027.024.131.085.26.19.358a.528.528 0 0 0 .317.123h.043a1.03 1.03 0 0 0 .079-.007c.034-.012.069-.024.11-.042a.35.35 0 0 0 .059-.037l.004-.002a.428.428 0 0 0 .153-.191l.01-.039c.004-.02.006-.039.013-.062 0-.017.004-.04 0-.064a.371.371 0 0 0-.05-.168c-.055-.082-.128-.13-.209-.135l-.045-.002a.218.218 0 0 0-.048.005h-.012l-.028.012a.21.21 0 0 0-.063.047c-.011.01-.017.02-.024.03l-.007.013-.01.02a.183.183 0 0 0 0 .126c.013.024.03.045.053.055.02.018.04.022.054.025h.017l.001.009c-.002.01-.011.02-.032.035-.046.028-.099.006-.126-.003a.245.245 0 0 1-.049-.041.191.191 0 0 1-.05-.071.243.243 0 0 1-.02-.125v-.023a.333.333 0 0 1 .111-.2l.047-.037a.4.4 0 0 1 .408-.009.44.44 0 0 1 .157.124c.031.04.054.077.07.115l.018.036-.001-.002.015.054.025.103.04-.045c.005-.01.01-.01.005-.02 0-.022-.01-.055-.011-.06l-.004-.016a.799.799 0 0 0-.012-.047l-.005-.006-.015-.043h-.001l-.024-.04c0-.004-.028-.046-.028-.046 0-.003-.032-.04-.032-.04a.506.506 0 0 0-.458-.187"/>
        <path fill="#FEFEFE" d="M47.913 34.364c-.025.004-.048.006-.076.013a.484.484 0 0 0-.106.048c-.022.016-.043.028-.06.042a.43.43 0 0 0-.073.084l-.019.029a.273.273 0 0 0-.027.06l-.013.031a.26.26 0 0 0-.01.067c-.01.06 0 .121.023.18.004.017.015.031.025.05a.304.304 0 0 0 .14.122l.044.011c.035.01.062.011.093.005a.199.199 0 0 0 .15-.093.13.13 0 0 0 .025-.067c.005-.007.005-.022.005-.03a.14.14 0 0 0-.037-.096.11.11 0 0 0-.037-.03 6.15 6.15 0 0 1-.037-.017c-.012-.004-.018-.004-.024-.01 0-.01.017-.025.02-.025.01-.008.02-.015.032-.017h.02l.007-.005.022.004c.022.001.04.006.056.015a.215.215 0 0 1 .098.111.3.3 0 0 1 .02.103c0 .016 0 .028-.003.044a.324.324 0 0 1-.108.199.307.307 0 0 1-.1.063c-.07.029-.143.04-.221.029a.447.447 0 0 1-.256-.131.538.538 0 0 1-.08-.098c-.009-.016-.016-.034-.03-.056l-.011-.034v.003l-.02-.055-.005-.023a1.47 1.47 0 0 0-.01-.048l-.033.015c-.01.002-.018.002-.015.027.02.131.083.26.19.358a.519.519 0 0 0 .316.123h.04c.031-.002.056-.003.083-.007.033-.012.065-.024.108-.042a.218.218 0 0 0 .057-.037l.005-.002a.388.388 0 0 0 .152-.191l.012-.039c.005-.02.01-.039.012-.062.002-.017.004-.04.002-.064a.288.288 0 0 0-.029-.115c-.004-.022-.013-.037-.022-.053a.268.268 0 0 0-.21-.135l-.044-.002a.236.236 0 0 0-.049.005h-.013l-.026.012a.216.216 0 0 0-.061.047.24.24 0 0 0-.026.03l-.005.013-.013.02a.179.179 0 0 0 0 .126.128.128 0 0 0 .056.055.093.093 0 0 0 .053.025h.014l.002.009c-.002.01-.01.02-.027.035-.045.028-.103.006-.13-.003-.015-.012-.033-.021-.05-.041-.022-.025-.04-.043-.05-.071a.342.342 0 0 1-.02-.148.35.35 0 0 1 .113-.2l.046-.037a.402.402 0 0 1 .408-.009.456.456 0 0 1 .156.124c.033.04.055.077.073.115l.013.036v-.002l.022.054.02.103.042-.045c.004-.01.007-.01.004-.02 0-.022-.012-.055-.012-.06l-.004-.016-.015-.047-.002-.006-.017-.043-.018-.04-.029-.046a.443.443 0 0 0-.034-.04.5.5 0 0 0-.462-.187"/>
        <path fill="#FEFEFE" d="M49.09 34.364c-.024.004-.049.006-.08.013a.513.513 0 0 0-.103.048l-.06.042a.472.472 0 0 0-.076.084l-.017.029a.28.28 0 0 0-.025.06l-.013.031a.219.219 0 0 0-.012.067c-.008.06 0 .121.025.18.005.017.015.031.021.05.041.058.088.1.144.122l.045.011a.19.19 0 0 0 .093.005.195.195 0 0 0 .147-.093.186.186 0 0 0 .03-.067l.002-.03a.16.16 0 0 0-.035-.096c-.017-.014-.029-.026-.04-.03-.012-.006-.026-.01-.038-.017-.009-.004-.02-.004-.023-.01 0-.01.016-.025.016-.025.014-.008.022-.015.033-.017h.023l.01-.005.021.004c.02.001.038.006.053.015.016.009.031.018.05.034a.263.263 0 0 1 .067.224.304.304 0 0 1-.11.199.268.268 0 0 1-.1.063.423.423 0 0 1-.221.029.449.449 0 0 1-.254-.131.435.435 0 0 1-.077-.098c-.011-.016-.024-.034-.03-.056l-.018-.034.004.003-.02-.055-.004-.023c-.003-.002-.012-.048-.012-.048l-.031.015c-.011.002-.021.002-.019.027.025.131.086.26.19.358a.527.527 0 0 0 .32.123h.04c.028-.002.053-.003.08-.007.034-.012.069-.024.11-.042.02-.012.04-.022.056-.037l.007-.002a.402.402 0 0 0 .151-.191l.011-.039c.005-.02.012-.039.012-.062.003-.017.003-.04.003-.064a.317.317 0 0 0-.027-.115.318.318 0 0 0-.025-.053c-.053-.082-.128-.13-.208-.135l-.044-.002a.221.221 0 0 0-.05.005h-.009l-.03.012a.282.282 0 0 0-.064.047c-.01.01-.017.02-.025.03l-.005.013-.01.02a.176.176 0 0 0 .001.126c.012.024.03.045.052.055.017.018.037.022.056.025h.012v.009c-.001.01-.009.02-.027.035-.047.028-.098.006-.126-.003-.018-.012-.036-.021-.052-.041-.022-.025-.04-.043-.05-.071a.263.263 0 0 1-.02-.125l.002-.023a.345.345 0 0 1 .11-.2l.05-.037c.119-.077.269-.08.406-.009.055.025.1.062.14.102 0 .002.015.022.015.022.032.04.056.077.074.115l.015.036-.002-.002.02.054.022.103.04-.045c.006-.01.007-.01.007-.02-.001-.022-.013-.055-.014-.06l-.003-.016c0-.004-.015-.047-.015-.047l-.003-.006-.018-.043-.02-.04a.444.444 0 0 0-.026-.046l-.032-.04c-.02-.026-.043-.046-.063-.066a.511.511 0 0 0-.4-.121"/>
        <path fill="#FEFEFE" d="M50.268 34.364h-.002c-.028.004-.05.006-.077.013a.438.438 0 0 0-.161.09.358.358 0 0 0-.078.084l-.02.029a.814.814 0 0 0-.027.06l-.013.031a.715.715 0 0 0-.01.067.357.357 0 0 0 .05.23.31.31 0 0 0 .139.122l.044.011c.037.01.063.011.096.005a.185.185 0 0 0 .145-.093.11.11 0 0 0 .028-.067c.006-.007.006-.022.006-.03a.134.134 0 0 0-.04-.096c-.01-.014-.022-.026-.04-.03a.632.632 0 0 0-.033-.017c-.01-.004-.016-.004-.02-.01 0-.01.015-.025.015-.025.012-.008.02-.015.027-.017h.029l.006-.005.02.004c.023.001.04.006.052.015a.24.24 0 0 1 .056.034c.018.025.038.051.05.077.01.034.017.069.017.103a.198.198 0 0 1-.005.044.305.305 0 0 1-.111.199.257.257 0 0 1-.092.063.434.434 0 0 1-.479-.102.414.414 0 0 1-.109-.154l-.012-.034v.003l-.02-.055-.004-.023a.599.599 0 0 1-.013-.048l-.03.015c-.01.002-.023.002-.02.027.022.131.087.26.193.358a.52.52 0 0 0 .318.123h.034a1.25 1.25 0 0 0 .089-.007c.027-.012.066-.024.104-.042a.233.233 0 0 0 .058-.037l.01-.002a.394.394 0 0 0 .148-.191l.01-.039a.361.361 0 0 0 .014-.062c.001-.017.004-.04.001-.064a.45.45 0 0 0-.027-.115c-.01-.022-.013-.037-.025-.053a.264.264 0 0 0-.211-.135l-.046-.002a.144.144 0 0 0-.04.005h-.019l-.024.012c-.018.012-.045.029-.062.047a.216.216 0 0 1-.028.03l-.007.013-.009.02a.214.214 0 0 0 .002.126.133.133 0 0 0 .053.055c.016.018.04.022.056.025h.01v.009c0 .01-.007.02-.022.035-.048.028-.104.006-.13-.003-.016-.012-.033-.021-.05-.041a.28.28 0 0 1-.052-.071.281.281 0 0 1-.017-.125l.001-.023a.312.312 0 0 1 .113-.2l.043-.037a.4.4 0 0 1 .407-.009.413.413 0 0 1 .158.124c.03.04.05.077.072.115l.015.036v-.002l.02.054.023.103.037-.045c.004-.01.01-.01.008-.02a.344.344 0 0 0-.015-.06l-.005-.016a.927.927 0 0 0-.01-.047l-.003-.006-.018-.043-.023-.04c0-.004-.024-.046-.024-.046 0-.003-.036-.04-.036-.04a.506.506 0 0 0-.458-.187"/>
        <path fill="#FEFEFE" d="M51.442 34.364h-.002c-.025.004-.049.006-.075.013a.422.422 0 0 0-.103.048c-.024.016-.044.028-.06.042a.365.365 0 0 0-.074.084l-.02.029c-.013.017-.02.039-.03.06l-.009.031a.32.32 0 0 0-.016.067.427.427 0 0 0 .026.18c.01.017.015.031.028.05a.29.29 0 0 0 .138.122l.045.011a.19.19 0 0 0 .093.005.206.206 0 0 0 .15-.093.165.165 0 0 0 .025-.067.158.158 0 0 0 .005-.03.139.139 0 0 0-.037-.096.103.103 0 0 0-.038-.03c-.011-.006-.024-.01-.036-.017-.014-.004-.018-.004-.025-.01 0-.01.015-.025.022-.025a.061.061 0 0 1 .028-.017h.022l.007-.005.025.004c.02.001.037.006.054.015.014.009.03.018.047.034a.253.253 0 0 1 .073.18c0 .016 0 .028-.004.044a.316.316 0 0 1-.11.199.258.258 0 0 1-.101.063c-.066.029-.14.04-.222.029a.5.5 0 0 1-.36-.284l-.016-.035.001.003-.017-.055-.007-.023c-.003-.002-.011-.048-.011-.048l-.031.015c-.008.002-.021.002-.018.027.023.131.084.26.193.358a.518.518 0 0 0 .317.123h.038a.953.953 0 0 0 .08-.007c.037-.012.068-.024.11-.042a.25.25 0 0 0 .058-.037l.005-.002a.387.387 0 0 0 .153-.191l.011-.039c.007-.02.008-.039.012-.062 0-.017.003-.04 0-.064a.325.325 0 0 0-.025-.115.14.14 0 0 0-.026-.053.267.267 0 0 0-.209-.135l-.042-.002a.224.224 0 0 0-.05.005h-.01l-.03.012a.515.515 0 0 0-.064.047c-.01.01-.016.02-.022.03l-.007.013-.01.02a.167.167 0 0 0 0 .126.116.116 0 0 0 .052.055c.02.018.04.022.054.025h.015l.003.009c-.004.01-.01.02-.029.035-.046.028-.1.006-.125-.003-.02-.012-.037-.021-.052-.041-.024-.025-.041-.043-.05-.071a.245.245 0 0 1-.02-.125l.003-.023a.305.305 0 0 1 .109-.2l.049-.037a.399.399 0 0 1 .406-.009.48.48 0 0 1 .139.102c0 .002.014.022.014.022.033.04.06.077.075.115l.015.036-.002-.002.019.054.023.103.04-.045c.002-.01.007-.01.007-.02-.005-.022-.013-.055-.013-.06l-.005-.016c0-.004-.013-.047-.013-.047v-.006l-.019-.043h-.002l-.02-.04a.441.441 0 0 0-.027-.046c0-.003-.034-.04-.034-.04-.022-.026-.039-.046-.06-.066a.51.51 0 0 0-.4-.121"/>
        <path fill="#FEFEFE" d="M52.617 34.364c-.024.004-.049.006-.075.013a.504.504 0 0 0-.108.048l-.058.042a.54.54 0 0 0-.074.084l-.017.029a.345.345 0 0 0-.03.06l-.01.031a.382.382 0 0 0-.011.067c-.011.06 0 .121.021.18l.026.05c.04.058.084.1.141.122l.046.011c.031.01.062.011.089.005a.205.205 0 0 0 .152-.093.145.145 0 0 0 .026-.067v-.03c0-.036-.01-.07-.032-.096a.138.138 0 0 0-.04-.03l-.038-.017c-.01-.004-.015-.004-.023-.01 0-.01.017-.025.022-.025.009-.008.017-.015.028-.017h.022s.007-.005.01-.005l.025.004c.017.001.035.006.05.015a.21.21 0 0 1 .05.034.26.26 0 0 1 .052.077c.011.034.019.069.019.103 0 .016-.003.028-.003.044a.319.319 0 0 1-.11.199.292.292 0 0 1-.098.063.435.435 0 0 1-.224.029.442.442 0 0 1-.252-.131.436.436 0 0 1-.078-.098.277.277 0 0 1-.03-.056l-.017-.034v.003l-.016-.055-.006-.023-.013-.048-.028.015c-.011.002-.022.002-.019.027.022.131.082.26.19.358.087.074.2.118.319.123h.04a.963.963 0 0 0 .08-.007c.034-.012.066-.024.107-.042.024-.012.044-.022.059-.037l.006-.002a.389.389 0 0 0 .151-.191l.01-.039c.006-.02.012-.039.013-.062.004-.017.006-.04.004-.064a.518.518 0 0 0-.027-.115c-.007-.022-.017-.037-.026-.053a.27.27 0 0 0-.209-.135l-.044-.002a.208.208 0 0 0-.048.005h-.01l-.03.012a.215.215 0 0 0-.062.047.102.102 0 0 0-.025.03l-.006.013-.01.02a.175.175 0 0 0 0 .126c.011.024.03.045.051.055a.1.1 0 0 0 .055.025h.015l.002.009c-.002.01-.011.02-.032.035-.045.028-.095.006-.125-.003a.343.343 0 0 1-.051-.041.177.177 0 0 1-.048-.071.308.308 0 0 1-.023-.125l.005-.023a.306.306 0 0 1 .11-.2l.048-.037a.4.4 0 0 1 .407-.009.477.477 0 0 1 .138.102.59.59 0 0 1 .09.137l.017.036v-.002l.015.054.023.103.04-.045c.008-.01.01-.01.008-.02 0-.022-.015-.055-.016-.06v-.016c-.003-.004-.015-.047-.015-.047l-.003-.006-.017-.043-.023-.04a.442.442 0 0 0-.026-.046l-.032-.04a.508.508 0 0 0-.463-.187M46.739 35.407h-.004c-.024 0-.05.008-.074.014a.714.714 0 0 0-.108.047c-.02.017-.041.03-.06.044-.023.023-.048.045-.072.08l-.019.03a.27.27 0 0 0-.026.063l-.012.032-.015.062a.381.381 0 0 0 .027.184c.006.014.014.035.024.05.04.057.083.098.14.121l.046.014a.25.25 0 0 0 .093.003.221.221 0 0 0 .149-.094.219.219 0 0 0 .027-.064c.002-.012.004-.022.004-.03a.156.156 0 0 0-.039-.104c-.01-.012-.025-.017-.036-.028a.115.115 0 0 0-.038-.013.358.358 0 0 0-.024-.008c0-.015.018-.03.021-.031a.064.064 0 0 1 .028-.015l.024-.006h.029c.021.006.037.01.055.02a.132.132 0 0 1 .048.036c.023.025.042.045.05.076.017.03.022.07.022.103 0 .015 0 .03-.002.042a.335.335 0 0 1-.113.203.486.486 0 0 1-.097.063.442.442 0 0 1-.224.027.461.461 0 0 1-.253-.131.656.656 0 0 1-.078-.096c-.012-.02-.019-.036-.03-.06a.358.358 0 0 1-.017-.033l.004.004-.017-.053-.006-.022-.013-.053-.033.017c-.008.003-.018.005-.016.025a.618.618 0 0 0 .19.356.547.547 0 0 0 .317.128h.043c.026-.005.055-.007.079-.014a.378.378 0 0 0 .11-.037c.022-.008.039-.02.059-.035l.004-.003a.43.43 0 0 0 .153-.195l.01-.035c.004-.017.006-.037.013-.059 0-.024.004-.044 0-.066a.388.388 0 0 0-.026-.119c-.01-.016-.016-.035-.024-.05a.297.297 0 0 0-.209-.137l-.045-.003a.204.204 0 0 0-.048.007l-.012.006-.028.01a.164.164 0 0 0-.063.04.123.123 0 0 0-.024.036l-.007.01-.01.018a.185.185 0 0 0 0 .127c.013.028.03.048.053.061.02.013.04.017.054.021l.017.005.001.001c-.002.014-.011.025-.032.036-.046.03-.099.01-.126-.002-.018-.01-.03-.021-.049-.036a.221.221 0 0 1-.05-.077.242.242 0 0 1-.02-.125v-.02a.317.317 0 0 1 .111-.2l.047-.037a.405.405 0 0 1 .408-.012c.054.029.1.062.137.107.006.001.02.02.02.02.031.039.054.075.07.113l.018.037h-.001l.015.052.025.104.04-.048c.005-.007.01-.007.005-.021 0-.015-.01-.053-.011-.059l-.004-.013a.93.93 0 0 0-.012-.05l-.005-.006c0-.004-.015-.041-.015-.041l-.001-.004-.024-.037-.028-.043-.032-.045a.506.506 0 0 0-.458-.185"/>
        <path fill="#FEFEFE" d="M47.913 35.407c-.025 0-.048.008-.076.014a.767.767 0 0 0-.106.047c-.022.017-.043.03-.06.044a.523.523 0 0 0-.073.08l-.019.03a.24.24 0 0 0-.027.063l-.013.032a.232.232 0 0 0-.01.062.352.352 0 0 0 .048.234.31.31 0 0 0 .14.121l.044.014a.253.253 0 0 0 .093.003.216.216 0 0 0 .15-.094.143.143 0 0 0 .025-.064c.005-.012.005-.022.005-.03a.157.157 0 0 0-.037-.104c-.013-.012-.025-.017-.037-.028-.014-.008-.024-.01-.037-.013l-.024-.008c0-.015.017-.03.02-.031a.066.066 0 0 1 .032-.015l.02-.006H48c.022.006.04.01.056.02a.169.169 0 0 1 .047.036c.025.025.04.045.05.076.013.03.02.07.02.103 0 .015 0 .03-.002.042a.341.341 0 0 1-.108.203c-.029.02-.063.046-.1.063a.433.433 0 0 1-.477-.104.772.772 0 0 1-.08-.096c-.009-.02-.016-.036-.03-.06a.487.487 0 0 0-.011-.033v.004l-.02-.053-.005-.022-.01-.053-.033.017c-.01.003-.018.005-.015.025.02.134.083.263.19.356a.537.537 0 0 0 .316.128h.04c.031-.005.056-.007.083-.014a.41.41 0 0 0 .165-.072l.005-.003a.39.39 0 0 0 .152-.195l.012-.035c.005-.017.01-.037.012-.059.002-.024.004-.044.002-.066a.302.302 0 0 0-.029-.119.287.287 0 0 0-.233-.187l-.043-.003c-.017 0-.032.003-.049.007l-.013.006-.026.01a.166.166 0 0 0-.087.076l-.005.01-.013.018a.181.181 0 0 0 0 .127.137.137 0 0 0 .056.061c.019.013.036.017.053.021l.014.005.002.001c-.002.014-.01.025-.027.036-.045.03-.103.01-.13-.002a.475.475 0 0 1-.05-.036.259.259 0 0 1-.05-.077.337.337 0 0 1-.021-.125l.001-.02a.331.331 0 0 1 .113-.2l.046-.037a.406.406 0 0 1 .408-.012.463.463 0 0 1 .156.127c.033.039.055.075.073.113l.013.037.022.052.02.104.042-.048c.004-.007.007-.007.004-.021 0-.015-.012-.053-.012-.059l-.004-.013-.015-.05-.002-.006a.408.408 0 0 0-.017-.041v-.004l-.018-.037-.029-.043-.034-.045a.596.596 0 0 0-.064-.064.499.499 0 0 0-.398-.121"/>
        <path fill="#FEFEFE" d="M49.09 35.407c-.024 0-.049.008-.08.014a.86.86 0 0 0-.103.047l-.06.044c-.024.023-.05.045-.076.08l-.017.03c-.009.019-.02.038-.025.063l-.013.032a.196.196 0 0 0-.012.062.35.35 0 0 0 .025.184l.021.05c.041.057.088.098.144.121l.045.014a.254.254 0 0 0 .093.003.212.212 0 0 0 .147-.094.233.233 0 0 0 .03-.064l.002-.03a.18.18 0 0 0-.035-.104c-.017-.012-.029-.017-.04-.028-.012-.008-.026-.01-.038-.013l-.023-.008c0-.015.016-.03.02-.031.01-.008.018-.013.03-.015l.022-.006h.031c.02.006.038.01.053.02.016.006.031.019.05.036a.262.262 0 0 1 .067.221.32.32 0 0 1-.11.203.475.475 0 0 1-.1.063.43.43 0 0 1-.475-.104.573.573 0 0 1-.077-.096c-.011-.02-.024-.036-.03-.06 0 .004-.018-.033-.018-.033l.004.004-.02-.053-.004-.022-.012-.053-.031.017c-.011.003-.021.005-.019.025a.627.627 0 0 0 .19.356.545.545 0 0 0 .32.128h.04c.028-.005.053-.007.08-.014a.393.393 0 0 0 .166-.072l.007-.003a.405.405 0 0 0 .151-.195l.011-.035c.005-.017.012-.037.012-.059.003-.024.003-.044.003-.066a.331.331 0 0 0-.027-.119c-.008-.016-.016-.035-.025-.05a.292.292 0 0 0-.208-.137l-.044-.003c-.022 0-.035.003-.05.007l-.009.006-.03.01a.204.204 0 0 0-.064.04.18.18 0 0 0-.025.036l-.005.01-.01.018a.178.178 0 0 0 .001.127c.012.028.03.048.052.061.017.013.037.017.056.021l.012.005V36c-.001.014-.009.025-.027.036-.047.03-.098.01-.126-.002a.248.248 0 0 1-.052-.036.262.262 0 0 1-.07-.202l.002-.02a.327.327 0 0 1 .11-.2l.05-.037c.119-.077.269-.08.406-.012a.502.502 0 0 1 .155.127c.032.039.056.075.074.113l.015.037h-.002l.02.052.022.104.04-.048c.006-.007.007-.007.007-.021-.001-.015-.013-.053-.014-.059l-.003-.013c0-.004-.015-.05-.015-.05l-.003-.006a.402.402 0 0 0-.018-.041v-.004l-.02-.037-.026-.043-.032-.045a.51.51 0 0 0-.464-.185"/>
        <path fill="#FEFEFE" d="M50.268 35.407h-.002c-.028 0-.05.008-.077.014a.67.67 0 0 0-.103.047.364.364 0 0 0-.058.044.417.417 0 0 0-.078.08l-.02.03c-.009.019-.019.038-.027.063l-.013.032-.01.062a.366.366 0 0 0 .025.184c.006.014.013.035.025.05.039.057.083.098.139.121l.044.014a.267.267 0 0 0 .096.003c.062-.013.117-.04.145-.094a.118.118 0 0 0 .028-.064c.006-.012.006-.022.006-.03a.15.15 0 0 0-.04-.104c-.01-.012-.022-.017-.04-.028a.082.082 0 0 0-.033-.013l-.02-.008c0-.015.015-.03.016-.031a.103.103 0 0 1 .026-.015l.029-.006H50.352c.023.006.04.01.052.02a.17.17 0 0 1 .056.036c.018.025.038.045.05.076.01.03.017.07.017.103a.15.15 0 0 1-.005.042.32.32 0 0 1-.111.203.474.474 0 0 1-.092.063.444.444 0 0 1-.479-.104.537.537 0 0 1-.08-.096c-.01-.02-.019-.036-.029-.06 0 .004-.012-.033-.012-.033v.004l-.02-.053-.004-.022-.013-.053-.03.017c-.01.003-.023.005-.02.025a.61.61 0 0 0 .193.356.538.538 0 0 0 .318.128h.034c.035-.005.057-.007.089-.014.027-.008.066-.015.104-.037a.173.173 0 0 0 .058-.035l.01-.003a.397.397 0 0 0 .148-.195l.01-.035a.302.302 0 0 0 .014-.059c.001-.024.004-.044.001-.066a.47.47 0 0 0-.027-.119c-.01-.016-.013-.035-.025-.05a.282.282 0 0 0-.211-.137l-.046-.003a.135.135 0 0 0-.04.007l-.019.006-.024.01c-.018.008-.045.022-.062.04-.007.012-.017.022-.028.036l-.007.01-.009.018a.217.217 0 0 0 .002.127.144.144 0 0 0 .053.061c.016.013.04.017.056.021l.01.005.002.001c-.002.014-.009.025-.024.036-.048.03-.104.01-.13-.002a.346.346 0 0 1-.05-.036.336.336 0 0 1-.052-.077.28.28 0 0 1-.017-.125l.001-.02a.298.298 0 0 1 .113-.2l.043-.037a.404.404 0 0 1 .407-.012.42.42 0 0 1 .14.107l.018.02c.03.039.05.075.072.113l.015.037.02.052.023.104.037-.048c.004-.007.01-.007.008-.021-.004-.015-.012-.053-.015-.059l-.005-.013-.01-.05-.003-.006c0-.004-.018-.041-.018-.041v-.004l-.023-.037-.024-.043-.036-.045a.505.505 0 0 0-.458-.185"/>
        <path fill="#FEFEFE" d="M51.442 35.407h-.002c-.025 0-.049.008-.075.014a.636.636 0 0 0-.103.047c-.024.017-.044.03-.06.044-.026.023-.05.045-.074.08l-.02.03c-.013.019-.02.038-.03.063l-.009.032a.291.291 0 0 0-.016.062.436.436 0 0 0 .026.184c.01.014.015.035.028.05.037.057.08.098.138.121l.045.014a.255.255 0 0 0 .093.003.225.225 0 0 0 .15-.094.19.19 0 0 0 .025-.064c.002-.012.005-.022.005-.03a.156.156 0 0 0-.037-.104c-.01-.012-.028-.017-.038-.028-.011-.008-.024-.01-.036-.013-.014-.004-.018-.007-.025-.008 0-.015.015-.03.022-.031a.06.06 0 0 1 .028-.015l.022-.006h.032c.02.006.037.01.054.02a.16.16 0 0 1 .047.036.218.218 0 0 1 .052.076c.012.03.021.07.021.103 0 .015 0 .03-.004.042a.332.332 0 0 1-.11.203c-.028.02-.06.046-.101.063a.424.424 0 0 1-.474-.104.693.693 0 0 1-.078-.096c-.012-.02-.022-.036-.03-.06 0 .004-.016-.033-.016-.033l.001.004-.017-.053-.007-.022-.011-.053-.031.017c-.008.003-.021.005-.018.025a.597.597 0 0 0 .193.356.535.535 0 0 0 .317.128h.038c.03-.005.054-.007.08-.014a.374.374 0 0 0 .11-.037.182.182 0 0 0 .058-.035l.005-.003a.39.39 0 0 0 .153-.195l.011-.035c.007-.017.008-.037.012-.059 0-.024.003-.044 0-.066a.34.34 0 0 0-.05-.17.286.286 0 0 0-.21-.136l-.042-.003a.206.206 0 0 0-.05.007l-.01.006-.03.01a.303.303 0 0 0-.064.04.106.106 0 0 0-.022.036l-.007.01-.01.018c-.017.05-.017.093 0 .127a.125.125 0 0 0 .052.061c.02.013.04.017.054.021l.015.005.003.001a.056.056 0 0 1-.029.036c-.046.03-.1.01-.125-.002a.205.205 0 0 1-.103-.113.244.244 0 0 1-.018-.125l.002-.02a.291.291 0 0 1 .109-.2l.049-.037a.403.403 0 0 1 .406-.012.487.487 0 0 1 .139.107l.014.02c.033.039.06.075.075.113l.015.037h-.002l.019.052.023.104.04-.048c.002-.007.007-.007.007-.021a.41.41 0 0 1-.013-.059l-.005-.013c0-.004-.013-.05-.013-.05v-.006a1.96 1.96 0 0 0-.019-.041l-.002-.004-.02-.037-.027-.043-.034-.045c-.022-.023-.039-.045-.06-.064a.51.51 0 0 0-.4-.121"/>
        <path fill="#FEFEFE" d="M52.617 35.407c-.024 0-.049.008-.075.014a.8.8 0 0 0-.108.047l-.058.044c-.024.023-.048.045-.074.08l-.017.03a.286.286 0 0 0-.03.063l-.01.032a.345.345 0 0 0-.011.062c-.011.063 0 .125.021.184.008.014.015.035.026.05a.32.32 0 0 0 .141.121l.046.014a.234.234 0 0 0 .089.003.223.223 0 0 0 .152-.094.164.164 0 0 0 .026-.064v-.03c0-.041-.01-.073-.032-.104-.015-.012-.029-.017-.04-.028a.091.091 0 0 0-.038-.013c-.01-.004-.015-.007-.023-.008 0-.015.017-.03.022-.031a.058.058 0 0 1 .028-.015l.022-.006h.035c.017.006.035.01.05.02a.224.224 0 0 1 .101.111c.012.031.02.07.02.104 0 .015-.003.03-.003.042a.335.335 0 0 1-.11.203c-.031.02-.058.046-.098.063a.442.442 0 0 1-.224.027.452.452 0 0 1-.252-.131.574.574 0 0 1-.078-.096c-.012-.02-.022-.036-.03-.06 0 .004-.017-.033-.017-.033v.004l-.016-.053-.006-.022-.013-.053-.028.017c-.011.003-.022.005-.019.025a.59.59 0 0 0 .19.356.55.55 0 0 0 .319.128h.04c.03-.005.054-.007.08-.014a.39.39 0 0 0 .107-.037.164.164 0 0 0 .059-.035l.006-.003a.392.392 0 0 0 .151-.195l.01-.035c.006-.017.012-.037.013-.059a.253.253 0 0 0 .004-.066.54.54 0 0 0-.027-.119.29.29 0 0 0-.235-.187l-.044-.003a.19.19 0 0 0-.048.007l-.01.006-.03.01a.166.166 0 0 0-.062.04.1.1 0 0 0-.025.036l-.006.01-.01.018a.177.177 0 0 0 0 .127c.011.028.03.048.051.061.02.013.037.017.055.021l.015.005.002.001c-.002.014-.011.025-.032.036-.045.03-.095.01-.125-.002-.018-.01-.03-.021-.051-.036a.304.304 0 0 1-.07-.202l.004-.02a.293.293 0 0 1 .11-.2l.048-.037a.405.405 0 0 1 .407-.012.486.486 0 0 1 .154.127c.031.039.056.075.073.113l.018.037.015.052.023.104.04-.048c.008-.007.01-.007.008-.021 0-.015-.015-.053-.016-.059v-.013c-.003-.004-.015-.05-.015-.05l-.003-.006a.415.415 0 0 0-.017-.041v-.004l-.023-.037-.026-.043-.032-.045c-.022-.023-.04-.045-.063-.064a.507.507 0 0 0-.4-.121M46.739 36.448h-.004c-.024.003-.05.012-.074.018a.502.502 0 0 0-.167.088c-.024.023-.049.045-.073.082l-.019.03a.231.231 0 0 0-.026.063l-.012.032-.015.062a.364.364 0 0 0 .027.182l.024.056c.04.054.083.092.14.116l.046.014a.222.222 0 0 0 .241-.088c.012-.022.023-.041.028-.069.002-.01.004-.018.004-.03a.146.146 0 0 0-.039-.098c-.01-.014-.025-.027-.036-.028a.171.171 0 0 0-.038-.017.036.036 0 0 1-.024-.009c0-.013.018-.026.021-.029a.086.086 0 0 1 .028-.015l.024-.005s.005 0 .008-.002l.021.002c.021.005.037.013.055.017.016.01.032.02.048.037a.184.184 0 0 1 .05.076.22.22 0 0 1 .022.105c0 .013 0 .028-.002.043a.331.331 0 0 1-.113.201.395.395 0 0 1-.097.062.417.417 0 0 1-.224.029.454.454 0 0 1-.253-.135.418.418 0 0 1-.078-.095c-.012-.019-.019-.038-.03-.056.001.005-.017-.036-.017-.036l.004.002-.017-.051-.006-.022-.013-.053-.033.018c-.008.003-.018.008-.016.024a.623.623 0 0 0 .19.357c.088.076.198.12.317.125h.043a.273.273 0 0 0 .079-.01.543.543 0 0 0 .11-.039c.022-.008.039-.022.059-.033l.004-.007a.4.4 0 0 0 .153-.193c-.003.001.01-.033.01-.033.004-.02.006-.04.013-.06 0-.023.004-.044 0-.066a.395.395 0 0 0-.026-.118l-.024-.052a.3.3 0 0 0-.209-.138h-.045c-.016 0-.032 0-.048.005 0 .002-.012.004-.012.004l-.028.012a.16.16 0 0 0-.063.045.07.07 0 0 0-.024.031l-.007.009-.01.022a.18.18 0 0 0 0 .125.15.15 0 0 0 .107.083l.017.004.001.005c-.002.014-.011.023-.032.031-.046.027-.099.01-.126-.002-.018-.008-.03-.021-.049-.038a.207.207 0 0 1-.05-.072.253.253 0 0 1-.02-.126v-.02a.326.326 0 0 1 .111-.201l.047-.035a.399.399 0 0 1 .408-.013c.054.027.1.064.137.106.006.001.02.019.02.019a.529.529 0 0 1 .07.114l.018.037-.001-.004.015.054.025.105.04-.044c.005-.01.01-.01.005-.024 0-.02-.01-.055-.011-.06l-.004-.013a.811.811 0 0 0-.012-.045l-.005-.008c0-.005-.015-.045-.015-.045h-.001l-.024-.04-.028-.043-.032-.044a.53.53 0 0 0-.458-.188"/>
        <path fill="#FEFEFE" d="M47.913 36.448c-.025.003-.048.012-.076.018a.524.524 0 0 0-.106.049c-.022.013-.043.028-.06.039a.437.437 0 0 0-.073.082l-.019.03a.208.208 0 0 0-.027.063l-.013.032a.217.217 0 0 0-.01.062c-.01.066 0 .125.023.182.004.016.015.033.025.056a.326.326 0 0 0 .14.116l.044.014a.217.217 0 0 0 .242-.088.156.156 0 0 0 .026-.069c.005-.01.005-.018.005-.03a.148.148 0 0 0-.037-.098c-.013-.014-.025-.027-.037-.028-.014-.01-.024-.012-.037-.017-.012 0-.018-.006-.024-.009 0-.013.017-.026.02-.029a.085.085 0 0 1 .032-.015l.02-.005s.005 0 .007-.002l.022.002c.022.005.04.013.056.017.015.01.03.02.047.037.025.022.04.049.05.076.013.033.02.069.02.105 0 .013 0 .028-.002.043a.337.337 0 0 1-.108.201c-.029.021-.063.047-.1.062a.408.408 0 0 1-.221.029.45.45 0 0 1-.256-.135c-.03-.023-.053-.06-.08-.095-.009-.019-.016-.038-.03-.056a.607.607 0 0 0-.011-.036v.002l-.02-.051-.005-.022-.01-.053-.033.018c-.01.003-.018.008-.015.024a.59.59 0 0 0 .19.357c.087.076.198.12.316.125h.04c.031 0 .056-.002.083-.01a.624.624 0 0 0 .108-.039c.023-.008.04-.022.057-.033l.005-.007a.365.365 0 0 0 .152-.193l.012-.033c.005-.02.01-.04.012-.06.002-.023.004-.044.002-.066a.306.306 0 0 0-.029-.118c-.004-.02-.013-.035-.022-.052a.29.29 0 0 0-.21-.138h-.044c-.017 0-.032 0-.049.005 0 .002-.013.004-.013.004l-.026.012a.163.163 0 0 0-.061.045.092.092 0 0 0-.026.031l-.005.009a.23.23 0 0 1-.013.022.176.176 0 0 0 0 .125.157.157 0 0 0 .056.06.126.126 0 0 0 .053.023l.014.004s.002.001.002.005c-.002.014-.01.023-.027.031-.045.027-.103.01-.13-.002a.242.242 0 0 1-.1-.11.362.362 0 0 1-.021-.126l.001-.02a.341.341 0 0 1 .113-.201l.046-.035a.4.4 0 0 1 .408-.013.468.468 0 0 1 .137.106c.003.001.02.019.02.019a.615.615 0 0 1 .072.114l.013.037v-.004l.022.054.02.105.042-.044c.004-.01.007-.01.004-.024 0-.02-.012-.055-.012-.06l-.004-.013-.015-.045-.002-.008a.45.45 0 0 0-.017-.045l-.018-.04-.029-.043-.034-.044a.522.522 0 0 0-.462-.188"/>
        <path fill="#FEFEFE" d="M49.09 36.448c-.024.003-.049.012-.08.018a.561.561 0 0 0-.103.049c-.024.013-.04.028-.06.039-.024.023-.05.045-.076.082l-.017.03c-.009.017-.02.036-.025.063l-.013.032a.184.184 0 0 0-.012.062.336.336 0 0 0 .025.182c.005.016.015.033.021.056.041.054.088.092.144.116l.045.014a.214.214 0 0 0 .24-.088.247.247 0 0 0 .03-.069l.002-.03a.169.169 0 0 0-.035-.098c-.017-.014-.029-.027-.04-.028-.012-.01-.026-.012-.038-.017a.038.038 0 0 1-.023-.009c0-.013.016-.026.02-.029.01-.007.018-.013.03-.015l.022-.005s.008 0 .01-.002l.021.002c.02.005.038.013.053.017.016.01.031.02.05.037a.269.269 0 0 1 .067.224.316.316 0 0 1-.11.201c-.027.021-.06.047-.1.062a.405.405 0 0 1-.221.029.453.453 0 0 1-.254-.135.383.383 0 0 1-.077-.095c-.011-.019-.024-.038-.03-.056 0 .005-.018-.036-.018-.036l.004.002-.02-.051-.004-.022a.36.36 0 0 1-.012-.053l-.031.018c-.011.003-.021.008-.019.024a.632.632 0 0 0 .19.357c.088.076.198.12.32.125h.04a.278.278 0 0 0 .08-.01.569.569 0 0 0 .11-.039c.02-.008.04-.022.056-.033l.007-.007a.377.377 0 0 0 .151-.193l.011-.033c.005-.02.012-.04.012-.06.003-.023.003-.044.003-.066a.337.337 0 0 0-.027-.118c-.008-.02-.016-.035-.025-.052a.296.296 0 0 0-.208-.138h-.044c-.022 0-.035 0-.05.005 0 .002-.009.004-.009.004l-.03.012a.198.198 0 0 0-.064.045.088.088 0 0 0-.025.031l-.005.009-.01.022a.173.173 0 0 0 .001.125c.012.025.03.047.052.06a.12.12 0 0 0 .056.023l.012.004v.005c-.001.014-.009.023-.027.031-.047.027-.098.01-.126-.002a.23.23 0 0 1-.102-.11.275.275 0 0 1-.02-.126l.002-.02a.337.337 0 0 1 .11-.201l.05-.035c.119-.08.269-.082.406-.013.055.027.1.064.14.106l.015.019a.653.653 0 0 1 .074.114l.015.037-.002-.004.02.054.022.105.04-.044c.006-.01.007-.01.007-.024-.001-.02-.013-.055-.014-.06l-.003-.013a.692.692 0 0 0-.015-.045l-.003-.008a.443.443 0 0 0-.018-.045l-.02-.04-.026-.043-.032-.044c-.02-.024-.043-.043-.063-.063a.535.535 0 0 0-.4-.125"/>
        <path fill="#FEFEFE" d="M50.268 36.448h-.002c-.028.003-.05.012-.077.018a.472.472 0 0 0-.103.049.281.281 0 0 0-.058.039.362.362 0 0 0-.078.082l-.02.03a.389.389 0 0 0-.027.063l-.013.032a.556.556 0 0 0-.01.062.35.35 0 0 0 .025.182.481.481 0 0 0 .025.056c.039.054.083.092.139.116l.044.014c.037.009.063.01.096.006a.2.2 0 0 0 .145-.094c.014-.022.027-.041.028-.069.006-.01.006-.018.006-.03a.14.14 0 0 0-.04-.098c-.01-.014-.022-.027-.04-.028-.011-.01-.02-.012-.033-.017-.01 0-.016-.006-.02-.009 0-.013.015-.026.016-.029a.205.205 0 0 1 .026-.015l.029-.005s.006 0 .006-.002l.02.002c.023.005.04.013.052.017.018.01.037.02.056.037a.318.318 0 0 1 .05.076c.01.033.017.069.017.105a.202.202 0 0 1-.005.043.316.316 0 0 1-.111.201.382.382 0 0 1-.092.062.421.421 0 0 1-.221.029.437.437 0 0 1-.258-.135c-.032-.023-.054-.06-.08-.095l-.029-.056c0 .005-.012-.036-.012-.036v.002l-.02-.051-.004-.022a.625.625 0 0 1-.013-.053l-.03.018c-.01.003-.023.008-.02.024a.615.615 0 0 0 .193.357c.086.076.198.12.318.125h.034a.337.337 0 0 0 .089-.01.61.61 0 0 0 .104-.039c.024-.008.04-.022.058-.033l.01-.007a.37.37 0 0 0 .148-.193l.01-.033c.007-.02.01-.04.014-.06.001-.023.004-.044.001-.066a.482.482 0 0 0-.027-.118c-.01-.02-.013-.035-.025-.052a.285.285 0 0 0-.211-.138h-.046c-.013 0-.029 0-.04.005 0 .002-.019.004-.019.004l-.024.012a.226.226 0 0 0-.062.045l-.028.031-.007.009-.009.022a.211.211 0 0 0 .002.125.167.167 0 0 0 .053.06c.016.014.04.02.056.023l.01.004s.002.001 0 .005c0 .014-.007.023-.022.031-.048.027-.104.01-.13-.002a.211.211 0 0 1-.05-.038c-.023-.022-.038-.048-.052-.072a.293.293 0 0 1-.017-.126l.001-.02a.306.306 0 0 1 .113-.201l.043-.035a.398.398 0 0 1 .407-.013.423.423 0 0 1 .14.106l.018.019c.03.04.05.076.072.114l.015.037v-.004l.02.054.023.105.037-.044c.004-.01.01-.01.008-.024a.385.385 0 0 0-.015-.06l-.005-.013a.938.938 0 0 0-.01-.045l-.003-.008c0-.005-.018-.045-.018-.045l-.023-.04-.024-.043-.036-.044a.53.53 0 0 0-.458-.188"/>
        <path fill="#FEFEFE" d="M51.442 36.448h-.002c-.025.003-.049.012-.075.018a.454.454 0 0 0-.103.049c-.024.013-.044.028-.06.039a.37.37 0 0 0-.074.082l-.02.03c-.013.017-.02.036-.03.063l-.009.032a.26.26 0 0 0-.016.062.415.415 0 0 0 .026.182c.01.016.015.033.028.056a.31.31 0 0 0 .138.116l.045.014c.036.009.065.01.093.006a.226.226 0 0 0 .15-.094.207.207 0 0 0 .025-.069c.002-.01.005-.018.005-.03a.146.146 0 0 0-.037-.098c-.01-.014-.028-.027-.038-.028-.011-.01-.024-.012-.036-.017-.014 0-.018-.006-.025-.009 0-.013.015-.026.022-.029a.08.08 0 0 1 .028-.015l.022-.005s.004 0 .007-.002l.025.002c.02.005.037.013.054.017.014.01.03.02.047.037a.215.215 0 0 1 .052.076.306.306 0 0 1 .021.105c0 .013 0 .028-.004.043a.329.329 0 0 1-.11.201c-.028.021-.06.047-.101.062a.4.4 0 0 1-.222.029.456.456 0 0 1-.252-.135c-.03-.023-.054-.06-.078-.095a.446.446 0 0 1-.046-.092l.001.002-.017-.051-.007-.022a.294.294 0 0 1-.011-.053l-.031.018c-.008.003-.021.008-.018.024a.602.602 0 0 0 .193.357c.086.076.196.12.317.125h.038a.528.528 0 0 0 .19-.049c.024-.008.04-.022.058-.033l.005-.007a.364.364 0 0 0 .153-.193l.011-.033c.007-.02.008-.04.012-.06 0-.023.003-.044 0-.066a.345.345 0 0 0-.025-.118.15.15 0 0 0-.026-.052.29.29 0 0 0-.209-.138h-.042c-.019 0-.035 0-.05.005 0 .002-.01.004-.01.004l-.03.012a.29.29 0 0 0-.064.045.063.063 0 0 0-.022.031l-.007.009-.01.022a.164.164 0 0 0 0 .125.141.141 0 0 0 .052.06c.02.014.04.02.054.023l.015.004s.003.001.003.005c-.004.014-.01.023-.029.031-.046.027-.1.01-.125-.002a.15.15 0 0 1-.052-.038.202.202 0 0 1-.05-.072.255.255 0 0 1-.017-.147.3.3 0 0 1 .109-.2l.049-.035a.397.397 0 0 1 .406-.013.492.492 0 0 1 .228.24l.015.036-.002-.004.019.054.023.105.04-.044c.002-.01.007-.01.007-.024a.717.717 0 0 1-.013-.06l-.005-.013c0-.004-.013-.045-.013-.045v-.008l-.019-.045h-.002l-.02-.04-.027-.043-.034-.044c-.022-.024-.039-.043-.06-.063a.535.535 0 0 0-.4-.125"/>
        <path fill="#FEFEFE" d="M52.617 36.448c-.024.003-.049.012-.075.018a.546.546 0 0 0-.108.049c-.022.013-.04.028-.058.039-.024.023-.048.045-.074.082l-.017.03a.24.24 0 0 0-.03.063l-.01.032a.311.311 0 0 0-.011.062.34.34 0 0 0 .021.182l.026.056c.04.054.084.092.141.116l.046.014c.031.009.062.01.089.006a.224.224 0 0 0 .152-.094.178.178 0 0 0 .026-.069v-.03c0-.037-.01-.07-.032-.098-.015-.014-.029-.027-.04-.028-.012-.01-.022-.012-.038-.017-.01 0-.015-.006-.023-.009 0-.013.017-.026.022-.029a.075.075 0 0 1 .028-.015l.022-.005s.007 0 .01-.002l.025.002c.017.005.035.013.05.017a.22.22 0 0 1 .101.112c.012.034.02.07.02.106 0 .013-.003.028-.003.043a.331.331 0 0 1-.11.201c-.031.021-.058.047-.098.062a.417.417 0 0 1-.476-.106c-.031-.023-.053-.06-.078-.095a.66.66 0 0 1-.047-.092v.002l-.016-.051-.006-.022-.013-.053-.028.018c-.011.003-.022.008-.019.024a.595.595 0 0 0 .19.357c.087.076.2.12.319.125h.04c.03 0 .054-.002.08-.01a.58.58 0 0 0 .166-.072l.006-.007a.366.366 0 0 0 .151-.193l.01-.033c.006-.02.012-.04.013-.06.004-.023.006-.044.004-.066a.557.557 0 0 0-.027-.118c-.007-.02-.017-.035-.026-.052a.294.294 0 0 0-.209-.138h-.044c-.018 0-.035 0-.048.005 0 .002-.01.004-.01.004l-.03.012a.162.162 0 0 0-.062.045.062.062 0 0 0-.025.031l-.006.009-.01.022a.173.173 0 0 0 0 .125.145.145 0 0 0 .106.083l.015.004s.002.001.002.005c-.002.014-.011.023-.032.031-.045.027-.095.01-.125-.002-.018-.008-.03-.021-.051-.038a.191.191 0 0 1-.048-.072.324.324 0 0 1-.023-.126l.005-.02a.3.3 0 0 1 .11-.201l.048-.035a.399.399 0 0 1 .407-.013.49.49 0 0 1 .154.125.586.586 0 0 1 .073.114l.018.037v-.004l.015.054.023.105.04-.044c.008-.01.01-.01.008-.024 0-.02-.015-.055-.016-.06v-.013a.407.407 0 0 1-.015-.045l-.003-.008c0-.005-.017-.045-.017-.045l-.023-.04-.026-.043-.032-.044a.531.531 0 0 0-.463-.188M46.739 37.494h-.004c-.024.003-.05.007-.074.015a.895.895 0 0 0-.108.048.457.457 0 0 0-.132.122l-.019.029a.44.44 0 0 0-.026.062l-.012.033-.015.065a.377.377 0 0 0 .051.23c.04.059.083.097.14.12l.046.018a.55.55 0 0 0 .093.004.228.228 0 0 0 .149-.094.27.27 0 0 0 .027-.066c.002-.012.004-.023.004-.034a.13.13 0 0 0-.039-.095c-.01-.017-.025-.023-.036-.033-.017-.004-.022-.01-.038-.014-.012-.002-.02-.004-.024-.008 0-.016.018-.028.021-.028a.081.081 0 0 1 .028-.017l.024-.003.008-.002.021.002c.021.002.037.012.055.02.016.003.032.02.048.034.023.026.042.05.05.075.017.031.022.07.022.103 0 .018 0 .029-.002.043a.325.325 0 0 1-.113.203.398.398 0 0 1-.097.061.431.431 0 0 1-.224.028.455.455 0 0 1-.253-.134.4.4 0 0 1-.078-.095c-.012-.017-.019-.034-.03-.052a1.56 1.56 0 0 0-.017-.036h.004l-.017-.053-.006-.02-.013-.053-.033.018c-.008.003-.018.005-.016.024a.626.626 0 0 0 .19.357.51.51 0 0 0 .317.122h.043a.704.704 0 0 0 .079-.006.751.751 0 0 0 .11-.039 2.1 2.1 0 0 1 .059-.034l.004-.01a.397.397 0 0 0 .153-.188c-.003.001.01-.035.01-.035.004-.02.006-.04.013-.063 0-.02.004-.041 0-.065a.404.404 0 0 0-.026-.12c-.01-.018-.016-.033-.024-.05a.29.29 0 0 0-.209-.135h-.045l-.048.002-.012.005-.028.012a.173.173 0 0 0-.063.045c-.011.005-.017.024-.024.03l-.007.009-.01.02a.19.19 0 0 0 0 .128c.013.025.03.047.053.062.02.01.04.017.054.019l.017.004.001.008c-.002.008-.011.02-.032.03-.046.028-.099.012-.126-.003-.018-.007-.03-.021-.049-.037a.183.183 0 0 1-.05-.078.226.226 0 0 1-.02-.124v-.02a.326.326 0 0 1 .111-.2l.047-.037a.415.415 0 0 1 .408-.009c.054.027.1.063.137.11l.02.016c.031.04.054.075.07.111 0 .003.018.037.018.037h-.001l.015.054.025.104.04-.047c.005-.006.01-.006.005-.022 0-.017-.01-.055-.011-.062l-.004-.01-.012-.05-.005-.005a.845.845 0 0 0-.015-.042l-.001-.003-.024-.038-.028-.044-.032-.045c-.018-.023-.038-.041-.06-.061a.507.507 0 0 0-.398-.123"/>
        <path fill="#FEFEFE" d="M47.913 37.494a.436.436 0 0 0-.076.015.984.984 0 0 0-.106.048.407.407 0 0 0-.133.121l-.019.03a.369.369 0 0 0-.027.062l-.013.033a.253.253 0 0 0-.01.065.35.35 0 0 0 .023.183c.004.015.015.031.025.047.037.059.084.097.14.12l.044.018a.559.559 0 0 0 .093.004.222.222 0 0 0 .15-.094.166.166 0 0 0 .025-.066c.005-.012.005-.023.005-.034a.132.132 0 0 0-.037-.095c-.013-.017-.025-.023-.037-.033-.014-.004-.024-.01-.037-.014a.062.062 0 0 1-.024-.008c0-.016.017-.028.02-.028a.08.08 0 0 1 .032-.017l.02-.003.007-.002.022.002c.022.002.04.012.056.02.015.003.03.02.047.034.025.026.04.05.05.075.013.031.02.07.02.103 0 .018 0 .029-.002.043a.33.33 0 0 1-.209.264.422.422 0 0 1-.476-.106.442.442 0 0 1-.08-.095c-.009-.017-.016-.034-.03-.052.002.001-.011-.036-.011-.036l-.02-.053-.005-.02-.01-.053-.033.018c-.01.003-.018.005-.015.024.02.132.083.263.19.357a.501.501 0 0 0 .316.122h.04c.031 0 .056-.003.083-.006a.924.924 0 0 0 .108-.039l.057-.034.005-.01a.362.362 0 0 0 .152-.188l.012-.035c.005-.02.01-.04.012-.063.002-.02.004-.041.002-.065a.313.313 0 0 0-.029-.12c-.004-.018-.013-.033-.022-.05a.28.28 0 0 0-.21-.135h-.044l-.049.002-.013.005-.026.012a.176.176 0 0 0-.061.045c-.01.005-.018.024-.026.03l-.005.009-.013.02a.186.186 0 0 0 0 .128.165.165 0 0 0 .056.062c.019.01.036.017.053.019l.014.004.002.008a.054.054 0 0 1-.027.03c-.045.028-.103.012-.13-.003a.207.207 0 0 1-.1-.114.306.306 0 0 1-.021-.125l.001-.02a.34.34 0 0 1 .113-.2l.046-.037a.416.416 0 0 1 .408-.009.406.406 0 0 1 .137.11l.02.016c.032.04.054.075.072.111l.013.037.022.054.02.104.042-.047c.004-.006.007-.006.004-.022 0-.017-.012-.055-.012-.062l-.004-.01-.015-.05-.002-.005-.017-.042v-.003l-.018-.038-.029-.044-.034-.045c-.02-.023-.04-.041-.064-.061a.5.5 0 0 0-.398-.123"/>
        <path fill="#FEFEFE" d="M49.09 37.494a.53.53 0 0 0-.08.015c-.035.015-.07.029-.103.048-.024.012-.04.027-.06.041a.484.484 0 0 0-.076.08l-.017.03c-.009.02-.02.041-.025.062l-.013.033a.214.214 0 0 0-.012.065.347.347 0 0 0 .025.183c.005.015.015.031.021.047.041.059.088.097.144.12l.045.018c.032.004.063.006.093.004a.218.218 0 0 0 .178-.16v-.034a.15.15 0 0 0-.034-.095c-.017-.017-.029-.023-.04-.033l-.038-.014c-.009-.002-.02-.004-.023-.008 0-.016.016-.028.02-.028a.087.087 0 0 1 .03-.017l.022-.003.01-.002.021.002c.02.002.038.012.053.02.016.003.031.02.05.034a.26.26 0 0 1 .067.22.31.31 0 0 1-.11.204.419.419 0 0 1-.575-.044.368.368 0 0 1-.077-.096c-.011-.017-.024-.034-.03-.052l-.018-.036h.004l-.02-.053-.004-.02c-.003-.002-.012-.053-.012-.053l-.031.018c-.011.003-.021.005-.019.024a.635.635 0 0 0 .19.357.51.51 0 0 0 .32.122h.04c.028 0 .053-.003.08-.006.034-.01.069-.02.11-.039.02-.013.04-.023.056-.034l.007-.01a.374.374 0 0 0 .162-.223c.005-.02.012-.04.012-.063.003-.02.003-.041.003-.065a.344.344 0 0 0-.052-.17.285.285 0 0 0-.208-.135h-.044l-.05.002-.009.005-.03.012a.218.218 0 0 0-.064.045c-.01.005-.017.024-.025.03l-.005.009-.01.02a.183.183 0 0 0 .001.128.15.15 0 0 0 .052.062c.017.01.037.017.056.019l.012.004v.008c-.001.008-.009.02-.027.03-.047.028-.098.012-.126-.003a.166.166 0 0 1-.052-.037c-.022-.025-.04-.045-.05-.078a.243.243 0 0 1-.02-.124l.002-.02a.337.337 0 0 1 .11-.2l.05-.037c.119-.071.269-.079.406-.009.055.027.1.063.14.11l.015.016a.641.641 0 0 1 .09.148h-.003l.02.054.022.104.04-.047c.006-.006.007-.006.007-.022-.001-.017-.013-.055-.014-.062l-.003-.01-.015-.05-.003-.005a.77.77 0 0 0-.018-.042v-.003l-.02-.038-.026-.044-.032-.045c-.02-.023-.043-.041-.063-.061a.512.512 0 0 0-.4-.123"/>
        <path fill="#FEFEFE" d="M50.268 37.494h-.002a.38.38 0 0 0-.077.015c-.036.015-.072.029-.103.048a.184.184 0 0 0-.058.041.363.363 0 0 0-.078.08l-.02.03c-.009.02-.019.041-.027.062l-.013.033a.729.729 0 0 0-.01.065.363.363 0 0 0 .025.183.308.308 0 0 0 .163.168l.045.017a.587.587 0 0 0 .096.004.205.205 0 0 0 .145-.094.135.135 0 0 0 .028-.066c.006-.012.006-.023.006-.034a.126.126 0 0 0-.04-.095c-.01-.017-.022-.023-.04-.033-.011-.004-.02-.01-.033-.014-.01-.002-.016-.004-.02-.008 0-.016.015-.028.016-.028a.184.184 0 0 1 .026-.017.26.26 0 0 1 .029-.003l.006-.002.02.002c.023.002.04.012.052.02.018.003.037.02.056.034.018.026.038.05.05.075.01.031.017.07.017.103 0 .018-.001.029-.005.043a.31.31 0 0 1-.111.203.385.385 0 0 1-.092.061.436.436 0 0 1-.221.028.438.438 0 0 1-.258-.134.353.353 0 0 1-.08-.095l-.029-.052-.012-.036-.02-.053-.004-.02a.573.573 0 0 1-.013-.053l-.03.018c-.01.003-.023.005-.02.024a.618.618 0 0 0 .193.357.503.503 0 0 0 .318.122h.034c.035 0 .057-.003.089-.006.027-.01.066-.02.104-.039l.058-.034.01-.01a.367.367 0 0 0 .158-.223c.007-.02.01-.04.014-.063.001-.02.004-.041.001-.065a.49.49 0 0 0-.027-.12c-.01-.018-.013-.033-.025-.05a.276.276 0 0 0-.211-.135h-.046l-.04.002-.019.005-.024.012c-.018.01-.045.025-.062.045-.007.005-.017.024-.028.03l-.007.009-.009.02a.223.223 0 0 0 .002.128.175.175 0 0 0 .053.062c.016.01.04.017.056.019l.01.004c0 .004.002.004 0 .008a.047.047 0 0 1-.022.03c-.048.028-.104.012-.13-.003a.202.202 0 0 1-.05-.037.252.252 0 0 1-.052-.078.261.261 0 0 1-.017-.124l.001-.02a.306.306 0 0 1 .113-.2l.043-.037a.415.415 0 0 1 .407-.009.373.373 0 0 1 .14.11l.018.016c.03.04.05.075.072.111 0 .003.015.037.015.037l.02.054.023.104.037-.047c.004-.006.01-.006.008-.022-.004-.017-.012-.055-.015-.062l-.005-.01-.01-.05-.003-.005a.772.772 0 0 0-.018-.042v-.003l-.023-.038-.024-.044-.036-.045a.507.507 0 0 0-.458-.184"/>
        <path fill="#FEFEFE" d="M51.442 37.494h-.002a.412.412 0 0 0-.075.015c-.038.015-.072.029-.103.048a.37.37 0 0 0-.133.122l-.022.029c-.012.02-.019.041-.029.062l-.009.033a.32.32 0 0 0-.016.065.432.432 0 0 0 .026.183c.01.015.015.031.028.047.037.059.08.097.138.12l.045.018c.036.004.065.006.093.004a.232.232 0 0 0 .15-.094.23.23 0 0 0 .025-.066c.002-.012.005-.023.005-.034a.13.13 0 0 0-.037-.095c-.01-.017-.028-.023-.038-.033l-.036-.014a.054.054 0 0 1-.025-.008c0-.016.015-.028.022-.028a.075.075 0 0 1 .028-.017l.022-.003.007-.002.025.002c.02.002.037.012.054.02.014.003.03.02.047.034.023.026.041.05.052.075.012.031.021.07.021.103 0 .018 0 .029-.004.043a.322.322 0 0 1-.11.203.414.414 0 0 1-.322.09.457.457 0 0 1-.253-.135.414.414 0 0 1-.078-.095.352.352 0 0 1-.03-.052l-.016-.036h.001l-.017-.053-.007-.02a.276.276 0 0 1-.011-.053l-.031.018c-.008.003-.021.005-.018.024a.604.604 0 0 0 .193.357.5.5 0 0 0 .317.122h.038c.03 0 .054-.003.08-.006a.72.72 0 0 0 .11-.039l.058-.034.005-.01a.362.362 0 0 0 .153-.188l.011-.035c.007-.02.008-.04.012-.063 0-.02.003-.041 0-.065a.353.353 0 0 0-.05-.17.28.28 0 0 0-.21-.135h-.042l-.05.002-.01.005-.03.012a.334.334 0 0 0-.064.045c-.01.005-.016.024-.022.03l-.007.009-.01.02a.173.173 0 0 0 0 .128.148.148 0 0 0 .052.062c.02.01.04.017.054.019l.015.004c.003.004.003.004.003.008a.066.066 0 0 1-.029.03c-.046.028-.1.012-.125-.003a.146.146 0 0 1-.052-.037.18.18 0 0 1-.05-.078.228.228 0 0 1-.02-.124l.003-.02a.3.3 0 0 1 .109-.2l.049-.037a.413.413 0 0 1 .406-.009.425.425 0 0 1 .139.11l.014.016a.465.465 0 0 1 .09.148h-.002l.019.054.023.104.04-.047c.002-.006.007-.006.007-.022a.472.472 0 0 1-.013-.062l-.005-.01-.013-.05v-.005l-.019-.042-.002-.003-.02-.038-.027-.044-.034-.045-.06-.061a.512.512 0 0 0-.4-.123"/>
        <path fill="#FEFEFE" d="M52.617 37.494a.397.397 0 0 0-.075.015c-.04.015-.073.029-.108.048-.022.012-.04.027-.058.041a.558.558 0 0 0-.074.08l-.017.03a.505.505 0 0 0-.03.062l-.01.033a.379.379 0 0 0-.011.065c-.011.064 0 .125.021.183.008.015.015.031.026.047.04.059.084.097.141.12l.046.018a.52.52 0 0 0 .089.004.23.23 0 0 0 .152-.094.194.194 0 0 0 .026-.066v-.034c0-.038-.01-.069-.032-.095-.015-.017-.029-.023-.04-.033-.012-.004-.022-.01-.038-.014a.102.102 0 0 1-.023-.008c0-.016.017-.028.022-.028a.072.072 0 0 1 .028-.017l.022-.003.01-.002.025.002c.017.002.035.012.05.02.018.003.033.02.05.034.025.026.04.05.052.075.011.031.019.07.019.103 0 .018-.003.029-.003.043a.325.325 0 0 1-.11.203c-.031.02-.058.046-.098.061a.431.431 0 0 1-.224.028.446.446 0 0 1-.252-.134.369.369 0 0 1-.078-.095.486.486 0 0 1-.03-.052l-.017-.036-.016-.053-.006-.02-.013-.053-.028.018c-.011.003-.022.005-.019.024a.598.598 0 0 0 .19.357c.087.075.2.118.319.122h.04c.03 0 .054-.003.08-.006a.834.834 0 0 0 .107-.039c.024-.013.044-.023.059-.034l.006-.01a.363.363 0 0 0 .151-.188l.01-.035c.006-.02.012-.04.013-.063a.23.23 0 0 0 .004-.065.565.565 0 0 0-.027-.12c-.007-.018-.017-.033-.026-.05a.283.283 0 0 0-.209-.135h-.044l-.048.002-.01.005-.03.012a.175.175 0 0 0-.062.045c-.011.005-.02.024-.025.03l-.006.009-.01.02a.182.182 0 0 0 0 .128c.011.025.03.047.051.062.02.01.037.017.055.019l.015.004.002.008c-.002.008-.011.02-.032.03-.045.028-.095.012-.125-.003-.018-.007-.03-.021-.051-.037a.173.173 0 0 1-.048-.078.278.278 0 0 1-.023-.124l.005-.02a.3.3 0 0 1 .11-.2l.048-.037a.415.415 0 0 1 .407-.009.423.423 0 0 1 .138.11l.016.016c.031.04.056.075.073.111 0 .003.018.037.018.037l.015.054.023.104.04-.047c.008-.006.01-.006.008-.022 0-.017-.015-.055-.016-.062v-.01c-.003-.003-.015-.05-.015-.05l-.003-.005-.017-.042v-.003l-.023-.038-.026-.044-.032-.045a.653.653 0 0 0-.063-.061.509.509 0 0 0-.4-.123M47.913 38.539c-.025.004-.048.007-.076.016a.368.368 0 0 0-.106.046c-.022.012-.043.028-.06.038-.025.028-.048.05-.073.085l-.019.029a.312.312 0 0 0-.027.063l-.013.031a.218.218 0 0 0-.01.064.345.345 0 0 0 .048.231.293.293 0 0 0 .14.12l.044.015c.035.008.062.01.093.005a.216.216 0 0 0 .15-.09.17.17 0 0 0 .025-.07c.005-.008.005-.025.005-.03a.13.13 0 0 0-.037-.096.14.14 0 0 0-.037-.033c-.014-.004-.024-.01-.037-.013-.012-.004-.018-.01-.024-.014 0-.01.017-.023.02-.025.01-.006.02-.012.032-.012l.02-.01h.007l.022.004c.022 0 .04.008.056.015.015.006.03.021.047.037.025.025.04.051.05.075a.32.32 0 0 1 .02.105c0 .016 0 .028-.002.044a.323.323 0 0 1-.108.198.404.404 0 0 1-.321.09.451.451 0 0 1-.256-.129.666.666 0 0 1-.08-.096c-.009-.021-.016-.038-.03-.055l-.011-.036v.001l-.02-.052-.005-.022-.01-.05-.033.013c-.01.007-.018.007-.015.025.02.136.083.265.19.356a.492.492 0 0 0 .316.125h.04c.031-.001.056-.002.083-.007.033-.011.065-.019.108-.04a.631.631 0 0 0 .057-.032l.005-.007a.384.384 0 0 0 .152-.194l.012-.034c.005-.017.01-.042.012-.06.002-.022.004-.046.002-.068a.311.311 0 0 0-.029-.116c-.004-.02-.013-.034-.022-.052a.285.285 0 0 0-.21-.139h-.044c-.017 0-.032.005-.049.007h-.013l-.026.014a.143.143 0 0 0-.061.049c-.01.005-.018.018-.026.028l-.005.013-.013.015a.182.182 0 0 0 0 .127.14.14 0 0 0 .056.064c.019.012.036.014.053.02l.014.005.002.004a.06.06 0 0 1-.027.034c-.045.024-.103.009-.13-.004a.294.294 0 0 1-.05-.037c-.022-.03-.04-.05-.05-.074a.34.34 0 0 1-.021-.127l.001-.02a.352.352 0 0 1 .113-.202l.046-.037a.412.412 0 0 1 .408-.01.439.439 0 0 1 .137.108l.02.019a.51.51 0 0 1 .072.115l.013.033.022.053.02.105.042-.046c.004-.006.007-.006.004-.02 0-.02-.012-.055-.012-.061l-.004-.015-.015-.047-.002-.008a.315.315 0 0 0-.017-.035v-.007l-.018-.038-.029-.046-.034-.043a.436.436 0 0 0-.064-.063.488.488 0 0 0-.398-.122"/>
        <path fill="#FEFEFE" d="M49.09 38.539c-.024.004-.049.007-.08.016a.381.381 0 0 0-.103.046c-.024.012-.04.028-.06.038-.024.028-.05.05-.076.085l-.017.029c-.009.019-.02.04-.025.063l-.013.031a.185.185 0 0 0-.012.064.343.343 0 0 0 .025.184c.005.016.015.032.021.047.041.062.088.095.144.12l.045.015c.032.008.063.01.093.005a.212.212 0 0 0 .178-.16v-.03a.148.148 0 0 0-.034-.096.263.263 0 0 0-.04-.033c-.012-.004-.026-.01-.038-.013a.066.066 0 0 1-.023-.014c0-.01.016-.023.02-.025.01-.006.018-.012.03-.012l.022-.01h.01l.021.004c.02 0 .038.008.053.015.016.006.031.021.05.037.022.025.039.051.05.075a.28.28 0 0 1 .017.149.303.303 0 0 1-.11.198.401.401 0 0 1-.321.09.453.453 0 0 1-.254-.129.513.513 0 0 1-.077-.096c-.011-.021-.024-.038-.03-.055l-.018-.036.004.001-.02-.052-.004-.022a.343.343 0 0 1-.012-.05l-.031.013c-.011.007-.021.007-.019.025a.613.613 0 0 0 .19.356.5.5 0 0 0 .32.125h.04c.028-.001.053-.002.08-.007.034-.011.069-.019.11-.04l.056-.032.007-.007a.397.397 0 0 0 .151-.194l.011-.034c.005-.017.012-.042.012-.06.003-.022.003-.046.003-.068a.344.344 0 0 0-.027-.116c-.008-.02-.016-.034-.025-.052a.29.29 0 0 0-.208-.139h-.044c-.022 0-.035.005-.05.007h-.009l-.03.014a.17.17 0 0 0-.064.049c-.01.005-.017.018-.025.028l-.005.013-.01.015a.179.179 0 0 0 .001.127c.012.03.03.05.052.064.017.012.037.014.056.02l.012.005v.004a.055.055 0 0 1-.027.034c-.047.024-.098.009-.126-.004a.189.189 0 0 1-.052-.037c-.022-.03-.04-.05-.05-.074a.265.265 0 0 1-.02-.127l.002-.02a.348.348 0 0 1 .11-.202l.05-.037c.119-.074.269-.08.406-.01a.473.473 0 0 1 .155.127.536.536 0 0 1 .074.115l.015.033h-.002l.02.053.022.105.04-.046c.006-.006.007-.006.007-.02-.001-.02-.013-.055-.014-.061l-.003-.015a.908.908 0 0 0-.015-.047l-.003-.008c0-.003-.018-.035-.018-.035v-.007l-.02-.038a.582.582 0 0 0-.026-.046l-.032-.043c-.02-.025-.043-.043-.063-.063a.5.5 0 0 0-.4-.122"/>
        <path fill="#FEFEFE" d="M50.268 38.539h-.002c-.028.004-.05.007-.077.016a.338.338 0 0 0-.103.046c-.027.012-.045.028-.058.038-.029.028-.053.05-.078.085l-.02.029c-.009.019-.019.04-.027.063l-.013.031a.518.518 0 0 0-.01.064.358.358 0 0 0 .025.184c.006.016.013.032.025.047.039.062.083.095.139.12l.044.015c.037.008.063.01.096.005a.2.2 0 0 0 .145-.09c.014-.023.027-.044.028-.07.006-.008.006-.025.006-.03a.125.125 0 0 0-.04-.096.078.078 0 0 0-.04-.033c-.011-.004-.02-.01-.033-.013a.054.054 0 0 1-.02-.014c0-.01.015-.023.016-.025.01-.006.02-.012.026-.012l.029-.01h.006l.02.004c.023 0 .04.008.052.015a.217.217 0 0 1 .056.037c.018.025.038.051.05.075.01.034.017.07.017.105a.184.184 0 0 1-.005.044.304.304 0 0 1-.111.198.27.27 0 0 1-.092.064.438.438 0 0 1-.479-.102.484.484 0 0 1-.08-.097l-.029-.055-.012-.036v.001l-.02-.052-.004-.022a.646.646 0 0 1-.013-.05l-.03.013c-.01.007-.023.007-.02.025a.597.597 0 0 0 .193.356.494.494 0 0 0 .318.125h.034a.542.542 0 0 0 .089-.007c.027-.011.066-.019.104-.04.024-.012.04-.022.058-.032l.01-.007a.39.39 0 0 0 .148-.194l.01-.034c.007-.017.01-.042.014-.06.001-.022.004-.046.001-.068a.505.505 0 0 0-.027-.116c-.01-.02-.013-.034-.025-.052a.28.28 0 0 0-.211-.139h-.046c-.013 0-.029.005-.04.007h-.019l-.024.014a.189.189 0 0 0-.062.049c-.007.005-.017.018-.028.028l-.007.013-.009.015a.218.218 0 0 0 .002.127c.012.03.033.05.053.064.016.012.04.014.056.02l.01.005v.004a.055.055 0 0 1-.022.034c-.048.024-.104.009-.13-.004a.239.239 0 0 1-.05-.037.696.696 0 0 1-.052-.074.284.284 0 0 1-.017-.127l.001-.02a.315.315 0 0 1 .113-.202l.043-.037a.41.41 0 0 1 .407-.01.4.4 0 0 1 .14.108l.018.019c.03.039.05.075.072.115l.015.033.02.053.023.105.037-.046c.004-.006.01-.006.008-.02a.417.417 0 0 0-.015-.061l-.005-.015-.01-.047-.003-.008a.312.312 0 0 0-.018-.035v-.007l-.023-.038c0-.004-.024-.046-.024-.046l-.036-.043a.495.495 0 0 0-.458-.185"/>
        <path fill="#FEFEFE" d="M51.442 38.539h-.002c-.025.004-.049.007-.075.016a.328.328 0 0 0-.103.046c-.024.012-.044.028-.06.038-.026.028-.05.05-.074.085l-.02.029c-.013.019-.02.04-.03.063l-.009.031a.25.25 0 0 0-.016.064.424.424 0 0 0 .026.184c.01.016.015.032.028.047a.28.28 0 0 0 .138.12l.045.015a.225.225 0 0 0 .243-.086.234.234 0 0 0 .025-.068l.005-.031a.13.13 0 0 0-.037-.096c-.01-.017-.028-.026-.038-.033-.011-.004-.024-.01-.036-.013-.014-.004-.018-.01-.025-.014 0-.01.015-.023.022-.025.008-.006.019-.012.028-.012l.022-.01h.007l.025.004c.02 0 .037.008.054.015.014.006.03.021.047.037.023.025.041.051.052.075a.32.32 0 0 1 .021.105c0 .016 0 .028-.004.044a.315.315 0 0 1-.11.198.27.27 0 0 1-.101.064.396.396 0 0 1-.222.027.456.456 0 0 1-.252-.13.607.607 0 0 1-.078-.096c-.012-.021-.022-.038-.03-.055l-.016-.036.001.001-.017-.052-.007-.022c-.003-.003-.011-.05-.011-.05l-.031.013c-.008.007-.021.007-.018.025a.584.584 0 0 0 .193.356.491.491 0 0 0 .317.125h.038c.03-.001.054-.002.08-.007.037-.011.068-.019.11-.04a.943.943 0 0 0 .058-.032l.005-.007a.383.383 0 0 0 .153-.194l.011-.034c.007-.017.008-.042.012-.06 0-.022.003-.046 0-.068a.352.352 0 0 0-.025-.116c-.005-.02-.014-.034-.026-.052a.284.284 0 0 0-.209-.139h-.042c-.019 0-.035.005-.05.007h-.01l-.03.014a.231.231 0 0 0-.064.049c-.01.005-.016.018-.022.028l-.007.013-.01.015a.17.17 0 0 0 0 .127c.012.03.028.05.052.064.02.012.04.014.054.02l.015.005.003.004c-.004.008-.01.023-.029.034-.046.024-.1.009-.125-.004a.164.164 0 0 1-.052-.037c-.024-.03-.041-.05-.05-.074a.247.247 0 0 1-.02-.127l.003-.02a.308.308 0 0 1 .109-.202l.049-.037a.409.409 0 0 1 .406-.01.46.46 0 0 1 .139.108c0 .002.014.019.014.019.033.039.06.075.075.115l.015.033h-.002l.019.053.023.105.04-.046c.002-.006.007-.006.007-.02a.712.712 0 0 1-.013-.061l-.005-.015a.95.95 0 0 0-.013-.047v-.008l-.019-.035-.002-.007-.02-.038c0-.004-.027-.046-.027-.046l-.034-.043a.5.5 0 0 0-.46-.185M54 32.147c.137-.008.366.008.503.047 0 0 .558.145.815.44.378.43.572 1.143.572 2.127 0 .98-.194 1.69-.572 2.118-.257.295-.599.451-1.063.496-.477.047-.624-.015-.624-.015a.418.418 0 0 1-.247-.355l-.007-.41c-.005-.147-.005-.258-.005-.257v.001c.107.228.333.711 1.054.711.382 0 .7-.195.922-.568.229-.39.343-.97.343-1.721 0-.756-.116-1.334-.343-1.717-.221-.366-.54-.559-.922-.559-.721 0-.947.48-1.054.713 0 .003 0-.118.004-.256l.008-.443c.003-.144.095-.294.2-.335.108-.045.416-.017.416-.017M45.636 44.65c-.556-.23-.777-.76-.56-1.294.218-.548.723-.814 1.32-.565.438.181.748.56.598 1.027l-.494-.205c.045-.21-.042-.37-.25-.458-.321-.135-.557.134-.664.398-.104.252-.122.605.194.733.231.093.423.004.544-.2l.49.202c-.255.449-.697.56-1.178.362M47.944 45.46c-.615-.086-.955-.534-.875-1.131.082-.606.535-.949 1.15-.86.622.088.966.538.88 1.14-.082.6-.53.943-1.155.851m.22-1.602c-.363-.05-.512.24-.556.541-.04.301.028.624.39.671.37.054.52-.236.56-.534.044-.305-.025-.626-.393-.678M50.427 43.407c-.145-.003-.203.057-.208.21l-.002.123.371.01-.013.347-.367-.012-.051 1.562-.547-.017.05-1.56-.327-.012.012-.344.325.005.006-.152c.008-.332.236-.568.676-.55.1 0 .199.016.292.017l-.011.394c-.063-.008-.136-.019-.206-.021M51.833 43.33c-.142.016-.195.079-.183.236l.01.119.37-.032.028.35-.373.027.126 1.562-.544.038-.123-1.557-.325.026-.026-.346.322-.024-.015-.15c-.023-.336.175-.593.618-.629.096-.01.2-.009.29-.013l.033.392a1.873 1.873 0 0 0-.208.001M52.834 44.469c.074.221.246.408.553.335.23-.056.352-.216.363-.426l.488-.003c-.052.434-.308.7-.759.81-.623.152-1.069-.162-1.206-.735-.128-.544.14-1.075.738-1.218.636-.154 1.149.277 1.206.9l-1.383.337zm.266-.856a.441.441 0 0 0-.35.492l.859-.205c-.072-.203-.268-.347-.51-.287zM54.898 43.674c.12.202.328.348.616.205a.44.44 0 0 0 .255-.5l.479-.114c.045.437-.149.757-.562.963-.576.287-1.081.086-1.338-.44-.245-.502-.1-1.084.447-1.357.587-.296 1.183.01 1.38.605l-1.277.638zm.069-.896a.457.457 0 0 0-.234.566l.793-.4c-.115-.176-.335-.273-.56-.166zM47.994 24.947a.337.337 0 0 1-.222.41l-.438.12.188.714c.05.194.252.31.441.256l.4-.106.155.595-.394.107c-.564.15-1.118-.09-1.267-.658l-.195-.728-.314.087-.164-.619.316-.089-.151-.56.67-.184.148.564.75-.204.077.295zM51.293 26.889c-.75-.061-1.021-.566-.962-1.157l.07-1.39.367.03a.328.328 0 0 1 .305.365l-.049 1.142a.361.361 0 0 0 .33.398.375.375 0 0 0 .402-.336s.133-1.339.14-1.445l.703.106-.13 1.305c-.057.593-.426 1.044-1.176.982M49.631 24.355l.413-.044-.012.695-.348.033a.373.373 0 0 0-.327.402l.172 1.335-.691.078-.18-1.365c-.044-.531.351-1.065.882-1.124.528-.062-.001 0 .091-.01M54.834 27.163c-.33.314-.812.44-1.27.287-.701-.242-1.027-.87-.773-1.665.236-.729.931-1.092 1.585-.871.757.244.975.98.733 1.74-.01.036-.036.126-.048.16l-1.646-.54c-.066.228.084.482.342.57a.512.512 0 0 0 .473-.076l.604.395zm-1.26-1.39c.08-.223.345-.339.607-.257.258.085.41.34.34.568l-.947-.31z"/>
        <path fill="#231F20" d="M58.769 45.082l-.255-.006v1.061h-.157v-1.06h-.396v-.135h.946v.019c0 .08-.045.12-.138.12M60.067 46.137v-.993h-.003l-.37.993h-.13l-.37-.993h-.007v.993h-.144v-1.194h.215l.37 1.003.371-1.003h.218v1.194z"/>
        <g fill="#FFF" fill-rule="nonzero">
            <path d="M20.708 14.988h5.417v2.727h-5.417zM31.541 14.988h5.417v2.727h-5.417zM42.375 14.988h5.417v2.727h-5.417zM53.208 14.988h5.417v2.727h-5.417zM64.041 14.988h5.417v2.727h-5.417zM74.875 14.988h5.417v2.727h-5.417z"/>
        </g>
    </g>
</svg>
