<svg xmlns="http://www.w3.org/2000/svg" width="24" height="24" viewBox="0 0 24 24">
    <path fill="#ED3124" fill-rule="nonzero" d="M17.161 11.355v1.29a.485.485 0 0 1-.484.484H13.13v3.548a.485.485 0 0 1-.484.484h-1.29a.485.485 0 0 1-.484-.484V13.13H7.323a.485.485 0 0 1-.484-.484v-1.29c0-.266.217-.484.484-.484h3.548V7.323c0-.267.218-.484.484-.484h1.29c.266 0 .484.217.484.484v3.548h3.548c.267 0 .484.218.484.484zM22 12c0 5.524-4.476 10-10 10S2 17.524 2 12 6.476 2 12 2s10 4.476 10 10zm-1.935 0A8.062 8.062 0 0 0 12 3.935 8.062 8.062 0 0 0 3.935 12 8.062 8.062 0 0 0 12 20.065 8.062 8.062 0 0 0 20.065 12z"/>
</svg>
