<svg xmlns="http://www.w3.org/2000/svg" xmlns:xlink="http://www.w3.org/1999/xlink" width="903" height="639" viewBox="0 0 903 639">
    <defs>
        <path id="a" d="M.84.824h75.342v140.951H.84z"/>
        <path id="c" d="M.487.824h126.505v194.534H.487z"/>
        <path id="e" d="M.484.824h175.453v140.951H.484z"/>
        <path id="g" d="M.501.824h126.505v194.522H.5z"/>
        <path id="i" d="M.066.824h114.51v41.252H.066z"/>
        <path id="k" d="M.84.451h47.14v72.033H.84z"/>
        <path id="m" d="M.954.836h114.518v11.78H.954z"/>
        <path id="o" d="M.962.836h114.521v11.78H.962z"/>
        <path id="q" d="M.058.824h114.507v41.252H.058z"/>
        <path id="s" d="M.313.733h175.462v72.988H.313z"/>
        <path id="u" d="M.304.727h175.46V73.72H.304z"/>
        <path id="w" d="M.966.457H279.02v177.25H.966z"/>
        <path id="y" d="M1.057.452h59.84v72.034H1.057z"/>
        <path id="A" d="M.016.406H137.04v102.157H.016z"/>
        <path id="C" d="M.973.457h278.032v177.25H.973z"/>
        <path id="E" d="M.261.288h171.098v180.448H.26z"/>
        <path id="G" d="M.493.824H93.07v140.972H.493z"/>
        <path id="I" d="M.84.406h5.972v102.157H.84z"/>
        <path id="K" d="M.84.07h276.097v192.117H.84z"/>
        <path id="M" d="M.183.676h65.004v168.456H.183z"/>
        <path id="O" d="M.169.676h176.668v168.456H.17z"/>
        <path id="Q" d="M.84.68h104.143v168.452H.84z"/>
    </defs>
    <g fill="none" fill-rule="evenodd">
        <g transform="translate(0 .068)">
            <mask id="b" fill="#fff">
                <use xlink:href="#a"/>
            </mask>
            <path fill="#EC1D24" d="M75.851 25.074c.672-10.246.28-19.971-.81-29.243C14.6-9.31-41.124-40.393-75.48-91.19c-12.667 9.717-20.856 23.227-23.066 38.263-5.726 39.037 24.173 51.596 36.63 55.8 8.681 2.927 21.024 10.472 4.074 28.02-.075.083-.176.16-.26.24 30.77 34.271 49.048 76.601 54.637 110.641 45.775-23.92 76.108-67.763 79.315-116.701" mask="url(#b)"/>
        </g>
        <g transform="translate(104.027 .068)">
            <mask id="d" fill="#fff">
                <use xlink:href="#c"/>
            </mask>
            <path fill="#EC1D24" d="M3.763 134.259c48.396 5.602 86.617 30.017 114.518 61.1.086-.087.194-.164.269-.246 16.932-17.544 4.589-25.086-4.083-28.032-12.465-4.202-42.365-16.753-36.637-55.804 2.216-15.034 10.4-28.546 23.07-38.246C85.55 50.354 74.466 23.798 69.192-6.183 18.19 25.877-9.428 83.38 3.762 134.26" mask="url(#d)"/>
        </g>
        <g transform="translate(354.98 .068)">
            <mask id="f" fill="#fff">
                <use xlink:href="#e"/>
            </mask>
            <path fill="#EC1D24" d="M175.603 25.074c.676-10.246.285-19.971-.807-29.243C114.34-9.31 58.628-40.393 24.265-91.19 11.605-81.473 3.41-67.963 1.204-52.927-4.52-13.89 25.367-1.33 37.824 2.874c8.695 2.927 21.039 10.472 4.08 28.02-.076.083-.18.16-.266.24 30.776 34.271 49.046 76.601 54.647 110.641 45.774-23.92 76.104-67.763 79.318-116.701" mask="url(#f)"/>
        </g>
        <path fill="#EC1D24" d="M287.816 63.666c-34.823-11-63.915-5.105-82.889 9.433 34.349 50.791 90.084 81.885 150.525 87.026-6.075-51.236-36.879-86.728-67.636-96.459"/>
        <g transform="translate(558.745 .068)">
            <mask id="h" fill="#fff">
                <use xlink:href="#g"/>
            </mask>
            <path fill="#EC1D24" d="M3.775 134.263c48.388 5.62 86.606 30.013 114.51 61.083.084-.074.19-.151.265-.234 16.953-17.543 4.603-25.084-4.07-28.03-12.465-4.204-42.362-16.754-36.639-55.805 2.214-15.035 10.4-28.547 23.07-38.25C85.56 50.347 74.48 23.8 69.205-6.183 18.213 25.876-9.413 83.38 3.775 134.262" mask="url(#h)"/>
        </g>
        <g transform="translate(736.77 .068)">
            <mask id="j" fill="#fff">
                <use xlink:href="#i"/>
            </mask>
            <path fill="#EC1D24" d="M.066-29.963c.468 1.831.948 3.672 1.532 5.477 25.387 79.161 95.62 72.974 112.978 55.621C86.676.055 48.463-24.343.066-29.963" mask="url(#j)"/>
        </g>
        <path fill="#EC1D24" d="M388.2 298.542c.474 1.837.949 3.677 1.53 5.49 25.39 79.145 95.616 72.958 112.977 55.6-27.899-31.076-66.101-55.473-114.506-61.09"/>
        <g transform="translate(0 298.091)">
            <mask id="l" fill="#fff">
                <use xlink:href="#k"/>
            </mask>
            <path fill="#EC1D24" d="M-66.518.451c.474 1.837.948 3.677 1.522 5.49C-39.602 85.086 30.624 78.9 47.98 61.533 20.074 30.465-18.131 6.068-66.52.451" mask="url(#l)"/>
        </g>
        <path fill="#EC1D24" d="M810.177 160.124c-6.078-51.234-36.886-86.727-67.628-96.459-34.823-10.999-63.915-5.103-82.893 9.43 34.353 50.788 90.081 81.89 150.521 87.03"/>
        <g transform="translate(38.608 626.131)">
            <mask id="n" fill="#fff">
                <use xlink:href="#m"/>
            </mask>
            <path fill="#EC1D24" d="M.954.836c.473 1.84.951 3.673 1.532 5.487C27.878 85.48 98.098 79.3 115.472 61.938 87.564 30.858 49.353 6.456.954.836" mask="url(#n)"/>
        </g>
        <g transform="translate(493.325 626.131)">
            <mask id="p" fill="#fff">
                <use xlink:href="#o"/>
            </mask>
            <path fill="#EC1D24" d="M.962.836c.476 1.84.944 3.673 1.53 5.487C27.884 85.48 98.11 79.3 115.483 61.938 87.573 30.867 49.355 6.456.962.836" mask="url(#p)"/>
        </g>
        <g transform="translate(282.053 .068)">
            <mask id="r" fill="#fff">
                <use xlink:href="#q"/>
            </mask>
            <path fill="#EC1D24" d="M.058-29.963c.48 1.831.955 3.672 1.532 5.477 25.392 79.161 95.62 72.974 112.975 55.621C86.664.06 48.455-24.343.058-29.963" mask="url(#r)"/>
        </g>
        <g transform="translate(567.324 565.026)">
            <mask id="t" fill="#fff">
                <use xlink:href="#s"/>
            </mask>
            <path fill="#EC1D24" d="M175.44 116.976c.675-10.24.291-19.96-.824-29.237C114.185 82.607 58.457 51.517 24.101.733 11.434 10.432 3.247 23.94 1.033 38.974-4.691 78.02 25.201 90.58 37.659 94.784c8.688 2.93 21.024 10.473 4.085 28.015-.075.095-.176.169-.258.245 30.77 34.267 49.03 76.594 54.624 110.658 45.778-23.932 76.115-67.783 79.33-116.726" mask="url(#t)"/>
        </g>
        <g transform="translate(112.607 565.026)">
            <mask id="v" fill="#fff">
                <use xlink:href="#u"/>
            </mask>
            <path fill="#EC1D24" d="M175.432 116.976c.674-10.24.283-19.96-.816-29.237C114.176 82.607 58.448 51.517 24.085.727 11.425 10.432 3.23 23.939 1.025 38.974-4.699 78.02 25.19 90.58 37.644 94.784c8.694 2.93 21.037 10.473 4.086 28.015-.074.095-.176.169-.257.245 30.767 34.267 49.03 76.602 54.62 110.658 45.782-23.932 76.116-67.775 79.338-116.726" mask="url(#v)"/>
        </g>
        <g transform="translate(558.745 461.04)">
            <mask id="x" fill="#fff">
                <use xlink:href="#w"/>
            </mask>
            <path fill="#EC1D24" d="M111.404 7.198c-.587-1.805-1.059-3.644-1.535-5.484-4.19-.471-8.445-.882-12.796-1.076C60.349-1.019 27.515 8.812.966 25.497 6.24 55.485 17.328 82.035 32.681 104.72c18.973-14.545 48.073-20.444 82.89-9.447 30.755 9.724 61.554 45.215 67.625 96.451 1.401.13 2.765.366 4.154.447 34.217 2.232 65.447-5.002 91.669-18.708-5.6-34.053-23.864-76.38-54.644-110.65-17.367 17.342-87.585 23.55-112.971-55.615" mask="url(#x)"/>
        </g>
        <g transform="translate(841.87 298.091)">
            <mask id="z" fill="#fff">
                <use xlink:href="#y"/>
            </mask>
            <path fill="#EC1D24" d="M115.574 61.541C87.673 30.464 49.454 6.067 1.057.451c.48 1.837.947 3.678 1.53 5.49C27.98 85.087 98.2 78.899 115.574 61.542" mask="url(#z)"/>
        </g>
        <path fill="#EC1D24" d="M783.12 523.853c.081-.079.183-.17.257-.246 16.963-17.538 4.616-25.093-4.073-28.021-12.452-4.197-42.345-16.75-36.622-55.793 2.213-15.048 10.4-28.56 23.061-38.26-15.34-22.684-26.428-49.238-31.698-79.221-50.998 32.057-78.615 89.557-65.431 140.44 48.392 5.624 86.6 30.03 114.506 61.1"/>
        <g transform="translate(765.727 385.997)">
            <mask id="B" fill="#fff">
                <use xlink:href="#A"/>
            </mask>
            <path fill="#EC1D24" d="M82.904 6.11C48.09-4.902 18.981 1 .016 15.536c34.363 50.8 90.075 81.877 150.523 87.027-6.07-51.245-36.883-86.735-67.635-96.453" mask="url(#B)"/>
        </g>
        <g transform="translate(104.027 461.04)">
            <mask id="D" fill="#fff">
                <use xlink:href="#C"/>
            </mask>
            <path fill="#EC1D24" d="M111.388 7.198c-.585-1.805-1.051-3.644-1.529-5.484-4.201-.471-8.45-.882-12.798-1.076C60.333-1.019 27.508 8.812.973 25.497c5.266 29.98 16.348 56.53 31.692 79.216 18.97-14.538 48.08-20.437 82.892-9.44 30.757 9.724 61.564 45.215 67.638 96.451 1.384.13 2.764.366 4.156.447 34.2 2.232 65.438-5.002 91.654-18.708-5.591-34.053-23.86-76.38-54.634-110.65-17.372 17.342-87.59 23.55-112.983-55.615" mask="url(#D)"/>
        </g>
        <path fill="#EC1D24" d="M393.913 392.108c-34.823-11.013-63.923-5.11-82.896 9.425 34.362 50.8 90.082 81.877 150.52 87.027-6.076-51.245-36.873-86.734-67.624-96.452M564.044 139.808c-.572-1.822-1.045-3.647-1.526-5.478-4.198-.491-8.438-.893-12.795-1.082-36.72-1.65-69.546 8.168-96.077 24.845 5.261 29.992 16.342 56.538 31.682 79.223 18.975-14.544 48.086-20.445 82.894-9.431 30.75 9.73 61.568 45.22 67.646 96.456 1.378.118 2.759.36 4.155.45 34.196 2.215 65.43-5.02 91.647-18.73-5.589-34.055-23.868-76.373-54.64-110.648-17.367 17.36-87.58 23.543-112.986-55.605M485.327 237.317c-12.652 9.698-20.852 23.209-23.053 38.253-5.731 39.047 24.154 51.592 36.619 55.789 8.695 2.946 21.04 10.498 4.085 28.025-.075.09-.185.163-.27.249 30.782 34.266 49.046 76.61 54.63 110.657 45.788-23.94 76.121-67.78 79.344-116.73.668-10.23.277-19.962-.815-29.219-60.441-5.136-116.169-36.24-150.54-87.024"/>
        <g transform="translate(731.409 141.575)">
            <mask id="F" fill="#fff">
                <use xlink:href="#E"/>
            </mask>
            <path fill="#EC1D24" d="M82.932 18.99c-1.397-.093-2.77-.328-4.164-.44 1.092 9.27 1.484 18.98.809 29.22C76.373 96.714 46.032 140.554.261 164.484l.004.034c.562 5.537 1.44 10.896 2.373 16.218 26.536-16.684 59.367-26.502 96.094-24.844 4.346.193 8.587.59 12.786 1.075-13.188-50.877 14.43-108.38 65.43-140.45-.933-5.315-1.808-10.672-2.374-16.211l-.003-.018C148.365 13.98 117.137 21.21 82.931 18.99" mask="url(#F)"/>
        </g>
        <g transform="translate(809.697 .068)">
            <mask id="H" fill="#fff">
                <use xlink:href="#G"/>
            </mask>
            <path fill="#EC1D24" d="M24.267-91.19C11.615-81.472 3.42-67.963 1.213-52.926-4.51-13.89 25.374-1.331 37.832 2.874c8.692 2.927 21.032 10.471 4.084 28.02-.067.083-.175.16-.265.24 30.778 34.271 49.04 76.602 54.631 110.662 45.776-23.932 76.109-67.772 79.335-116.723.675-10.245.284-19.97-.811-29.242C114.365-9.301 58.633-40.388 24.266-91.19" mask="url(#H)"/>
        </g>
        <path fill="#EC1D24" d="M328.398 523.853c.082-.079.182-.158.262-.246 16.946-17.538 4.611-25.093-4.077-28.021-12.466-4.197-42.35-16.75-36.627-55.793 2.208-15.048 10.402-28.551 23.06-38.26-15.344-22.684-26.432-49.231-31.704-79.221-50.997 32.068-78.616 89.557-65.425 140.44 48.39 5.624 86.608 30.03 114.51 61.1"/>
        <g transform="translate(0 385.997)">
            <mask id="J" fill="#fff">
                <use xlink:href="#I"/>
            </mask>
            <path fill="#EC1D24" d="M-60.823 6.11C-95.636-4.902-124.738 1-143.708 15.536c34.355 50.8 90.082 81.889 150.52 87.027C.734 51.318-30.058 15.828-60.823 6.11" mask="url(#J)"/>
        </g>
        <path fill="#EC1D24" d="M30.609 237.31c-12.666 9.705-20.853 23.216-23.066 38.26-5.725 39.047 24.164 51.592 36.627 55.79 8.684 2.945 21.036 10.497 4.077 28.024-.074.09-.182.163-.266.24 30.784 34.274 49.055 76.6 54.645 110.667 45.774-23.941 76.107-67.781 79.316-116.73.673-10.232.283-19.964-.808-29.22-60.45-5.135-116.176-36.24-150.525-87.03M375.416 297.467c4.353.193 8.587.59 12.785 1.075-13.194-50.877 14.44-108.392 65.443-140.45-.94-5.315-1.815-10.673-2.379-16.21v-.04c-26.215 13.713-57.453 20.952-91.658 18.723-1.4-.094-2.76-.328-4.154-.441 1.105 9.27 1.487 18.981.807 29.22-3.215 48.946-33.55 92.785-79.322 116.723l.007.025c.56 5.537 1.433 10.896 2.368 16.219 26.547-16.68 59.38-26.502 96.103-24.844"/>
        <g transform="translate(0 132.999)">
            <mask id="L" fill="#fff">
                <use xlink:href="#K"/>
            </mask>
            <path fill="#EC1D24" d="M109.322 6.81c-.588-1.823-1.055-3.648-1.532-5.482C103.594.84 99.354.438 95.005.249 58.285-1.4 25.453 8.417-1.09 25.094c5.274 29.992 16.358 56.534 31.7 79.217 18.97-14.538 48.067-20.44 82.886-9.425 30.75 9.73 61.565 45.22 67.64 96.457 1.393.117 2.77.36 4.162.45 34.204 2.215 65.435-5.02 91.64-18.725-5.59-34.052-23.853-76.379-54.628-110.642-17.372 17.349-87.592 23.53-112.987-55.617" mask="url(#L)"/>
        </g>
        <g transform="translate(837.58 469.615)">
            <mask id="N" fill="#fff">
                <use xlink:href="#M"/>
            </mask>
            <path fill="#EC1D24" d="M82.849 19.392c-1.399-.098-2.77-.334-4.163-.447 1.093 9.256 1.49 18.978.816 29.22C76.287 97.11 45.957 140.958.182 164.887v.017-.017l1.187 8.135c-.406-2.688-.906-5.329-1.186-8.099.28 2.77.78 5.41 1.186 8.1l1.186 8.1c26.538-16.684 59.363-26.495 96.086-24.851 4.356.2 8.604.598 12.793 1.078-13.186-50.86 14.425-108.362 65.415-140.423-.925-5.343-1.774-10.72-2.368-16.251-26.205 13.697-57.433 20.928-91.632 18.716" mask="url(#N)"/>
        </g>
        <g transform="translate(382.863 469.615)">
            <mask id="P" fill="#fff">
                <use xlink:href="#O"/>
            </mask>
            <path fill="#EC1D24" d="M82.833 19.392c-1.392-.098-2.767-.334-4.162-.447 1.092 9.256 1.49 18.978.814 29.22C76.279 97.108 45.938 140.958.169 164.887v.017l.01.015-.01-.015 1.193 8.118c-.407-2.688-.907-5.329-1.183-8.099.276 2.77.776 5.41 1.183 8.1l1.175 8.1c26.555-16.684 59.381-26.495 96.1-24.851 4.35.2 8.593.598 12.785 1.078-13.188-50.86 14.422-108.362 65.415-140.423-.924-5.343-1.774-10.72-2.37-16.251-26.204 13.697-57.422 20.928-91.634 18.716" mask="url(#P)"/>
        </g>
        <g transform="translate(0 469.615)">
            <mask id="R" fill="#fff">
                <use xlink:href="#Q"/>
            </mask>
            <path fill="#EC1D24" d="M10.967 19.392c-1.395-.098-2.762-.334-4.154-.447 1.101 9.256 1.485 18.978.818 29.22-3.216 48.946-33.563 92.793-79.338 116.722v.017l.017.015-.017-.015.741 4.997c-.22-1.66-.556-3.274-.724-4.978.168 1.704.504 3.317.724 4.978l1.64 11.238c26.55-16.7 59.383-26.511 96.103-24.867 4.355.2 8.594.598 12.785 1.078C26.379 106.49 53.99 48.995 104.983 16.927c-.924-5.343-1.772-10.72-2.374-16.247C76.39 14.373 45.168 21.604 10.967 19.392" mask="url(#R)"/>
        </g>
    </g>
</svg>
