<svg xmlns="http://www.w3.org/2000/svg" width="100" height="100" viewBox="0 0 100 100">
    <g fill="none" fill-rule="nonzero" transform="translate(19 5)">
        <ellipse cx="31" cy="84.375" fill="#EAEAEA" rx="28.182" ry="5.625"/>
        <path fill="#ED3124" d="M31 0C13.882 0 0 13.852 0 30.938c0 17.085 19.727 39.374 31 53.437 11.273-14.063 31-36.352 31-53.438C62 13.852 48.123 0 31 0zm0 42.188c-6.225 0-11.273-5.038-11.273-11.25 0-6.213 5.048-11.25 11.273-11.25s11.273 5.037 11.273 11.25c0 6.212-5.048 11.25-11.273 11.25z"/>
        <path fill="#FFF" d="M31 42.157c-6.225 0-11.273-5.038-11.273-11.25h-5.636c0 9.317 7.572 16.875 16.909 16.875s16.91-7.558 16.91-16.875h-5.637c0 6.212-5.048 11.25-11.273 11.25z" opacity=".15"/>
        <path fill="#000" d="M31 19.657c6.225 0 11.273 5.037 11.273 11.25h5.636c0-9.318-7.572-16.875-16.909-16.875s-16.91 7.557-16.91 16.875h5.637c0-6.213 5.048-11.25 11.273-11.25z" opacity=".15"/>
    </g>
</svg>
