<svg xmlns="http://www.w3.org/2000/svg" xmlns:xlink="http://www.w3.org/1999/xlink" width="56" height="56" viewBox="0 0 56 56">
    <defs>
        <path id="a" d="M.036 16.183h15.24V.073H.036z"/>
        <path id="c" d="M19.615.15v19.116H.135V.15h19.48z"/>
        <path id="e" d="M3.647.173v5.698H.11V.173h3.537z"/>
    </defs>
    <g fill="none" fill-rule="evenodd" transform="translate(4 4)">
        <rect width="46.667" height="46.667" x=".667" y=".667" fill="#F4F5F7" rx="9.917"/>
        <path fill="#EC1D24" d="M16.636 11.132c-.162-.518-.726-.94-1.262-.94H6.053c-.535 0-.837.422-.677.94l5.047 16.443c.161.519.726.94 1.261.94H19.337c.536 0 1.138-.421 1.346-.94l.565-1.414-4.612-15.029z"/>
        <path fill="#9D0B0F" d="M27.441 14.908h-9.177l-.02-.13c-.609 0-.875.393-1.063.912l-4.295 11.883a.012.012 0 0 0-.002.006c-.192.516-.776.934-1.308.934h10.887c.536 0 1.123-.422 1.312-.94l4.294-11.883c.189-.519-.092-.782-.628-.782"/>
        <g transform="translate(17.447 14.681)">
            <mask id="b" fill="#fff">
                <use xlink:href="#a"/>
            </mask>
            <path fill="#FFCA05" d="M11.338 1.012c-.161-.52-.725-.94-1.261-.94H.756c-.535 0-.838.42-.677.94l4.373 14.231c.161.52.725.94 1.261.94H13.366c.535 0 1.137-.42 1.345-.94l.565-1.414-3.938-12.817z" mask="url(#b)"/>
        </g>
        <g transform="translate(23.007 11.599)">
            <mask id="d" fill="#fff">
                <use xlink:href="#c"/>
            </mask>
            <path fill="#F4811F" d="M18.952.15H9.061c-.535 0-1.137.42-1.346.94L1.48 18.325l-.004.012c-.212.514-.808.929-1.34.929h11.828c.535 0 1.138-.42 1.345-.94L19.545 1.09c.208-.52-.058-.94-.593-.94" mask="url(#d)"/>
        </g>
        <g>
            <path fill="#E42F34" d="M11.287 34.396h-.185c-1.052 0-1.903.798-1.903 1.787v2.543h1.37v-2.48c0-.375.32-.673.718-.673h.803v-1.177H11.287zm6.9 1.696c.014-.401.408-.726.898-.726.496 0 .895.32.902.726h-1.8zm3.13.599c-.01-1.341-.787-2.396-2.232-2.396-1.24 0-2.24.94-2.24 2.233 0 1.398.908 2.223 2.251 2.248.87 0 1.632-.46 2.021-1.131l-1.254-.309c-.152.215-.443.365-.778.365-.49 0-.884-.33-.897-.73h3.128c.002-.062 0-.214 0-.28zm-6.1.287c0 .368-.32.672-.72.672-.395 0-.711-.304-.711-.672v-1.962c0-.341-.294-.62-.663-.62h-.715v2.416c0 1.085.627 1.964 2.09 1.964 1.466 0 2.092-.879 2.092-1.964v-2.416h-1.373v2.582zM7.35 33.333H5.98v1.063h-.647v1.177h.647v1.38c0 1.083.933 1.773 2.087 1.773h.81v-1.127h-.813c-.395 0-.714-.301-.714-.67v-1.356l.898-.002c.35-.014.629-.281.629-.618v-.557H7.35v-1.063z"/>
            <path fill="#F4811F" d="M29.902 34.508c-.526 0-.99.231-1.322.602a2.167 2.167 0 0 0-.547 1.463c0 .56.209 1.082.547 1.453.332.37.796.602 1.322.602.512 0 .98-.231 1.315-.602.34-.371.545-.893.545-1.453 0-.57-.204-1.087-.545-1.463a1.776 1.776 0 0 0-1.315-.602m.711 2.898a.898.898 0 0 1-.71.345.9.9 0 0 1-.718-.345 1.31 1.31 0 0 1-.27-.833c0-.331.095-.631.27-.84a.9.9 0 0 1 1.428 0c.17.209.269.509.269.84 0 .326-.098.617-.269.833M33.93 34.508c-.413 0-.819.212-1.067.537v-.006c0-.132-.049-.26-.13-.352a.41.41 0 0 0-.628.005.543.543 0 0 0-.126.347v3.078c0 .133.05.256.131.337a.435.435 0 0 0 .315.142.42.42 0 0 0 .307-.142.479.479 0 0 0 .131-.337v-1.734c0-.265.08-.52.223-.698a.78.78 0 0 1 .635-.303c.27 0 .466.109.597.281.14.176.21.43.21.71v1.744c0 .133.047.256.133.337.08.085.19.142.315.142.12 0 .232-.057.308-.142a.491.491 0 0 0 .127-.337v-1.772c0-.516-.13-.979-.385-1.308a1.314 1.314 0 0 0-1.095-.53M39.033 37.398h-.008a.36.36 0 0 0-.293-.164.306.306 0 0 0-.234.1c-.268.285-.598.461-.983.461a.963.963 0 0 1-.678-.277 1.042 1.042 0 0 1-.289-.628h2.37a.34.34 0 0 0 .237-.09.34.34 0 0 0 .106-.248c0-.578-.194-1.086-.508-1.458a1.676 1.676 0 0 0-1.284-.586c-.517 0-.975.232-1.31.602a2.2 2.2 0 0 0-.532 1.463c0 .564.209 1.082.545 1.453.337.37.805.602 1.322.602.566 0 1.138-.263 1.487-.668v-.009a.508.508 0 0 0 .12-.317.498.498 0 0 0-.068-.236m-1.564-2.056a.872.872 0 0 1 .614.256c.145.144.243.344.287.571h-1.802c.047-.24.143-.436.285-.58a.864.864 0 0 1 .616-.247"/>
            <g transform="translate(38.813 34.37)">
                <mask id="f" fill="#fff">
                    <use xlink:href="#e"/>
                </mask>
                <path fill="#F4811F" d="M3.647.617a.436.436 0 0 0-.26-.413h-.004a.281.281 0 0 0-.128-.031c-.162 0-.306.1-.37.267l-.908 2.258-.92-2.263A.395.395 0 0 0 .53.205H.53a.462.462 0 0 0-.247.42c0 .025.006.05.017.08.03.114.117.35.23.64.323.838.874 2.146.987 2.427-.24.557-.63 1.015-1.162 1.28a.485.485 0 0 0-.173.15.413.413 0 0 0-.07.237c0 .114.037.216.107.296a.351.351 0 0 0 .265.136c.052 0 .106-.025.146-.043.816-.344 1.385-1.066 1.719-1.9L3.612.799a.391.391 0 0 0 .035-.18" mask="url(#f)"/>
            </g>
            <path fill="#F4811F" d="M26.455 34.506c-.496 0-.95.27-1.192.685a1.356 1.356 0 0 0-.391-.472 1.163 1.163 0 0 0-.693-.213c-.39 0-.674.213-.898.525a.507.507 0 0 0-.12-.341.391.391 0 0 0-.305-.151.465.465 0 0 0-.34.15.564.564 0 0 0-.117.35v3.066c0 .132.046.254.118.343a.425.425 0 0 0 .644 0 .504.504 0 0 0 .123-.343v-1.721c0-.27.008-.522.13-.701a.668.668 0 0 1 .573-.295c.252.003.42.103.534.277.113.168.148.421.148.708v1.732c0 .262.181.49.418.49a.444.444 0 0 0 .325-.147.57.57 0 0 0 .129-.343v-1.763c0-.256.052-.5.18-.67a.663.663 0 0 1 .563-.284c.256.003.417.103.534.277.112.168.116.421.116.708v1.732c0 .132.042.254.12.343.07.092.194.148.315.148a.447.447 0 0 0 .327-.148.512.512 0 0 0 .12-.343v-1.782c0-.527-.095-.972-.324-1.296-.22-.337-.57-.524-1.037-.521"/>
        </g>
    </g>
</svg>
